# Wavefront OBJ file automatically generated by Tiled2Unity

# Vertices (Count = 119)
v -32.5 -7.5 0
v -35 -7.5 0
v -35 -5 0
v -32.5 -5 0
v -32.5 -10 0
v -35 -10 0
v -32.5 -12.5 0
v -35 -12.5 0
v -42.5 -15 0
v -45 -15 0
v -45 -12.5 0
v -42.5 -12.5 0
v -47.5 -15 0
v -47.5 -12.5 0
v -40 -22.5 0
v -42.5 -22.5 0
v -42.5 -20 0
v -40 -20 0
v -27.5 -32.5 0
v -30 -32.5 0
v -30 -30 0
v -27.5 -30 0
v -25 -40 0
v -27.5 -40 0
v -27.5 -37.5 0
v -25 -37.5 0
v -25 -42.5 0
v -27.5 -42.5 0
v -25 -45 0
v -27.5 -45 0
v -25 -47.5 0
v -27.5 -47.5 0
v -25 -50 0
v -27.5 -50 0
v -25 -52.5 0
v -27.5 -52.5 0
v -25 -55 0
v -27.5 -55 0
v -22.5 -57.5 0
v -25 -57.5 0
v -22.5 -55 0
v -20 -60 0
v -22.5 -60 0
v -20 -57.5 0
v -20 -62.5 0
v -22.5 -62.5 0
v -10 -65 0
v -12.5 -65 0
v -12.5 -62.5 0
v -10 -62.5 0
v -15 -65 0
v -15 -62.5 0
v -17.5 -65 0
v -17.5 -62.5 0
v -20 -65 0
v -7.5 -67.5 0
v -10 -67.5 0
v -7.5 -65 0
v -7.5 -70 0
v -10 -70 0
v -7.5 -72.5 0
v -10 -72.5 0
v -7.5 -75 0
v -10 -75 0
v -7.5 -77.5 0
v -10 -77.5 0
v -7.5 -80 0
v -10 -80 0
v -7.5 -82.5 0
v -10 -82.5 0
v -32.5 -15 0
v -35 -15 0
v -47.5 -17.5 0
v -50 -17.5 0
v -50 -15 0
v -37.5 -15 0
v -37.5 -12.5 0
v -32.5 -22.5 0
v -35 -22.5 0
v -35 -20 0
v -32.5 -20 0
v -45 -22.5 0
v -45 -20 0
v -40 -15 0
v -40 -12.5 0
v -37.5 -22.5 0
v -37.5 -20 0
v -25 -32.5 0
v -25 -30 0
v -50 -12.5 0
v -52.5 -17.5 0
v -52.5 -15 0
v -47.5 -20 0
v -50 -20 0
v -30 -22.5 0
v -30 -20 0
v -20 -55 0
v -7.5 -62.5 0
v -52.5 -20 0
v -32.5 -32.5 0
v -32.5 -30 0
v -27.5 -57.5 0
v -22.5 -65 0
v -47.5 -22.5 0
v -50 -22.5 0
v -30 -25 0
v -32.5 -25 0
v -32.5 -27.5 0
v -30 -27.5 0
v -27.5 -35 0
v -25 -35 0
v -5 -87.5 0
v -12.68 -87.5 0
v -12.68 -79.82 0
v -5 -79.82 0
v 0 -2.5 0
v -2.5 -2.5 0
v -2.5 0 0
v 0 0 0

# Texture cooridinates (Count = 8)
vt 0.0001220703 0.0001220703
vt 0.9998779 0.0001220703
vt 0.9998779 0.9998779
vt 0.0001220703 0.9998779
vt 0.0001219116 0.0001220703
vt 0.9985777 0.0001220703
vt 0.9985777 0.9998779
vt 0.0001219116 0.9998779

# Normal
vn 0 0 -1

# Groups (Count = 2)

g mesh_0001
f 1/1/1 2/2/1 3/3/1 4/4/1

g mesh_0002
f 5/1/1 6/2/1 2/3/1 1/4/1
f 7/1/1 8/2/1 6/3/1 5/4/1
f 9/1/1 10/2/1 11/3/1 12/4/1
f 10/1/1 13/2/1 14/3/1 11/4/1
f 15/1/1 16/2/1 17/3/1 18/4/1
f 19/1/1 20/2/1 21/3/1 22/4/1
f 23/1/1 24/2/1 25/3/1 26/4/1
f 27/1/1 28/2/1 24/3/1 23/4/1
f 29/1/1 30/2/1 28/3/1 27/4/1
f 31/1/1 32/2/1 30/3/1 29/4/1
f 33/1/1 34/2/1 32/3/1 31/4/1
f 35/1/1 36/2/1 34/3/1 33/4/1
f 37/1/1 38/2/1 36/3/1 35/4/1
f 39/1/1 40/2/1 37/3/1 41/4/1
f 42/1/1 43/2/1 39/3/1 44/4/1
f 45/1/1 46/2/1 43/3/1 42/4/1
f 47/1/1 48/2/1 49/3/1 50/4/1
f 48/1/1 51/2/1 52/3/1 49/4/1
f 51/1/1 53/2/1 54/3/1 52/4/1
f 53/1/1 55/2/1 45/3/1 54/4/1
f 56/1/1 57/2/1 47/3/1 58/4/1
f 59/1/1 60/2/1 57/3/1 56/4/1
f 61/1/1 62/2/1 60/3/1 59/4/1
f 63/1/1 64/2/1 62/3/1 61/4/1
f 65/1/1 66/2/1 64/3/1 63/4/1
f 67/1/1 68/2/1 66/3/1 65/4/1
f 69/1/1 70/2/1 68/3/1 67/4/1

g mesh_0003
f 71/1/1 72/2/1 8/3/1 7/4/1
f 73/1/1 74/2/1 75/3/1 13/4/1

g mesh_0004
f 72/1/1 76/2/1 77/3/1 8/4/1
f 78/1/1 79/2/1 80/3/1 81/4/1
f 16/1/1 82/2/1 83/3/1 17/4/1

g mesh_0005
f 84/1/1 9/2/1 12/3/1 85/4/1
f 86/1/1 15/2/1 18/3/1 87/4/1
f 88/1/1 19/2/1 22/3/1 89/4/1

g mesh_0006
f 13/1/1 75/2/1 90/3/1 14/4/1
f 74/1/1 91/2/1 92/3/1 75/4/1

g mesh_0007
f 93/1/1 94/2/1 74/3/1 73/4/1
f 95/1/1 78/2/1 81/3/1 96/4/1
f 44/1/1 39/2/1 41/3/1 97/4/1
f 58/1/1 47/2/1 50/3/1 98/4/1

g mesh_0008
f 94/1/1 99/2/1 91/3/1 74/4/1
f 20/1/1 100/2/1 101/3/1 21/4/1
f 40/1/1 102/2/1 38/3/1 37/4/1
f 55/1/1 103/2/1 46/3/1 45/4/1

g mesh_0009
f 104/1/1 105/2/1 94/3/1 93/4/1
f 106/1/1 107/2/1 78/3/1 95/4/1

g mesh_0010
f 21/1/1 101/2/1 108/3/1 109/4/1
f 26/1/1 25/2/1 110/3/1 111/4/1

g mesh_0011
f 112/5/1 113/6/1 114/7/1 115/8/1

g mesh_tile_0002
f 116/1/1 117/2/1 118/3/1 119/4/1

