# Wavefront OBJ file automatically generated by Tiled2Unity

# Vertices (Count = 106)
v -6000 -2000 0
v -6250 -2000 0
v -6250 -1750 0
v -6000 -1750 0
v -6000 -2250 0
v -6250 -2250 0
v -5750 -2500 0
v -6000 -2500 0
v -5750 -2250 0
v -5500 -2750 0
v -5750 -2750 0
v -5500 -2500 0
v -5750 -3000 0
v -6000 -3000 0
v -6000 -2750 0
v -6250 -3250 0
v -6500 -3250 0
v -6500 -3000 0
v -6250 -3000 0
v -6500 -3500 0
v -6750 -3500 0
v -6750 -3250 0
v -7250 -4000 0
v -7500 -4000 0
v -7500 -3750 0
v -7250 -3750 0
v -7500 -4500 0
v -7750 -4500 0
v -7750 -4250 0
v -7500 -4250 0
v -7000 -5000 0
v -7250 -5000 0
v -7250 -4750 0
v -7000 -4750 0
v -7000 -5500 0
v -7250 -5500 0
v -7250 -5250 0
v -7000 -5250 0
v -6750 -5750 0
v -7000 -5750 0
v -6750 -5500 0
v -6250 -6000 0
v -6500 -6000 0
v -6500 -5750 0
v -6250 -5750 0
v -6000 -6250 0
v -6250 -6250 0
v -6000 -6000 0
v -7000 -7500 0
v -7250 -7500 0
v -7250 -7250 0
v -7000 -7250 0
v -6750 -8000 0
v -7000 -8000 0
v -7000 -7750 0
v -6750 -7750 0
v -6500 -8500 0
v -6750 -8500 0
v -6750 -8250 0
v -6500 -8250 0
v -6750 -8750 0
v -7000 -8750 0
v -7000 -8500 0
v -7000 -9000 0
v -7250 -9000 0
v -7250 -8750 0
v -6750 -9500 0
v -7000 -9500 0
v -7000 -9250 0
v -6750 -9250 0
v -7000 -10000 0
v -7250 -10000 0
v -7250 -9750 0
v -7000 -9750 0
v -6250 -10250 0
v -6500 -10250 0
v -6500 -10000 0
v -6250 -10000 0
v -6750 -10250 0
v -6750 -10000 0
v -7000 -10250 0
v -6250 -10500 0
v -6500 -10500 0
v -6500 -10750 0
v -6750 -10750 0
v -6750 -10500 0
v -6500 -11000 0
v -6750 -11000 0
v -6500 -11250 0
v -6750 -11250 0
v -6500 -11500 0
v -6750 -11500 0
v -6500 -11750 0
v -6750 -11750 0
v -6500 -12000 0
v -6750 -12000 0
v -7250 -7000 0
v -7000 -7000 0
v -6250 -12500 0
v -7000 -12500 0
v -7000 -11750 0
v -6250 -11750 0
v 0 -250 0
v -250 -250 0
v -250 0 0
v 0 0 0

# Texture cooridinates (Count = 8)
vt 0.0001220703 0.0001220703
vt 0.9998779 0.0001220703
vt 0.9998779 0.9998779
vt 0.0001220703 0.9998779
vt 0.0001219078 0.0001220703
vt 0.9985465 0.0001220703
vt 0.9985465 0.9998779
vt 0.0001219078 0.9998779

# Normal
vn 0 0 -1

# Groups (Count = 4)

g mesh_0001
f 1/1/1 2/2/1 3/3/1 4/4/1

g mesh_0002
f 5/1/1 6/2/1 2/3/1 1/4/1
f 7/1/1 8/2/1 5/3/1 9/4/1
f 10/1/1 11/2/1 7/3/1 12/4/1
f 13/1/1 14/2/1 15/3/1 11/4/1
f 16/1/1 17/2/1 18/3/1 19/4/1
f 20/1/1 21/2/1 22/3/1 17/4/1
f 23/1/1 24/2/1 25/3/1 26/4/1
f 27/1/1 28/2/1 29/3/1 30/4/1
f 31/1/1 32/2/1 33/3/1 34/4/1
f 35/1/1 36/2/1 37/3/1 38/4/1
f 39/1/1 40/2/1 35/3/1 41/4/1
f 42/1/1 43/2/1 44/3/1 45/4/1
f 46/1/1 47/2/1 42/3/1 48/4/1
f 49/1/1 50/2/1 51/3/1 52/4/1
f 53/1/1 54/2/1 55/3/1 56/4/1
f 57/1/1 58/2/1 59/3/1 60/4/1
f 61/1/1 62/2/1 63/3/1 58/4/1
f 64/1/1 65/2/1 66/3/1 62/4/1
f 67/1/1 68/2/1 69/3/1 70/4/1
f 71/1/1 72/2/1 73/3/1 74/4/1
f 75/1/1 76/2/1 77/3/1 78/4/1
f 76/1/1 79/2/1 80/3/1 77/4/1
f 79/1/1 81/2/1 71/3/1 80/4/1
f 82/1/1 83/2/1 76/3/1 75/4/1
f 84/1/1 85/2/1 86/3/1 83/4/1
f 87/1/1 88/2/1 85/3/1 84/4/1
f 89/1/1 90/2/1 88/3/1 87/4/1
f 91/1/1 92/2/1 90/3/1 89/4/1
f 93/1/1 94/2/1 92/3/1 91/4/1
f 95/1/1 96/2/1 94/3/1 93/4/1

g mesh_0003
f 52/1/1 51/2/1 97/3/1 98/4/1

g mesh_0004
f 99/5/1 100/6/1 101/7/1 102/8/1

g mesh_tile_0012
f 103/1/1 104/2/1 105/3/1 106/4/1

g mesh_tile_0014
f 103/1/1 104/2/1 105/3/1 106/4/1

g mesh_tile_0016
f 103/1/1 104/2/1 105/3/1 106/4/1

