# Wavefront OBJ file automatically generated by Tiled2Unity

# Vertices (Count = 155)
v -5750 -1750 0
v -6000 -1750 0
v -6000 -1500 0
v -5750 -1500 0
v -5750 -2000 0
v -6000 -2000 0
v -5750 -2250 0
v -6000 -2250 0
v -5250 -3000 0
v -5500 -3000 0
v -5500 -2750 0
v -5250 -2750 0
v -5000 -3250 0
v -5250 -3250 0
v -5000 -3000 0
v -5000 -3500 0
v -5250 -3500 0
v -5000 -3750 0
v -5250 -3750 0
v -4750 -4000 0
v -5000 -4000 0
v -4750 -3750 0
v -5750 -5000 0
v -6000 -5000 0
v -6000 -4750 0
v -5750 -4750 0
v -5750 -5750 0
v -6000 -5750 0
v -6000 -5500 0
v -5750 -5500 0
v -5500 -6000 0
v -5750 -6000 0
v -5500 -5750 0
v -5750 -6250 0
v -6000 -6250 0
v -6000 -6000 0
v -6000 -6750 0
v -6250 -6750 0
v -6250 -6500 0
v -6000 -6500 0
v -5750 -7000 0
v -6000 -7000 0
v -5750 -6750 0
v -5750 -7250 0
v -6000 -7250 0
v -5500 -7750 0
v -5750 -7750 0
v -5750 -7500 0
v -5500 -7500 0
v -5250 -8000 0
v -5500 -8000 0
v -5250 -7750 0
v -5000 -8250 0
v -5250 -8250 0
v -5000 -8000 0
v -5250 -8750 0
v -5500 -8750 0
v -5500 -8500 0
v -5250 -8500 0
v -5250 -9000 0
v -5500 -9000 0
v -5500 -9250 0
v -5750 -9250 0
v -5750 -9000 0
v -6000 -9250 0
v -6000 -9000 0
v -6250 -9500 0
v -6500 -9500 0
v -6500 -9250 0
v -6250 -9250 0
v -6750 -9500 0
v -6750 -9250 0
v -6750 -9750 0
v -7000 -9750 0
v -7000 -9500 0
v -6500 -10250 0
v -6750 -10250 0
v -6750 -10000 0
v -6500 -10000 0
v -6750 -10500 0
v -7000 -10500 0
v -7000 -10250 0
v -7000 -10750 0
v -7250 -10750 0
v -7250 -10500 0
v -7000 -11000 0
v -7250 -11000 0
v -7000 -11250 0
v -7250 -11250 0
v -7000 -11500 0
v -7250 -11500 0
v -7000 -11750 0
v -7250 -11750 0
v -7000 -12000 0
v -7250 -12000 0
v -5500 -2500 0
v -5750 -2500 0
v -5500 -2250 0
v -5250 -2500 0
v -4750 -3250 0
v -4750 -3000 0
v -4750 -3500 0
v -5500 -5500 0
v -5750 -6500 0
v -5500 -7250 0
v -5000 -7750 0
v -6500 -9750 0
v -6000 -2500 0
v -5750 -2750 0
v -5500 -3250 0
v -5500 -3750 0
v -5500 -3500 0
v -6250 -5750 0
v -6250 -5500 0
v -5500 -6250 0
v -6500 -6750 0
v -6500 -6500 0
v -6000 -7500 0
v -5750 -8000 0
v -7000 -10000 0
v -5500 -5000 0
v -5500 -4750 0
v -6250 -6250 0
v -5000 -8500 0
v -5250 -9250 0
v -6000 -9500 0
v -6500 -10500 0
v -6250 -6000 0
v -6500 -6250 0
v -5500 -8250 0
v -6250 -9000 0
v -7000 -9250 0
v -7250 -10250 0
v -4750 -4250 0
v -5000 -4250 0
v -5250 -4250 0
v -5500 -4250 0
v -5500 -4000 0
v -5250 -4000 0
v -5750 -4250 0
v -5750 -4000 0
v -6250 -5000 0
v -6250 -4750 0
v -5750 -4500 0
v -5500 -4500 0
v -6250 -5250 0
v -6000 -5250 0
v -6750 -12500 0
v -7500 -12500 0
v -7500 -11750 0
v -6750 -11750 0
v 0 -250 0
v -250 -250 0
v -250 0 0
v 0 0 0

# Texture cooridinates (Count = 4)
vt 0.0001220703 0.0001220703
vt 0.9998779 0.0001220703
vt 0.9998779 0.9998779
vt 0.0001220703 0.9998779

# Normal
vn 0 0 -1

# Groups (Count = 2)

g mesh_0001
f 1/1/1 2/2/1 3/3/1 4/4/1

g mesh_0002
f 5/1/1 6/2/1 2/3/1 1/4/1
f 7/1/1 8/2/1 6/3/1 5/4/1
f 9/1/1 10/2/1 11/3/1 12/4/1
f 13/1/1 14/2/1 9/3/1 15/4/1
f 16/1/1 17/2/1 14/3/1 13/4/1
f 18/1/1 19/2/1 17/3/1 16/4/1
f 20/1/1 21/2/1 18/3/1 22/4/1
f 23/1/1 24/2/1 25/3/1 26/4/1
f 27/1/1 28/2/1 29/3/1 30/4/1
f 31/1/1 32/2/1 27/3/1 33/4/1
f 34/1/1 35/2/1 36/3/1 32/4/1
f 37/1/1 38/2/1 39/3/1 40/4/1
f 41/1/1 42/2/1 37/3/1 43/4/1
f 44/1/1 45/2/1 42/3/1 41/4/1
f 46/1/1 47/2/1 48/3/1 49/4/1
f 50/1/1 51/2/1 46/3/1 52/4/1
f 53/1/1 54/2/1 50/3/1 55/4/1
f 56/1/1 57/2/1 58/3/1 59/4/1
f 60/1/1 61/2/1 57/3/1 56/4/1
f 62/1/1 63/2/1 64/3/1 61/4/1
f 63/1/1 65/2/1 66/3/1 64/4/1
f 67/1/1 68/2/1 69/3/1 70/4/1
f 68/1/1 71/2/1 72/3/1 69/4/1
f 73/1/1 74/2/1 75/3/1 71/4/1
f 76/1/1 77/2/1 78/3/1 79/4/1
f 80/1/1 81/2/1 82/3/1 77/4/1
f 83/1/1 84/2/1 85/3/1 81/4/1
f 86/1/1 87/2/1 84/3/1 83/4/1
f 88/1/1 89/2/1 87/3/1 86/4/1
f 90/1/1 91/2/1 89/3/1 88/4/1
f 92/1/1 93/2/1 91/3/1 90/4/1
f 94/1/1 95/2/1 93/3/1 92/4/1

g mesh_0003
f 96/1/1 97/2/1 7/3/1 98/4/1
f 12/1/1 11/2/1 96/3/1 99/4/1
f 100/1/1 13/2/1 15/3/1 101/4/1
f 22/1/1 18/2/1 16/3/1 102/4/1
f 33/1/1 27/2/1 30/3/1 103/4/1
f 43/1/1 37/2/1 40/3/1 104/4/1
f 49/1/1 48/2/1 44/3/1 105/4/1
f 55/1/1 50/2/1 52/3/1 106/4/1
f 79/1/1 78/2/1 73/3/1 107/4/1

g mesh_0004
f 97/1/1 108/2/1 8/3/1 7/4/1
f 11/1/1 109/2/1 97/3/1 96/4/1
f 14/1/1 110/2/1 10/3/1 9/4/1
f 19/1/1 111/2/1 112/3/1 17/4/1
f 28/1/1 113/2/1 114/3/1 29/4/1
f 115/2/1 34/3/1 32/4/1 31/1/1
f 38/1/1 116/2/1 117/3/1 39/4/1
f 48/1/1 118/2/1 45/3/1 44/4/1
f 51/1/1 119/2/1 47/3/1 46/4/1
f 78/1/1 120/2/1 74/3/1 73/4/1

g mesh_0005
f 102/1/1 16/2/1 13/3/1 100/4/1
f 121/1/1 23/2/1 26/3/1 122/4/1
f 40/1/1 39/2/1 123/3/1 35/4/1
f 124/1/1 59/2/1 54/3/1 53/4/1
f 125/1/1 62/2/1 61/3/1 60/4/1
f 126/1/1 67/2/1 70/3/1 65/4/1
f 127/1/1 80/2/1 77/3/1 76/4/1

g mesh_0006
f 17/1/1 112/2/1 110/3/1 14/4/1
f 35/1/1 123/2/1 128/3/1 36/4/1
f 39/1/1 117/2/1 129/3/1 123/4/1
f 59/1/1 58/2/1 130/3/1 54/4/1
f 65/1/1 70/2/1 131/3/1 66/4/1
f 71/1/1 75/2/1 132/3/1 72/4/1
f 81/1/1 85/2/1 133/3/1 82/4/1

g mesh_0007
f 134/1/1 135/2/1 21/3/1 20/4/1

g mesh_0008
f 136/1/1 137/2/1 138/3/1 139/4/1

g mesh_0009
f 137/1/1 140/2/1 141/3/1 138/4/1
f 24/1/1 142/2/1 143/3/1 25/4/1

g mesh_0010
f 122/1/1 26/2/1 144/3/1 145/4/1
f 29/1/1 114/2/1 146/3/1 147/4/1

g mesh_0011
f 148/1/1 149/2/1 150/3/1 151/4/1

g mesh_tile_0003
f 152/1/1 153/2/1 154/3/1 155/4/1

