# Wavefront OBJ file automatically generated by Tiled2Unity

# Vertices (Count = 168)
v -30 -50 0
v -32.5 -50 0
v -32.5 -47.5 0
v -30 -47.5 0
v -30 -52.5 0
v -32.5 -52.5 0
v -5 -90 0
v -7.5 -90 0
v -7.5 -87.5 0
v -5 -87.5 0
v -5 -100 0
v -7.5 -100 0
v -7.5 -97.5 0
v -5 -97.5 0
v -57.5 -102.5 0
v -60 -102.5 0
v -60 -100 0
v -57.5 -100 0
v -90 -107.5 0
v -92.5 -107.5 0
v -92.5 -105 0
v -90 -105 0
v -90 -110 0
v -92.5 -110 0
v -90 -112.5 0
v -92.5 -112.5 0
v -90 -115 0
v -92.5 -115 0
v -90 -117.5 0
v -92.5 -117.5 0
v -90 -120 0
v -92.5 -120 0
v -17.5 -55 0
v -20 -55 0
v -20 -52.5 0
v -17.5 -52.5 0
v -22.5 -55 0
v -22.5 -52.5 0
v -30 -55 0
v -32.5 -55 0
v -17.5 -80 0
v -20 -80 0
v -20 -77.5 0
v -17.5 -77.5 0
v -7.5 -82.5 0
v -10 -82.5 0
v -10 -80 0
v -7.5 -80 0
v -12.5 -82.5 0
v -12.5 -80 0
v -15 -82.5 0
v -17.5 -82.5 0
v -15 -80 0
v -10 -87.5 0
v -10 -85 0
v -7.5 -85 0
v -2.5 -92.5 0
v -5 -92.5 0
v -2.5 -90 0
v -2.5 -97.5 0
v -5 -95 0
v -2.5 -95 0
v -10 -100 0
v -12.5 -100 0
v -12.5 -97.5 0
v -10 -97.5 0
v -15 -100 0
v -17.5 -100 0
v -17.5 -97.5 0
v -15 -97.5 0
v -20 -100 0
v -22.5 -100 0
v -22.5 -97.5 0
v -20 -97.5 0
v -45 -100 0
v -47.5 -100 0
v -47.5 -97.5 0
v -45 -97.5 0
v -50 -100 0
v -52.5 -100 0
v -52.5 -97.5 0
v -50 -97.5 0
v -55 -100 0
v -57.5 -97.5 0
v -55 -97.5 0
v -57.5 -105 0
v -60 -105 0
v -62.5 -105 0
v -65 -105 0
v -65 -102.5 0
v -62.5 -102.5 0
v -67.5 -105 0
v -67.5 -102.5 0
v -80 -105 0
v -82.5 -105 0
v -82.5 -102.5 0
v -80 -102.5 0
v -85 -105 0
v -85 -102.5 0
v -87.5 -105 0
v -90 -102.5 0
v -87.5 -102.5 0
v -25 -55 0
v -27.5 -55 0
v -27.5 -52.5 0
v -25 -52.5 0
v -17.5 -60 0
v -20 -60 0
v -20 -57.5 0
v -17.5 -57.5 0
v -17.5 -65 0
v -20 -65 0
v -20 -62.5 0
v -17.5 -62.5 0
v -17.5 -70 0
v -20 -70 0
v -20 -67.5 0
v -17.5 -67.5 0
v -17.5 -75 0
v -20 -75 0
v -20 -72.5 0
v -17.5 -72.5 0
v -25 -100 0
v -27.5 -100 0
v -27.5 -97.5 0
v -25 -97.5 0
v -30 -100 0
v -32.5 -100 0
v -32.5 -97.5 0
v -30 -97.5 0
v -35 -100 0
v -37.5 -100 0
v -37.5 -97.5 0
v -35 -97.5 0
v -40 -100 0
v -42.5 -100 0
v -42.5 -97.5 0
v -40 -97.5 0
v -70 -105 0
v -72.5 -105 0
v -72.5 -102.5 0
v -70 -102.5 0
v -75 -105 0
v -77.5 -105 0
v -77.5 -102.5 0
v -75 -102.5 0
v -20 -82.5 0
v -2.5 -87.5 0
v -10 -90 0
v -2.5 -100 0
v -60 -97.5 0
v -92.5 -102.5 0
v -87.5 -120 0
v -87.5 -117.5 0
v -95 -120 0
v -95 -117.5 0
v -87.5 -122.5 0
v -90 -122.5 0
v -92.5 -122.5 0
v -95 -122.5 0
v -87.5 -125 0
v -90 -125 0
v -92.5 -125 0
v -95 -125 0
v 0 -2.5 0
v -2.5 -2.5 0
v -2.5 0 0
v 0 0 0

# Texture cooridinates (Count = 36)
vt 0.0001220703 0.0001220703
vt 0.9998779 0.0001220703
vt 0.9998779 0.9998779
vt 0.0001220703 0.9998779
vt 4.069011E-05 0.6667074
vt 0.3332926 0.6667074
vt 0.3332926 0.9999593
vt 4.069011E-05 0.9999593
vt 0.6667073 0.6667074
vt 0.9999593 0.6667074
vt 0.9999593 0.9999593
vt 0.6667073 0.9999593
vt 4.069011E-05 0.333374
vt 0.3332926 0.333374
vt 0.3332926 0.666626
vt 4.069011E-05 0.666626
vt 0.333374 0.333374
vt 0.666626 0.333374
vt 0.666626 0.666626
vt 0.333374 0.666626
vt 0.6667073 0.333374
vt 0.9999593 0.333374
vt 0.9999593 0.666626
vt 0.6667073 0.666626
vt 4.069011E-05 4.070997E-05
vt 0.3332926 4.070997E-05
vt 0.3332926 0.3332927
vt 4.069011E-05 0.3332927
vt 0.333374 4.070997E-05
vt 0.666626 4.070997E-05
vt 0.666626 0.3332927
vt 0.333374 0.3332927
vt 0.6667073 4.070997E-05
vt 0.9999593 4.070997E-05
vt 0.9999593 0.3332927
vt 0.6667073 0.3332927

# Normal
vn 0 0 -1

# Groups (Count = 3)

g mesh_0001
f 1/1/1 2/2/1 3/3/1 4/4/1

g mesh_0002
f 5/1/1 6/2/1 2/3/1 1/4/1
f 7/1/1 8/2/1 9/3/1 10/4/1
f 11/1/1 12/2/1 13/3/1 14/4/1
f 15/1/1 16/2/1 17/3/1 18/4/1
f 19/1/1 20/2/1 21/3/1 22/4/1
f 23/1/1 24/2/1 20/3/1 19/4/1
f 25/1/1 26/2/1 24/3/1 23/4/1
f 27/1/1 28/2/1 26/3/1 25/4/1
f 29/1/1 30/2/1 28/3/1 27/4/1
f 31/1/1 32/2/1 30/3/1 29/4/1

g mesh_0003
f 33/4/1 34/1/1 35/2/1 36/3/1
f 34/2/1 37/3/1 38/4/1 35/1/1
f 39/3/1 40/4/1 6/1/1 5/2/1
f 41/1/1 42/2/1 43/3/1 44/4/1
f 45/4/1 46/1/1 47/2/1 48/3/1
f 46/2/1 49/3/1 50/4/1 47/1/1
f 51/4/1 52/1/1 41/2/1 53/3/1
f 9/1/1 54/2/1 55/3/1 56/4/1
f 57/3/1 58/4/1 7/1/1 59/2/1
f 60/1/1 14/2/1 61/3/1 62/4/1
f 63/2/1 64/3/1 65/4/1 66/1/1
f 67/4/1 68/1/1 69/2/1 70/3/1
f 71/2/1 72/3/1 73/4/1 74/1/1
f 75/4/1 76/1/1 77/2/1 78/3/1
f 79/2/1 80/3/1 81/4/1 82/1/1
f 83/4/1 18/1/1 84/2/1 85/3/1
f 86/3/1 87/4/1 16/1/1 15/2/1
f 88/4/1 89/1/1 90/2/1 91/3/1
f 89/2/1 92/3/1 93/4/1 90/1/1
f 94/4/1 95/1/1 96/2/1 97/3/1
f 95/2/1 98/3/1 99/4/1 96/1/1
f 100/4/1 22/1/1 101/2/1 102/3/1

g mesh_0004
f 103/1/1 104/2/1 105/3/1 106/4/1
f 107/1/1 108/2/1 109/3/1 110/4/1
f 111/1/1 112/2/1 113/3/1 114/4/1
f 115/1/1 116/2/1 117/3/1 118/4/1
f 119/1/1 120/2/1 121/3/1 122/4/1
f 123/1/1 124/2/1 125/3/1 126/4/1
f 127/1/1 128/2/1 129/3/1 130/4/1
f 131/1/1 132/2/1 133/3/1 134/4/1
f 135/1/1 136/2/1 137/3/1 138/4/1
f 139/1/1 140/2/1 141/3/1 142/4/1
f 143/1/1 144/2/1 145/3/1 146/4/1

g mesh_0005
f 52/3/1 147/4/1 42/1/1 41/2/1
f 59/1/1 7/2/1 10/3/1 148/4/1
f 8/3/1 149/4/1 54/1/1 9/2/1
f 150/4/1 11/1/1 14/2/1 60/3/1
f 18/2/1 17/3/1 151/4/1 84/1/1
f 22/2/1 21/3/1 152/4/1 101/1/1

g mesh_0006
f 153/5/1 31/6/1 29/7/1 154/8/1
f 32/9/1 155/10/1 156/11/1 30/12/1
f 157/13/1 158/14/1 31/15/1 153/16/1
f 158/17/1 159/18/1 32/19/1 31/20/1
f 159/21/1 160/22/1 155/23/1 32/24/1
f 161/25/1 162/26/1 158/27/1 157/28/1
f 162/29/1 163/30/1 159/31/1 158/32/1
f 163/33/1 164/34/1 160/35/1 159/36/1

g mesh_tile_0001
f 165/1/1 166/2/1 167/3/1 168/4/1

g mesh_tile_0016
f 165/1/1 166/2/1 167/3/1 168/4/1

