# Wavefront OBJ file automatically generated by Tiled2Unity

# Vertices (Count = 149)
v -6750 -750 0
v -7000 -750 0
v -7000 -500 0
v -6750 -500 0
v -6750 -1000 0
v -7000 -1000 0
v -6750 -1250 0
v -7000 -1250 0
v -7000 -1500 0
v -7250 -1500 0
v -7250 -1250 0
v -7500 -1500 0
v -7500 -1250 0
v -7500 -1750 0
v -7750 -1750 0
v -7750 -1500 0
v -7750 -2000 0
v -8000 -2000 0
v -8000 -1750 0
v -8000 -2250 0
v -8250 -2250 0
v -8250 -2000 0
v -7500 -2500 0
v -7750 -2500 0
v -7750 -2250 0
v -7500 -2250 0
v -8000 -2500 0
v -7000 -3000 0
v -7250 -3000 0
v -7250 -2750 0
v -7000 -2750 0
v -7250 -3500 0
v -7500 -3500 0
v -7500 -3250 0
v -7250 -3250 0
v -7000 -3750 0
v -7250 -3750 0
v -7000 -3500 0
v -6000 -4000 0
v -6250 -4000 0
v -6250 -3750 0
v -6000 -3750 0
v -7000 -4250 0
v -7250 -4250 0
v -7250 -4000 0
v -7000 -4000 0
v -7250 -4500 0
v -7500 -4500 0
v -7500 -4250 0
v -7250 -4750 0
v -7500 -4750 0
v -7250 -5000 0
v -7500 -5000 0
v -7000 -5500 0
v -7250 -5500 0
v -7250 -5250 0
v -7000 -5250 0
v -7000 -5750 0
v -7250 -5750 0
v -7000 -6000 0
v -7250 -6000 0
v -7000 -6500 0
v -7250 -6500 0
v -7250 -6250 0
v -7000 -6250 0
v -7000 -6750 0
v -7250 -6750 0
v -8250 -7000 0
v -8500 -7000 0
v -8500 -6750 0
v -8250 -6750 0
v -8250 -7250 0
v -8500 -7250 0
v -8000 -7500 0
v -8250 -7500 0
v -8000 -7250 0
v -8000 -7750 0
v -8250 -7750 0
v -7500 -8000 0
v -7750 -8000 0
v -7750 -7750 0
v -7500 -7750 0
v -8000 -8000 0
v -7250 -8250 0
v -7500 -8250 0
v -7250 -8000 0
v -7250 -8500 0
v -7500 -8500 0
v -7250 -8750 0
v -7500 -8750 0
v -7250 -9000 0
v -7500 -9000 0
v -7250 -9250 0
v -7500 -9250 0
v -7250 -9500 0
v -7500 -9500 0
v -6750 -1500 0
v -7500 -2000 0
v -7000 -3250 0
v -6000 -4250 0
v -6250 -4250 0
v -6750 -6750 0
v -6750 -6500 0
v -7250 -7000 0
v -7500 -7000 0
v -7500 -6750 0
v -7750 -1250 0
v -8250 -1750 0
v -7500 -3000 0
v -7500 -4000 0
v -7500 -6250 0
v -7500 -6000 0
v -7500 -6500 0
v -8750 -7000 0
v -8750 -6750 0
v -7250 -2500 0
v -7250 -2250 0
v -7000 -2500 0
v -6250 -3500 0
v -6000 -3500 0
v -7000 -5000 0
v -6750 -6250 0
v -8000 -7000 0
v -7250 -7750 0
v -8250 -2500 0
v -7500 -2750 0
v -7500 -3750 0
v -7500 -5250 0
v -8750 -7250 0
v -8250 -8000 0
v -6500 -3750 0
v -6500 -3500 0
v -6500 -4250 0
v -6500 -4000 0
v -7750 -7000 0
v -7750 -6750 0
v -6750 -3750 0
v -6750 -3500 0
v -6750 -4250 0
v -6750 -4000 0
v -8000 -6750 0
v -7000 -10000 0
v -7750 -10000 0
v -7750 -9250 0
v -7000 -9250 0
v 0 -250 0
v -250 -250 0
v -250 0 0
v 0 0 0

# Texture cooridinates (Count = 8)
vt 0.0001220703 0.0001220703
vt 0.9998779 0.0001220703
vt 0.9998779 0.9998779
vt 0.0001220703 0.9998779
vt 0.0001219078 0.0001220703
vt 0.9985465 0.0001220703
vt 0.9985465 0.9998779
vt 0.0001219078 0.9998779

# Normal
vn 0 0 -1

# Groups (Count = 2)

g mesh_0001
f 1/1/1 2/2/1 3/3/1 4/4/1

g mesh_0002
f 5/1/1 6/2/1 2/3/1 1/4/1
f 7/1/1 8/2/1 6/3/1 5/4/1
f 9/1/1 10/2/1 11/3/1 8/4/1
f 10/1/1 12/2/1 13/3/1 11/4/1
f 14/1/1 15/2/1 16/3/1 12/4/1
f 17/1/1 18/2/1 19/3/1 15/4/1
f 20/1/1 21/2/1 22/3/1 18/4/1
f 23/1/1 24/2/1 25/3/1 26/4/1
f 24/1/1 27/2/1 20/3/1 25/4/1
f 28/1/1 29/2/1 30/3/1 31/4/1
f 32/1/1 33/2/1 34/3/1 35/4/1
f 36/1/1 37/2/1 32/3/1 38/4/1
f 39/1/1 40/2/1 41/3/1 42/4/1
f 43/1/1 44/2/1 45/3/1 46/4/1
f 47/1/1 48/2/1 49/3/1 44/4/1
f 50/1/1 51/2/1 48/3/1 47/4/1
f 52/1/1 53/2/1 51/3/1 50/4/1
f 54/1/1 55/2/1 56/3/1 57/4/1
f 58/1/1 59/2/1 55/3/1 54/4/1
f 60/1/1 61/2/1 59/3/1 58/4/1
f 62/1/1 63/2/1 64/3/1 65/4/1
f 66/1/1 67/2/1 63/3/1 62/4/1
f 68/1/1 69/2/1 70/3/1 71/4/1
f 72/1/1 73/2/1 69/3/1 68/4/1
f 74/1/1 75/2/1 72/3/1 76/4/1
f 77/1/1 78/2/1 75/3/1 74/4/1
f 79/1/1 80/2/1 81/3/1 82/4/1
f 80/1/1 83/2/1 77/3/1 81/4/1
f 84/1/1 85/2/1 79/3/1 86/4/1
f 87/1/1 88/2/1 85/3/1 84/4/1
f 89/1/1 90/2/1 88/3/1 87/4/1
f 91/1/1 92/2/1 90/3/1 89/4/1
f 93/1/1 94/2/1 92/3/1 91/4/1
f 95/1/1 96/2/1 94/3/1 93/4/1

g mesh_0003
f 97/1/1 9/2/1 8/3/1 7/4/1
f 98/1/1 17/2/1 15/3/1 14/4/1
f 99/1/1 35/2/1 29/3/1 28/4/1
f 100/1/1 101/2/1 40/3/1 39/4/1
f 65/1/1 64/2/1 61/3/1 60/4/1
f 102/1/1 66/2/1 62/3/1 103/4/1
f 104/1/1 105/2/1 106/3/1 67/4/1

g mesh_0004
f 12/1/1 16/2/1 107/3/1 13/4/1
f 18/1/1 22/2/1 108/3/1 19/4/1
f 35/1/1 34/2/1 109/3/1 29/4/1
f 44/1/1 49/2/1 110/3/1 45/4/1
f 64/1/1 111/2/1 112/3/1 61/4/1
f 67/1/1 106/2/1 113/3/1 63/4/1
f 69/1/1 114/2/1 115/3/1 70/4/1

g mesh_0005
f 116/1/1 23/2/1 26/3/1 117/4/1
f 31/1/1 30/2/1 116/3/1 118/4/1
f 42/1/1 41/2/1 119/3/1 120/4/1
f 57/1/1 56/2/1 52/3/1 121/4/1
f 103/1/1 62/2/1 65/3/1 122/4/1
f 76/1/1 72/2/1 68/3/1 123/4/1
f 86/1/1 79/2/1 82/3/1 124/4/1

g mesh_0006
f 27/1/1 125/2/1 21/3/1 20/4/1
f 30/1/1 126/2/1 23/3/1 116/4/1
f 37/1/1 127/2/1 33/3/1 32/4/1
f 56/1/1 128/2/1 53/3/1 52/4/1
f 63/1/1 113/2/1 111/3/1 64/4/1
f 73/1/1 129/2/1 114/3/1 69/4/1
f 83/1/1 130/2/1 78/3/1 77/4/1

g mesh_0007
f 41/1/1 131/2/1 132/3/1 119/4/1
f 101/1/1 133/2/1 134/3/1 40/4/1
f 105/1/1 135/2/1 136/3/1 106/4/1

g mesh_0008
f 137/1/1 36/2/1 38/3/1 138/4/1
f 139/1/1 43/2/1 46/3/1 140/4/1
f 123/1/1 68/2/1 71/3/1 141/4/1

g mesh_0009
f 142/5/1 143/6/1 144/7/1 145/8/1

g mesh_tile_0001
f 146/1/1 147/2/1 148/3/1 149/4/1

