# Wavefront OBJ file automatically generated by Tiled2Unity

# Vertices (Count = 92)
v -4250 -1750 0
v -4500 -1750 0
v -4500 -1500 0
v -4250 -1500 0
v -4250 -2000 0
v -4500 -2000 0
v -4250 -2250 0
v -4500 -2250 0
v -4000 -5250 0
v -4250 -5250 0
v -4250 -5000 0
v -4000 -5000 0
v -6500 -8750 0
v -6750 -8750 0
v -6750 -8500 0
v -6500 -8500 0
v -5750 -9250 0
v -6000 -9250 0
v -6000 -9000 0
v -5750 -9000 0
v -7500 -10500 0
v -7750 -10500 0
v -7750 -10250 0
v -7500 -10250 0
v -7500 -10750 0
v -7750 -10750 0
v -7500 -11000 0
v -7750 -11000 0
v -7500 -11250 0
v -7750 -11250 0
v -7500 -11500 0
v -7750 -11500 0
v -7500 -11750 0
v -7750 -11750 0
v -7500 -12000 0
v -7750 -12000 0
v -4250 -3000 0
v -4500 -3000 0
v -4500 -2750 0
v -4250 -2750 0
v -4250 -3500 0
v -4500 -3500 0
v -4500 -3250 0
v -4250 -3250 0
v -4250 -4000 0
v -4500 -4000 0
v -4500 -3750 0
v -4250 -3750 0
v -4250 -4500 0
v -4500 -4500 0
v -4500 -4250 0
v -4250 -4250 0
v -3750 -5750 0
v -4000 -5750 0
v -4000 -5500 0
v -3750 -5500 0
v -4000 -7250 0
v -4250 -7250 0
v -4250 -7000 0
v -4000 -7000 0
v -4750 -8000 0
v -5000 -8000 0
v -5000 -7750 0
v -4750 -7750 0
v -5250 -8000 0
v -5500 -8000 0
v -5500 -7750 0
v -5250 -7750 0
v -5750 -8000 0
v -6000 -8000 0
v -6000 -7750 0
v -5750 -7750 0
v -6500 -9250 0
v -6750 -9250 0
v -6750 -9000 0
v -6500 -9000 0
v -6250 -10250 0
v -6500 -10250 0
v -6500 -10000 0
v -6250 -10000 0
v -6750 -10250 0
v -7000 -10250 0
v -7000 -10000 0
v -6750 -10000 0
v -7250 -12500 0
v -8018 -12500 0
v -8018 -11732 0
v -7250 -11732 0
v 0 -250 0
v -250 -250 0
v -250 0 0
v 0 0 0

# Texture cooridinates (Count = 8)
vt 0.0001220703 0.0001220703
vt 0.9998779 0.0001220703
vt 0.9998779 0.9998779
vt 0.0001220703 0.9998779
vt 0.0001219116 0.0001220703
vt 0.9985777 0.0001220703
vt 0.9985777 0.9998779
vt 0.0001219116 0.9998779

# Normal
vn 0 0 -1

# Groups (Count = 4)

g mesh_0001
f 1/1/1 2/2/1 3/3/1 4/4/1

g mesh_0002
f 5/1/1 6/2/1 2/3/1 1/4/1
f 7/1/1 8/2/1 6/3/1 5/4/1
f 9/1/1 10/2/1 11/3/1 12/4/1
f 13/1/1 14/2/1 15/3/1 16/4/1
f 17/1/1 18/2/1 19/3/1 20/4/1
f 21/1/1 22/2/1 23/3/1 24/4/1
f 25/1/1 26/2/1 22/3/1 21/4/1
f 27/1/1 28/2/1 26/3/1 25/4/1
f 29/1/1 30/2/1 28/3/1 27/4/1
f 31/1/1 32/2/1 30/3/1 29/4/1
f 33/1/1 34/2/1 32/3/1 31/4/1
f 35/1/1 36/2/1 34/3/1 33/4/1

g mesh_0003
f 37/1/1 38/2/1 39/3/1 40/4/1
f 41/1/1 42/2/1 43/3/1 44/4/1
f 45/1/1 46/2/1 47/3/1 48/4/1
f 49/1/1 50/2/1 51/3/1 52/4/1
f 53/1/1 54/2/1 55/3/1 56/4/1
f 57/1/1 58/2/1 59/3/1 60/4/1
f 61/1/1 62/2/1 63/3/1 64/4/1
f 65/1/1 66/2/1 67/3/1 68/4/1
f 69/1/1 70/2/1 71/3/1 72/4/1
f 73/1/1 74/2/1 75/3/1 76/4/1
f 77/1/1 78/2/1 79/3/1 80/4/1
f 81/1/1 82/2/1 83/3/1 84/4/1

g mesh_0004
f 85/5/1 86/6/1 87/7/1 88/8/1

g mesh_tile_0004
f 89/1/1 90/2/1 91/3/1 92/4/1

g mesh_tile_0011
f 89/1/1 90/2/1 91/3/1 92/4/1

g mesh_tile_0016
f 89/1/1 90/2/1 91/3/1 92/4/1

