# Wavefront OBJ file automatically generated by Tiled2Unity

# Vertices (Count = 119)
v -47.5 -12.5 0
v -50 -12.5 0
v -50 -10 0
v -47.5 -10 0
v -47.5 -15 0
v -50 -15 0
v -45 -17.5 0
v -47.5 -17.5 0
v -45 -15 0
v -42.5 -20 0
v -45 -20 0
v -42.5 -17.5 0
v -40 -25 0
v -42.5 -25 0
v -42.5 -22.5 0
v -40 -22.5 0
v -42.5 -27.5 0
v -45 -27.5 0
v -45 -25 0
v -45 -30 0
v -47.5 -30 0
v -47.5 -27.5 0
v -42.5 -32.5 0
v -45 -32.5 0
v -42.5 -30 0
v -42.5 -42.5 0
v -45 -42.5 0
v -45 -40 0
v -42.5 -40 0
v -42.5 -50 0
v -45 -50 0
v -45 -47.5 0
v -42.5 -47.5 0
v -40 -52.5 0
v -42.5 -52.5 0
v -40 -50 0
v -47.5 -65 0
v -50 -65 0
v -50 -62.5 0
v -47.5 -62.5 0
v -47.5 -67.5 0
v -50 -67.5 0
v -50 -70 0
v -52.5 -70 0
v -52.5 -67.5 0
v -52.5 -72.5 0
v -55 -72.5 0
v -55 -70 0
v -52.5 -75 0
v -55 -75 0
v -52.5 -77.5 0
v -55 -77.5 0
v -47.5 -80 0
v -50 -80 0
v -50 -77.5 0
v -47.5 -77.5 0
v -52.5 -80 0
v -45 -82.5 0
v -47.5 -82.5 0
v -45 -80 0
v -45 -85 0
v -47.5 -85 0
v -45 -87.5 0
v -47.5 -87.5 0
v -45 -90 0
v -47.5 -90 0
v -45 -92.5 0
v -47.5 -92.5 0
v -45 -95 0
v -47.5 -95 0
v -42.5 -15 0
v -40 -20 0
v -40 -32.5 0
v -40 -30 0
v -40 -47.5 0
v -45 -77.5 0
v -50 -17.5 0
v -45 -22.5 0
v -47.5 -32.5 0
v -47.5 -50 0
v -47.5 -47.5 0
v -50 -57.5 0
v -52.5 -57.5 0
v -52.5 -55 0
v -50 -55 0
v -55 -80 0
v -40 -27.5 0
v -40 -42.5 0
v -40 -40 0
v -40 -55 0
v -42.5 -55 0
v -47.5 -70 0
v -47.5 -25 0
v -52.5 -52.5 0
v -50 -52.5 0
v -55 -67.5 0
v -40 -35 0
v -42.5 -35 0
v -42.5 -37.5 0
v -40 -37.5 0
v -47.5 -45 0
v -45 -45 0
v -50 -60 0
v -47.5 -60 0
v -47.5 -42.5 0
v -47.5 -40 0
v -45 -55 0
v -45 -52.5 0
v -47.5 -55 0
v -47.5 -52.5 0
v -47.5 -57.5 0
v -42.5 -100 0
v -50.18 -100 0
v -50.18 -92.32 0
v -42.5 -92.32 0
v 0 -2.5 0
v -2.5 -2.5 0
v -2.5 0 0
v 0 0 0

# Texture cooridinates (Count = 8)
vt 0.0001220703 0.0001220703
vt 0.9998779 0.0001220703
vt 0.9998779 0.9998779
vt 0.0001220703 0.9998779
vt 0.0001219116 0.0001220703
vt 0.9985777 0.0001220703
vt 0.9985777 0.9998779
vt 0.0001219116 0.9998779

# Normal
vn 0 0 -1

# Groups (Count = 2)

g mesh_0001
f 1/1/1 2/2/1 3/3/1 4/4/1

g mesh_0002
f 5/1/1 6/2/1 2/3/1 1/4/1
f 7/1/1 8/2/1 5/3/1 9/4/1
f 10/1/1 11/2/1 7/3/1 12/4/1
f 13/1/1 14/2/1 15/3/1 16/4/1
f 17/1/1 18/2/1 19/3/1 14/4/1
f 20/1/1 21/2/1 22/3/1 18/4/1
f 23/1/1 24/2/1 20/3/1 25/4/1
f 26/1/1 27/2/1 28/3/1 29/4/1
f 30/1/1 31/2/1 32/3/1 33/4/1
f 34/1/1 35/2/1 30/3/1 36/4/1
f 37/1/1 38/2/1 39/3/1 40/4/1
f 41/1/1 42/2/1 38/3/1 37/4/1
f 43/1/1 44/2/1 45/3/1 42/4/1
f 46/1/1 47/2/1 48/3/1 44/4/1
f 49/1/1 50/2/1 47/3/1 46/4/1
f 51/1/1 52/2/1 50/3/1 49/4/1
f 53/1/1 54/2/1 55/3/1 56/4/1
f 54/1/1 57/2/1 51/3/1 55/4/1
f 58/1/1 59/2/1 53/3/1 60/4/1
f 61/1/1 62/2/1 59/3/1 58/4/1
f 63/1/1 64/2/1 62/3/1 61/4/1
f 65/1/1 66/2/1 64/3/1 63/4/1
f 67/1/1 68/2/1 66/3/1 65/4/1
f 69/1/1 70/2/1 68/3/1 67/4/1

g mesh_0003
f 12/1/1 7/2/1 9/3/1 71/4/1
f 16/1/1 15/2/1 10/3/1 72/4/1
f 73/1/1 23/2/1 25/3/1 74/4/1
f 36/1/1 30/2/1 33/3/1 75/4/1
f 60/1/1 53/2/1 56/3/1 76/4/1

g mesh_0004
f 8/1/1 77/2/1 6/3/1 5/4/1
f 15/1/1 78/2/1 11/3/1 10/4/1
f 24/1/1 79/2/1 21/3/1 20/4/1
f 31/1/1 80/2/1 81/3/1 32/4/1
f 82/1/1 83/2/1 84/3/1 85/4/1
f 57/1/1 86/2/1 52/3/1 51/4/1

g mesh_0005
f 87/1/1 17/2/1 14/3/1 13/4/1
f 88/1/1 26/2/1 29/3/1 89/4/1
f 90/1/1 91/2/1 35/3/1 34/4/1
f 92/1/1 43/2/1 42/3/1 41/4/1

g mesh_0006
f 18/1/1 22/2/1 93/3/1 19/4/1
f 85/1/1 84/2/1 94/3/1 95/4/1
f 44/1/1 48/2/1 96/3/1 45/4/1

g mesh_0007
f 97/1/1 98/2/1 23/3/1 73/4/1

g mesh_0008
f 89/1/1 29/2/1 99/3/1 100/4/1
f 32/1/1 81/2/1 101/3/1 102/4/1
f 40/1/1 39/2/1 103/3/1 104/4/1

g mesh_0009
f 27/1/1 105/2/1 106/3/1 28/4/1
f 91/1/1 107/2/1 108/3/1 35/4/1

g mesh_0010
f 109/1/1 85/2/1 95/3/1 110/4/1
f 111/1/1 82/2/1 85/3/1 109/4/1

g mesh_0011
f 112/5/1 113/6/1 114/7/1 115/8/1

g mesh_tile_0013
f 116/1/1 117/2/1 118/3/1 119/4/1

