# Wavefront OBJ file automatically generated by Tiled2Unity

# Vertices (Count = 150)
v -60 -25 0
v -62.5 -25 0
v -62.5 -22.5 0
v -60 -22.5 0
v -60 -27.5 0
v -62.5 -27.5 0
v -60 -30 0
v -62.5 -30 0
v -42.5 -70 0
v -45 -70 0
v -45 -67.5 0
v -42.5 -67.5 0
v -47.5 -70 0
v -47.5 -67.5 0
v -37.5 -72.5 0
v -40 -72.5 0
v -40 -70 0
v -37.5 -70 0
v -35 -75 0
v -37.5 -75 0
v -35 -72.5 0
v -35 -77.5 0
v -37.5 -77.5 0
v -35 -80 0
v -37.5 -80 0
v -35 -85 0
v -37.5 -85 0
v -37.5 -82.5 0
v -35 -82.5 0
v -40 -85 0
v -40 -82.5 0
v -32.5 -87.5 0
v -35 -87.5 0
v -32.5 -85 0
v -37.5 -87.5 0
v -40 -87.5 0
v -32.5 -90 0
v -35 -90 0
v -37.5 -90 0
v -40 -90 0
v -42.5 -90 0
v -42.5 -87.5 0
v -42.5 -92.5 0
v -45 -92.5 0
v -45 -90 0
v -42.5 -95 0
v -45 -95 0
v -37.5 -97.5 0
v -40 -97.5 0
v -40 -95 0
v -37.5 -95 0
v -42.5 -97.5 0
v -37.5 -100 0
v -40 -100 0
v -42.5 -100 0
v -42.5 -105 0
v -45 -105 0
v -45 -102.5 0
v -42.5 -102.5 0
v -37.5 -110 0
v -40 -110 0
v -40 -107.5 0
v -37.5 -107.5 0
v -37.5 -112.5 0
v -40 -112.5 0
v -37.5 -115 0
v -40 -115 0
v -37.5 -117.5 0
v -40 -117.5 0
v -37.5 -120 0
v -40 -120 0
v -47.5 -32.5 0
v -50 -32.5 0
v -50 -30 0
v -47.5 -30 0
v -52.5 -32.5 0
v -52.5 -30 0
v -60 -32.5 0
v -62.5 -32.5 0
v -47.5 -37.5 0
v -50 -37.5 0
v -50 -35 0
v -47.5 -35 0
v -47.5 -40 0
v -50 -40 0
v -47.5 -60 0
v -50 -60 0
v -50 -57.5 0
v -47.5 -57.5 0
v -47.5 -62.5 0
v -50 -62.5 0
v -50 -67.5 0
v -50 -65 0
v -47.5 -65 0
v -55 -32.5 0
v -57.5 -32.5 0
v -57.5 -30 0
v -55 -30 0
v -47.5 -45 0
v -50 -45 0
v -50 -42.5 0
v -47.5 -42.5 0
v -47.5 -50 0
v -50 -50 0
v -50 -47.5 0
v -47.5 -47.5 0
v -47.5 -55 0
v -50 -55 0
v -50 -52.5 0
v -47.5 -52.5 0
v -40 -67.5 0
v -50 -70 0
v -35 -70 0
v -42.5 -72.5 0
v -32.5 -82.5 0
v -32.5 -80 0
v -42.5 -85 0
v -42.5 -82.5 0
v -30 -87.5 0
v -30 -85 0
v -30 -90 0
v -45 -87.5 0
v -35 -97.5 0
v -35 -95 0
v -45 -97.5 0
v -35 -100 0
v -45 -100 0
v -47.5 -102.5 0
v -47.5 -100 0
v -40 -105 0
v -40 -102.5 0
v -47.5 -105 0
v -37.5 -105 0
v -42.5 -107.5 0
v -35 -120 0
v -35 -117.5 0
v -42.5 -120 0
v -42.5 -117.5 0
v -35 -122.5 0
v -37.5 -122.5 0
v -40 -122.5 0
v -42.5 -122.5 0
v -35 -125 0
v -37.5 -125 0
v -40 -125 0
v -42.5 -125 0
v 0 -2.5 0
v -2.5 -2.5 0
v -2.5 0 0
v 0 0 0

# Texture cooridinates (Count = 36)
vt 0.0001220703 0.0001220703
vt 0.9998779 0.0001220703
vt 0.9998779 0.9998779
vt 0.0001220703 0.9998779
vt 4.069011E-05 0.6667074
vt 0.3332926 0.6667074
vt 0.3332926 0.9999593
vt 4.069011E-05 0.9999593
vt 0.6667073 0.6667074
vt 0.9999593 0.6667074
vt 0.9999593 0.9999593
vt 0.6667073 0.9999593
vt 4.069011E-05 0.333374
vt 0.3332926 0.333374
vt 0.3332926 0.666626
vt 4.069011E-05 0.666626
vt 0.333374 0.333374
vt 0.666626 0.333374
vt 0.666626 0.666626
vt 0.333374 0.666626
vt 0.6667073 0.333374
vt 0.9999593 0.333374
vt 0.9999593 0.666626
vt 0.6667073 0.666626
vt 4.069011E-05 4.070997E-05
vt 0.3332926 4.070997E-05
vt 0.3332926 0.3332927
vt 4.069011E-05 0.3332927
vt 0.333374 4.070997E-05
vt 0.666626 4.070997E-05
vt 0.666626 0.3332927
vt 0.333374 0.3332927
vt 0.6667073 4.070997E-05
vt 0.9999593 4.070997E-05
vt 0.9999593 0.3332927
vt 0.6667073 0.3332927

# Normal
vn 0 0 -1

# Groups (Count = 2)

g mesh_0001
f 1/1/1 2/2/1 3/3/1 4/4/1

g mesh_0002
f 5/1/1 6/2/1 2/3/1 1/4/1
f 7/1/1 8/2/1 6/3/1 5/4/1
f 9/1/1 10/2/1 11/3/1 12/4/1
f 10/1/1 13/2/1 14/3/1 11/4/1
f 15/1/1 16/2/1 17/3/1 18/4/1
f 19/1/1 20/2/1 15/3/1 21/4/1
f 22/1/1 23/2/1 20/3/1 19/4/1
f 24/1/1 25/2/1 23/3/1 22/4/1
f 26/1/1 27/2/1 28/3/1 29/4/1
f 27/1/1 30/2/1 31/3/1 28/4/1
f 32/1/1 33/2/1 26/3/1 34/4/1
f 33/1/1 35/2/1 27/3/1 26/4/1
f 35/1/1 36/2/1 30/3/1 27/4/1
f 37/1/1 38/2/1 33/3/1 32/4/1
f 38/1/1 39/2/1 35/3/1 33/4/1
f 39/1/1 40/2/1 36/3/1 35/4/1
f 40/1/1 41/2/1 42/3/1 36/4/1
f 43/1/1 44/2/1 45/3/1 41/4/1
f 46/1/1 47/2/1 44/3/1 43/4/1
f 48/1/1 49/2/1 50/3/1 51/4/1
f 49/1/1 52/2/1 46/3/1 50/4/1
f 53/1/1 54/2/1 49/3/1 48/4/1
f 54/1/1 55/2/1 52/3/1 49/4/1
f 56/1/1 57/2/1 58/3/1 59/4/1
f 60/1/1 61/2/1 62/3/1 63/4/1
f 64/1/1 65/2/1 61/3/1 60/4/1
f 66/1/1 67/2/1 65/3/1 64/4/1
f 68/1/1 69/2/1 67/3/1 66/4/1
f 70/1/1 71/2/1 69/3/1 68/4/1

g mesh_0003
f 72/4/1 73/1/1 74/2/1 75/3/1
f 73/2/1 76/3/1 77/4/1 74/1/1
f 78/3/1 79/4/1 8/1/1 7/2/1
f 80/1/1 81/2/1 82/3/1 83/4/1
f 84/3/1 85/4/1 81/1/1 80/2/1
f 86/1/1 87/2/1 88/3/1 89/4/1
f 90/3/1 91/4/1 87/1/1 86/2/1
f 14/1/1 92/2/1 93/3/1 94/4/1

g mesh_0004
f 95/1/1 96/2/1 97/3/1 98/4/1
f 99/1/1 100/2/1 101/3/1 102/4/1
f 103/1/1 104/2/1 105/3/1 106/4/1
f 107/1/1 108/2/1 109/3/1 110/4/1

g mesh_0005
f 17/1/1 9/2/1 12/3/1 111/4/1
f 13/3/1 112/4/1 92/1/1 14/2/1
f 21/1/1 15/2/1 18/3/1 113/4/1
f 16/3/1 114/4/1 9/1/1 17/2/1
f 115/1/1 29/2/1 24/3/1 116/4/1
f 29/3/1 28/4/1 25/1/1 24/2/1
f 34/4/1 26/1/1 29/2/1 115/3/1
f 30/2/1 117/3/1 118/4/1 31/1/1
f 119/1/1 32/2/1 34/3/1 120/4/1
f 36/3/1 42/4/1 117/1/1 30/2/1
f 121/4/1 37/1/1 32/2/1 119/3/1
f 41/2/1 45/3/1 122/4/1 42/1/1
f 123/1/1 48/2/1 51/3/1 124/4/1
f 52/3/1 125/4/1 47/1/1 46/2/1
f 126/4/1 53/1/1 48/2/1 123/3/1
f 55/2/1 127/3/1 125/4/1 52/1/1
f 59/4/1 58/1/1 127/2/1 55/3/1
f 58/2/1 128/3/1 129/4/1 127/1/1
f 130/1/1 56/2/1 59/3/1 131/4/1
f 57/3/1 132/4/1 128/1/1 58/2/1
f 63/1/1 62/2/1 130/3/1 133/4/1
f 62/3/1 134/4/1 56/1/1 130/2/1

g mesh_0006
f 135/5/1 70/6/1 68/7/1 136/8/1
f 71/9/1 137/10/1 138/11/1 69/12/1
f 139/13/1 140/14/1 70/15/1 135/16/1
f 140/17/1 141/18/1 71/19/1 70/20/1
f 141/21/1 142/22/1 137/23/1 71/24/1
f 143/25/1 144/26/1 140/27/1 139/28/1
f 144/29/1 145/30/1 141/31/1 140/32/1
f 145/33/1 146/34/1 142/35/1 141/36/1

g mesh_tile_0016
f 147/1/1 148/2/1 149/3/1 150/4/1

