# Wavefront OBJ file automatically generated by Tiled2Unity

# Vertices (Count = 157)
v -47.5 -62.5 0
v -50 -62.5 0
v -50 -60 0
v -47.5 -60 0
v -47.5 -65 0
v -50 -65 0
v -77.5 -77.5 0
v -80 -77.5 0
v -80 -75 0
v -77.5 -75 0
v -72.5 -92.5 0
v -75 -92.5 0
v -75 -90 0
v -72.5 -90 0
v -72.5 -95 0
v -75 -95 0
v -70 -97.5 0
v -72.5 -97.5 0
v -70 -95 0
v -42.5 -100 0
v -45 -100 0
v -45 -97.5 0
v -42.5 -97.5 0
v -62.5 -100 0
v -65 -100 0
v -65 -97.5 0
v -62.5 -97.5 0
v -40 -102.5 0
v -42.5 -102.5 0
v -40 -100 0
v -40 -105 0
v -42.5 -105 0
v -40 -107.5 0
v -42.5 -107.5 0
v -40 -110 0
v -42.5 -110 0
v -40 -112.5 0
v -42.5 -112.5 0
v -40 -115 0
v -42.5 -115 0
v -40 -117.5 0
v -42.5 -117.5 0
v -40 -120 0
v -42.5 -120 0
v -47.5 -67.5 0
v -50 -67.5 0
v -52.5 -67.5 0
v -52.5 -65 0
v -47.5 -70 0
v -50 -70 0
v -52.5 -70 0
v -40 -72.5 0
v -42.5 -72.5 0
v -42.5 -70 0
v -40 -70 0
v -80 -72.5 0
v -77.5 -72.5 0
v -77.5 -80 0
v -80 -80 0
v -62.5 -87.5 0
v -65 -87.5 0
v -65 -85 0
v -62.5 -85 0
v -77.5 -87.5 0
v -80 -87.5 0
v -80 -85 0
v -77.5 -85 0
v -70 -90 0
v -72.5 -87.5 0
v -70 -87.5 0
v -70 -92.5 0
v -77.5 -92.5 0
v -77.5 -90 0
v -77.5 -95 0
v -40 -97.5 0
v -45 -72.5 0
v -45 -70 0
v -47.5 -72.5 0
v -50 -72.5 0
v -40 -75 0
v -42.5 -75 0
v -75 -75 0
v -75 -72.5 0
v -62.5 -80 0
v -65 -80 0
v -65 -77.5 0
v -62.5 -77.5 0
v -67.5 -80 0
v -67.5 -77.5 0
v -75 -80 0
v -75 -77.5 0
v -65 -82.5 0
v -62.5 -82.5 0
v -67.5 -87.5 0
v -67.5 -85 0
v -75 -87.5 0
v -75 -85 0
v -80 -90 0
v -47.5 -100 0
v -47.5 -97.5 0
v -60 -100 0
v -60 -97.5 0
v -67.5 -100 0
v -67.5 -97.5 0
v -70 -100 0
v -72.5 -100 0
v -45 -75 0
v -47.5 -75 0
v -50 -75 0
v -52.5 -75 0
v -52.5 -72.5 0
v -55 -75 0
v -57.5 -75 0
v -57.5 -72.5 0
v -55 -72.5 0
v -60 -75 0
v -62.5 -75 0
v -62.5 -72.5 0
v -60 -72.5 0
v -65 -75 0
v -67.5 -75 0
v -67.5 -72.5 0
v -65 -72.5 0
v -70 -75 0
v -72.5 -75 0
v -72.5 -72.5 0
v -70 -72.5 0
v -70 -80 0
v -72.5 -80 0
v -72.5 -77.5 0
v -70 -77.5 0
v -72.5 -85 0
v -70 -85 0
v -50 -100 0
v -52.5 -100 0
v -52.5 -97.5 0
v -50 -97.5 0
v -55 -100 0
v -57.5 -100 0
v -57.5 -97.5 0
v -55 -97.5 0
v -37.5 -120 0
v -37.5 -117.5 0
v -45 -120 0
v -45 -117.5 0
v -37.5 -122.5 0
v -40 -122.5 0
v -42.5 -122.5 0
v -45 -122.5 0
v -37.5 -125 0
v -40 -125 0
v -42.5 -125 0
v -45 -125 0
v 0 -2.5 0
v -2.5 -2.5 0
v -2.5 0 0
v 0 0 0

# Texture cooridinates (Count = 36)
vt 0.0001220703 0.0001220703
vt 0.9998779 0.0001220703
vt 0.9998779 0.9998779
vt 0.0001220703 0.9998779
vt 4.069011E-05 0.6667074
vt 0.3332926 0.6667074
vt 0.3332926 0.9999593
vt 4.069011E-05 0.9999593
vt 0.6667073 0.6667074
vt 0.9999593 0.6667074
vt 0.9999593 0.9999593
vt 0.6667073 0.9999593
vt 4.069011E-05 0.333374
vt 0.3332926 0.333374
vt 0.3332926 0.666626
vt 4.069011E-05 0.666626
vt 0.333374 0.333374
vt 0.666626 0.333374
vt 0.666626 0.666626
vt 0.333374 0.666626
vt 0.6667073 0.333374
vt 0.9999593 0.333374
vt 0.9999593 0.666626
vt 0.6667073 0.666626
vt 4.069011E-05 4.070997E-05
vt 0.3332926 4.070997E-05
vt 0.3332926 0.3332927
vt 4.069011E-05 0.3332927
vt 0.333374 4.070997E-05
vt 0.666626 4.070997E-05
vt 0.666626 0.3332927
vt 0.333374 0.3332927
vt 0.6667073 4.070997E-05
vt 0.9999593 4.070997E-05
vt 0.9999593 0.3332927
vt 0.6667073 0.3332927

# Normal
vn 0 0 -1

# Groups (Count = 2)

g mesh_0001
f 1/1/1 2/2/1 3/3/1 4/4/1

g mesh_0002
f 5/1/1 6/2/1 2/3/1 1/4/1
f 7/1/1 8/2/1 9/3/1 10/4/1
f 11/1/1 12/2/1 13/3/1 14/4/1
f 15/1/1 16/2/1 12/3/1 11/4/1
f 17/1/1 18/2/1 15/3/1 19/4/1
f 20/1/1 21/2/1 22/3/1 23/4/1
f 24/1/1 25/2/1 26/3/1 27/4/1
f 28/1/1 29/2/1 20/3/1 30/4/1
f 31/1/1 32/2/1 29/3/1 28/4/1
f 33/1/1 34/2/1 32/3/1 31/4/1
f 35/1/1 36/2/1 34/3/1 33/4/1
f 37/1/1 38/2/1 36/3/1 35/4/1
f 39/1/1 40/2/1 38/3/1 37/4/1
f 41/1/1 42/2/1 40/3/1 39/4/1
f 43/1/1 44/2/1 42/3/1 41/4/1

g mesh_0003
f 45/4/1 46/1/1 6/2/1 5/3/1
f 46/2/1 47/3/1 48/4/1 6/1/1
f 49/1/1 50/2/1 46/3/1 45/4/1
f 50/3/1 51/4/1 47/1/1 46/2/1
f 52/1/1 53/2/1 54/3/1 55/4/1
f 10/2/1 9/3/1 56/4/1 57/1/1
f 58/3/1 59/4/1 8/1/1 7/2/1
f 60/4/1 61/1/1 62/2/1 63/3/1
f 64/2/1 65/3/1 66/4/1 67/1/1
f 68/1/1 14/2/1 69/3/1 70/4/1
f 71/4/1 11/1/1 14/2/1 68/3/1
f 12/2/1 72/3/1 73/4/1 13/1/1
f 19/1/1 15/2/1 11/3/1 71/4/1
f 16/3/1 74/4/1 72/1/1 12/2/1
f 30/1/1 20/2/1 23/3/1 75/4/1

g mesh_0004
f 53/2/1 76/3/1 77/4/1 54/1/1
f 78/3/1 79/4/1 50/1/1 49/2/1
f 80/3/1 81/4/1 53/1/1 52/2/1
f 82/4/1 10/1/1 57/2/1 83/3/1
f 84/4/1 85/1/1 86/2/1 87/3/1
f 85/2/1 88/3/1 89/4/1 86/1/1
f 90/4/1 58/1/1 7/2/1 91/3/1
f 63/1/1 62/2/1 92/3/1 93/4/1
f 61/2/1 94/3/1 95/4/1 62/1/1
f 96/4/1 64/1/1 67/2/1 97/3/1
f 14/2/1 13/3/1 96/4/1 69/1/1
f 73/3/1 98/4/1 65/1/1 64/2/1
f 21/2/1 99/3/1 100/4/1 22/1/1
f 101/4/1 24/1/1 27/2/1 102/3/1
f 25/2/1 103/3/1 104/4/1 26/1/1
f 105/3/1 106/4/1 18/1/1 17/2/1

g mesh_0005
f 107/1/1 108/2/1 78/3/1 76/4/1
f 109/1/1 110/2/1 111/3/1 79/4/1
f 112/1/1 113/2/1 114/3/1 115/4/1
f 116/1/1 117/2/1 118/3/1 119/4/1
f 120/1/1 121/2/1 122/3/1 123/4/1
f 124/1/1 125/2/1 126/3/1 127/4/1
f 128/1/1 129/2/1 130/3/1 131/4/1
f 70/1/1 69/2/1 132/3/1 133/4/1
f 134/1/1 135/2/1 136/3/1 137/4/1
f 138/1/1 139/2/1 140/3/1 141/4/1

g mesh_0006
f 142/5/1 43/6/1 41/7/1 143/8/1
f 44/9/1 144/10/1 145/11/1 42/12/1
f 146/13/1 147/14/1 43/15/1 142/16/1
f 147/17/1 148/18/1 44/19/1 43/20/1
f 148/21/1 149/22/1 144/23/1 44/24/1
f 150/25/1 151/26/1 147/27/1 146/28/1
f 151/29/1 152/30/1 148/31/1 147/32/1
f 152/33/1 153/34/1 149/35/1 148/36/1

g mesh_tile_0013
f 154/1/1 155/2/1 156/3/1 157/4/1

