# Wavefront OBJ file automatically generated by Tiled2Unity

# Vertices (Count = 72)
v -12.5 -7.5 0
v -15 -7.5 0
v -15 -5 0
v -12.5 -5 0
v -12.5 -10 0
v -15 -10 0
v -12.5 -12.5 0
v -15 -12.5 0
v -12.5 -15 0
v -15 -15 0
v -17.5 -25 0
v -20 -25 0
v -20 -22.5 0
v -17.5 -22.5 0
v -10 -27.5 0
v -12.5 -27.5 0
v -12.5 -25 0
v -10 -25 0
v -15 -27.5 0
v -15 -25 0
v -45 -70 0
v -47.5 -70 0
v -47.5 -67.5 0
v -45 -67.5 0
v -47.5 -77.5 0
v -50 -77.5 0
v -50 -75 0
v -47.5 -75 0
v -47.5 -80 0
v -50 -80 0
v -47.5 -82.5 0
v -50 -82.5 0
v -47.5 -92.5 0
v -50 -92.5 0
v -50 -90 0
v -47.5 -90 0
v -47.5 -95 0
v -50 -95 0
v -47.5 -97.5 0
v -50 -97.5 0
v -47.5 -100 0
v -50 -100 0
v -47.5 -102.5 0
v -50 -102.5 0
v -5 -42.5 0
v -7.5 -42.5 0
v -7.5 -40 0
v -5 -40 0
v -5 -47.5 0
v -7.5 -47.5 0
v -7.5 -45 0
v -5 -45 0
v -10 -55 0
v -12.5 -55 0
v -12.5 -52.5 0
v -10 -52.5 0
v -30 -57.5 0
v -32.5 -57.5 0
v -32.5 -55 0
v -30 -55 0
v -35 -57.5 0
v -37.5 -57.5 0
v -37.5 -55 0
v -35 -55 0
v -45 -107.5 0
v -52.68 -107.5 0
v -52.68 -99.82 0
v -45 -99.82 0
v 0 -2.5 0
v -2.5 -2.5 0
v -2.5 0 0
v 0 0 0

# Texture cooridinates (Count = 8)
vt 0.0001220703 0.0001220703
vt 0.9998779 0.0001220703
vt 0.9998779 0.9998779
vt 0.0001220703 0.9998779
vt 0.0001219116 0.0001220703
vt 0.9985777 0.0001220703
vt 0.9985777 0.9998779
vt 0.0001219116 0.9998779

# Normal
vn 0 0 -1

# Groups (Count = 5)

g mesh_0001
f 1/1/1 2/2/1 3/3/1 4/4/1

g mesh_0002
f 5/1/1 6/2/1 2/3/1 1/4/1
f 7/1/1 8/2/1 6/3/1 5/4/1
f 9/1/1 10/2/1 8/3/1 7/4/1
f 11/1/1 12/2/1 13/3/1 14/4/1
f 15/1/1 16/2/1 17/3/1 18/4/1
f 16/1/1 19/2/1 20/3/1 17/4/1
f 21/1/1 22/2/1 23/3/1 24/4/1
f 25/1/1 26/2/1 27/3/1 28/4/1
f 29/1/1 30/2/1 26/3/1 25/4/1
f 31/1/1 32/2/1 30/3/1 29/4/1
f 33/1/1 34/2/1 35/3/1 36/4/1
f 37/1/1 38/2/1 34/3/1 33/4/1
f 39/1/1 40/2/1 38/3/1 37/4/1
f 41/1/1 42/2/1 40/3/1 39/4/1
f 43/1/1 44/2/1 42/3/1 41/4/1

g mesh_0003
f 45/1/1 46/2/1 47/3/1 48/4/1
f 49/1/1 50/2/1 51/3/1 52/4/1
f 53/1/1 54/2/1 55/3/1 56/4/1
f 57/1/1 58/2/1 59/3/1 60/4/1
f 61/1/1 62/2/1 63/3/1 64/4/1

g mesh_0004
f 65/5/1 66/6/1 67/7/1 68/8/1

g mesh_tile_0012
f 69/1/1 70/2/1 71/3/1 72/4/1

g mesh_tile_0010
f 69/1/1 70/2/1 71/3/1 72/4/1

g mesh_tile_0004
f 69/1/1 70/2/1 71/3/1 72/4/1

g mesh_tile_0014
f 69/1/1 70/2/1 71/3/1 72/4/1

