# Wavefront OBJ file automatically generated by Tiled2Unity

# Vertices (Count = 130)
v -27.5 -5 0
v -30 -5 0
v -30 -2.5 0
v -27.5 -2.5 0
v -27.5 -7.5 0
v -30 -7.5 0
v -27.5 -10 0
v -30 -10 0
v -20 -12.5 0
v -22.5 -12.5 0
v -22.5 -10 0
v -20 -10 0
v -25 -12.5 0
v -25 -10 0
v -27.5 -12.5 0
v -17.5 -15 0
v -20 -15 0
v -17.5 -12.5 0
v -20 -17.5 0
v -22.5 -17.5 0
v -22.5 -15 0
v -22.5 -20 0
v -25 -20 0
v -25 -17.5 0
v -25 -30 0
v -27.5 -30 0
v -27.5 -27.5 0
v -25 -27.5 0
v -30 -30 0
v -30 -27.5 0
v -32.5 -30 0
v -32.5 -27.5 0
v -32.5 -37.5 0
v -35 -37.5 0
v -35 -35 0
v -32.5 -35 0
v -37.5 -42.5 0
v -40 -42.5 0
v -40 -40 0
v -37.5 -40 0
v -40 -45 0
v -42.5 -45 0
v -42.5 -42.5 0
v -40 -47.5 0
v -42.5 -47.5 0
v -40 -50 0
v -42.5 -50 0
v -40 -52.5 0
v -42.5 -52.5 0
v -42.5 -55 0
v -45 -55 0
v -45 -52.5 0
v -47.5 -55 0
v -47.5 -52.5 0
v -47.5 -57.5 0
v -50 -57.5 0
v -50 -55 0
v -50 -60 0
v -52.5 -60 0
v -52.5 -57.5 0
v -55 -60 0
v -55 -57.5 0
v -52.5 -62.5 0
v -55 -62.5 0
v -50 -65 0
v -52.5 -65 0
v -50 -62.5 0
v -50 -75 0
v -52.5 -75 0
v -52.5 -72.5 0
v -50 -72.5 0
v -45 -77.5 0
v -47.5 -77.5 0
v -47.5 -75 0
v -45 -75 0
v -42.5 -80 0
v -45 -80 0
v -42.5 -77.5 0
v -42.5 -82.5 0
v -45 -82.5 0
v -42.5 -85 0
v -45 -85 0
v -42.5 -87.5 0
v -45 -87.5 0
v -42.5 -90 0
v -45 -90 0
v -42.5 -92.5 0
v -45 -92.5 0
v -42.5 -95 0
v -45 -95 0
v -17.5 -10 0
v -42.5 -75 0
v -30 -12.5 0
v -57.5 -62.5 0
v -57.5 -60 0
v -50 -77.5 0
v -52.5 -77.5 0
v -17.5 -17.5 0
v -22.5 -30 0
v -22.5 -27.5 0
v -32.5 -40 0
v -35 -40 0
v -35 -42.5 0
v -40 -55 0
v -47.5 -60 0
v -25 -15 0
v -37.5 -37.5 0
v -42.5 -40 0
v -50 -52.5 0
v -57.5 -57.5 0
v -22.5 -22.5 0
v -25 -22.5 0
v -50 -67.5 0
v -52.5 -67.5 0
v -25 -25 0
v -22.5 -25 0
v -35 -32.5 0
v -32.5 -32.5 0
v -52.5 -70 0
v -50 -70 0
v -35 -30 0
v -35 -27.5 0
v -40 -100 0
v -47.68 -100 0
v -47.68 -92.32 0
v -40 -92.32 0
v 0 -2.5 0
v -2.5 -2.5 0
v -2.5 0 0
v 0 0 0

# Texture cooridinates (Count = 8)
vt 0.0001220703 0.0001220703
vt 0.9998779 0.0001220703
vt 0.9998779 0.9998779
vt 0.0001220703 0.9998779
vt 0.0001219116 0.0001220703
vt 0.9985777 0.0001220703
vt 0.9985777 0.9998779
vt 0.0001219116 0.9998779

# Normal
vn 0 0 -1

# Groups (Count = 2)

g mesh_0001
f 1/1/1 2/2/1 3/3/1 4/4/1

g mesh_0002
f 5/1/1 6/2/1 2/3/1 1/4/1
f 7/1/1 8/2/1 6/3/1 5/4/1
f 9/1/1 10/2/1 11/3/1 12/4/1
f 10/1/1 13/2/1 14/3/1 11/4/1
f 13/1/1 15/2/1 7/3/1 14/4/1
f 16/1/1 17/2/1 9/3/1 18/4/1
f 19/1/1 20/2/1 21/3/1 17/4/1
f 22/1/1 23/2/1 24/3/1 20/4/1
f 25/1/1 26/2/1 27/3/1 28/4/1
f 26/1/1 29/2/1 30/3/1 27/4/1
f 29/1/1 31/2/1 32/3/1 30/4/1
f 33/1/1 34/2/1 35/3/1 36/4/1
f 37/1/1 38/2/1 39/3/1 40/4/1
f 41/1/1 42/2/1 43/3/1 38/4/1
f 44/1/1 45/2/1 42/3/1 41/4/1
f 46/1/1 47/2/1 45/3/1 44/4/1
f 48/1/1 49/2/1 47/3/1 46/4/1
f 50/1/1 51/2/1 52/3/1 49/4/1
f 51/1/1 53/2/1 54/3/1 52/4/1
f 55/1/1 56/2/1 57/3/1 53/4/1
f 58/1/1 59/2/1 60/3/1 56/4/1
f 59/1/1 61/2/1 62/3/1 60/4/1
f 63/1/1 64/2/1 61/3/1 59/4/1
f 65/1/1 66/2/1 63/3/1 67/4/1
f 68/1/1 69/2/1 70/3/1 71/4/1
f 72/1/1 73/2/1 74/3/1 75/4/1
f 76/1/1 77/2/1 72/3/1 78/4/1
f 79/1/1 80/2/1 77/3/1 76/4/1
f 81/1/1 82/2/1 80/3/1 79/4/1
f 83/1/1 84/2/1 82/3/1 81/4/1
f 85/1/1 86/2/1 84/3/1 83/4/1
f 87/1/1 88/2/1 86/3/1 85/4/1
f 89/1/1 90/2/1 88/3/1 87/4/1

g mesh_0003
f 18/1/1 9/2/1 12/3/1 91/4/1
f 67/1/1 63/2/1 59/3/1 58/4/1
f 78/1/1 72/2/1 75/3/1 92/4/1

g mesh_0004
f 15/1/1 93/2/1 8/3/1 7/4/1
f 64/1/1 94/2/1 95/3/1 61/4/1
f 96/1/1 97/2/1 69/3/1 68/4/1

g mesh_0005
f 98/1/1 19/2/1 17/3/1 16/4/1
f 99/1/1 25/2/1 28/3/1 100/4/1
f 101/1/1 102/2/1 34/3/1 33/4/1
f 103/1/1 37/2/1 40/3/1 102/4/1
f 104/1/1 50/2/1 49/3/1 48/4/1
f 105/1/1 58/2/1 56/3/1 55/4/1
f 73/1/1 96/2/1 68/3/1 74/4/1

g mesh_0006
f 20/1/1 24/2/1 106/3/1 21/4/1
f 102/1/1 40/2/1 107/3/1 34/4/1
f 38/1/1 43/2/1 108/3/1 39/4/1
f 53/1/1 57/2/1 109/3/1 54/4/1
f 61/1/1 95/2/1 110/3/1 62/4/1

g mesh_0007
f 111/1/1 112/2/1 23/3/1 22/4/1
f 113/1/1 114/2/1 66/3/1 65/4/1

g mesh_0008
f 100/1/1 28/2/1 115/3/1 116/4/1
f 36/1/1 35/2/1 117/3/1 118/4/1
f 71/1/1 70/2/1 119/3/1 120/4/1

g mesh_0009
f 31/1/1 121/2/1 122/3/1 32/4/1

g mesh_0010
f 123/5/1 124/6/1 125/7/1 126/8/1

g mesh_tile_0013
f 127/1/1 128/2/1 129/3/1 130/4/1

