# Wavefront OBJ file automatically generated by Tiled2Unity

# Vertices (Count = 157)
v -6250 -500 0
v -6500 -500 0
v -6500 -250 0
v -6250 -250 0
v -6250 -750 0
v -6500 -750 0
v -6500 -1000 0
v -6750 -1000 0
v -6750 -750 0
v -6750 -1250 0
v -7000 -1250 0
v -7000 -1000 0
v -6750 -1500 0
v -7000 -1500 0
v -6750 -1750 0
v -7000 -1750 0
v -6500 -2000 0
v -6750 -2000 0
v -6500 -1750 0
v -6250 -2250 0
v -6500 -2250 0
v -6250 -2000 0
v -6250 -2750 0
v -6500 -2750 0
v -6500 -2500 0
v -6250 -2500 0
v -6250 -3000 0
v -6500 -3000 0
v -6000 -3500 0
v -6250 -3500 0
v -6250 -3250 0
v -6000 -3250 0
v -6000 -3750 0
v -6250 -3750 0
v -5750 -4000 0
v -6000 -4000 0
v -5750 -3750 0
v -5500 -4250 0
v -5750 -4250 0
v -5500 -4000 0
v -5500 -4500 0
v -5750 -4500 0
v -5000 -5000 0
v -5250 -5000 0
v -5250 -4750 0
v -5000 -4750 0
v -5500 -5000 0
v -5500 -4750 0
v -5500 -5250 0
v -5750 -5250 0
v -5750 -5000 0
v -5750 -5500 0
v -6000 -5500 0
v -6000 -5250 0
v -6000 -5750 0
v -6250 -5750 0
v -6250 -5500 0
v -6000 -6000 0
v -6250 -6000 0
v -6000 -6500 0
v -6250 -6500 0
v -6250 -6250 0
v -6000 -6250 0
v -5250 -7000 0
v -5500 -7000 0
v -5500 -6750 0
v -5250 -6750 0
v -5500 -7250 0
v -5750 -7250 0
v -5750 -7000 0
v -5750 -7500 0
v -6000 -7500 0
v -6000 -7250 0
v -4500 -8500 0
v -4750 -8500 0
v -4750 -8250 0
v -4500 -8250 0
v -5000 -8500 0
v -5000 -8250 0
v -4250 -9500 0
v -4500 -9500 0
v -4500 -9250 0
v -4250 -9250 0
v -4500 -9750 0
v -4750 -9750 0
v -4750 -9500 0
v -4750 -10000 0
v -5000 -10000 0
v -5000 -9750 0
v -4750 -10500 0
v -5000 -10500 0
v -5000 -10250 0
v -4750 -10250 0
v -4750 -10750 0
v -5000 -10750 0
v -4750 -11000 0
v -5000 -11000 0
v -4750 -11250 0
v -5000 -11250 0
v -4750 -11500 0
v -5000 -11500 0
v -4750 -11750 0
v -5000 -11750 0
v -4750 -12000 0
v -5000 -12000 0
v -6250 -1000 0
v -4750 -5000 0
v -4750 -4750 0
v -5500 -5500 0
v -5250 -7250 0
v -4250 -9750 0
v -7000 -750 0
v -5750 -4750 0
v -6250 -5250 0
v -6000 -7000 0
v -5000 -9500 0
v -6250 -1750 0
v -6000 -3000 0
v -5500 -3750 0
v -5000 -4500 0
v -4750 -4500 0
v -5500 -6500 0
v -5250 -6500 0
v -4250 -8500 0
v -4250 -8250 0
v -7000 -2000 0
v -6500 -3250 0
v -6250 -4000 0
v -5250 -8500 0
v -5250 -8250 0
v -5250 -4500 0
v -5750 -6750 0
v -5750 -6500 0
v -5250 -7750 0
v -5500 -7750 0
v -5500 -7500 0
v -5250 -7500 0
v -6000 -6750 0
v -6250 -6750 0
v -5750 -7750 0
v -6000 -7750 0
v -4250 -8750 0
v -4500 -8750 0
v -5000 -7750 0
v -5000 -7500 0
v -5250 -8000 0
v -5000 -8000 0
v -4500 -9000 0
v -4250 -9000 0
v -4500 -12500 0
v -5250 -12500 0
v -5250 -11750 0
v -4500 -11750 0
v 0 -250 0
v -250 -250 0
v -250 0 0
v 0 0 0

# Texture cooridinates (Count = 4)
vt 0.0001220703 0.0001220703
vt 0.9998779 0.0001220703
vt 0.9998779 0.9998779
vt 0.0001220703 0.9998779

# Normal
vn 0 0 -1

# Groups (Count = 3)

g mesh_0001
f 1/1/1 2/2/1 3/3/1 4/4/1

g mesh_0002
f 5/1/1 6/2/1 2/3/1 1/4/1
f 7/1/1 8/2/1 9/3/1 6/4/1
f 10/1/1 11/2/1 12/3/1 8/4/1
f 13/1/1 14/2/1 11/3/1 10/4/1
f 15/1/1 16/2/1 14/3/1 13/4/1
f 17/1/1 18/2/1 15/3/1 19/4/1
f 20/1/1 21/2/1 17/3/1 22/4/1
f 23/1/1 24/2/1 25/3/1 26/4/1
f 27/1/1 28/2/1 24/3/1 23/4/1
f 29/1/1 30/2/1 31/3/1 32/4/1
f 33/1/1 34/2/1 30/3/1 29/4/1
f 35/1/1 36/2/1 33/3/1 37/4/1
f 38/1/1 39/2/1 35/3/1 40/4/1
f 41/1/1 42/2/1 39/3/1 38/4/1
f 43/1/1 44/2/1 45/3/1 46/4/1
f 44/1/1 47/2/1 48/3/1 45/4/1
f 49/1/1 50/2/1 51/3/1 47/4/1
f 52/1/1 53/2/1 54/3/1 50/4/1
f 55/1/1 56/2/1 57/3/1 53/4/1
f 58/1/1 59/2/1 56/3/1 55/4/1
f 60/1/1 61/2/1 62/3/1 63/4/1
f 64/1/1 65/2/1 66/3/1 67/4/1
f 68/1/1 69/2/1 70/3/1 65/4/1
f 71/1/1 72/2/1 73/3/1 69/4/1
f 74/1/1 75/2/1 76/3/1 77/4/1
f 75/1/1 78/2/1 79/3/1 76/4/1
f 80/1/1 81/2/1 82/3/1 83/4/1
f 84/1/1 85/2/1 86/3/1 81/4/1
f 87/1/1 88/2/1 89/3/1 85/4/1
f 90/1/1 91/2/1 92/3/1 93/4/1
f 94/1/1 95/2/1 91/3/1 90/4/1
f 96/1/1 97/2/1 95/3/1 94/4/1
f 98/1/1 99/2/1 97/3/1 96/4/1
f 100/1/1 101/2/1 99/3/1 98/4/1
f 102/1/1 103/2/1 101/3/1 100/4/1
f 104/1/1 105/2/1 103/3/1 102/4/1

g mesh_0003
f 106/1/1 7/2/1 6/3/1 5/4/1
f 107/1/1 43/2/1 46/3/1 108/4/1
f 109/1/1 52/2/1 50/3/1 49/4/1
f 110/1/1 68/2/1 65/3/1 64/4/1
f 111/1/1 84/2/1 81/3/1 80/4/1

g mesh_0004
f 8/1/1 12/2/1 112/3/1 9/4/1
f 47/1/1 51/2/1 113/3/1 48/4/1
f 53/1/1 57/2/1 114/3/1 54/4/1
f 69/1/1 73/2/1 115/3/1 70/4/1
f 85/1/1 89/2/1 116/3/1 86/4/1

g mesh_0005
f 22/1/1 17/2/1 19/3/1 117/4/1
f 32/1/1 31/2/1 27/3/1 118/4/1
f 40/1/1 35/2/1 37/3/1 119/4/1
f 108/1/1 46/2/1 120/3/1 121/4/1
f 67/1/1 66/2/1 122/3/1 123/4/1
f 124/1/1 74/2/1 77/3/1 125/4/1

g mesh_0006
f 18/1/1 126/2/1 16/3/1 15/4/1
f 31/1/1 127/2/1 28/3/1 27/4/1
f 36/1/1 128/2/1 34/3/1 33/4/1
f 78/1/1 129/2/1 130/3/1 79/4/1

g mesh_0007
f 46/1/1 45/2/1 131/3/1 120/4/1
f 66/1/1 132/2/1 133/3/1 122/4/1
f 134/1/1 135/2/1 136/3/1 137/4/1

g mesh_0008
f 48/1/1 113/2/1 42/3/1 41/4/1
f 138/1/1 139/2/1 61/3/1 60/4/1
f 140/1/1 141/2/1 72/3/1 71/4/1
f 142/1/1 143/2/1 74/3/1 124/4/1

g mesh_0009
f 144/1/1 134/2/1 137/3/1 145/4/1

g mesh_0010
f 79/1/1 130/2/1 146/3/1 147/4/1
f 83/1/1 82/2/1 148/3/1 149/4/1

g mesh_0011
f 150/1/1 151/2/1 152/3/1 153/4/1

g mesh_tile_0010
f 154/1/1 155/2/1 156/3/1 157/4/1

g mesh_tile_0008
f 154/1/1 155/2/1 156/3/1 157/4/1

