# Wavefront OBJ file automatically generated by Tiled2Unity

# Vertices (Count = 118)
v -45 -32.5 0
v -47.5 -32.5 0
v -47.5 -30 0
v -45 -30 0
v -45 -35 0
v -47.5 -35 0
v -45 -37.5 0
v -47.5 -37.5 0
v -37.5 -42.5 0
v -40 -42.5 0
v -40 -40 0
v -37.5 -40 0
v -40 -45 0
v -42.5 -45 0
v -42.5 -42.5 0
v -42.5 -47.5 0
v -45 -47.5 0
v -45 -45 0
v -52.5 -50 0
v -55 -50 0
v -55 -47.5 0
v -52.5 -47.5 0
v -62.5 -60 0
v -65 -60 0
v -65 -57.5 0
v -62.5 -57.5 0
v -65 -62.5 0
v -67.5 -62.5 0
v -67.5 -60 0
v -67.5 -65 0
v -70 -65 0
v -70 -62.5 0
v -57.5 -67.5 0
v -60 -67.5 0
v -60 -65 0
v -57.5 -65 0
v -62.5 -67.5 0
v -62.5 -65 0
v -47.5 -72.5 0
v -50 -72.5 0
v -50 -70 0
v -47.5 -70 0
v -47.5 -75 0
v -50 -75 0
v -40 -80 0
v -42.5 -80 0
v -42.5 -77.5 0
v -40 -77.5 0
v -42.5 -82.5 0
v -45 -82.5 0
v -45 -80 0
v -42.5 -85 0
v -45 -85 0
v -42.5 -87.5 0
v -45 -87.5 0
v -42.5 -90 0
v -45 -90 0
v -42.5 -92.5 0
v -45 -92.5 0
v -42.5 -95 0
v -45 -95 0
v -40 -37.5 0
v -37.5 -37.5 0
v -55 -67.5 0
v -55 -65 0
v -50 -67.5 0
v -47.5 -67.5 0
v -37.5 -77.5 0
v -40 -75 0
v -37.5 -75 0
v -42.5 -40 0
v -42.5 -37.5 0
v -45 -50 0
v -47.5 -50 0
v -47.5 -47.5 0
v -62.5 -52.5 0
v -65 -52.5 0
v -65 -50 0
v -62.5 -50 0
v -65 -67.5 0
v -65 -65 0
v -52.5 -70 0
v -52.5 -67.5 0
v -42.5 -75 0
v -45 -40 0
v -47.5 -40 0
v -55 -52.5 0
v -57.5 -52.5 0
v -57.5 -50 0
v -67.5 -67.5 0
v -70 -67.5 0
v -55 -70 0
v -57.5 -70 0
v -37.5 -45 0
v -42.5 -50 0
v -62.5 -62.5 0
v -37.5 -80 0
v -45 -42.5 0
v -57.5 -47.5 0
v -70 -60 0
v -45 -77.5 0
v -50 -50 0
v -50 -47.5 0
v -60 -52.5 0
v -60 -50 0
v -47.5 -77.5 0
v -45 -75 0
v -65 -55 0
v -62.5 -55 0
v -50 -77.5 0
v -40 -100 0
v -47.68 -100 0
v -47.68 -92.32 0
v -40 -92.32 0
v 0 -2.5 0
v -2.5 -2.5 0
v -2.5 0 0
v 0 0 0

# Texture cooridinates (Count = 8)
vt 0.0001220703 0.0001220703
vt 0.9998779 0.0001220703
vt 0.9998779 0.9998779
vt 0.0001220703 0.9998779
vt 0.0001219116 0.0001220703
vt 0.9985777 0.0001220703
vt 0.9985777 0.9998779
vt 0.0001219116 0.9998779

# Normal
vn 0 0 -1

# Groups (Count = 2)

g mesh_0001
f 1/1/1 2/2/1 3/3/1 4/4/1

g mesh_0002
f 5/1/1 6/2/1 2/3/1 1/4/1
f 7/1/1 8/2/1 6/3/1 5/4/1
f 9/1/1 10/2/1 11/3/1 12/4/1
f 13/1/1 14/2/1 15/3/1 10/4/1
f 16/1/1 17/2/1 18/3/1 14/4/1
f 19/1/1 20/2/1 21/3/1 22/4/1
f 23/1/1 24/2/1 25/3/1 26/4/1
f 27/1/1 28/2/1 29/3/1 24/4/1
f 30/1/1 31/2/1 32/3/1 28/4/1
f 33/1/1 34/2/1 35/3/1 36/4/1
f 34/1/1 37/2/1 38/3/1 35/4/1
f 39/1/1 40/2/1 41/3/1 42/4/1
f 43/1/1 44/2/1 40/3/1 39/4/1
f 45/1/1 46/2/1 47/3/1 48/4/1
f 49/1/1 50/2/1 51/3/1 46/4/1
f 52/1/1 53/2/1 50/3/1 49/4/1
f 54/1/1 55/2/1 53/3/1 52/4/1
f 56/1/1 57/2/1 55/3/1 54/4/1
f 58/1/1 59/2/1 57/3/1 56/4/1
f 60/1/1 61/2/1 59/3/1 58/4/1

g mesh_0003
f 12/1/1 11/2/1 62/3/1 63/4/1
f 64/1/1 33/2/1 36/3/1 65/4/1
f 42/1/1 41/2/1 66/3/1 67/4/1
f 68/1/1 48/2/1 69/3/1 70/4/1

g mesh_0004
f 11/1/1 71/2/1 72/3/1 62/4/1
f 73/1/1 74/2/1 75/3/1 17/4/1
f 76/1/1 77/2/1 78/3/1 79/4/1
f 37/1/1 80/2/1 81/3/1 38/4/1
f 41/1/1 82/2/1 83/3/1 66/4/1
f 48/1/1 47/2/1 84/3/1 69/4/1

g mesh_0005
f 85/1/1 86/2/1 8/3/1 7/4/1
f 87/1/1 88/2/1 89/3/1 20/4/1
f 90/1/1 91/2/1 31/3/1 30/4/1
f 92/1/1 93/2/1 33/3/1 64/4/1

g mesh_0006
f 94/1/1 13/2/1 10/3/1 9/4/1
f 95/1/1 73/2/1 17/3/1 16/4/1
f 96/1/1 27/2/1 24/3/1 23/4/1
f 97/1/1 45/2/1 48/3/1 68/4/1

g mesh_0007
f 14/1/1 18/2/1 98/3/1 15/4/1
f 20/1/1 89/2/1 99/3/1 21/4/1
f 28/1/1 32/2/1 100/3/1 29/4/1
f 46/1/1 51/2/1 101/3/1 47/4/1

g mesh_0008
f 102/1/1 19/2/1 22/3/1 103/4/1
f 104/1/1 76/2/1 79/3/1 105/4/1
f 101/1/1 106/2/1 43/3/1 107/4/1

g mesh_0009
f 26/1/1 25/2/1 108/3/1 109/4/1

g mesh_0010
f 106/1/1 110/2/1 44/3/1 43/4/1

g mesh_0011
f 111/5/1 112/6/1 113/7/1 114/8/1

g mesh_tile_0013
f 115/1/1 116/2/1 117/3/1 118/4/1

