# Wavefront OBJ file automatically generated by Tiled2Unity

# Vertices (Count = 150)
v -80 -5 0
v -82.5 -5 0
v -82.5 -2.5 0
v -80 -2.5 0
v -80 -7.5 0
v -82.5 -7.5 0
v -85 -17.5 0
v -87.5 -17.5 0
v -87.5 -15 0
v -85 -15 0
v -75 -27.5 0
v -77.5 -27.5 0
v -77.5 -25 0
v -75 -25 0
v -77.5 -30 0
v -80 -30 0
v -80 -27.5 0
v -77.5 -37.5 0
v -80 -37.5 0
v -80 -35 0
v -77.5 -35 0
v -62.5 -42.5 0
v -65 -42.5 0
v -65 -40 0
v -62.5 -40 0
v -60 -45 0
v -62.5 -45 0
v -60 -42.5 0
v -57.5 -47.5 0
v -60 -47.5 0
v -57.5 -45 0
v -65 -52.5 0
v -67.5 -52.5 0
v -67.5 -50 0
v -65 -50 0
v -62.5 -57.5 0
v -65 -57.5 0
v -65 -55 0
v -62.5 -55 0
v -65 -72.5 0
v -67.5 -72.5 0
v -67.5 -70 0
v -65 -70 0
v -70 -72.5 0
v -70 -70 0
v -70 -85 0
v -72.5 -85 0
v -72.5 -82.5 0
v -70 -82.5 0
v -70 -87.5 0
v -72.5 -87.5 0
v -70 -90 0
v -72.5 -90 0
v -70 -92.5 0
v -72.5 -92.5 0
v -70 -95 0
v -72.5 -95 0
v -77.5 -10 0
v -80 -10 0
v -77.5 -7.5 0
v -87.5 -12.5 0
v -85 -12.5 0
v -80 -32.5 0
v -77.5 -32.5 0
v -65 -37.5 0
v -62.5 -37.5 0
v -57.5 -42.5 0
v -62.5 -52.5 0
v -82.5 -10 0
v -95 -15 0
v -97.5 -15 0
v -97.5 -12.5 0
v -95 -12.5 0
v -82.5 -35 0
v -82.5 -32.5 0
v -77.5 -40 0
v -80 -40 0
v -65 -45 0
v -67.5 -55 0
v -77.5 -12.5 0
v -80 -12.5 0
v -85 -20 0
v -87.5 -20 0
v -57.5 -50 0
v -60 -50 0
v -62.5 -60 0
v -65 -60 0
v -82.5 -12.5 0
v -85 -10 0
v -90 -12.5 0
v -90 -10 0
v -87.5 -10 0
v -80 -20 0
v -82.5 -20 0
v -82.5 -17.5 0
v -80 -17.5 0
v -70 -40 0
v -72.5 -40 0
v -72.5 -37.5 0
v -70 -37.5 0
v -62.5 -65 0
v -65 -65 0
v -65 -62.5 0
v -62.5 -62.5 0
v -70 -77.5 0
v -72.5 -77.5 0
v -72.5 -75 0
v -70 -75 0
v -92.5 -12.5 0
v -95 -10 0
v -92.5 -10 0
v -92.5 -15 0
v -72.5 -20 0
v -75 -20 0
v -75 -17.5 0
v -72.5 -17.5 0
v -75 -40 0
v -75 -37.5 0
v -62.5 -50 0
v -65 -47.5 0
v -62.5 -47.5 0
v -97.5 -10 0
v -80 -25 0
v -82.5 -30 0
v -67.5 -47.5 0
v -90 -15 0
v -77.5 -20 0
v -77.5 -17.5 0
v -67.5 -40 0
v -67.5 -37.5 0
v -72.5 -72.5 0
v -72.5 -70 0
v -72.5 -25 0
v -75 -22.5 0
v -72.5 -22.5 0
v -62.5 -70 0
v -65 -67.5 0
v -62.5 -67.5 0
v -72.5 -80 0
v -70 -80 0
v -72.5 -27.5 0
v -62.5 -72.5 0
v -67.5 -100 0
v -75 -100 0
v -75 -92.5 0
v -67.5 -92.5 0
v 0 -2.5 0
v -2.5 -2.5 0
v -2.5 0 0
v 0 0 0

# Texture cooridinates (Count = 4)
vt 0.0001220703 0.0001220703
vt 0.9998779 0.0001220703
vt 0.9998779 0.9998779
vt 0.0001220703 0.9998779

# Normal
vn 0 0 -1

# Groups (Count = 2)

g mesh_0001
f 1/1/1 2/2/1 3/3/1 4/4/1

g mesh_0002
f 5/1/1 6/2/1 2/3/1 1/4/1
f 7/1/1 8/2/1 9/3/1 10/4/1
f 11/1/1 12/2/1 13/3/1 14/4/1
f 15/1/1 16/2/1 17/3/1 12/4/1
f 18/1/1 19/2/1 20/3/1 21/4/1
f 22/1/1 23/2/1 24/3/1 25/4/1
f 26/1/1 27/2/1 22/3/1 28/4/1
f 29/1/1 30/2/1 26/3/1 31/4/1
f 32/1/1 33/2/1 34/3/1 35/4/1
f 36/1/1 37/2/1 38/3/1 39/4/1
f 40/1/1 41/2/1 42/3/1 43/4/1
f 41/1/1 44/2/1 45/3/1 42/4/1
f 46/1/1 47/2/1 48/3/1 49/4/1
f 50/1/1 51/2/1 47/3/1 46/4/1
f 52/1/1 53/2/1 51/3/1 50/4/1
f 54/1/1 55/2/1 53/3/1 52/4/1
f 56/1/1 57/2/1 55/3/1 54/4/1

g mesh_0003
f 58/1/1 59/2/1 5/3/1 60/4/1
f 10/1/1 9/2/1 61/3/1 62/4/1
f 21/1/1 20/2/1 63/3/1 64/4/1
f 25/1/1 24/2/1 65/3/1 66/4/1
f 31/1/1 26/2/1 28/3/1 67/4/1
f 39/1/1 38/2/1 32/3/1 68/4/1

g mesh_0004
f 59/1/1 69/2/1 6/3/1 5/4/1
f 70/1/1 71/2/1 72/3/1 73/4/1
f 20/1/1 74/2/1 75/3/1 63/4/1
f 76/1/1 77/2/1 19/3/1 18/4/1
f 27/1/1 78/2/1 23/3/1 22/4/1
f 38/1/1 79/2/1 33/3/1 32/4/1

g mesh_0005
f 80/1/1 81/2/1 59/3/1 58/4/1
f 82/1/1 83/2/1 8/3/1 7/4/1
f 84/1/1 85/2/1 30/3/1 29/4/1
f 86/1/1 87/2/1 37/3/1 36/4/1

g mesh_0006
f 88/1/1 62/2/1 89/3/1 69/4/1
f 61/1/1 90/2/1 91/3/1 92/4/1
f 93/1/1 94/2/1 95/3/1 96/4/1
f 97/1/1 98/2/1 99/3/1 100/4/1
f 101/1/1 102/2/1 103/3/1 104/4/1
f 105/1/1 106/2/1 107/3/1 108/4/1

g mesh_0007
f 109/1/1 73/2/1 110/3/1 111/4/1
f 112/1/1 70/2/1 73/3/1 109/4/1
f 113/1/1 114/2/1 115/3/1 116/4/1
f 117/1/1 76/2/1 18/3/1 118/4/1
f 119/1/1 35/2/1 120/3/1 121/4/1

g mesh_0008
f 73/1/1 72/2/1 122/3/1 110/4/1
f 12/1/1 17/2/1 123/3/1 13/4/1
f 63/1/1 75/2/1 124/3/1 16/4/1
f 35/1/1 34/2/1 125/3/1 120/4/1

g mesh_0009
f 9/1/1 126/2/1 90/3/1 61/4/1
f 114/1/1 127/2/1 128/3/1 115/4/1
f 24/1/1 129/2/1 130/3/1 65/4/1
f 44/1/1 131/2/1 132/3/1 45/4/1

g mesh_0010
f 133/1/1 14/2/1 134/3/1 135/4/1
f 136/1/1 43/2/1 137/3/1 138/4/1
f 49/1/1 48/2/1 139/3/1 140/4/1

g mesh_0011
f 141/1/1 11/2/1 14/3/1 133/4/1
f 64/1/1 63/2/1 16/3/1 15/4/1
f 142/1/1 40/2/1 43/3/1 136/4/1

g mesh_0012
f 143/1/1 144/2/1 145/3/1 146/4/1

g mesh_tile_0002
f 147/1/1 148/2/1 149/3/1 150/4/1

