# Wavefront OBJ file automatically generated by Tiled2Unity

# Vertices (Count = 169)
v -65 -7.5 0
v -67.5 -7.5 0
v -67.5 -5 0
v -65 -5 0
v -65 -10 0
v -67.5 -10 0
v -65 -12.5 0
v -67.5 -12.5 0
v -62.5 -15 0
v -65 -15 0
v -62.5 -12.5 0
v -57.5 -22.5 0
v -60 -22.5 0
v -60 -20 0
v -57.5 -20 0
v -50 -35 0
v -52.5 -35 0
v -52.5 -32.5 0
v -50 -32.5 0
v -47.5 -37.5 0
v -50 -37.5 0
v -47.5 -35 0
v -45 -40 0
v -47.5 -40 0
v -45 -37.5 0
v -42.5 -42.5 0
v -45 -42.5 0
v -42.5 -40 0
v -40 -45 0
v -42.5 -45 0
v -40 -42.5 0
v -50 -50 0
v -52.5 -50 0
v -52.5 -47.5 0
v -50 -47.5 0
v -57.5 -55 0
v -60 -55 0
v -60 -52.5 0
v -57.5 -52.5 0
v -60 -57.5 0
v -62.5 -57.5 0
v -62.5 -55 0
v -62.5 -60 0
v -65 -60 0
v -65 -57.5 0
v -60 -62.5 0
v -62.5 -62.5 0
v -60 -60 0
v -57.5 -65 0
v -60 -65 0
v -57.5 -62.5 0
v -52.5 -75 0
v -55 -75 0
v -55 -72.5 0
v -52.5 -72.5 0
v -52.5 -97.5 0
v -55 -97.5 0
v -55 -95 0
v -52.5 -95 0
v -52.5 -100 0
v -55 -100 0
v -52.5 -102.5 0
v -55 -102.5 0
v -45 -107.5 0
v -47.5 -107.5 0
v -47.5 -105 0
v -45 -105 0
v -45 -110 0
v -47.5 -110 0
v -45 -112.5 0
v -47.5 -112.5 0
v -45 -115 0
v -47.5 -115 0
v -45 -117.5 0
v -47.5 -117.5 0
v -45 -120 0
v -47.5 -120 0
v -60 -15 0
v -60 -12.5 0
v -55 -22.5 0
v -55 -20 0
v -47.5 -47.5 0
v -50 -45 0
v -47.5 -45 0
v -55 -52.5 0
v -57.5 -50 0
v -55 -50 0
v -55 -67.5 0
v -57.5 -67.5 0
v -55 -65 0
v -67.5 -15 0
v -62.5 -22.5 0
v -62.5 -20 0
v -52.5 -37.5 0
v -47.5 -42.5 0
v -65 -62.5 0
v -60 -67.5 0
v -57.5 -75 0
v -57.5 -72.5 0
v -62.5 -17.5 0
v -60 -17.5 0
v -55 -27.5 0
v -57.5 -27.5 0
v -57.5 -25 0
v -55 -25 0
v -57.5 -70 0
v -55 -70 0
v -50 -92.5 0
v -52.5 -92.5 0
v -52.5 -90 0
v -50 -90 0
v -55 -30 0
v -57.5 -30 0
v -40 -47.5 0
v -42.5 -47.5 0
v -57.5 -57.5 0
v -60 -30 0
v -60 -27.5 0
v -52.5 -45 0
v -60 -50 0
v -65 -55 0
v -50 -95 0
v -55 -92.5 0
v -52.5 -30 0
v -50 -30 0
v -45 -35 0
v -40 -40 0
v -57.5 -60 0
v -50 -75 0
v -50 -72.5 0
v -47.5 -102.5 0
v -45 -102.5 0
v -55 -32.5 0
v -45 -47.5 0
v -45 -45 0
v -50 -105 0
v -50 -102.5 0
v -57.5 -32.5 0
v -60 -32.5 0
v -50 -52.5 0
v -52.5 -52.5 0
v -50 -77.5 0
v -52.5 -77.5 0
v -52.5 -105 0
v -55 -105 0
v -50 -82.5 0
v -52.5 -82.5 0
v -52.5 -80 0
v -50 -80 0
v -50 -87.5 0
v -52.5 -87.5 0
v -52.5 -85 0
v -50 -85 0
v -42.5 -120 0
v -42.5 -117.5 0
v -50 -120 0
v -50 -117.5 0
v -42.5 -122.5 0
v -45 -122.5 0
v -47.5 -122.5 0
v -50 -122.5 0
v -42.5 -125 0
v -45 -125 0
v -47.5 -125 0
v -50 -125 0
v 0 -2.5 0
v -2.5 -2.5 0
v -2.5 0 0
v 0 0 0

# Texture cooridinates (Count = 36)
vt 0.0001220703 0.0001220703
vt 0.9998779 0.0001220703
vt 0.9998779 0.9998779
vt 0.0001220703 0.9998779
vt 4.069011E-05 0.6667074
vt 0.3332926 0.6667074
vt 0.3332926 0.9999593
vt 4.069011E-05 0.9999593
vt 0.6667073 0.6667074
vt 0.9999593 0.6667074
vt 0.9999593 0.9999593
vt 0.6667073 0.9999593
vt 4.069011E-05 0.333374
vt 0.3332926 0.333374
vt 0.3332926 0.666626
vt 4.069011E-05 0.666626
vt 0.333374 0.333374
vt 0.666626 0.333374
vt 0.666626 0.666626
vt 0.333374 0.666626
vt 0.6667073 0.333374
vt 0.9999593 0.333374
vt 0.9999593 0.666626
vt 0.6667073 0.666626
vt 4.069011E-05 4.070997E-05
vt 0.3332926 4.070997E-05
vt 0.3332926 0.3332927
vt 4.069011E-05 0.3332927
vt 0.333374 4.070997E-05
vt 0.666626 4.070997E-05
vt 0.666626 0.3332927
vt 0.333374 0.3332927
vt 0.6667073 4.070997E-05
vt 0.9999593 4.070997E-05
vt 0.9999593 0.3332927
vt 0.6667073 0.3332927

# Normal
vn 0 0 -1

# Groups (Count = 2)

g mesh_0001
f 1/1/1 2/2/1 3/3/1 4/4/1

g mesh_0002
f 5/1/1 6/2/1 2/3/1 1/4/1
f 7/1/1 8/2/1 6/3/1 5/4/1
f 9/1/1 10/2/1 7/3/1 11/4/1
f 12/1/1 13/2/1 14/3/1 15/4/1
f 16/1/1 17/2/1 18/3/1 19/4/1
f 20/1/1 21/2/1 16/3/1 22/4/1
f 23/1/1 24/2/1 20/3/1 25/4/1
f 26/1/1 27/2/1 23/3/1 28/4/1
f 29/1/1 30/2/1 26/3/1 31/4/1
f 32/1/1 33/2/1 34/3/1 35/4/1
f 36/1/1 37/2/1 38/3/1 39/4/1
f 40/1/1 41/2/1 42/3/1 37/4/1
f 43/1/1 44/2/1 45/3/1 41/4/1
f 46/1/1 47/2/1 43/3/1 48/4/1
f 49/1/1 50/2/1 46/3/1 51/4/1
f 52/1/1 53/2/1 54/3/1 55/4/1
f 56/1/1 57/2/1 58/3/1 59/4/1
f 60/1/1 61/2/1 57/3/1 56/4/1
f 62/1/1 63/2/1 61/3/1 60/4/1
f 64/1/1 65/2/1 66/3/1 67/4/1
f 68/1/1 69/2/1 65/3/1 64/4/1
f 70/1/1 71/2/1 69/3/1 68/4/1
f 72/1/1 73/2/1 71/3/1 70/4/1
f 74/1/1 75/2/1 73/3/1 72/4/1
f 76/1/1 77/2/1 75/3/1 74/4/1

g mesh_0003
f 78/1/1 9/2/1 11/3/1 79/4/1
f 80/1/1 12/2/1 15/3/1 81/4/1
f 82/1/1 35/2/1 83/3/1 84/4/1
f 85/1/1 39/2/1 86/3/1 87/4/1
f 88/1/1 89/2/1 49/3/1 90/4/1

g mesh_0004
f 10/1/1 91/2/1 8/3/1 7/4/1
f 13/1/1 92/2/1 93/3/1 14/4/1
f 21/1/1 94/2/1 17/3/1 16/4/1
f 27/1/1 95/2/1 24/3/1 23/4/1
f 47/1/1 96/2/1 44/3/1 43/4/1
f 89/1/1 97/2/1 50/3/1 49/4/1
f 53/1/1 98/2/1 99/3/1 54/4/1

g mesh_0005
f 14/1/1 93/2/1 100/3/1 101/4/1
f 102/1/1 103/2/1 104/3/1 105/4/1
f 54/1/1 99/2/1 106/3/1 107/4/1
f 108/1/1 109/2/1 110/3/1 111/4/1

g mesh_0006
f 112/1/1 113/2/1 103/3/1 102/4/1
f 114/1/1 115/2/1 30/3/1 29/4/1
f 116/1/1 40/2/1 37/3/1 36/4/1

g mesh_0007
f 113/1/1 117/2/1 118/3/1 103/4/1
f 35/1/1 34/2/1 119/3/1 83/4/1
f 39/1/1 38/2/1 120/3/1 86/4/1
f 41/1/1 45/2/1 121/3/1 42/4/1
f 122/1/1 59/2/1 109/3/1 108/4/1
f 59/1/1 58/2/1 123/3/1 109/4/1

g mesh_0008
f 19/1/1 18/2/1 124/3/1 125/4/1
f 25/1/1 20/2/1 22/3/1 126/4/1
f 31/1/1 26/2/1 28/3/1 127/4/1
f 51/1/1 46/2/1 48/3/1 128/4/1
f 129/1/1 52/2/1 55/3/1 130/4/1
f 67/1/1 66/2/1 131/3/1 132/4/1

g mesh_0009
f 18/1/1 133/2/1 112/3/1 124/4/1
f 115/1/1 134/2/1 135/3/1 30/4/1
f 66/1/1 136/2/1 137/3/1 131/4/1

g mesh_0010
f 138/1/1 139/2/1 117/3/1 113/4/1
f 140/1/1 141/2/1 33/3/1 32/4/1
f 142/1/1 143/2/1 52/3/1 129/4/1
f 144/1/1 145/2/1 63/3/1 62/4/1

g mesh_0011
f 146/1/1 147/2/1 148/3/1 149/4/1
f 150/1/1 151/2/1 152/3/1 153/4/1

g mesh_0012
f 154/5/1 76/6/1 74/7/1 155/8/1
f 77/9/1 156/10/1 157/11/1 75/12/1
f 158/13/1 159/14/1 76/15/1 154/16/1
f 159/17/1 160/18/1 77/19/1 76/20/1
f 160/21/1 161/22/1 156/23/1 77/24/1
f 162/25/1 163/26/1 159/27/1 158/28/1
f 163/29/1 164/30/1 160/31/1 159/32/1
f 164/33/1 165/34/1 161/35/1 160/36/1

g mesh_tile_0019
f 166/1/1 167/2/1 168/3/1 169/4/1

