# Wavefront OBJ file automatically generated by Tiled2Unity

# Vertices (Count = 75)
v -42.5 -7.5 0
v -45 -7.5 0
v -45 -5 0
v -42.5 -5 0
v -42.5 -10 0
v -45 -10 0
v -40 -22.5 0
v -42.5 -22.5 0
v -42.5 -20 0
v -40 -20 0
v -37.5 -25 0
v -40 -25 0
v -37.5 -22.5 0
v -35 -27.5 0
v -37.5 -27.5 0
v -35 -25 0
v -7.5 -65 0
v -10 -65 0
v -10 -62.5 0
v -7.5 -62.5 0
v -12.5 -65 0
v -12.5 -62.5 0
v -20 -72.5 0
v -22.5 -72.5 0
v -22.5 -70 0
v -20 -70 0
v -25 -87.5 0
v -27.5 -87.5 0
v -27.5 -85 0
v -25 -85 0
v -27.5 -107.5 0
v -30 -107.5 0
v -30 -105 0
v -27.5 -105 0
v -27.5 -110 0
v -30 -110 0
v -27.5 -112.5 0
v -30 -112.5 0
v -27.5 -115 0
v -30 -115 0
v -27.5 -117.5 0
v -30 -117.5 0
v -27.5 -120 0
v -30 -120 0
v -32.5 -35 0
v -35 -35 0
v -35 -32.5 0
v -32.5 -32.5 0
v -32.5 -40 0
v -35 -40 0
v -35 -37.5 0
v -32.5 -37.5 0
v -30 -55 0
v -32.5 -55 0
v -32.5 -52.5 0
v -30 -52.5 0
v -15 -62.5 0
v -15 -60 0
v -12.5 -60 0
v -17.5 -62.5 0
v -20 -62.5 0
v -20 -60 0
v -17.5 -60 0
v -22.5 -62.5 0
v -25 -62.5 0
v -25 -60 0
v -22.5 -60 0
v -25 -125 0
v -32.68 -125 0
v -32.68 -117.32 0
v -25 -117.32 0
v 0 -2.5 0
v -2.5 -2.5 0
v -2.5 0 0
v 0 0 0

# Texture cooridinates (Count = 8)
vt 0.0001220703 0.0001220703
vt 0.9998779 0.0001220703
vt 0.9998779 0.9998779
vt 0.0001220703 0.9998779
vt 0.0001219116 0.0001220703
vt 0.9985777 0.0001220703
vt 0.9985777 0.9998779
vt 0.0001219116 0.9998779

# Normal
vn 0 0 -1

# Groups (Count = 5)

g mesh_0001
f 1/1/1 2/2/1 3/3/1 4/4/1

g mesh_0002
f 5/1/1 6/2/1 2/3/1 1/4/1
f 7/1/1 8/2/1 9/3/1 10/4/1
f 11/1/1 12/2/1 7/3/1 13/4/1
f 14/1/1 15/2/1 11/3/1 16/4/1
f 17/1/1 18/2/1 19/3/1 20/4/1
f 18/1/1 21/2/1 22/3/1 19/4/1
f 23/1/1 24/2/1 25/3/1 26/4/1
f 27/1/1 28/2/1 29/3/1 30/4/1
f 31/1/1 32/2/1 33/3/1 34/4/1
f 35/1/1 36/2/1 32/3/1 31/4/1
f 37/1/1 38/2/1 36/3/1 35/4/1
f 39/1/1 40/2/1 38/3/1 37/4/1
f 41/1/1 42/2/1 40/3/1 39/4/1
f 43/1/1 44/2/1 42/3/1 41/4/1

g mesh_0003
f 45/1/1 46/2/1 47/3/1 48/4/1
f 49/1/1 50/2/1 51/3/1 52/4/1
f 53/1/1 54/2/1 55/3/1 56/4/1
f 22/1/1 57/2/1 58/3/1 59/4/1
f 60/1/1 61/2/1 62/3/1 63/4/1
f 64/1/1 65/2/1 66/3/1 67/4/1

g mesh_0004
f 68/5/1 69/6/1 70/7/1 71/8/1

g mesh_tile_0016
f 72/1/1 73/2/1 74/3/1 75/4/1

g mesh_tile_0008
f 72/1/1 73/2/1 74/3/1 75/4/1

g mesh_tile_0009
f 72/1/1 73/2/1 74/3/1 75/4/1

g mesh_tile_0002
f 72/1/1 73/2/1 74/3/1 75/4/1

