# Wavefront OBJ file automatically generated by Tiled2Unity

# Vertices (Count = 130)
v -20 -32.5 0
v -22.5 -32.5 0
v -22.5 -30 0
v -20 -30 0
v -20 -35 0
v -22.5 -35 0
v -32.5 -40 0
v -35 -40 0
v -35 -37.5 0
v -32.5 -37.5 0
v -37.5 -40 0
v -37.5 -37.5 0
v -40 -40 0
v -40 -37.5 0
v -40 -42.5 0
v -42.5 -42.5 0
v -42.5 -40 0
v -60 -45 0
v -62.5 -45 0
v -62.5 -42.5 0
v -60 -42.5 0
v -75 -47.5 0
v -77.5 -47.5 0
v -77.5 -45 0
v -75 -45 0
v -60 -60 0
v -62.5 -60 0
v -62.5 -57.5 0
v -60 -57.5 0
v -45 -85 0
v -47.5 -85 0
v -47.5 -82.5 0
v -45 -82.5 0
v -45 -87.5 0
v -47.5 -87.5 0
v -45 -90 0
v -47.5 -90 0
v -45 -92.5 0
v -47.5 -92.5 0
v -45 -95 0
v -47.5 -95 0
v -20 -37.5 0
v -22.5 -37.5 0
v -30 -40 0
v -30 -37.5 0
v -25 -37.5 0
v -25 -35 0
v -47.5 -45 0
v -50 -45 0
v -50 -42.5 0
v -47.5 -42.5 0
v -65 -45 0
v -65 -42.5 0
v -65 -57.5 0
v -65 -55 0
v -62.5 -55 0
v -47.5 -70 0
v -50 -70 0
v -50 -67.5 0
v -47.5 -67.5 0
v -55 -70 0
v -57.5 -70 0
v -57.5 -67.5 0
v -55 -67.5 0
v -27.5 -37.5 0
v -30 -35 0
v -27.5 -35 0
v -45 -45 0
v -45 -42.5 0
v -57.5 -45 0
v -57.5 -42.5 0
v -72.5 -45 0
v -75 -42.5 0
v -72.5 -42.5 0
v -72.5 -57.5 0
v -75 -57.5 0
v -75 -55 0
v -72.5 -55 0
v -52.5 -70 0
v -52.5 -67.5 0
v -32.5 -35 0
v -42.5 -37.5 0
v -77.5 -42.5 0
v -40 -45 0
v -42.5 -45 0
v -75 -50 0
v -77.5 -50 0
v -60 -62.5 0
v -62.5 -62.5 0
v -60 -70 0
v -62.5 -70 0
v -62.5 -67.5 0
v -60 -67.5 0
v -45 -72.5 0
v -47.5 -72.5 0
v -45 -70 0
v -52.5 -45 0
v -55 -45 0
v -55 -42.5 0
v -52.5 -42.5 0
v -67.5 -45 0
v -70 -45 0
v -70 -42.5 0
v -67.5 -42.5 0
v -67.5 -57.5 0
v -70 -57.5 0
v -70 -55 0
v -67.5 -55 0
v -45 -77.5 0
v -47.5 -77.5 0
v -47.5 -75 0
v -45 -75 0
v -77.5 -55 0
v -77.5 -52.5 0
v -75 -52.5 0
v -62.5 -65 0
v -60 -65 0
v -47.5 -80 0
v -45 -80 0
v -60 -55 0
v -45 -67.5 0
v -77.5 -57.5 0
v -42.5 -100 0
v -50.18 -100 0
v -50.18 -92.32 0
v -42.5 -92.32 0
v 0 -2.5 0
v -2.5 -2.5 0
v -2.5 0 0
v 0 0 0

# Texture cooridinates (Count = 8)
vt 0.0001220703 0.0001220703
vt 0.9998779 0.0001220703
vt 0.9998779 0.9998779
vt 0.0001220703 0.9998779
vt 0.0001219116 0.0001220703
vt 0.9985777 0.0001220703
vt 0.9985777 0.9998779
vt 0.0001219116 0.9998779

# Normal
vn 0 0 -1

# Groups (Count = 2)

g mesh_0001
f 1/1/1 2/2/1 3/3/1 4/4/1

g mesh_0002
f 5/1/1 6/2/1 2/3/1 1/4/1
f 7/1/1 8/2/1 9/3/1 10/4/1
f 8/1/1 11/2/1 12/3/1 9/4/1
f 11/1/1 13/2/1 14/3/1 12/4/1
f 15/1/1 16/2/1 17/3/1 13/4/1
f 18/1/1 19/2/1 20/3/1 21/4/1
f 22/1/1 23/2/1 24/3/1 25/4/1
f 26/1/1 27/2/1 28/3/1 29/4/1
f 30/1/1 31/2/1 32/3/1 33/4/1
f 34/1/1 35/2/1 31/3/1 30/4/1
f 36/1/1 37/2/1 35/3/1 34/4/1
f 38/1/1 39/2/1 37/3/1 36/4/1
f 40/1/1 41/2/1 39/3/1 38/4/1

g mesh_0003
f 42/1/1 43/2/1 6/3/1 5/4/1
f 44/1/1 7/2/1 10/3/1 45/4/1

g mesh_0004
f 43/1/1 46/2/1 47/3/1 6/4/1
f 48/1/1 49/2/1 50/3/1 51/4/1
f 19/1/1 52/2/1 53/3/1 20/4/1
f 28/1/1 54/2/1 55/3/1 56/4/1
f 57/1/1 58/2/1 59/3/1 60/4/1
f 61/1/1 62/2/1 63/3/1 64/4/1

g mesh_0005
f 65/1/1 45/2/1 66/3/1 67/4/1
f 68/1/1 48/2/1 51/3/1 69/4/1
f 70/1/1 18/2/1 21/3/1 71/4/1
f 72/1/1 25/2/1 73/3/1 74/4/1
f 75/1/1 76/2/1 77/3/1 78/4/1
f 79/1/1 61/2/1 64/3/1 80/4/1

g mesh_0006
f 45/1/1 10/2/1 81/3/1 66/4/1
f 13/1/1 17/2/1 82/3/1 14/4/1
f 25/1/1 24/2/1 83/3/1 73/4/1

g mesh_0007
f 84/1/1 85/2/1 16/3/1 15/4/1
f 86/1/1 87/2/1 23/3/1 22/4/1
f 88/1/1 89/2/1 27/3/1 26/4/1
f 90/1/1 91/2/1 92/3/1 93/4/1
f 94/1/1 95/2/1 57/3/1 96/4/1

g mesh_0008
f 97/1/1 98/2/1 99/3/1 100/4/1
f 101/1/1 102/2/1 103/3/1 104/4/1
f 105/1/1 106/2/1 107/3/1 108/4/1
f 109/1/1 110/2/1 111/3/1 112/4/1

g mesh_0009
f 77/1/1 113/2/1 114/3/1 115/4/1
f 93/1/1 92/2/1 116/3/1 117/4/1
f 33/1/1 32/2/1 118/3/1 119/4/1

g mesh_0010
f 29/1/1 28/2/1 56/3/1 120/4/1
f 96/1/1 57/2/1 60/3/1 121/4/1

g mesh_0011
f 76/1/1 122/2/1 113/3/1 77/4/1

g mesh_0012
f 123/5/1 124/6/1 125/7/1 126/8/1

g mesh_tile_0014
f 127/1/1 128/2/1 129/3/1 130/4/1

