# Wavefront OBJ file automatically generated by Tiled2Unity

# Vertices (Count = 83)
v -7.5 -5 0
v -10 -5 0
v -10 -2.5 0
v -7.5 -2.5 0
v -7.5 -7.5 0
v -10 -7.5 0
v -42.5 -17.5 0
v -45 -17.5 0
v -45 -15 0
v -42.5 -15 0
v -47.5 -17.5 0
v -47.5 -15 0
v -47.5 -30 0
v -50 -30 0
v -50 -27.5 0
v -47.5 -27.5 0
v -45 -47.5 0
v -47.5 -47.5 0
v -47.5 -45 0
v -45 -45 0
v -47.5 -50 0
v -50 -50 0
v -50 -47.5 0
v -47.5 -60 0
v -50 -60 0
v -50 -57.5 0
v -47.5 -57.5 0
v -47.5 -77.5 0
v -50 -77.5 0
v -50 -75 0
v -47.5 -75 0
v -47.5 -80 0
v -50 -80 0
v -37.5 -90 0
v -40 -90 0
v -40 -87.5 0
v -37.5 -87.5 0
v -37.5 -92.5 0
v -40 -92.5 0
v -37.5 -95 0
v -40 -95 0
v -37.5 -97.5 0
v -40 -97.5 0
v -37.5 -100 0
v -40 -100 0
v -12.5 -17.5 0
v -15 -17.5 0
v -15 -15 0
v -12.5 -15 0
v -17.5 -17.5 0
v -20 -17.5 0
v -20 -15 0
v -17.5 -15 0
v -30 -17.5 0
v -32.5 -17.5 0
v -32.5 -15 0
v -30 -15 0
v -35 -17.5 0
v -37.5 -17.5 0
v -37.5 -15 0
v -35 -15 0
v -47.5 -22.5 0
v -50 -22.5 0
v -50 -20 0
v -47.5 -20 0
v -45 -40 0
v -47.5 -40 0
v -47.5 -37.5 0
v -45 -37.5 0
v -45 -67.5 0
v -47.5 -67.5 0
v -47.5 -65 0
v -45 -65 0
v -40 -85 0
v -37.5 -85 0
v -35 -105 0
v -42.68 -105 0
v -42.68 -97.32 0
v -35 -97.32 0
v 0 -2.5 0
v -2.5 -2.5 0
v -2.5 0 0
v 0 0 0

# Texture cooridinates (Count = 8)
vt 0.0001220703 0.0001220703
vt 0.9998779 0.0001220703
vt 0.9998779 0.9998779
vt 0.0001220703 0.9998779
vt 0.0001219116 0.0001220703
vt 0.9985777 0.0001220703
vt 0.9985777 0.9998779
vt 0.0001219116 0.9998779

# Normal
vn 0 0 -1

# Groups (Count = 4)

g mesh_0001
f 1/1/1 2/2/1 3/3/1 4/4/1

g mesh_0002
f 5/1/1 6/2/1 2/3/1 1/4/1
f 7/1/1 8/2/1 9/3/1 10/4/1
f 8/1/1 11/2/1 12/3/1 9/4/1
f 13/1/1 14/2/1 15/3/1 16/4/1
f 17/1/1 18/2/1 19/3/1 20/4/1
f 21/1/1 22/2/1 23/3/1 18/4/1
f 24/1/1 25/2/1 26/3/1 27/4/1
f 28/1/1 29/2/1 30/3/1 31/4/1
f 32/1/1 33/2/1 29/3/1 28/4/1
f 34/1/1 35/2/1 36/3/1 37/4/1
f 38/1/1 39/2/1 35/3/1 34/4/1
f 40/1/1 41/2/1 39/3/1 38/4/1
f 42/1/1 43/2/1 41/3/1 40/4/1
f 44/1/1 45/2/1 43/3/1 42/4/1

g mesh_0003
f 46/1/1 47/2/1 48/3/1 49/4/1
f 50/1/1 51/2/1 52/3/1 53/4/1
f 54/1/1 55/2/1 56/3/1 57/4/1
f 58/1/1 59/2/1 60/3/1 61/4/1
f 62/1/1 63/2/1 64/3/1 65/4/1
f 66/1/1 67/2/1 68/3/1 69/4/1
f 70/1/1 71/2/1 72/3/1 73/4/1

g mesh_0004
f 37/1/1 36/2/1 74/3/1 75/4/1

g mesh_0005
f 76/5/1 77/6/1 78/7/1 79/8/1

g mesh_tile_0015
f 80/1/1 81/2/1 82/3/1 83/4/1

g mesh_tile_0013
f 80/1/1 81/2/1 82/3/1 83/4/1

g mesh_tile_0001
f 80/1/1 81/2/1 82/3/1 83/4/1

