# Wavefront OBJ file automatically generated by Tiled2Unity

# Vertices (Count = 151)
v -8000 -750 0
v -8250 -750 0
v -8250 -500 0
v -8000 -500 0
v -8000 -1000 0
v -8250 -1000 0
v -7500 -1500 0
v -7750 -1500 0
v -7750 -1250 0
v -7500 -1250 0
v -7000 -2000 0
v -7250 -2000 0
v -7250 -1750 0
v -7000 -1750 0
v -7000 -2750 0
v -7250 -2750 0
v -7250 -2500 0
v -7000 -2500 0
v -7000 -4000 0
v -7250 -4000 0
v -7250 -3750 0
v -7000 -3750 0
v -6750 -4250 0
v -7000 -4250 0
v -6750 -4000 0
v -6750 -4500 0
v -7000 -4500 0
v -6750 -4750 0
v -7000 -4750 0
v -5250 -6750 0
v -5500 -6750 0
v -5500 -6500 0
v -5250 -6500 0
v -5750 -7000 0
v -6000 -7000 0
v -6000 -6750 0
v -5750 -6750 0
v -6000 -7250 0
v -6250 -7250 0
v -6250 -7000 0
v -6250 -7500 0
v -6500 -7500 0
v -6500 -7250 0
v -6000 -7750 0
v -6250 -7750 0
v -6000 -7500 0
v -6500 -7750 0
v -6000 -8000 0
v -6250 -8000 0
v -6250 -8250 0
v -6500 -8250 0
v -6500 -8000 0
v -6500 -8750 0
v -6750 -8750 0
v -6750 -8500 0
v -6500 -8500 0
v -6750 -9000 0
v -7000 -9000 0
v -7000 -8750 0
v -7000 -9250 0
v -7250 -9250 0
v -7250 -9000 0
v -7000 -9500 0
v -7250 -9500 0
v -7000 -9750 0
v -7250 -9750 0
v -7000 -10000 0
v -7250 -10000 0
v -7000 -10250 0
v -7250 -10250 0
v -7000 -10500 0
v -7250 -10500 0
v -7000 -10750 0
v -7250 -10750 0
v -8000 -1250 0
v -7750 -1000 0
v -7250 -1500 0
v -7250 -1250 0
v -7000 -1500 0
v -7250 -2250 0
v -7000 -2250 0
v -6500 -4250 0
v -6500 -4000 0
v -6500 -4750 0
v -6500 -4500 0
v -5750 -5750 0
v -6000 -5750 0
v -6000 -5500 0
v -5750 -5500 0
v -5750 -7750 0
v -5750 -7500 0
v -8250 -1250 0
v -8000 -1500 0
v -7500 -1750 0
v -7500 -2500 0
v -7500 -2250 0
v -7000 -3000 0
v -7250 -3000 0
v -7250 -4250 0
v -7250 -4750 0
v -7250 -4500 0
v -6750 -7750 0
v -6750 -7500 0
v -6750 -3750 0
v -7000 -3500 0
v -6750 -3500 0
v -5000 -6750 0
v -5000 -6500 0
v -5500 -7000 0
v -5750 -8000 0
v -6250 -8500 0
v -6500 -9000 0
v -7500 -2000 0
v -7250 -3500 0
v -5750 -6500 0
v -6250 -6750 0
v -6750 -7250 0
v -6750 -8250 0
v -7250 -8750 0
v -6750 -3000 0
v -6750 -2750 0
v -5000 -6000 0
v -5250 -6000 0
v -5250 -5750 0
v -5000 -5750 0
v -7000 -3250 0
v -6750 -3250 0
v -6500 -5500 0
v -6750 -5500 0
v -6750 -5250 0
v -6500 -5250 0
v -5250 -6250 0
v -5000 -6250 0
v -6500 -5000 0
v -6750 -5000 0
v -6500 -5750 0
v -6750 -5750 0
v -5750 -6000 0
v -6000 -6000 0
v -6250 -5750 0
v -6250 -5500 0
v -5500 -6000 0
v -5500 -5750 0
v -6750 -11250 0
v -7500 -11250 0
v -7500 -10500 0
v -6750 -10500 0
v 0 -250 0
v -250 -250 0
v -250 0 0
v 0 0 0

# Texture cooridinates (Count = 4)
vt 0.0001220703 0.0001220703
vt 0.9998779 0.0001220703
vt 0.9998779 0.9998779
vt 0.0001220703 0.9998779

# Normal
vn 0 0 -1

# Groups (Count = 2)

g mesh_0001
f 1/1/1 2/2/1 3/3/1 4/4/1

g mesh_0002
f 5/1/1 6/2/1 2/3/1 1/4/1
f 7/1/1 8/2/1 9/3/1 10/4/1
f 11/1/1 12/2/1 13/3/1 14/4/1
f 15/1/1 16/2/1 17/3/1 18/4/1
f 19/1/1 20/2/1 21/3/1 22/4/1
f 23/1/1 24/2/1 19/3/1 25/4/1
f 26/1/1 27/2/1 24/3/1 23/4/1
f 28/1/1 29/2/1 27/3/1 26/4/1
f 30/1/1 31/2/1 32/3/1 33/4/1
f 34/1/1 35/2/1 36/3/1 37/4/1
f 38/1/1 39/2/1 40/3/1 35/4/1
f 41/1/1 42/2/1 43/3/1 39/4/1
f 44/1/1 45/2/1 41/3/1 46/4/1
f 45/1/1 47/2/1 42/3/1 41/4/1
f 48/1/1 49/2/1 45/3/1 44/4/1
f 50/1/1 51/2/1 52/3/1 49/4/1
f 53/1/1 54/2/1 55/3/1 56/4/1
f 57/1/1 58/2/1 59/3/1 54/4/1
f 60/1/1 61/2/1 62/3/1 58/4/1
f 63/1/1 64/2/1 61/3/1 60/4/1
f 65/1/1 66/2/1 64/3/1 63/4/1
f 67/1/1 68/2/1 66/3/1 65/4/1
f 69/1/1 70/2/1 68/3/1 67/4/1
f 71/1/1 72/2/1 70/3/1 69/4/1
f 73/1/1 74/2/1 72/3/1 71/4/1

g mesh_0003
f 9/1/1 75/2/1 5/3/1 76/4/1
f 77/1/1 7/2/1 10/3/1 78/4/1
f 14/1/1 13/2/1 77/3/1 79/4/1
f 18/1/1 17/2/1 80/3/1 81/4/1
f 82/1/1 23/2/1 25/3/1 83/4/1
f 84/1/1 28/2/1 26/3/1 85/4/1
f 86/1/1 87/2/1 88/3/1 89/4/1
f 90/1/1 44/2/1 46/3/1 91/4/1

g mesh_0004
f 75/1/1 92/2/1 6/3/1 5/4/1
f 8/1/1 93/2/1 75/3/1 9/4/1
f 13/1/1 94/2/1 7/3/1 77/4/1
f 17/1/1 95/2/1 96/3/1 80/4/1
f 97/1/1 98/2/1 16/3/1 15/4/1
f 24/1/1 99/2/1 20/3/1 19/4/1
f 29/1/1 100/2/1 101/3/1 27/4/1
f 47/1/1 102/2/1 103/3/1 42/4/1

g mesh_0005
f 81/1/1 80/2/1 12/3/1 11/4/1
f 104/1/1 22/2/1 105/3/1 106/4/1
f 85/1/1 26/2/1 23/3/1 82/4/1
f 107/1/1 30/2/1 33/3/1 108/4/1
f 109/1/1 34/2/1 37/3/1 31/4/1
f 46/1/1 41/2/1 39/3/1 38/4/1
f 110/1/1 48/2/1 44/3/1 90/4/1
f 111/1/1 56/2/1 51/3/1 50/4/1
f 112/1/1 57/2/1 54/3/1 53/4/1

g mesh_0006
f 80/1/1 96/2/1 113/3/1 12/4/1
f 22/1/1 21/2/1 114/3/1 105/4/1
f 27/1/1 101/2/1 99/3/1 24/4/1
f 31/1/1 37/2/1 115/3/1 32/4/1
f 35/1/1 40/2/1 116/3/1 36/4/1
f 42/1/1 103/2/1 117/3/1 43/4/1
f 49/1/1 52/2/1 47/3/1 45/4/1
f 56/1/1 55/2/1 118/3/1 51/4/1
f 58/1/1 62/2/1 119/3/1 59/4/1

g mesh_0007
f 120/1/1 97/2/1 15/3/1 121/4/1
f 122/1/1 123/2/1 124/3/1 125/4/1

g mesh_0008
f 106/1/1 105/2/1 126/3/1 127/4/1
f 128/1/1 129/2/1 130/3/1 131/4/1
f 108/1/1 33/2/1 132/3/1 133/4/1

g mesh_0009
f 134/1/1 135/2/1 28/3/1 84/4/1
f 136/1/1 137/2/1 129/3/1 128/4/1
f 138/1/1 139/2/1 87/3/1 86/4/1

g mesh_0010
f 87/1/1 140/2/1 141/3/1 88/4/1
f 123/1/1 142/2/1 143/3/1 124/4/1

g mesh_0011
f 144/1/1 145/2/1 146/3/1 147/4/1

g mesh_tile_0002
f 148/1/1 149/2/1 150/3/1 151/4/1

