# Wavefront OBJ file automatically generated by Tiled2Unity

# Vertices (Count = 158)
v -65 -30 0
v -67.5 -30 0
v -67.5 -27.5 0
v -65 -27.5 0
v -65 -32.5 0
v -67.5 -32.5 0
v -62.5 -37.5 0
v -65 -37.5 0
v -65 -35 0
v -62.5 -35 0
v -65 -40 0
v -67.5 -40 0
v -67.5 -37.5 0
v -75 -60 0
v -77.5 -60 0
v -77.5 -57.5 0
v -75 -57.5 0
v -72.5 -62.5 0
v -75 -62.5 0
v -72.5 -60 0
v -70 -65 0
v -72.5 -65 0
v -70 -62.5 0
v -50 -72.5 0
v -52.5 -72.5 0
v -52.5 -70 0
v -50 -70 0
v -50 -80 0
v -52.5 -80 0
v -52.5 -77.5 0
v -50 -77.5 0
v -50 -87.5 0
v -52.5 -87.5 0
v -52.5 -85 0
v -50 -85 0
v -47.5 -97.5 0
v -50 -97.5 0
v -50 -95 0
v -47.5 -95 0
v -52.5 -97.5 0
v -52.5 -95 0
v -60 -107.5 0
v -62.5 -107.5 0
v -62.5 -105 0
v -60 -105 0
v -60 -110 0
v -62.5 -110 0
v -60 -112.5 0
v -62.5 -112.5 0
v -60 -115 0
v -62.5 -115 0
v -60 -117.5 0
v -62.5 -117.5 0
v -60 -120 0
v -62.5 -120 0
v -62.5 -32.5 0
v -67.5 -35 0
v -62.5 -40 0
v -70 -40 0
v -70 -37.5 0
v -67.5 -50 0
v -70 -50 0
v -70 -47.5 0
v -67.5 -47.5 0
v -65 -57.5 0
v -67.5 -57.5 0
v -67.5 -55 0
v -65 -55 0
v -77.5 -55 0
v -75 -55 0
v -70 -60 0
v -77.5 -62.5 0
v -60 -67.5 0
v -62.5 -67.5 0
v -62.5 -65 0
v -60 -65 0
v -70 -67.5 0
v -72.5 -67.5 0
v -47.5 -70 0
v -50 -67.5 0
v -47.5 -67.5 0
v -47.5 -72.5 0
v -55 -80 0
v -55 -77.5 0
v -47.5 -87.5 0
v -47.5 -85 0
v -55 -87.5 0
v -55 -85 0
v -55 -97.5 0
v -55 -95 0
v -62.5 -102.5 0
v -60 -102.5 0
v -67.5 -42.5 0
v -70 -42.5 0
v -70 -45 0
v -67.5 -45 0
v -65 -50 0
v -65 -47.5 0
v -67.5 -52.5 0
v -65 -52.5 0
v -70 -57.5 0
v -70 -55 0
v -72.5 -57.5 0
v -72.5 -55 0
v -65 -67.5 0
v -65 -65 0
v -67.5 -67.5 0
v -67.5 -65 0
v -52.5 -67.5 0
v -60 -70 0
v -62.5 -70 0
v -55 -72.5 0
v -55 -70 0
v -55 -75 0
v -52.5 -75 0
v -47.5 -80 0
v -47.5 -77.5 0
v -50 -82.5 0
v -47.5 -82.5 0
v -52.5 -90 0
v -55 -90 0
v -55 -92.5 0
v -52.5 -92.5 0
v -45 -97.5 0
v -45 -95 0
v -45 -102.5 0
v -47.5 -102.5 0
v -47.5 -100 0
v -45 -100 0
v -45 -105 0
v -47.5 -105 0
v -50 -105 0
v -52.5 -105 0
v -52.5 -102.5 0
v -50 -102.5 0
v -55 -105 0
v -55 -102.5 0
v -57.5 -105 0
v -57.5 -102.5 0
v -57.5 -70 0
v -57.5 -67.5 0
v -55 -67.5 0
v -57.5 -120 0
v -57.5 -117.5 0
v -65 -120 0
v -65 -117.5 0
v -57.5 -122.5 0
v -60 -122.5 0
v -62.5 -122.5 0
v -65 -122.5 0
v -57.5 -125 0
v -60 -125 0
v -62.5 -125 0
v -65 -125 0
v 0 -2.5 0
v -2.5 -2.5 0
v -2.5 0 0
v 0 0 0

# Texture cooridinates (Count = 36)
vt 0.0001220703 0.0001220703
vt 0.9998779 0.0001220703
vt 0.9998779 0.9998779
vt 0.0001220703 0.9998779
vt 4.069011E-05 0.6667074
vt 0.3332926 0.6667074
vt 0.3332926 0.9999593
vt 4.069011E-05 0.9999593
vt 0.6667073 0.6667074
vt 0.9999593 0.6667074
vt 0.9999593 0.9999593
vt 0.6667073 0.9999593
vt 4.069011E-05 0.333374
vt 0.3332926 0.333374
vt 0.3332926 0.666626
vt 4.069011E-05 0.666626
vt 0.333374 0.333374
vt 0.666626 0.333374
vt 0.666626 0.666626
vt 0.333374 0.666626
vt 0.6667073 0.333374
vt 0.9999593 0.333374
vt 0.9999593 0.666626
vt 0.6667073 0.666626
vt 4.069011E-05 4.070997E-05
vt 0.3332926 4.070997E-05
vt 0.3332926 0.3332927
vt 4.069011E-05 0.3332927
vt 0.333374 4.070997E-05
vt 0.666626 4.070997E-05
vt 0.666626 0.3332927
vt 0.333374 0.3332927
vt 0.6667073 4.070997E-05
vt 0.9999593 4.070997E-05
vt 0.9999593 0.3332927
vt 0.6667073 0.3332927

# Normal
vn 0 0 -1

# Groups (Count = 2)

g mesh_0001
f 1/1/1 2/2/1 3/3/1 4/4/1

g mesh_0002
f 5/1/1 6/2/1 2/3/1 1/4/1
f 7/1/1 8/2/1 9/3/1 10/4/1
f 11/1/1 12/2/1 13/3/1 8/4/1
f 14/1/1 15/2/1 16/3/1 17/4/1
f 18/1/1 19/2/1 14/3/1 20/4/1
f 21/1/1 22/2/1 18/3/1 23/4/1
f 24/1/1 25/2/1 26/3/1 27/4/1
f 28/1/1 29/2/1 30/3/1 31/4/1
f 32/1/1 33/2/1 34/3/1 35/4/1
f 36/1/1 37/2/1 38/3/1 39/4/1
f 37/1/1 40/2/1 41/3/1 38/4/1
f 42/1/1 43/2/1 44/3/1 45/4/1
f 46/1/1 47/2/1 43/3/1 42/4/1
f 48/1/1 49/2/1 47/3/1 46/4/1
f 50/1/1 51/2/1 49/3/1 48/4/1
f 52/1/1 53/2/1 51/3/1 50/4/1
f 54/1/1 55/2/1 53/3/1 52/4/1

g mesh_0003
f 10/1/1 9/2/1 5/3/1 56/4/1
f 9/3/1 57/4/1 6/1/1 5/2/1
f 58/4/1 11/1/1 8/2/1 7/3/1
f 12/2/1 59/3/1 60/4/1 13/1/1
f 61/3/1 62/4/1 63/1/1 64/2/1
f 65/4/1 66/1/1 67/2/1 68/3/1
f 17/2/1 16/3/1 69/4/1 70/1/1
f 23/1/1 18/2/1 20/3/1 71/4/1
f 19/3/1 72/4/1 15/1/1 14/2/1
f 73/1/1 74/2/1 75/3/1 76/4/1
f 77/3/1 78/4/1 22/1/1 21/2/1
f 79/1/1 27/2/1 80/3/1 81/4/1
f 82/4/1 24/1/1 27/2/1 79/3/1
f 29/3/1 83/4/1 84/1/1 30/2/1
f 85/4/1 32/1/1 35/2/1 86/3/1
f 33/2/1 87/3/1 88/4/1 34/1/1
f 40/3/1 89/4/1 90/1/1 41/2/1
f 45/2/1 44/3/1 91/4/1 92/1/1

g mesh_0004
f 93/3/1 94/4/1 59/1/1 12/2/1
f 64/1/1 63/2/1 95/3/1 96/4/1
f 97/4/1 61/1/1 64/2/1 98/3/1
f 68/1/1 67/2/1 99/3/1 100/4/1
f 66/2/1 101/3/1 102/4/1 67/1/1
f 103/4/1 17/1/1 70/2/1 104/3/1
f 74/2/1 105/3/1 106/4/1 75/1/1
f 107/4/1 77/1/1 21/2/1 108/3/1
f 27/2/1 26/3/1 109/4/1 80/1/1
f 110/3/1 111/4/1 74/1/1 73/2/1
f 25/2/1 112/3/1 113/4/1 26/1/1
f 30/1/1 84/2/1 114/3/1 115/4/1
f 116/4/1 28/1/1 31/2/1 117/3/1
f 86/1/1 35/2/1 118/3/1 119/4/1
f 120/3/1 121/4/1 87/1/1 33/2/1
f 41/1/1 90/2/1 122/3/1 123/4/1
f 124/4/1 36/1/1 39/2/1 125/3/1
f 126/1/1 127/2/1 128/3/1 129/4/1
f 130/3/1 131/4/1 127/1/1 126/2/1
f 132/4/1 133/1/1 134/2/1 135/3/1
f 133/2/1 136/3/1 137/4/1 134/1/1
f 138/4/1 45/1/1 92/2/1 139/3/1

g mesh_0005
f 113/1/1 140/2/1 141/3/1 142/4/1

g mesh_0006
f 143/5/1 54/6/1 52/7/1 144/8/1
f 55/9/1 145/10/1 146/11/1 53/12/1
f 147/13/1 148/14/1 54/15/1 143/16/1
f 148/17/1 149/18/1 55/19/1 54/20/1
f 149/21/1 150/22/1 145/23/1 55/24/1
f 151/25/1 152/26/1 148/27/1 147/28/1
f 152/29/1 153/30/1 149/31/1 148/32/1
f 153/33/1 154/34/1 150/35/1 149/36/1

g mesh_tile_0012
f 155/1/1 156/2/1 157/3/1 158/4/1

