# Wavefront OBJ file automatically generated by Tiled2Unity

# Vertices (Count = 166)
v -5250 -1000 0
v -5500 -1000 0
v -5500 -750 0
v -5250 -750 0
v -5250 -1250 0
v -5500 -1250 0
v -5250 -1500 0
v -5500 -1500 0
v -5250 -1750 0
v -5500 -1750 0
v -8000 -3000 0
v -8250 -3000 0
v -8250 -2750 0
v -8000 -2750 0
v -8000 -4000 0
v -8250 -4000 0
v -8250 -3750 0
v -8000 -3750 0
v -6750 -4500 0
v -7000 -4500 0
v -7000 -4250 0
v -6750 -4250 0
v -6250 -5000 0
v -6500 -5000 0
v -6500 -4750 0
v -6250 -4750 0
v -6500 -5250 0
v -6750 -5250 0
v -6750 -5000 0
v -6500 -5500 0
v -6750 -5500 0
v -6250 -5750 0
v -6500 -5750 0
v -6250 -5500 0
v -5750 -7000 0
v -6000 -7000 0
v -6000 -6750 0
v -5750 -6750 0
v -5500 -7250 0
v -5750 -7250 0
v -5500 -7000 0
v -5750 -7750 0
v -6000 -7750 0
v -6000 -7500 0
v -5750 -7500 0
v -6000 -8250 0
v -6250 -8250 0
v -6250 -8000 0
v -6000 -8000 0
v -6250 -8500 0
v -6500 -8500 0
v -6500 -8250 0
v -6750 -8500 0
v -6750 -8250 0
v -8500 -9750 0
v -8750 -9750 0
v -8750 -9500 0
v -8500 -9500 0
v -8500 -10000 0
v -8750 -10000 0
v -8500 -10250 0
v -8750 -10250 0
v -8500 -10500 0
v -8750 -10500 0
v -8500 -10750 0
v -8750 -10750 0
v -5250 -2000 0
v -5500 -2000 0
v -7750 -3000 0
v -7750 -2750 0
v -6000 -5000 0
v -6000 -4750 0
v -5500 -7500 0
v -5750 -8000 0
v -6000 -8500 0
v -5750 -2000 0
v -5750 -1750 0
v -8500 -3000 0
v -8500 -2750 0
v -6750 -4750 0
v -6000 -7250 0
v -6250 -7750 0
v -5500 -2250 0
v -5750 -2250 0
v -8250 -3250 0
v -8500 -3250 0
v -7000 -4750 0
v -6000 -2250 0
v -6250 -2250 0
v -6250 -2000 0
v -6000 -2000 0
v -6500 -2250 0
v -6750 -2250 0
v -6750 -2000 0
v -6500 -2000 0
v -7000 -2250 0
v -7250 -2250 0
v -7250 -2000 0
v -7000 -2000 0
v -6000 -6250 0
v -6250 -6250 0
v -6250 -6000 0
v -6000 -6000 0
v -7250 -8500 0
v -7500 -8500 0
v -7500 -8250 0
v -7250 -8250 0
v -7750 -8500 0
v -8000 -8500 0
v -8000 -8250 0
v -7750 -8250 0
v -8500 -9000 0
v -8750 -9000 0
v -8750 -8750 0
v -8500 -8750 0
v -7500 -2250 0
v -7750 -2250 0
v -7750 -2000 0
v -7500 -2000 0
v -7500 -4250 0
v -7750 -4250 0
v -7750 -4000 0
v -7500 -4000 0
v -6000 -5750 0
v -6000 -5500 0
v -8250 -8500 0
v -8500 -8500 0
v -8500 -8250 0
v -8250 -8250 0
v -8000 -2250 0
v -8000 -2000 0
v -7250 -4250 0
v -7250 -4000 0
v -7000 -4000 0
v -6500 -4500 0
v -6250 -4500 0
v -7000 -8500 0
v -7000 -8250 0
v -8750 -8500 0
v -8750 -8250 0
v -8000 -2500 0
v -7750 -2500 0
v -8500 -3750 0
v -8500 -3500 0
v -8250 -3500 0
v -6250 -6750 0
v -6250 -6500 0
v -6000 -6500 0
v -8750 -9250 0
v -8500 -9250 0
v -7750 -3750 0
v -6750 -4000 0
v -6000 -4500 0
v -5500 -6750 0
v -8500 -4000 0
v -8000 -4250 0
v -6750 -5750 0
v -6250 -7000 0
v -8250 -11250 0
v -9000 -11250 0
v -9000 -10500 0
v -8250 -10500 0
v 0 -250 0
v -250 -250 0
v -250 0 0
v 0 0 0

# Texture cooridinates (Count = 8)
vt 0.0001220703 0.0001220703
vt 0.9998779 0.0001220703
vt 0.9998779 0.9998779
vt 0.0001220703 0.9998779
vt 0.0001219078 0.0001220703
vt 0.9985465 0.0001220703
vt 0.9985465 0.9998779
vt 0.0001219078 0.9998779

# Normal
vn 0 0 -1

# Groups (Count = 2)

g mesh_0001
f 1/1/1 2/2/1 3/3/1 4/4/1

g mesh_0002
f 5/1/1 6/2/1 2/3/1 1/4/1
f 7/1/1 8/2/1 6/3/1 5/4/1
f 9/1/1 10/2/1 8/3/1 7/4/1
f 11/1/1 12/2/1 13/3/1 14/4/1
f 15/1/1 16/2/1 17/3/1 18/4/1
f 19/1/1 20/2/1 21/3/1 22/4/1
f 23/1/1 24/2/1 25/3/1 26/4/1
f 27/1/1 28/2/1 29/3/1 24/4/1
f 30/1/1 31/2/1 28/3/1 27/4/1
f 32/1/1 33/2/1 30/3/1 34/4/1
f 35/1/1 36/2/1 37/3/1 38/4/1
f 39/1/1 40/2/1 35/3/1 41/4/1
f 42/1/1 43/2/1 44/3/1 45/4/1
f 46/1/1 47/2/1 48/3/1 49/4/1
f 50/1/1 51/2/1 52/3/1 47/4/1
f 51/1/1 53/2/1 54/3/1 52/4/1
f 55/1/1 56/2/1 57/3/1 58/4/1
f 59/1/1 60/2/1 56/3/1 55/4/1
f 61/1/1 62/2/1 60/3/1 59/4/1
f 63/1/1 64/2/1 62/3/1 61/4/1
f 65/1/1 66/2/1 64/3/1 63/4/1

g mesh_0003
f 67/1/1 68/2/1 10/3/1 9/4/1
f 69/1/1 11/2/1 14/3/1 70/4/1
f 71/1/1 23/2/1 26/3/1 72/4/1
f 73/1/1 45/2/1 40/3/1 39/4/1
f 74/1/1 49/2/1 43/3/1 42/4/1
f 75/1/1 50/2/1 47/3/1 46/4/1

g mesh_0004
f 68/1/1 76/2/1 77/3/1 10/4/1
f 12/1/1 78/2/1 79/3/1 13/4/1
f 24/1/1 29/2/1 80/3/1 25/4/1
f 45/1/1 44/2/1 81/3/1 40/4/1
f 49/1/1 48/2/1 82/3/1 43/4/1

g mesh_0005
f 83/1/1 84/2/1 76/3/1 68/4/1
f 85/1/1 86/2/1 78/3/1 12/4/1
f 80/1/1 87/2/1 20/3/1 19/4/1

g mesh_0006
f 88/1/1 89/2/1 90/3/1 91/4/1
f 92/1/1 93/2/1 94/3/1 95/4/1
f 96/1/1 97/2/1 98/3/1 99/4/1
f 100/1/1 101/2/1 102/3/1 103/4/1
f 104/1/1 105/2/1 106/3/1 107/4/1
f 108/1/1 109/2/1 110/3/1 111/4/1
f 112/1/1 113/2/1 114/3/1 115/4/1

g mesh_0007
f 116/1/1 117/2/1 118/3/1 119/4/1
f 120/1/1 121/2/1 122/3/1 123/4/1
f 124/1/1 32/2/1 34/3/1 125/4/1
f 126/1/1 127/2/1 128/3/1 129/4/1

g mesh_0008
f 117/1/1 130/2/1 131/3/1 118/4/1
f 21/1/1 132/2/1 133/3/1 134/4/1
f 26/1/1 25/2/1 135/3/1 136/4/1
f 53/1/1 137/2/1 138/3/1 54/4/1
f 127/1/1 139/2/1 140/3/1 128/4/1

g mesh_0009
f 70/1/1 14/2/1 141/3/1 142/4/1
f 17/1/1 143/2/1 144/3/1 145/4/1
f 37/1/1 146/2/1 147/3/1 148/4/1
f 58/1/1 57/2/1 149/3/1 150/4/1

g mesh_0010
f 122/1/1 15/2/1 18/3/1 151/4/1
f 22/1/1 21/2/1 134/3/1 152/4/1
f 72/1/1 26/2/1 136/3/1 153/4/1
f 41/1/1 35/2/1 38/3/1 154/4/1

g mesh_0011
f 16/1/1 155/2/1 143/3/1 17/4/1
f 121/1/1 156/2/1 15/3/1 122/4/1
f 33/1/1 157/2/1 31/3/1 30/4/1
f 36/1/1 158/2/1 146/3/1 37/4/1

g mesh_0012
f 159/5/1 160/6/1 161/7/1 162/8/1

g mesh_tile_0003
f 163/1/1 164/2/1 165/3/1 166/4/1

