# Wavefront OBJ file automatically generated by Tiled2Unity

# Vertices (Count = 100)
v -5750 -750 0
v -6000 -750 0
v -6000 -500 0
v -5750 -500 0
v -5750 -1000 0
v -6000 -1000 0
v -5750 -1250 0
v -6000 -1250 0
v -5750 -1500 0
v -6000 -1500 0
v -6250 -2750 0
v -6500 -2750 0
v -6500 -2500 0
v -6250 -2500 0
v -6250 -7000 0
v -6500 -7000 0
v -6500 -6750 0
v -6250 -6750 0
v -6250 -7250 0
v -6500 -7250 0
v -5500 -8250 0
v -5750 -8250 0
v -5750 -8000 0
v -5500 -8000 0
v -5250 -8500 0
v -5500 -8500 0
v -5250 -8250 0
v -5250 -8750 0
v -5500 -8750 0
v -4750 -9500 0
v -5000 -9500 0
v -5000 -9250 0
v -4750 -9250 0
v -3750 -10000 0
v -4000 -10000 0
v -4000 -9750 0
v -3750 -9750 0
v -3500 -10250 0
v -3750 -10250 0
v -3500 -10000 0
v -3250 -10500 0
v -3500 -10500 0
v -3250 -10250 0
v -3000 -10750 0
v -3250 -10750 0
v -3000 -10500 0
v -2750 -11000 0
v -3000 -11000 0
v -2750 -10750 0
v -2500 -11500 0
v -2750 -11500 0
v -2750 -11250 0
v -2500 -11250 0
v -2500 -11750 0
v -2750 -11750 0
v -2500 -13250 0
v -2750 -13250 0
v -2750 -13000 0
v -2500 -13000 0
v -2500 -13500 0
v -2750 -13500 0
v -2500 -13750 0
v -2750 -13750 0
v -2500 -14000 0
v -2750 -14000 0
v -2500 -14250 0
v -2750 -14250 0
v -2500 -14500 0
v -2750 -14500 0
v -6000 -2500 0
v -6250 -2250 0
v -6000 -2250 0
v -6500 -3750 0
v -6750 -3750 0
v -6750 -3500 0
v -6500 -3500 0
v -6500 -5000 0
v -6750 -5000 0
v -6750 -4750 0
v -6500 -4750 0
v -6500 -5500 0
v -6750 -5500 0
v -6750 -5250 0
v -6500 -5250 0
v -6500 -6000 0
v -6750 -6000 0
v -6750 -5750 0
v -6500 -5750 0
v -2500 -12500 0
v -2750 -12500 0
v -2750 -12250 0
v -2500 -12250 0
v -2250 -15000 0
v -3000 -15000 0
v -3000 -14250 0
v -2250 -14250 0
v 0 -250 0
v -250 -250 0
v -250 0 0
v 0 0 0

# Texture cooridinates (Count = 8)
vt 0.0001220703 0.0001220703
vt 0.9998779 0.0001220703
vt 0.9998779 0.9998779
vt 0.0001220703 0.9998779
vt 0.0001219078 0.0001220703
vt 0.9985465 0.0001220703
vt 0.9985465 0.9998779
vt 0.0001219078 0.9998779

# Normal
vn 0 0 -1

# Groups (Count = 4)

g mesh_0001
f 1/1/1 2/2/1 3/3/1 4/4/1

g mesh_0002
f 5/1/1 6/2/1 2/3/1 1/4/1
f 7/1/1 8/2/1 6/3/1 5/4/1
f 9/1/1 10/2/1 8/3/1 7/4/1
f 11/1/1 12/2/1 13/3/1 14/4/1
f 15/1/1 16/2/1 17/3/1 18/4/1
f 19/1/1 20/2/1 16/3/1 15/4/1
f 21/1/1 22/2/1 23/3/1 24/4/1
f 25/1/1 26/2/1 21/3/1 27/4/1
f 28/1/1 29/2/1 26/3/1 25/4/1
f 30/1/1 31/2/1 32/3/1 33/4/1
f 34/1/1 35/2/1 36/3/1 37/4/1
f 38/1/1 39/2/1 34/3/1 40/4/1
f 41/1/1 42/2/1 38/3/1 43/4/1
f 44/1/1 45/2/1 41/3/1 46/4/1
f 47/1/1 48/2/1 44/3/1 49/4/1
f 50/1/1 51/2/1 52/3/1 53/4/1
f 54/1/1 55/2/1 51/3/1 50/4/1
f 56/1/1 57/2/1 58/3/1 59/4/1
f 60/1/1 61/2/1 57/3/1 56/4/1
f 62/1/1 63/2/1 61/3/1 60/4/1
f 64/1/1 65/2/1 63/3/1 62/4/1
f 66/1/1 67/2/1 65/3/1 64/4/1
f 68/1/1 69/2/1 67/3/1 66/4/1

g mesh_0003
f 70/1/1 14/2/1 71/3/1 72/4/1

g mesh_0004
f 73/1/1 74/2/1 75/3/1 76/4/1
f 77/1/1 78/2/1 79/3/1 80/4/1
f 81/1/1 82/2/1 83/3/1 84/4/1
f 85/1/1 86/2/1 87/3/1 88/4/1
f 89/1/1 90/2/1 91/3/1 92/4/1

g mesh_0005
f 93/5/1 94/6/1 95/7/1 96/8/1

g mesh_tile_0016
f 97/1/1 98/2/1 99/3/1 100/4/1

g mesh_tile_0014
f 97/1/1 98/2/1 99/3/1 100/4/1

g mesh_tile_0002
f 97/1/1 98/2/1 99/3/1 100/4/1

