# Wavefront OBJ file automatically generated by Tiled2Unity

# Vertices (Count = 87)
v -750 -250 0
v -1000 -250 0
v -1000 0 0
v -750 0 0
v -750 -500 0
v -1000 -500 0
v -3000 -2000 0
v -3250 -2000 0
v -3250 -1750 0
v -3000 -1750 0
v -1500 -7000 0
v -1750 -7000 0
v -1750 -6750 0
v -1500 -6750 0
v -2500 -7000 0
v -2750 -7000 0
v -2750 -6750 0
v -2500 -6750 0
v -2750 -7250 0
v -3000 -7250 0
v -3000 -7000 0
v -2750 -7500 0
v -3000 -7500 0
v -2750 -7750 0
v -3000 -7750 0
v -2750 -8000 0
v -3000 -8000 0
v -2750 -9000 0
v -3000 -9000 0
v -3000 -8750 0
v -2750 -8750 0
v -2750 -9250 0
v -3000 -9250 0
v -2750 -9500 0
v -3000 -9500 0
v -2750 -9750 0
v -3000 -9750 0
v -2750 -10000 0
v -3000 -10000 0
v -1500 -750 0
v -1750 -750 0
v -1750 -500 0
v -1500 -500 0
v -2000 -750 0
v -2250 -750 0
v -2250 -500 0
v -2000 -500 0
v -2750 -1250 0
v -3000 -1250 0
v -3000 -1000 0
v -2750 -1000 0
v -3250 -2750 0
v -3500 -2750 0
v -3500 -2500 0
v -3250 -2500 0
v -3250 -3250 0
v -3500 -3250 0
v -3500 -3000 0
v -3250 -3000 0
v -3250 -3750 0
v -3500 -3750 0
v -3500 -3500 0
v -3250 -3500 0
v -3250 -4250 0
v -3500 -4250 0
v -3500 -4000 0
v -3250 -4000 0
v -1250 -5000 0
v -1500 -5000 0
v -1500 -4750 0
v -1250 -4750 0
v -2500 -5000 0
v -2750 -5000 0
v -2750 -4750 0
v -2500 -4750 0
v -500 -5500 0
v -750 -5500 0
v -750 -5250 0
v -500 -5250 0
v -2500 -10500 0
v -3268 -10500 0
v -3268 -9732 0
v -2500 -9732 0
v 0 -250 0
v -250 -250 0
v -250 0 0
v 0 0 0

# Texture cooridinates (Count = 8)
vt 0.0001220703 0.0001220703
vt 0.9998779 0.0001220703
vt 0.9998779 0.9998779
vt 0.0001220703 0.9998779
vt 0.0001219116 0.0001220703
vt 0.9985777 0.0001220703
vt 0.9985777 0.9998779
vt 0.0001219116 0.9998779

# Normal
vn 0 0 -1

# Groups (Count = 4)

g mesh_0001
f 1/1/1 2/2/1 3/3/1 4/4/1

g mesh_0002
f 5/1/1 6/2/1 2/3/1 1/4/1
f 7/1/1 8/2/1 9/3/1 10/4/1
f 11/1/1 12/2/1 13/3/1 14/4/1
f 15/1/1 16/2/1 17/3/1 18/4/1
f 19/1/1 20/2/1 21/3/1 16/4/1
f 22/1/1 23/2/1 20/3/1 19/4/1
f 24/1/1 25/2/1 23/3/1 22/4/1
f 26/1/1 27/2/1 25/3/1 24/4/1
f 28/1/1 29/2/1 30/3/1 31/4/1
f 32/1/1 33/2/1 29/3/1 28/4/1
f 34/1/1 35/2/1 33/3/1 32/4/1
f 36/1/1 37/2/1 35/3/1 34/4/1
f 38/1/1 39/2/1 37/3/1 36/4/1

g mesh_0003
f 40/1/1 41/2/1 42/3/1 43/4/1
f 44/1/1 45/2/1 46/3/1 47/4/1
f 48/1/1 49/2/1 50/3/1 51/4/1
f 52/1/1 53/2/1 54/3/1 55/4/1
f 56/1/1 57/2/1 58/3/1 59/4/1
f 60/1/1 61/2/1 62/3/1 63/4/1
f 64/1/1 65/2/1 66/3/1 67/4/1
f 68/1/1 69/2/1 70/3/1 71/4/1
f 72/1/1 73/2/1 74/3/1 75/4/1
f 76/1/1 77/2/1 78/3/1 79/4/1

g mesh_0004
f 80/5/1 81/6/1 82/7/1 83/8/1

g mesh_tile_0002
f 84/1/1 85/2/1 86/3/1 87/4/1

g mesh_tile_0011
f 84/1/1 85/2/1 86/3/1 87/4/1

g mesh_tile_0004
f 84/1/1 85/2/1 86/3/1 87/4/1

