# Wavefront OBJ file automatically generated by Tiled2Unity

# Vertices (Count = 173)
v -45 -25 0
v -47.5 -25 0
v -47.5 -22.5 0
v -45 -22.5 0
v -45 -27.5 0
v -47.5 -27.5 0
v -45 -30 0
v -47.5 -30 0
v -45 -35 0
v -47.5 -35 0
v -47.5 -32.5 0
v -45 -32.5 0
v -45 -37.5 0
v -47.5 -37.5 0
v -50 -37.5 0
v -50 -35 0
v -50 -40 0
v -52.5 -40 0
v -52.5 -37.5 0
v -45 -42.5 0
v -47.5 -42.5 0
v -47.5 -40 0
v -45 -40 0
v -50 -42.5 0
v -42.5 -45 0
v -45 -45 0
v -42.5 -42.5 0
v -42.5 -47.5 0
v -45 -47.5 0
v -42.5 -50 0
v -45 -50 0
v -45 -52.5 0
v -47.5 -52.5 0
v -47.5 -50 0
v -50 -52.5 0
v -50 -50 0
v -52.5 -52.5 0
v -52.5 -50 0
v -52.5 -57.5 0
v -55 -57.5 0
v -55 -55 0
v -52.5 -55 0
v -57.5 -57.5 0
v -57.5 -55 0
v -60 -57.5 0
v -60 -55 0
v -62.5 -57.5 0
v -62.5 -55 0
v -62.5 -60 0
v -65 -60 0
v -65 -57.5 0
v -62.5 -62.5 0
v -65 -62.5 0
v -62.5 -67.5 0
v -65 -67.5 0
v -65 -65 0
v -62.5 -65 0
v -57.5 -70 0
v -60 -70 0
v -60 -67.5 0
v -57.5 -67.5 0
v -55 -72.5 0
v -57.5 -72.5 0
v -55 -70 0
v -55 -75 0
v -57.5 -75 0
v -55 -77.5 0
v -57.5 -77.5 0
v -52.5 -80 0
v -55 -80 0
v -52.5 -77.5 0
v -52.5 -82.5 0
v -55 -82.5 0
v -57.5 -82.5 0
v -57.5 -80 0
v -60 -82.5 0
v -60 -80 0
v -50 -87.5 0
v -52.5 -87.5 0
v -52.5 -85 0
v -50 -85 0
v -55 -87.5 0
v -55 -85 0
v -57.5 -87.5 0
v -57.5 -85 0
v -47.5 -90 0
v -50 -90 0
v -47.5 -87.5 0
v -47.5 -92.5 0
v -50 -92.5 0
v -42.5 -95 0
v -45 -95 0
v -45 -92.5 0
v -42.5 -92.5 0
v -47.5 -95 0
v -40 -97.5 0
v -42.5 -97.5 0
v -40 -95 0
v -40 -100 0
v -42.5 -100 0
v -42.5 -102.5 0
v -45 -102.5 0
v -45 -100 0
v -47.5 -102.5 0
v -47.5 -100 0
v -50 -102.5 0
v -50 -100 0
v -52.5 -102.5 0
v -52.5 -100 0
v -52.5 -105 0
v -55 -105 0
v -55 -102.5 0
v -52.5 -107.5 0
v -55 -107.5 0
v -52.5 -110 0
v -55 -110 0
v -52.5 -112.5 0
v -55 -112.5 0
v -52.5 -115 0
v -55 -115 0
v -52.5 -117.5 0
v -55 -117.5 0
v -52.5 -120 0
v -55 -120 0
v -50 -32.5 0
v -50 -30 0
v -42.5 -35 0
v -42.5 -32.5 0
v -42.5 -37.5 0
v -52.5 -35 0
v -42.5 -40 0
v -52.5 -42.5 0
v -42.5 -52.5 0
v -55 -52.5 0
v -55 -50 0
v -50 -55 0
v -50 -57.5 0
v -65 -55 0
v -67.5 -65 0
v -67.5 -62.5 0
v -60 -65 0
v -67.5 -67.5 0
v -55 -67.5 0
v -62.5 -70 0
v -50 -80 0
v -50 -77.5 0
v -50 -82.5 0
v -62.5 -82.5 0
v -62.5 -80 0
v -60 -85 0
v -62.5 -85 0
v -47.5 -85 0
v -60 -87.5 0
v -40 -92.5 0
v -50 -95 0
v -40 -102.5 0
v -55 -100 0
v -50 -120 0
v -50 -117.5 0
v -57.5 -120 0
v -57.5 -117.5 0
v -50 -122.5 0
v -52.5 -122.5 0
v -55 -122.5 0
v -57.5 -122.5 0
v -50 -125 0
v -52.5 -125 0
v -55 -125 0
v -57.5 -125 0
v 0 -2.5 0
v -2.5 -2.5 0
v -2.5 0 0
v 0 0 0

# Texture cooridinates (Count = 36)
vt 0.0001220703 0.0001220703
vt 0.9998779 0.0001220703
vt 0.9998779 0.9998779
vt 0.0001220703 0.9998779
vt 4.069011E-05 0.6667074
vt 0.3332926 0.6667074
vt 0.3332926 0.9999593
vt 4.069011E-05 0.9999593
vt 0.6667073 0.6667074
vt 0.9999593 0.6667074
vt 0.9999593 0.9999593
vt 0.6667073 0.9999593
vt 4.069011E-05 0.333374
vt 0.3332926 0.333374
vt 0.3332926 0.666626
vt 4.069011E-05 0.666626
vt 0.333374 0.333374
vt 0.666626 0.333374
vt 0.666626 0.666626
vt 0.333374 0.666626
vt 0.6667073 0.333374
vt 0.9999593 0.333374
vt 0.9999593 0.666626
vt 0.6667073 0.666626
vt 4.069011E-05 4.070997E-05
vt 0.3332926 4.070997E-05
vt 0.3332926 0.3332927
vt 4.069011E-05 0.3332927
vt 0.333374 4.070997E-05
vt 0.666626 4.070997E-05
vt 0.666626 0.3332927
vt 0.333374 0.3332927
vt 0.6667073 4.070997E-05
vt 0.9999593 4.070997E-05
vt 0.9999593 0.3332927
vt 0.6667073 0.3332927

# Normal
vn 0 0 -1

# Groups (Count = 2)

g mesh_0001
f 1/1/1 2/2/1 3/3/1 4/4/1

g mesh_0002
f 5/1/1 6/2/1 2/3/1 1/4/1
f 7/1/1 8/2/1 6/3/1 5/4/1
f 9/1/1 10/2/1 11/3/1 12/4/1
f 13/1/1 14/2/1 10/3/1 9/4/1
f 14/1/1 15/2/1 16/3/1 10/4/1
f 17/1/1 18/2/1 19/3/1 15/4/1
f 20/1/1 21/2/1 22/3/1 23/4/1
f 21/1/1 24/2/1 17/3/1 22/4/1
f 25/1/1 26/2/1 20/3/1 27/4/1
f 28/1/1 29/2/1 26/3/1 25/4/1
f 30/1/1 31/2/1 29/3/1 28/4/1
f 32/1/1 33/2/1 34/3/1 31/4/1
f 33/1/1 35/2/1 36/3/1 34/4/1
f 35/1/1 37/2/1 38/3/1 36/4/1
f 39/1/1 40/2/1 41/3/1 42/4/1
f 40/1/1 43/2/1 44/3/1 41/4/1
f 43/1/1 45/2/1 46/3/1 44/4/1
f 45/1/1 47/2/1 48/3/1 46/4/1
f 49/1/1 50/2/1 51/3/1 47/4/1
f 52/1/1 53/2/1 50/3/1 49/4/1
f 54/1/1 55/2/1 56/3/1 57/4/1
f 58/1/1 59/2/1 60/3/1 61/4/1
f 62/1/1 63/2/1 58/3/1 64/4/1
f 65/1/1 66/2/1 63/3/1 62/4/1
f 67/1/1 68/2/1 66/3/1 65/4/1
f 69/1/1 70/2/1 67/3/1 71/4/1
f 72/1/1 73/2/1 70/3/1 69/4/1
f 73/1/1 74/2/1 75/3/1 70/4/1
f 74/1/1 76/2/1 77/3/1 75/4/1
f 78/1/1 79/2/1 80/3/1 81/4/1
f 79/1/1 82/2/1 83/3/1 80/4/1
f 82/1/1 84/2/1 85/3/1 83/4/1
f 86/1/1 87/2/1 78/3/1 88/4/1
f 89/1/1 90/2/1 87/3/1 86/4/1
f 91/1/1 92/2/1 93/3/1 94/4/1
f 92/1/1 95/2/1 89/3/1 93/4/1
f 96/1/1 97/2/1 91/3/1 98/4/1
f 99/1/1 100/2/1 97/3/1 96/4/1
f 101/1/1 102/2/1 103/3/1 100/4/1
f 102/1/1 104/2/1 105/3/1 103/4/1
f 104/1/1 106/2/1 107/3/1 105/4/1
f 106/1/1 108/2/1 109/3/1 107/4/1
f 110/1/1 111/2/1 112/3/1 108/4/1
f 113/1/1 114/2/1 111/3/1 110/4/1
f 115/1/1 116/2/1 114/3/1 113/4/1
f 117/1/1 118/2/1 116/3/1 115/4/1
f 119/1/1 120/2/1 118/3/1 117/4/1
f 121/1/1 122/2/1 120/3/1 119/4/1
f 123/1/1 124/2/1 122/3/1 121/4/1

g mesh_0003
f 12/4/1 11/1/1 8/2/1 7/3/1
f 11/2/1 125/3/1 126/4/1 8/1/1
f 127/1/1 9/2/1 12/3/1 128/4/1
f 10/3/1 16/4/1 125/1/1 11/2/1
f 129/4/1 13/1/1 9/2/1 127/3/1
f 15/2/1 19/3/1 130/4/1 16/1/1
f 27/1/1 20/2/1 23/3/1 131/4/1
f 24/3/1 132/4/1 18/1/1 17/2/1
f 133/4/1 32/1/1 31/2/1 30/3/1
f 37/2/1 134/3/1 135/4/1 38/1/1
f 136/1/1 42/2/1 37/3/1 35/4/1
f 42/3/1 41/4/1 134/1/1 37/2/1
f 137/4/1 39/1/1 42/2/1 136/3/1
f 47/2/1 51/3/1 138/4/1 48/1/1
f 57/4/1 56/1/1 53/2/1 52/3/1
f 56/2/1 139/3/1 140/4/1 53/1/1
f 60/1/1 54/2/1 57/3/1 141/4/1
f 55/3/1 142/4/1 139/1/1 56/2/1
f 64/1/1 58/2/1 61/3/1 143/4/1
f 59/3/1 144/4/1 54/1/1 60/2/1
f 145/1/1 69/2/1 71/3/1 146/4/1
f 70/3/1 75/4/1 68/1/1 67/2/1
f 147/4/1 72/1/1 69/2/1 145/3/1
f 76/2/1 148/3/1 149/4/1 77/1/1
f 85/1/1 150/2/1 76/3/1 74/4/1
f 150/3/1 151/4/1 148/1/1 76/2/1
f 88/1/1 78/2/1 81/3/1 152/4/1
f 84/3/1 153/4/1 150/1/1 85/2/1
f 98/1/1 91/2/1 94/3/1 154/4/1
f 95/3/1 155/4/1 90/1/1 89/2/1
f 156/4/1 101/1/1 100/2/1 99/3/1
f 108/2/1 112/3/1 157/4/1 109/1/1

g mesh_0004
f 158/5/1 123/6/1 121/7/1 159/8/1
f 124/9/1 160/10/1 161/11/1 122/12/1
f 162/13/1 163/14/1 123/15/1 158/16/1
f 163/17/1 164/18/1 124/19/1 123/20/1
f 164/21/1 165/22/1 160/23/1 124/24/1
f 166/25/1 167/26/1 163/27/1 162/28/1
f 167/29/1 168/30/1 164/31/1 163/32/1
f 168/33/1 169/34/1 165/35/1 164/36/1

g mesh_tile_0013
f 170/1/1 171/2/1 172/3/1 173/4/1

