# Wavefront OBJ file automatically generated by Tiled2Unity

# Vertices (Count = 73)
v -1750 -1000 0
v -2000 -1000 0
v -2000 -750 0
v -1750 -750 0
v -1750 -1250 0
v -2000 -1250 0
v -1250 -1750 0
v -1500 -1750 0
v -1500 -1500 0
v -1250 -1500 0
v -1250 -3000 0
v -1500 -3000 0
v -1500 -2750 0
v -1250 -2750 0
v -1500 -3250 0
v -1750 -3250 0
v -1750 -3000 0
v -1750 -4250 0
v -2000 -4250 0
v -2000 -4000 0
v -1750 -4000 0
v -2250 -4250 0
v -2250 -4000 0
v -2250 -5000 0
v -2500 -5000 0
v -2500 -4750 0
v -2250 -4750 0
v -2500 -5250 0
v -2750 -5250 0
v -2750 -5000 0
v -2750 -5750 0
v -3000 -5750 0
v -3000 -5500 0
v -2750 -5500 0
v -3000 -7500 0
v -3250 -7500 0
v -3250 -7250 0
v -3000 -7250 0
v -2500 -8000 0
v -2750 -8000 0
v -2750 -7750 0
v -2500 -7750 0
v -2000 -8500 0
v -2250 -8500 0
v -2250 -8250 0
v -2000 -8250 0
v -1750 -8750 0
v -2000 -8750 0
v -1750 -8500 0
v -1750 -9750 0
v -2000 -9750 0
v -2000 -9500 0
v -1750 -9500 0
v -1750 -10000 0
v -2000 -10000 0
v -1750 -10250 0
v -2000 -10250 0
v -1750 -10500 0
v -2000 -10500 0
v -1750 -10750 0
v -2000 -10750 0
v -1000 -2250 0
v -1250 -2250 0
v -1250 -2000 0
v -1000 -2000 0
v -1500 -11250 0
v -2268 -11250 0
v -2268 -10482 0
v -1500 -10482 0
v 0 -250 0
v -250 -250 0
v -250 0 0
v 0 0 0

# Texture cooridinates (Count = 8)
vt 0.0001220703 0.0001220703
vt 0.9998779 0.0001220703
vt 0.9998779 0.9998779
vt 0.0001220703 0.9998779
vt 0.0001219116 0.0001220703
vt 0.9985777 0.0001220703
vt 0.9985777 0.9998779
vt 0.0001219116 0.9998779

# Normal
vn 0 0 -1

# Groups (Count = 4)

g mesh_0001
f 1/1/1 2/2/1 3/3/1 4/4/1

g mesh_0002
f 5/1/1 6/2/1 2/3/1 1/4/1
f 7/1/1 8/2/1 9/3/1 10/4/1
f 11/1/1 12/2/1 13/3/1 14/4/1
f 15/1/1 16/2/1 17/3/1 12/4/1
f 18/1/1 19/2/1 20/3/1 21/4/1
f 19/1/1 22/2/1 23/3/1 20/4/1
f 24/1/1 25/2/1 26/3/1 27/4/1
f 28/1/1 29/2/1 30/3/1 25/4/1
f 31/1/1 32/2/1 33/3/1 34/4/1
f 35/1/1 36/2/1 37/3/1 38/4/1
f 39/1/1 40/2/1 41/3/1 42/4/1
f 43/1/1 44/2/1 45/3/1 46/4/1
f 47/1/1 48/2/1 43/3/1 49/4/1
f 50/1/1 51/2/1 52/3/1 53/4/1
f 54/1/1 55/2/1 51/3/1 50/4/1
f 56/1/1 57/2/1 55/3/1 54/4/1
f 58/1/1 59/2/1 57/3/1 56/4/1
f 60/1/1 61/2/1 59/3/1 58/4/1

g mesh_0003
f 62/1/1 63/2/1 64/3/1 65/4/1

g mesh_0004
f 66/5/1 67/6/1 68/7/1 69/8/1

g mesh_tile_0012
f 70/1/1 71/2/1 72/3/1 73/4/1

g mesh_tile_0005
f 70/1/1 71/2/1 72/3/1 73/4/1

g mesh_tile_0014
f 70/1/1 71/2/1 72/3/1 73/4/1

