# Wavefront OBJ file automatically generated by Tiled2Unity

# Vertices (Count = 158)
v -3000 -750 0
v -3250 -750 0
v -3250 -500 0
v -3000 -500 0
v -3000 -1000 0
v -3250 -1000 0
v -3000 -1250 0
v -3250 -1250 0
v -4750 -4250 0
v -5000 -4250 0
v -5000 -4000 0
v -4750 -4000 0
v -6250 -9750 0
v -6500 -9750 0
v -6500 -9500 0
v -6250 -9500 0
v -5000 -10000 0
v -5250 -10000 0
v -5250 -9750 0
v -5000 -9750 0
v -5500 -10000 0
v -5500 -9750 0
v -5750 -10000 0
v -5750 -9750 0
v -4750 -11000 0
v -5000 -11000 0
v -5000 -10750 0
v -4750 -10750 0
v -4750 -11250 0
v -5000 -11250 0
v -4750 -11500 0
v -5000 -11500 0
v -4750 -11750 0
v -5000 -11750 0
v -4750 -12000 0
v -5000 -12000 0
v -3000 -1500 0
v -3250 -1500 0
v -4000 -4000 0
v -4250 -4000 0
v -4250 -3750 0
v -4000 -3750 0
v -4750 -4500 0
v -5000 -4500 0
v -7000 -4750 0
v -7250 -4750 0
v -7250 -4500 0
v -7000 -4500 0
v -4750 -10250 0
v -5000 -10250 0
v -4750 -10000 0
v -3000 -2000 0
v -3250 -2000 0
v -3250 -1750 0
v -3000 -1750 0
v -3000 -2500 0
v -3250 -2500 0
v -3250 -2250 0
v -3000 -2250 0
v -3000 -3000 0
v -3250 -3000 0
v -3250 -2750 0
v -3000 -2750 0
v -5250 -4500 0
v -5500 -4500 0
v -5500 -4250 0
v -5250 -4250 0
v -5750 -4500 0
v -6000 -4500 0
v -6000 -4250 0
v -5750 -4250 0
v -6250 -4500 0
v -6500 -4500 0
v -6500 -4250 0
v -6250 -4250 0
v -7000 -5250 0
v -7250 -5250 0
v -7250 -5000 0
v -7000 -5000 0
v -7000 -5750 0
v -7250 -5750 0
v -7250 -5500 0
v -7000 -5500 0
v -6000 -7000 0
v -6250 -7000 0
v -6250 -6750 0
v -6000 -6750 0
v -6000 -7500 0
v -6250 -7500 0
v -6250 -7250 0
v -6000 -7250 0
v -6000 -8000 0
v -6250 -8000 0
v -6250 -7750 0
v -6000 -7750 0
v -6000 -8500 0
v -6250 -8500 0
v -6250 -8250 0
v -6000 -8250 0
v -6000 -9000 0
v -6250 -9000 0
v -6250 -8750 0
v -6000 -8750 0
v -3000 -3500 0
v -3250 -3500 0
v -3250 -3250 0
v -3000 -3250 0
v -7000 -6250 0
v -7250 -6250 0
v -7250 -6000 0
v -7000 -6000 0
v -6000 -9500 0
v -6250 -9250 0
v -6000 -9250 0
v -5000 -10500 0
v -4750 -10500 0
v -3000 -3750 0
v -3250 -3750 0
v -6000 -9750 0
v -3500 -3750 0
v -3500 -3500 0
v -6250 -6500 0
v -6500 -6500 0
v -6500 -6250 0
v -6250 -6250 0
v -6000 -10000 0
v -3750 -3750 0
v -4000 -3500 0
v -3750 -3500 0
v -4500 -4000 0
v -4750 -3750 0
v -4500 -3750 0
v -6750 -4500 0
v -7000 -4250 0
v -6750 -4250 0
v -6000 -6500 0
v -6000 -6250 0
v -6750 -6500 0
v -7000 -6500 0
v -6750 -6250 0
v -6250 -10000 0
v -6500 -10000 0
v -4250 -3500 0
v -5000 -3750 0
v -7250 -4250 0
v -6750 -9750 0
v -6750 -9500 0
v -7250 -6500 0
v -6750 -10000 0
v -4750 -9750 0
v -4500 -12500 0
v -5250 -12500 0
v -5250 -11750 0
v -4500 -11750 0
v 0 -250 0
v -250 -250 0
v -250 0 0
v 0 0 0

# Texture cooridinates (Count = 4)
vt 0.0001220703 0.0001220703
vt 0.9998779 0.0001220703
vt 0.9998779 0.9998779
vt 0.0001220703 0.9998779

# Normal
vn 0 0 -1

# Groups (Count = 2)

g mesh_0001
f 1/1/1 2/2/1 3/3/1 4/4/1

g mesh_0002
f 5/1/1 6/2/1 2/3/1 1/4/1
f 7/1/1 8/2/1 6/3/1 5/4/1
f 9/1/1 10/2/1 11/3/1 12/4/1
f 13/1/1 14/2/1 15/3/1 16/4/1
f 17/1/1 18/2/1 19/3/1 20/4/1
f 18/1/1 21/2/1 22/3/1 19/4/1
f 21/1/1 23/2/1 24/3/1 22/4/1
f 25/1/1 26/2/1 27/3/1 28/4/1
f 29/1/1 30/2/1 26/3/1 25/4/1
f 31/1/1 32/2/1 30/3/1 29/4/1
f 33/1/1 34/2/1 32/3/1 31/4/1
f 35/1/1 36/2/1 34/3/1 33/4/1

g mesh_0003
f 37/1/1 38/2/1 8/3/1 7/4/1
f 39/1/1 40/2/1 41/3/1 42/4/1
f 43/1/1 44/2/1 10/3/1 9/4/1
f 45/1/1 46/2/1 47/3/1 48/4/1
f 49/1/1 50/2/1 17/3/1 51/4/1

g mesh_0004
f 52/1/1 53/2/1 54/3/1 55/4/1
f 56/1/1 57/2/1 58/3/1 59/4/1
f 60/1/1 61/2/1 62/3/1 63/4/1
f 64/1/1 65/2/1 66/3/1 67/4/1
f 68/1/1 69/2/1 70/3/1 71/4/1
f 72/1/1 73/2/1 74/3/1 75/4/1
f 76/1/1 77/2/1 78/3/1 79/4/1
f 80/1/1 81/2/1 82/3/1 83/4/1
f 84/1/1 85/2/1 86/3/1 87/4/1
f 88/1/1 89/2/1 90/3/1 91/4/1
f 92/1/1 93/2/1 94/3/1 95/4/1
f 96/1/1 97/2/1 98/3/1 99/4/1
f 100/1/1 101/2/1 102/3/1 103/4/1

g mesh_0005
f 104/1/1 105/2/1 106/3/1 107/4/1
f 108/1/1 109/2/1 110/3/1 111/4/1
f 112/1/1 16/2/1 113/3/1 114/4/1
f 28/1/1 27/2/1 115/3/1 116/4/1

g mesh_0006
f 117/1/1 118/2/1 105/3/1 104/4/1
f 119/1/1 13/2/1 16/3/1 112/4/1

g mesh_0007
f 118/1/1 120/2/1 121/3/1 105/4/1
f 122/1/1 123/2/1 124/3/1 125/4/1
f 23/1/1 126/2/1 119/3/1 24/4/1

g mesh_0008
f 127/1/1 42/2/1 128/3/1 129/4/1
f 130/1/1 12/2/1 131/3/1 132/4/1
f 133/1/1 48/2/1 134/3/1 135/4/1
f 136/1/1 122/2/1 125/3/1 137/4/1
f 138/1/1 139/2/1 108/3/1 140/4/1
f 141/1/1 142/2/1 14/3/1 13/4/1

g mesh_0009
f 42/1/1 41/2/1 143/3/1 128/4/1
f 12/1/1 11/2/1 144/3/1 131/4/1
f 48/1/1 47/2/1 145/3/1 134/4/1
f 14/1/1 146/2/1 147/3/1 15/4/1

g mesh_0010
f 139/1/1 148/2/1 109/3/1 108/4/1
f 142/1/1 149/2/1 146/3/1 14/4/1

g mesh_0011
f 51/1/1 17/2/1 20/3/1 150/4/1

g mesh_0012
f 151/1/1 152/2/1 153/3/1 154/4/1

g mesh_tile_0002
f 155/1/1 156/2/1 157/3/1 158/4/1

