# Wavefront OBJ file automatically generated by Tiled2Unity

# Vertices (Count = 110)
v -22.5 -17.5 0
v -25 -17.5 0
v -25 -15 0
v -22.5 -15 0
v -22.5 -20 0
v -25 -20 0
v -25 -22.5 0
v -27.5 -22.5 0
v -27.5 -20 0
v -30 -22.5 0
v -30 -20 0
v -37.5 -22.5 0
v -40 -22.5 0
v -40 -20 0
v -37.5 -20 0
v -42.5 -22.5 0
v -42.5 -20 0
v -45 -22.5 0
v -45 -20 0
v -47.5 -22.5 0
v -47.5 -20 0
v -55 -25 0
v -57.5 -25 0
v -57.5 -22.5 0
v -55 -22.5 0
v -47.5 -27.5 0
v -50 -27.5 0
v -50 -25 0
v -47.5 -25 0
v -52.5 -27.5 0
v -52.5 -25 0
v -55 -27.5 0
v -42.5 -30 0
v -45 -30 0
v -45 -27.5 0
v -42.5 -27.5 0
v -40 -32.5 0
v -42.5 -32.5 0
v -40 -30 0
v -40 -35 0
v -42.5 -35 0
v -30 -37.5 0
v -32.5 -37.5 0
v -32.5 -35 0
v -30 -35 0
v -35 -37.5 0
v -35 -35 0
v -37.5 -37.5 0
v -37.5 -35 0
v -40 -37.5 0
v -27.5 -40 0
v -30 -40 0
v -27.5 -37.5 0
v -27.5 -42.5 0
v -30 -42.5 0
v -30 -45 0
v -32.5 -45 0
v -32.5 -42.5 0
v -32.5 -47.5 0
v -35 -47.5 0
v -35 -45 0
v -30 -50 0
v -32.5 -50 0
v -30 -47.5 0
v -27.5 -52.5 0
v -30 -52.5 0
v -27.5 -50 0
v -27.5 -55 0
v -30 -55 0
v -27.5 -57.5 0
v -30 -57.5 0
v -27.5 -60 0
v -30 -60 0
v -27.5 -62.5 0
v -30 -62.5 0
v -27.5 -65 0
v -30 -65 0
v -27.5 -67.5 0
v -30 -67.5 0
v -27.5 -70 0
v -30 -70 0
v -22.5 -22.5 0
v -27.5 -45 0
v -32.5 -22.5 0
v -32.5 -20 0
v -50 -22.5 0
v -50 -20 0
v -35 -22.5 0
v -35 -20 0
v -52.5 -22.5 0
v -55 -20 0
v -52.5 -20 0
v -57.5 -20 0
v -35 -42.5 0
v -45 -25 0
v -40 -27.5 0
v -27.5 -35 0
v -27.5 -47.5 0
v -57.5 -27.5 0
v -47.5 -30 0
v -42.5 -37.5 0
v -35 -50 0
v -25 -75 0
v -32.68 -75 0
v -32.68 -67.32 0
v -25 -67.32 0
v 0 -2.5 0
v -2.5 -2.5 0
v -2.5 0 0
v 0 0 0

# Texture cooridinates (Count = 12)
vt 0.0001220703 0.0001220703
vt 0.9998779 0.0001220703
vt 0.9998779 0.9998779
vt 0.0001220703 0.9998779
vt 0.0001219116 0.0001220703
vt 0.9985777 0.0001220703
vt 0.9985777 0.9998779
vt 0.0001219116 0.9998779
vt 0.6000122 0.0001220703
vt 0.6999878 0.0001220703
vt 0.6999878 0.9998779
vt 0.6000122 0.9998779

# Normal
vn 0 0 -1

# Groups (Count = 3)

g mesh_0001
f 1/1/1 2/2/1 3/3/1 4/4/1

g mesh_0002
f 5/1/1 6/2/1 2/3/1 1/4/1
f 7/1/1 8/2/1 9/3/1 6/4/1
f 8/1/1 10/2/1 11/3/1 9/4/1
f 12/1/1 13/2/1 14/3/1 15/4/1
f 13/1/1 16/2/1 17/3/1 14/4/1
f 16/1/1 18/2/1 19/3/1 17/4/1
f 18/1/1 20/2/1 21/3/1 19/4/1
f 22/1/1 23/2/1 24/3/1 25/4/1
f 26/1/1 27/2/1 28/3/1 29/4/1
f 27/1/1 30/2/1 31/3/1 28/4/1
f 30/1/1 32/2/1 22/3/1 31/4/1
f 33/1/1 34/2/1 35/3/1 36/4/1
f 37/1/1 38/2/1 33/3/1 39/4/1
f 40/1/1 41/2/1 38/3/1 37/4/1
f 42/1/1 43/2/1 44/3/1 45/4/1
f 43/1/1 46/2/1 47/3/1 44/4/1
f 46/1/1 48/2/1 49/3/1 47/4/1
f 48/1/1 50/2/1 40/3/1 49/4/1
f 51/1/1 52/2/1 42/3/1 53/4/1
f 54/1/1 55/2/1 52/3/1 51/4/1
f 56/1/1 57/2/1 58/3/1 55/4/1
f 59/1/1 60/2/1 61/3/1 57/4/1
f 62/1/1 63/2/1 59/3/1 64/4/1
f 65/1/1 66/2/1 62/3/1 67/4/1
f 68/1/1 69/2/1 66/3/1 65/4/1
f 70/1/1 71/2/1 69/3/1 68/4/1
f 72/1/1 73/2/1 71/3/1 70/4/1
f 74/1/1 75/2/1 73/3/1 72/4/1
f 76/1/1 77/2/1 75/3/1 74/4/1
f 78/1/1 79/2/1 77/3/1 76/4/1
f 80/1/1 81/2/1 79/3/1 78/4/1

g mesh_0003
f 82/1/1 7/2/1 6/3/1 5/4/1
f 83/1/1 56/2/1 55/3/1 54/4/1

g mesh_0004
f 10/1/1 84/2/1 85/3/1 11/4/1
f 20/1/1 86/2/1 87/3/1 21/4/1

g mesh_0005
f 88/1/1 12/2/1 15/3/1 89/4/1
f 90/1/1 25/2/1 91/3/1 92/4/1

g mesh_0006
f 25/1/1 24/2/1 93/3/1 91/4/1
f 57/1/1 61/2/1 94/3/1 58/4/1

g mesh_0007
f 35/1/1 26/2/1 29/3/1 95/4/1
f 39/1/1 33/2/1 36/3/1 96/4/1
f 53/1/1 42/2/1 45/3/1 97/4/1
f 67/1/1 62/2/1 64/3/1 98/4/1

g mesh_0008
f 32/1/1 99/2/1 23/3/1 22/4/1
f 34/1/1 100/2/1 26/3/1 35/4/1
f 50/1/1 101/2/1 41/3/1 40/4/1
f 63/1/1 102/2/1 60/3/1 59/4/1

g mesh_0009
f 103/5/1 104/6/1 105/7/1 106/8/1

g mesh_tile_0019
f 107/9/1 108/10/1 109/11/1 110/12/1

g mesh_tile_0012
f 107/1/1 108/2/1 109/3/1 110/4/1

