# Wavefront OBJ file automatically generated by Tiled2Unity

# Vertices (Count = 158)
v -42.5 -25 0
v -45 -25 0
v -45 -22.5 0
v -42.5 -22.5 0
v -42.5 -27.5 0
v -45 -27.5 0
v -42.5 -30 0
v -45 -30 0
v -42.5 -32.5 0
v -45 -32.5 0
v -40 -37.5 0
v -42.5 -37.5 0
v -42.5 -35 0
v -40 -35 0
v -45 -37.5 0
v -45 -35 0
v -27.5 -40 0
v -30 -40 0
v -30 -37.5 0
v -27.5 -37.5 0
v -32.5 -40 0
v -32.5 -37.5 0
v -35 -40 0
v -35 -37.5 0
v -37.5 -40 0
v -37.5 -37.5 0
v -25 -42.5 0
v -27.5 -42.5 0
v -25 -40 0
v -25 -45 0
v -27.5 -45 0
v -25 -47.5 0
v -27.5 -47.5 0
v -22.5 -50 0
v -25 -50 0
v -22.5 -47.5 0
v -22.5 -52.5 0
v -25 -52.5 0
v -27.5 -52.5 0
v -27.5 -50 0
v -30 -57.5 0
v -32.5 -57.5 0
v -32.5 -55 0
v -30 -55 0
v -30 -60 0
v -32.5 -60 0
v -30 -62.5 0
v -32.5 -62.5 0
v -35 -67.5 0
v -37.5 -67.5 0
v -37.5 -65 0
v -35 -65 0
v -40 -70 0
v -42.5 -70 0
v -42.5 -67.5 0
v -40 -67.5 0
v -45 -70 0
v -45 -67.5 0
v -45 -75 0
v -47.5 -75 0
v -47.5 -72.5 0
v -45 -72.5 0
v -50 -75 0
v -50 -72.5 0
v -50 -77.5 0
v -52.5 -77.5 0
v -52.5 -75 0
v -50 -82.5 0
v -52.5 -82.5 0
v -52.5 -80 0
v -50 -80 0
v -52.5 -85 0
v -55 -85 0
v -55 -82.5 0
v -52.5 -87.5 0
v -55 -87.5 0
v -50 -90 0
v -52.5 -90 0
v -50 -87.5 0
v -50 -92.5 0
v -52.5 -92.5 0
v -47.5 -95 0
v -50 -95 0
v -47.5 -92.5 0
v -52.5 -95 0
v -42.5 -107.5 0
v -45 -107.5 0
v -45 -105 0
v -42.5 -105 0
v -42.5 -110 0
v -45 -110 0
v -42.5 -112.5 0
v -45 -112.5 0
v -42.5 -115 0
v -45 -115 0
v -42.5 -117.5 0
v -45 -117.5 0
v -42.5 -120 0
v -45 -120 0
v -47.5 -35 0
v -47.5 -32.5 0
v -37.5 -35 0
v -47.5 -37.5 0
v -25 -37.5 0
v -40 -40 0
v -20 -50 0
v -20 -47.5 0
v -20 -52.5 0
v -30 -52.5 0
v -30 -50 0
v -27.5 -55 0
v -32.5 -52.5 0
v -30 -65 0
v -32.5 -65 0
v -35 -62.5 0
v -32.5 -67.5 0
v -40 -65 0
v -37.5 -70 0
v -47.5 -70 0
v -47.5 -67.5 0
v -42.5 -72.5 0
v -42.5 -75 0
v -52.5 -72.5 0
v -47.5 -80 0
v -47.5 -77.5 0
v -47.5 -82.5 0
v -55 -80 0
v -47.5 -90 0
v -47.5 -87.5 0
v -55 -90 0
v -55 -92.5 0
v -45 -95 0
v -45 -92.5 0
v -55 -95 0
v -42.5 -97.5 0
v -45 -97.5 0
v -42.5 -95 0
v -47.5 -97.5 0
v -42.5 -100 0
v -45 -100 0
v -45 -102.5 0
v -42.5 -102.5 0
v -40 -120 0
v -40 -117.5 0
v -47.5 -120 0
v -47.5 -117.5 0
v -40 -122.5 0
v -42.5 -122.5 0
v -45 -122.5 0
v -47.5 -122.5 0
v -40 -125 0
v -42.5 -125 0
v -45 -125 0
v -47.5 -125 0
v 0 -2.5 0
v -2.5 -2.5 0
v -2.5 0 0
v 0 0 0

# Texture cooridinates (Count = 36)
vt 0.0001220703 0.0001220703
vt 0.9998779 0.0001220703
vt 0.9998779 0.9998779
vt 0.0001220703 0.9998779
vt 4.069011E-05 0.6667074
vt 0.3332926 0.6667074
vt 0.3332926 0.9999593
vt 4.069011E-05 0.9999593
vt 0.6667073 0.6667074
vt 0.9999593 0.6667074
vt 0.9999593 0.9999593
vt 0.6667073 0.9999593
vt 4.069011E-05 0.333374
vt 0.3332926 0.333374
vt 0.3332926 0.666626
vt 4.069011E-05 0.666626
vt 0.333374 0.333374
vt 0.666626 0.333374
vt 0.666626 0.666626
vt 0.333374 0.666626
vt 0.6667073 0.333374
vt 0.9999593 0.333374
vt 0.9999593 0.666626
vt 0.6667073 0.666626
vt 4.069011E-05 4.070997E-05
vt 0.3332926 4.070997E-05
vt 0.3332926 0.3332927
vt 4.069011E-05 0.3332927
vt 0.333374 4.070997E-05
vt 0.666626 4.070997E-05
vt 0.666626 0.3332927
vt 0.333374 0.3332927
vt 0.6667073 4.070997E-05
vt 0.9999593 4.070997E-05
vt 0.9999593 0.3332927
vt 0.6667073 0.3332927

# Normal
vn 0 0 -1

# Groups (Count = 2)

g mesh_0001
f 1/1/1 2/2/1 3/3/1 4/4/1

g mesh_0002
f 5/1/1 6/2/1 2/3/1 1/4/1
f 7/1/1 8/2/1 6/3/1 5/4/1
f 9/1/1 10/2/1 8/3/1 7/4/1
f 11/1/1 12/2/1 13/3/1 14/4/1
f 12/1/1 15/2/1 16/3/1 13/4/1
f 17/1/1 18/2/1 19/3/1 20/4/1
f 18/1/1 21/2/1 22/3/1 19/4/1
f 21/1/1 23/2/1 24/3/1 22/4/1
f 23/1/1 25/2/1 26/3/1 24/4/1
f 27/1/1 28/2/1 17/3/1 29/4/1
f 30/1/1 31/2/1 28/3/1 27/4/1
f 32/1/1 33/2/1 31/3/1 30/4/1
f 34/1/1 35/2/1 32/3/1 36/4/1
f 37/1/1 38/2/1 35/3/1 34/4/1
f 38/1/1 39/2/1 40/3/1 35/4/1
f 41/1/1 42/2/1 43/3/1 44/4/1
f 45/1/1 46/2/1 42/3/1 41/4/1
f 47/1/1 48/2/1 46/3/1 45/4/1
f 49/1/1 50/2/1 51/3/1 52/4/1
f 53/1/1 54/2/1 55/3/1 56/4/1
f 54/1/1 57/2/1 58/3/1 55/4/1
f 59/1/1 60/2/1 61/3/1 62/4/1
f 60/1/1 63/2/1 64/3/1 61/4/1
f 65/1/1 66/2/1 67/3/1 63/4/1
f 68/1/1 69/2/1 70/3/1 71/4/1
f 72/1/1 73/2/1 74/3/1 69/4/1
f 75/1/1 76/2/1 73/3/1 72/4/1
f 77/1/1 78/2/1 75/3/1 79/4/1
f 80/1/1 81/2/1 78/3/1 77/4/1
f 82/1/1 83/2/1 80/3/1 84/4/1
f 83/1/1 85/2/1 81/3/1 80/4/1
f 86/1/1 87/2/1 88/3/1 89/4/1
f 90/1/1 91/2/1 87/3/1 86/4/1
f 92/1/1 93/2/1 91/3/1 90/4/1
f 94/1/1 95/2/1 93/3/1 92/4/1
f 96/1/1 97/2/1 95/3/1 94/4/1
f 98/1/1 99/2/1 97/3/1 96/4/1

g mesh_0003
f 13/4/1 16/1/1 10/2/1 9/3/1
f 16/2/1 100/3/1 101/4/1 10/1/1
f 26/1/1 11/2/1 14/3/1 102/4/1
f 15/3/1 103/4/1 100/1/1 16/2/1
f 29/1/1 17/2/1 20/3/1 104/4/1
f 25/3/1 105/4/1 11/1/1 26/2/1
f 106/1/1 34/2/1 36/3/1 107/4/1
f 35/3/1 40/4/1 33/1/1 32/2/1
f 108/4/1 37/1/1 34/2/1 106/3/1
f 39/2/1 109/3/1 110/4/1 40/1/1
f 111/4/1 44/1/1 109/2/1 39/3/1
f 44/2/1 43/3/1 112/4/1 109/1/1
f 113/4/1 114/1/1 48/2/1 47/3/1
f 114/2/1 52/3/1 115/4/1 48/1/1
f 116/4/1 49/1/1 52/2/1 114/3/1
f 50/2/1 56/3/1 117/4/1 51/1/1
f 118/4/1 53/1/1 56/2/1 50/3/1
f 57/2/1 119/3/1 120/4/1 58/1/1
f 121/1/1 62/2/1 57/3/1 54/4/1
f 62/3/1 61/4/1 119/1/1 57/2/1
f 122/4/1 59/1/1 62/2/1 121/3/1
f 63/2/1 67/3/1 123/4/1 64/1/1
f 124/1/1 71/2/1 65/3/1 125/4/1
f 71/3/1 70/4/1 66/1/1 65/2/1
f 126/4/1 68/1/1 71/2/1 124/3/1
f 69/2/1 74/3/1 127/4/1 70/1/1
f 128/1/1 77/2/1 79/3/1 129/4/1
f 78/3/1 130/4/1 76/1/1 75/2/1
f 84/4/1 80/1/1 77/2/1 128/3/1
f 81/2/1 131/3/1 130/4/1 78/1/1
f 132/1/1 82/2/1 84/3/1 133/4/1
f 85/3/1 134/4/1 131/1/1 81/2/1
f 135/1/1 136/2/1 132/3/1 137/4/1
f 136/3/1 138/4/1 82/1/1 132/2/1

g mesh_0004
f 139/3/1 140/4/1 136/1/1 135/2/1
f 89/1/1 88/2/1 141/3/1 142/4/1

g mesh_0005
f 143/5/1 98/6/1 96/7/1 144/8/1
f 99/9/1 145/10/1 146/11/1 97/12/1
f 147/13/1 148/14/1 98/15/1 143/16/1
f 148/17/1 149/18/1 99/19/1 98/20/1
f 149/21/1 150/22/1 145/23/1 99/24/1
f 151/25/1 152/26/1 148/27/1 147/28/1
f 152/29/1 153/30/1 149/31/1 148/32/1
f 153/33/1 154/34/1 150/35/1 149/36/1

g mesh_tile_0012
f 155/1/1 156/2/1 157/3/1 158/4/1

