# Wavefront OBJ file automatically generated by Tiled2Unity

# Vertices (Count = 160)
v -47.5 -20 0
v -50 -20 0
v -50 -17.5 0
v -47.5 -17.5 0
v -47.5 -22.5 0
v -50 -22.5 0
v -47.5 -25 0
v -50 -25 0
v -27.5 -87.5 0
v -30 -87.5 0
v -30 -85 0
v -27.5 -85 0
v -17.5 -110 0
v -20 -110 0
v -20 -107.5 0
v -17.5 -107.5 0
v -17.5 -112.5 0
v -20 -112.5 0
v -17.5 -115 0
v -20 -115 0
v -17.5 -117.5 0
v -20 -117.5 0
v -17.5 -120 0
v -20 -120 0
v -47.5 -27.5 0
v -50 -27.5 0
v -17.5 -87.5 0
v -20 -87.5 0
v -20 -85 0
v -17.5 -85 0
v -52.5 -27.5 0
v -52.5 -25 0
v -62.5 -27.5 0
v -65 -27.5 0
v -65 -25 0
v -62.5 -25 0
v -45 -35 0
v -47.5 -35 0
v -47.5 -32.5 0
v -45 -32.5 0
v -37.5 -50 0
v -40 -50 0
v -40 -47.5 0
v -37.5 -47.5 0
v -30 -60 0
v -32.5 -60 0
v -32.5 -57.5 0
v -30 -57.5 0
v -20 -80 0
v -22.5 -80 0
v -22.5 -77.5 0
v -20 -77.5 0
v -22.5 -87.5 0
v -22.5 -85 0
v -20 -97.5 0
v -22.5 -97.5 0
v -22.5 -95 0
v -20 -95 0
v -55 -27.5 0
v -57.5 -27.5 0
v -57.5 -25 0
v -55 -25 0
v -50 -35 0
v -52.5 -35 0
v -52.5 -32.5 0
v -50 -32.5 0
v -55 -35 0
v -57.5 -35 0
v -57.5 -32.5 0
v -55 -32.5 0
v -42.5 -42.5 0
v -45 -42.5 0
v -45 -40 0
v -42.5 -40 0
v -27.5 -67.5 0
v -30 -67.5 0
v -30 -65 0
v -27.5 -65 0
v -27.5 -72.5 0
v -30 -72.5 0
v -30 -70 0
v -27.5 -70 0
v -25 -97.5 0
v -27.5 -97.5 0
v -27.5 -95 0
v -25 -95 0
v -17.5 -102.5 0
v -20 -102.5 0
v -20 -100 0
v -17.5 -100 0
v -60 -27.5 0
v -60 -25 0
v -60 -35 0
v -62.5 -35 0
v -62.5 -32.5 0
v -60 -32.5 0
v -17.5 -80 0
v -17.5 -77.5 0
v -25 -80 0
v -27.5 -80 0
v -27.5 -77.5 0
v -25 -77.5 0
v -25 -87.5 0
v -25 -85 0
v -17.5 -97.5 0
v -17.5 -95 0
v -65 -32.5 0
v -65 -30 0
v -62.5 -30 0
v -42.5 -47.5 0
v -45 -47.5 0
v -45 -45 0
v -42.5 -45 0
v -35 -57.5 0
v -37.5 -57.5 0
v -37.5 -55 0
v -35 -55 0
v -30 -77.5 0
v -30 -75 0
v -27.5 -75 0
v -20 -82.5 0
v -17.5 -82.5 0
v -30 -95 0
v -32.5 -95 0
v -32.5 -92.5 0
v -30 -92.5 0
v -20 -105 0
v -17.5 -105 0
v -42.5 -35 0
v -42.5 -32.5 0
v -35 -50 0
v -35 -47.5 0
v -27.5 -60 0
v -27.5 -57.5 0
v -65 -35 0
v -30 -80 0
v -42.5 -37.5 0
v -45 -37.5 0
v -42.5 -50 0
v -45 -50 0
v -35 -52.5 0
v -37.5 -52.5 0
v -35 -60 0
v -37.5 -60 0
v -27.5 -62.5 0
v -30 -62.5 0
v -30 -90 0
v -32.5 -90 0
v -32.5 -87.5 0
v -30 -97.5 0
v -32.5 -97.5 0
v -32.5 -85 0
v -15 -125 0
v -22.5 -125 0
v -22.5 -117.5 0
v -15 -117.5 0
v 0 -2.5 0
v -2.5 -2.5 0
v -2.5 0 0
v 0 0 0

# Texture cooridinates (Count = 4)
vt 0.0001220703 0.0001220703
vt 0.9998779 0.0001220703
vt 0.9998779 0.9998779
vt 0.0001220703 0.9998779

# Normal
vn 0 0 -1

# Groups (Count = 2)

g mesh_0001
f 1/1/1 2/2/1 3/3/1 4/4/1

g mesh_0002
f 5/1/1 6/2/1 2/3/1 1/4/1
f 7/1/1 8/2/1 6/3/1 5/4/1
f 9/1/1 10/2/1 11/3/1 12/4/1
f 13/1/1 14/2/1 15/3/1 16/4/1
f 17/1/1 18/2/1 14/3/1 13/4/1
f 19/1/1 20/2/1 18/3/1 17/4/1
f 21/1/1 22/2/1 20/3/1 19/4/1
f 23/1/1 24/2/1 22/3/1 21/4/1

g mesh_0003
f 25/1/1 26/2/1 8/3/1 7/4/1
f 27/1/1 28/2/1 29/3/1 30/4/1

g mesh_0004
f 26/1/1 31/2/1 32/3/1 8/4/1
f 33/1/1 34/2/1 35/3/1 36/4/1
f 37/1/1 38/2/1 39/3/1 40/4/1
f 41/1/1 42/2/1 43/3/1 44/4/1
f 45/1/1 46/2/1 47/3/1 48/4/1
f 49/1/1 50/2/1 51/3/1 52/4/1
f 28/1/1 53/2/1 54/3/1 29/4/1
f 55/1/1 56/2/1 57/3/1 58/4/1

g mesh_0005
f 59/1/1 60/2/1 61/3/1 62/4/1
f 63/1/1 64/2/1 65/3/1 66/4/1
f 67/1/1 68/2/1 69/3/1 70/4/1
f 71/1/1 72/2/1 73/3/1 74/4/1
f 75/1/1 76/2/1 77/3/1 78/4/1
f 79/1/1 80/2/1 81/3/1 82/4/1
f 83/1/1 84/2/1 85/3/1 86/4/1
f 87/1/1 88/2/1 89/3/1 90/4/1

g mesh_0006
f 91/1/1 33/2/1 36/3/1 92/4/1
f 93/1/1 94/2/1 95/3/1 96/4/1
f 97/1/1 49/2/1 52/3/1 98/4/1
f 99/1/1 100/2/1 101/3/1 102/4/1
f 103/1/1 9/2/1 12/3/1 104/4/1
f 105/1/1 55/2/1 58/3/1 106/4/1

g mesh_0007
f 95/1/1 107/2/1 108/3/1 109/4/1
f 110/1/1 111/2/1 112/3/1 113/4/1
f 114/1/1 115/2/1 116/3/1 117/4/1
f 101/1/1 118/2/1 119/3/1 120/4/1
f 30/1/1 29/2/1 121/3/1 122/4/1
f 123/1/1 124/2/1 125/3/1 126/4/1
f 16/1/1 15/2/1 127/3/1 128/4/1

g mesh_0008
f 129/1/1 37/2/1 40/3/1 130/4/1
f 131/1/1 41/2/1 44/3/1 132/4/1
f 133/1/1 45/2/1 48/3/1 134/4/1

g mesh_0009
f 94/1/1 135/2/1 107/3/1 95/4/1
f 100/1/1 136/2/1 118/3/1 101/4/1

g mesh_0010
f 137/1/1 138/2/1 37/3/1 129/4/1
f 139/1/1 140/2/1 111/3/1 110/4/1
f 141/1/1 142/2/1 41/3/1 131/4/1
f 143/1/1 144/2/1 115/3/1 114/4/1
f 145/1/1 146/2/1 45/3/1 133/4/1
f 147/1/1 148/2/1 149/3/1 10/4/1
f 150/1/1 151/2/1 124/3/1 123/4/1

g mesh_0011
f 10/1/1 149/2/1 152/3/1 11/4/1

g mesh_0012
f 153/1/1 154/2/1 155/3/1 156/4/1

g mesh_tile_0016
f 157/1/1 158/2/1 159/3/1 160/4/1

