# Wavefront OBJ file automatically generated by Tiled2Unity

# Vertices (Count = 134)
v -7.5 -10 0
v -10 -10 0
v -10 -7.5 0
v -7.5 -7.5 0
v -7.5 -12.5 0
v -10 -12.5 0
v -7.5 -15 0
v -10 -15 0
v -7.5 -17.5 0
v -10 -17.5 0
v -15 -20 0
v -17.5 -20 0
v -17.5 -17.5 0
v -15 -17.5 0
v -17.5 -27.5 0
v -20 -27.5 0
v -20 -25 0
v -17.5 -25 0
v -20 -32.5 0
v -22.5 -32.5 0
v -22.5 -30 0
v -20 -30 0
v -17.5 -35 0
v -20 -35 0
v -17.5 -32.5 0
v -15 -37.5 0
v -17.5 -37.5 0
v -15 -35 0
v -15 -40 0
v -17.5 -40 0
v -15 -42.5 0
v -17.5 -42.5 0
v -15 -45 0
v -17.5 -45 0
v -15 -55 0
v -17.5 -55 0
v -17.5 -52.5 0
v -15 -52.5 0
v -17.5 -57.5 0
v -20 -57.5 0
v -20 -55 0
v -20 -60 0
v -22.5 -60 0
v -22.5 -57.5 0
v -20 -62.5 0
v -22.5 -62.5 0
v -17.5 -65 0
v -20 -65 0
v -17.5 -62.5 0
v -15 -75 0
v -17.5 -75 0
v -17.5 -72.5 0
v -15 -72.5 0
v -17.5 -77.5 0
v -20 -77.5 0
v -20 -75 0
v -20 -80 0
v -22.5 -80 0
v -22.5 -77.5 0
v -20 -82.5 0
v -22.5 -82.5 0
v -17.5 -85 0
v -20 -85 0
v -17.5 -82.5 0
v -15 -95 0
v -17.5 -95 0
v -17.5 -92.5 0
v -15 -92.5 0
v -15 -97.5 0
v -17.5 -97.5 0
v -15 -100 0
v -17.5 -100 0
v -17.5 -102.5 0
v -20 -102.5 0
v -20 -100 0
v -20 -105 0
v -22.5 -105 0
v -22.5 -102.5 0
v -20 -107.5 0
v -22.5 -107.5 0
v -20 -110 0
v -22.5 -110 0
v -20 -112.5 0
v -22.5 -112.5 0
v -20 -115 0
v -22.5 -115 0
v -20 -117.5 0
v -22.5 -117.5 0
v -20 -120 0
v -22.5 -120 0
v -7.5 -20 0
v -10 -20 0
v -15 -47.5 0
v -17.5 -47.5 0
v -15 -67.5 0
v -17.5 -67.5 0
v -15 -65 0
v -15 -87.5 0
v -17.5 -87.5 0
v -15 -85 0
v -12.5 -20 0
v -12.5 -17.5 0
v -20 -20 0
v -20 -17.5 0
v -20 -22.5 0
v -17.5 -22.5 0
v -17.5 -50 0
v -15 -50 0
v -17.5 -70 0
v -15 -70 0
v -17.5 -90 0
v -15 -90 0
v -17.5 -30 0
v -15 -57.5 0
v -15 -77.5 0
v -15 -102.5 0
v -22.5 -27.5 0
v -22.5 -55 0
v -22.5 -75 0
v -22.5 -100 0
v -15 -32.5 0
v -15 -62.5 0
v -15 -82.5 0
v -22.5 -35 0
v -22.5 -65 0
v -22.5 -85 0
v -17.5 -125 0
v -25.18 -125 0
v -25.18 -117.32 0
v -17.5 -117.32 0
v 0 -2.5 0
v -2.5 -2.5 0
v -2.5 0 0
v 0 0 0

# Texture cooridinates (Count = 8)
vt 0.0001220703 0.0001220703
vt 0.9998779 0.0001220703
vt 0.9998779 0.9998779
vt 0.0001220703 0.9998779
vt 0.0001219116 0.0001220703
vt 0.9985777 0.0001220703
vt 0.9985777 0.9998779
vt 0.0001219116 0.9998779

# Normal
vn 0 0 -1

# Groups (Count = 2)

g mesh_0001
f 1/1/1 2/2/1 3/3/1 4/4/1

g mesh_0002
f 5/1/1 6/2/1 2/3/1 1/4/1
f 7/1/1 8/2/1 6/3/1 5/4/1
f 9/1/1 10/2/1 8/3/1 7/4/1
f 11/1/1 12/2/1 13/3/1 14/4/1
f 15/1/1 16/2/1 17/3/1 18/4/1
f 19/1/1 20/2/1 21/3/1 22/4/1
f 23/1/1 24/2/1 19/3/1 25/4/1
f 26/1/1 27/2/1 23/3/1 28/4/1
f 29/1/1 30/2/1 27/3/1 26/4/1
f 31/1/1 32/2/1 30/3/1 29/4/1
f 33/1/1 34/2/1 32/3/1 31/4/1
f 35/1/1 36/2/1 37/3/1 38/4/1
f 39/1/1 40/2/1 41/3/1 36/4/1
f 42/1/1 43/2/1 44/3/1 40/4/1
f 45/1/1 46/2/1 43/3/1 42/4/1
f 47/1/1 48/2/1 45/3/1 49/4/1
f 50/1/1 51/2/1 52/3/1 53/4/1
f 54/1/1 55/2/1 56/3/1 51/4/1
f 57/1/1 58/2/1 59/3/1 55/4/1
f 60/1/1 61/2/1 58/3/1 57/4/1
f 62/1/1 63/2/1 60/3/1 64/4/1
f 65/1/1 66/2/1 67/3/1 68/4/1
f 69/1/1 70/2/1 66/3/1 65/4/1
f 71/1/1 72/2/1 70/3/1 69/4/1
f 73/1/1 74/2/1 75/3/1 72/4/1
f 76/1/1 77/2/1 78/3/1 74/4/1
f 79/1/1 80/2/1 77/3/1 76/4/1
f 81/1/1 82/2/1 80/3/1 79/4/1
f 83/1/1 84/2/1 82/3/1 81/4/1
f 85/1/1 86/2/1 84/3/1 83/4/1
f 87/1/1 88/2/1 86/3/1 85/4/1
f 89/1/1 90/2/1 88/3/1 87/4/1

g mesh_0003
f 91/1/1 92/2/1 10/3/1 9/4/1
f 93/1/1 94/2/1 34/3/1 33/4/1
f 95/1/1 96/2/1 47/3/1 97/4/1
f 98/1/1 99/2/1 62/3/1 100/4/1

g mesh_0004
f 101/1/1 11/2/1 14/3/1 102/4/1

g mesh_0005
f 12/1/1 103/2/1 104/3/1 13/4/1

g mesh_0006
f 18/1/1 17/2/1 105/3/1 106/4/1
f 38/1/1 37/2/1 107/3/1 108/4/1
f 53/1/1 52/2/1 109/3/1 110/4/1
f 68/1/1 67/2/1 111/3/1 112/4/1

g mesh_0007
f 113/1/1 22/2/1 16/3/1 15/4/1
f 114/1/1 39/2/1 36/3/1 35/4/1
f 115/1/1 54/2/1 51/3/1 50/4/1
f 116/1/1 73/2/1 72/3/1 71/4/1

g mesh_0008
f 22/1/1 21/2/1 117/3/1 16/4/1
f 40/1/1 44/2/1 118/3/1 41/4/1
f 55/1/1 59/2/1 119/3/1 56/4/1
f 74/1/1 78/2/1 120/3/1 75/4/1

g mesh_0009
f 28/1/1 23/2/1 25/3/1 121/4/1
f 97/1/1 47/2/1 49/3/1 122/4/1
f 100/1/1 62/2/1 64/3/1 123/4/1

g mesh_0010
f 24/1/1 124/2/1 20/3/1 19/4/1
f 48/1/1 125/2/1 46/3/1 45/4/1
f 63/1/1 126/2/1 61/3/1 60/4/1

g mesh_0011
f 127/5/1 128/6/1 129/7/1 130/8/1

g mesh_tile_0012
f 131/1/1 132/2/1 133/3/1 134/4/1

