# Wavefront OBJ file automatically generated by Tiled2Unity

# Vertices (Count = 161)
v -27.5 -30 0
v -30 -30 0
v -30 -27.5 0
v -27.5 -27.5 0
v -27.5 -32.5 0
v -30 -32.5 0
v -27.5 -35 0
v -30 -35 0
v -27.5 -47.5 0
v -30 -47.5 0
v -30 -45 0
v -27.5 -45 0
v -32.5 -47.5 0
v -32.5 -45 0
v -32.5 -52.5 0
v -35 -52.5 0
v -35 -50 0
v -32.5 -50 0
v -37.5 -52.5 0
v -37.5 -50 0
v -27.5 -55 0
v -30 -55 0
v -30 -52.5 0
v -27.5 -52.5 0
v -25 -57.5 0
v -27.5 -57.5 0
v -25 -55 0
v -22.5 -62.5 0
v -25 -62.5 0
v -25 -60 0
v -22.5 -60 0
v -17.5 -65 0
v -20 -65 0
v -20 -62.5 0
v -17.5 -62.5 0
v -22.5 -65 0
v -15 -67.5 0
v -17.5 -67.5 0
v -15 -65 0
v -17.5 -70 0
v -20 -70 0
v -20 -67.5 0
v -22.5 -70 0
v -22.5 -67.5 0
v -25 -70 0
v -25 -67.5 0
v -25 -72.5 0
v -27.5 -72.5 0
v -27.5 -70 0
v -25 -75 0
v -27.5 -75 0
v -25 -80 0
v -27.5 -80 0
v -27.5 -77.5 0
v -25 -77.5 0
v -30 -80 0
v -30 -77.5 0
v -22.5 -100 0
v -25 -100 0
v -25 -97.5 0
v -22.5 -97.5 0
v -27.5 -100 0
v -27.5 -97.5 0
v -30 -100 0
v -30 -97.5 0
v -25 -105 0
v -27.5 -105 0
v -27.5 -102.5 0
v -25 -102.5 0
v -30 -105 0
v -30 -102.5 0
v -22.5 -110 0
v -25 -110 0
v -25 -107.5 0
v -22.5 -107.5 0
v -27.5 -110 0
v -27.5 -107.5 0
v -20 -112.5 0
v -22.5 -112.5 0
v -20 -110 0
v -20 -115 0
v -22.5 -115 0
v -20 -117.5 0
v -22.5 -117.5 0
v -20 -120 0
v -22.5 -120 0
v -27.5 -37.5 0
v -30 -37.5 0
v -27.5 -42.5 0
v -30 -42.5 0
v -30 -40 0
v -27.5 -40 0
v -35 -47.5 0
v -35 -45 0
v -37.5 -47.5 0
v -40 -47.5 0
v -40 -45 0
v -37.5 -45 0
v -32.5 -80 0
v -32.5 -77.5 0
v -30 -90 0
v -32.5 -90 0
v -32.5 -87.5 0
v -30 -87.5 0
v -30 -92.5 0
v -32.5 -92.5 0
v -32.5 -97.5 0
v -32.5 -95 0
v -30 -95 0
v -25 -45 0
v -25 -42.5 0
v -25 -47.5 0
v -42.5 -47.5 0
v -42.5 -45 0
v -40 -50 0
v -42.5 -50 0
v -30 -50 0
v -40 -52.5 0
v -25 -52.5 0
v -32.5 -55 0
v -22.5 -57.5 0
v -27.5 -60 0
v -15 -62.5 0
v -25 -65 0
v -15 -70 0
v -27.5 -67.5 0
v -22.5 -77.5 0
v -22.5 -75 0
v -22.5 -80 0
v -20 -100 0
v -20 -97.5 0
v -32.5 -100 0
v -20 -102.5 0
v -22.5 -102.5 0
v -22.5 -105 0
v -32.5 -105 0
v -32.5 -102.5 0
v -30 -107.5 0
v -32.5 -107.5 0
v -20 -107.5 0
v -30 -110 0
v -30 -85 0
v -32.5 -85 0
v -32.5 -82.5 0
v -30 -82.5 0
v -17.5 -120 0
v -17.5 -117.5 0
v -25 -120 0
v -25 -117.5 0
v -17.5 -122.5 0
v -20 -122.5 0
v -22.5 -122.5 0
v -25 -122.5 0
v -17.5 -125 0
v -20 -125 0
v -22.5 -125 0
v -25 -125 0
v 0 -2.5 0
v -2.5 -2.5 0
v -2.5 0 0
v 0 0 0

# Texture cooridinates (Count = 36)
vt 0.0001220703 0.0001220703
vt 0.9998779 0.0001220703
vt 0.9998779 0.9998779
vt 0.0001220703 0.9998779
vt 4.069011E-05 0.6667074
vt 0.3332926 0.6667074
vt 0.3332926 0.9999593
vt 4.069011E-05 0.9999593
vt 0.6667073 0.6667074
vt 0.9999593 0.6667074
vt 0.9999593 0.9999593
vt 0.6667073 0.9999593
vt 4.069011E-05 0.333374
vt 0.3332926 0.333374
vt 0.3332926 0.666626
vt 4.069011E-05 0.666626
vt 0.333374 0.333374
vt 0.666626 0.333374
vt 0.666626 0.666626
vt 0.333374 0.666626
vt 0.6667073 0.333374
vt 0.9999593 0.333374
vt 0.9999593 0.666626
vt 0.6667073 0.666626
vt 4.069011E-05 4.070997E-05
vt 0.3332926 4.070997E-05
vt 0.3332926 0.3332927
vt 4.069011E-05 0.3332927
vt 0.333374 4.070997E-05
vt 0.666626 4.070997E-05
vt 0.666626 0.3332927
vt 0.333374 0.3332927
vt 0.6667073 4.070997E-05
vt 0.9999593 4.070997E-05
vt 0.9999593 0.3332927
vt 0.6667073 0.3332927

# Normal
vn 0 0 -1

# Groups (Count = 2)

g mesh_0001
f 1/1/1 2/2/1 3/3/1 4/4/1

g mesh_0002
f 5/1/1 6/2/1 2/3/1 1/4/1
f 7/1/1 8/2/1 6/3/1 5/4/1
f 9/1/1 10/2/1 11/3/1 12/4/1
f 10/1/1 13/2/1 14/3/1 11/4/1
f 15/1/1 16/2/1 17/3/1 18/4/1
f 16/1/1 19/2/1 20/3/1 17/4/1
f 21/1/1 22/2/1 23/3/1 24/4/1
f 25/1/1 26/2/1 21/3/1 27/4/1
f 28/1/1 29/2/1 30/3/1 31/4/1
f 32/1/1 33/2/1 34/3/1 35/4/1
f 33/1/1 36/2/1 28/3/1 34/4/1
f 37/1/1 38/2/1 32/3/1 39/4/1
f 40/1/1 41/2/1 42/3/1 38/4/1
f 41/1/1 43/2/1 44/3/1 42/4/1
f 43/1/1 45/2/1 46/3/1 44/4/1
f 47/1/1 48/2/1 49/3/1 45/4/1
f 50/1/1 51/2/1 48/3/1 47/4/1
f 52/1/1 53/2/1 54/3/1 55/4/1
f 53/1/1 56/2/1 57/3/1 54/4/1
f 58/1/1 59/2/1 60/3/1 61/4/1
f 59/1/1 62/2/1 63/3/1 60/4/1
f 62/1/1 64/2/1 65/3/1 63/4/1
f 66/1/1 67/2/1 68/3/1 69/4/1
f 67/1/1 70/2/1 71/3/1 68/4/1
f 72/1/1 73/2/1 74/3/1 75/4/1
f 73/1/1 76/2/1 77/3/1 74/4/1
f 78/1/1 79/2/1 72/3/1 80/4/1
f 81/1/1 82/2/1 79/3/1 78/4/1
f 83/1/1 84/2/1 82/3/1 81/4/1
f 85/1/1 86/2/1 84/3/1 83/4/1

g mesh_0003
f 87/3/1 88/4/1 8/1/1 7/2/1
f 89/1/1 90/2/1 91/3/1 92/4/1
f 13/2/1 93/3/1 94/4/1 14/1/1
f 95/4/1 96/1/1 97/2/1 98/3/1
f 56/2/1 99/3/1 100/4/1 57/1/1
f 101/1/1 102/2/1 103/3/1 104/4/1
f 105/3/1 106/4/1 102/1/1 101/2/1
f 65/1/1 107/2/1 108/3/1 109/4/1

g mesh_0004
f 110/1/1 12/2/1 89/3/1 111/4/1
f 12/3/1 11/4/1 90/1/1 89/2/1
f 112/4/1 9/1/1 12/2/1 110/3/1
f 96/2/1 113/3/1 114/4/1 97/1/1
f 20/1/1 115/2/1 96/3/1 95/4/1
f 115/3/1 116/4/1 113/1/1 96/2/1
f 23/1/1 15/2/1 18/3/1 117/4/1
f 19/3/1 118/4/1 115/1/1 20/2/1
f 27/1/1 21/2/1 24/3/1 119/4/1
f 22/3/1 120/4/1 15/1/1 23/2/1
f 31/1/1 30/2/1 25/3/1 121/4/1
f 30/3/1 122/4/1 26/1/1 25/2/1
f 39/1/1 32/2/1 35/3/1 123/4/1
f 36/3/1 124/4/1 29/1/1 28/2/1
f 125/4/1 40/1/1 38/2/1 37/3/1
f 45/2/1 49/3/1 126/4/1 46/1/1
f 127/1/1 55/2/1 50/3/1 128/4/1
f 55/3/1 54/4/1 51/1/1 50/2/1
f 129/4/1 52/1/1 55/2/1 127/3/1
f 130/1/1 58/2/1 61/3/1 131/4/1
f 64/3/1 132/4/1 107/1/1 65/2/1
f 133/4/1 134/1/1 58/2/1 130/3/1
f 134/2/1 69/3/1 59/4/1 58/1/1
f 135/4/1 66/1/1 69/2/1 134/3/1
f 70/2/1 136/3/1 137/4/1 71/1/1
f 77/1/1 138/2/1 70/3/1 67/4/1
f 138/3/1 139/4/1 136/1/1 70/2/1
f 80/1/1 72/2/1 75/3/1 140/4/1
f 76/3/1 141/4/1 138/1/1 77/2/1

g mesh_0005
f 142/1/1 143/2/1 144/3/1 145/4/1

g mesh_0006
f 146/5/1 85/6/1 83/7/1 147/8/1
f 86/9/1 148/10/1 149/11/1 84/12/1
f 150/13/1 151/14/1 85/15/1 146/16/1
f 151/17/1 152/18/1 86/19/1 85/20/1
f 152/21/1 153/22/1 148/23/1 86/24/1
f 154/25/1 155/26/1 151/27/1 150/28/1
f 155/29/1 156/30/1 152/31/1 151/32/1
f 156/33/1 157/34/1 153/35/1 152/36/1

g mesh_tile_0013
f 158/1/1 159/2/1 160/3/1 161/4/1

