# Wavefront OBJ file automatically generated by Tiled2Unity

# Vertices (Count = 95)
v -47.5 -15 0
v -50 -15 0
v -50 -12.5 0
v -47.5 -12.5 0
v -47.5 -17.5 0
v -50 -17.5 0
v -47.5 -20 0
v -50 -20 0
v -45 -22.5 0
v -47.5 -22.5 0
v -45 -20 0
v -45 -30 0
v -47.5 -30 0
v -47.5 -27.5 0
v -45 -27.5 0
v -50 -30 0
v -50 -27.5 0
v -50 -40 0
v -52.5 -40 0
v -52.5 -37.5 0
v -50 -37.5 0
v -37.5 -42.5 0
v -40 -42.5 0
v -40 -40 0
v -37.5 -40 0
v -37.5 -50 0
v -40 -50 0
v -40 -47.5 0
v -37.5 -47.5 0
v -42.5 -50 0
v -42.5 -47.5 0
v -42.5 -52.5 0
v -45 -52.5 0
v -45 -50 0
v -57.5 -55 0
v -60 -55 0
v -60 -52.5 0
v -57.5 -52.5 0
v -62.5 -55 0
v -62.5 -52.5 0
v -62.5 -57.5 0
v -65 -57.5 0
v -65 -55 0
v -62.5 -60 0
v -65 -60 0
v -65 -62.5 0
v -67.5 -62.5 0
v -67.5 -60 0
v -70 -62.5 0
v -70 -60 0
v -72.5 -62.5 0
v -72.5 -60 0
v -72.5 -65 0
v -75 -65 0
v -75 -62.5 0
v -72.5 -67.5 0
v -75 -67.5 0
v -72.5 -70 0
v -75 -70 0
v -70 -75 0
v -72.5 -75 0
v -72.5 -72.5 0
v -70 -72.5 0
v -70 -77.5 0
v -72.5 -77.5 0
v -70 -80 0
v -72.5 -80 0
v -70 -82.5 0
v -72.5 -82.5 0
v -70 -85 0
v -72.5 -85 0
v -70 -87.5 0
v -72.5 -87.5 0
v -70 -90 0
v -72.5 -90 0
v -70 -92.5 0
v -72.5 -92.5 0
v -70 -95 0
v -72.5 -95 0
v -45 -42.5 0
v -47.5 -42.5 0
v -47.5 -40 0
v -45 -40 0
v -50 -55 0
v -52.5 -55 0
v -52.5 -52.5 0
v -50 -52.5 0
v -67.5 -100 0
v -75.18 -100 0
v -75.18 -92.32 0
v -67.5 -92.32 0
v 0 -2.5 0
v -2.5 -2.5 0
v -2.5 0 0
v 0 0 0

# Texture cooridinates (Count = 8)
vt 0.0001220703 0.0001220703
vt 0.9998779 0.0001220703
vt 0.9998779 0.9998779
vt 0.0001220703 0.9998779
vt 0.0001219116 0.0001220703
vt 0.9985777 0.0001220703
vt 0.9985777 0.9998779
vt 0.0001219116 0.9998779

# Normal
vn 0 0 -1

# Groups (Count = 4)

g mesh_0001
f 1/1/1 2/2/1 3/3/1 4/4/1

g mesh_0002
f 5/1/1 6/2/1 2/3/1 1/4/1
f 7/1/1 8/2/1 6/3/1 5/4/1
f 9/1/1 10/2/1 7/3/1 11/4/1
f 12/1/1 13/2/1 14/3/1 15/4/1
f 13/1/1 16/2/1 17/3/1 14/4/1
f 18/1/1 19/2/1 20/3/1 21/4/1
f 22/1/1 23/2/1 24/3/1 25/4/1
f 26/1/1 27/2/1 28/3/1 29/4/1
f 27/1/1 30/2/1 31/3/1 28/4/1
f 32/1/1 33/2/1 34/3/1 30/4/1
f 35/1/1 36/2/1 37/3/1 38/4/1
f 36/1/1 39/2/1 40/3/1 37/4/1
f 41/1/1 42/2/1 43/3/1 39/4/1
f 44/1/1 45/2/1 42/3/1 41/4/1
f 46/1/1 47/2/1 48/3/1 45/4/1
f 47/1/1 49/2/1 50/3/1 48/4/1
f 49/1/1 51/2/1 52/3/1 50/4/1
f 53/1/1 54/2/1 55/3/1 51/4/1
f 56/1/1 57/2/1 54/3/1 53/4/1
f 58/1/1 59/2/1 57/3/1 56/4/1
f 60/1/1 61/2/1 62/3/1 63/4/1
f 64/1/1 65/2/1 61/3/1 60/4/1
f 66/1/1 67/2/1 65/3/1 64/4/1
f 68/1/1 69/2/1 67/3/1 66/4/1
f 70/1/1 71/2/1 69/3/1 68/4/1
f 72/1/1 73/2/1 71/3/1 70/4/1
f 74/1/1 75/2/1 73/3/1 72/4/1
f 76/1/1 77/2/1 75/3/1 74/4/1
f 78/1/1 79/2/1 77/3/1 76/4/1

g mesh_0003
f 80/1/1 81/2/1 82/3/1 83/4/1
f 84/1/1 85/2/1 86/3/1 87/4/1

g mesh_0004
f 88/5/1 89/6/1 90/7/1 91/8/1

g mesh_tile_0019
f 92/1/1 93/2/1 94/3/1 95/4/1

g mesh_tile_0023
f 92/1/1 93/2/1 94/3/1 95/4/1

g mesh_tile_0002
f 92/1/1 93/2/1 94/3/1 95/4/1

