# Wavefront OBJ file automatically generated by Tiled2Unity

# Vertices (Count = 120)
v -20 -30 0
v -22.5 -30 0
v -22.5 -27.5 0
v -20 -27.5 0
v -20 -32.5 0
v -22.5 -32.5 0
v -22.5 -35 0
v -25 -35 0
v -25 -32.5 0
v -47.5 -55 0
v -50 -55 0
v -50 -52.5 0
v -47.5 -52.5 0
v -50 -57.5 0
v -52.5 -57.5 0
v -52.5 -55 0
v -50 -67.5 0
v -52.5 -67.5 0
v -52.5 -65 0
v -50 -65 0
v -80 -70 0
v -82.5 -70 0
v -82.5 -67.5 0
v -80 -67.5 0
v -90 -85 0
v -92.5 -85 0
v -92.5 -82.5 0
v -90 -82.5 0
v -90 -87.5 0
v -92.5 -87.5 0
v -90 -90 0
v -92.5 -90 0
v -90 -92.5 0
v -92.5 -92.5 0
v -90 -95 0
v -92.5 -95 0
v -20 -35 0
v -45 -55 0
v -45 -52.5 0
v -27.5 -35 0
v -27.5 -32.5 0
v -32.5 -35 0
v -35 -35 0
v -35 -32.5 0
v -32.5 -32.5 0
v -45 -35 0
v -47.5 -35 0
v -47.5 -32.5 0
v -45 -32.5 0
v -57.5 -70 0
v -60 -70 0
v -60 -67.5 0
v -57.5 -67.5 0
v -65 -70 0
v -67.5 -70 0
v -67.5 -67.5 0
v -65 -67.5 0
v -72.5 -70 0
v -75 -70 0
v -75 -67.5 0
v -72.5 -67.5 0
v -85 -70 0
v -85 -67.5 0
v -30 -35 0
v -30 -32.5 0
v -42.5 -35 0
v -42.5 -32.5 0
v -55 -70 0
v -55 -67.5 0
v -62.5 -70 0
v -62.5 -67.5 0
v -70 -70 0
v -70 -67.5 0
v -77.5 -70 0
v -77.5 -67.5 0
v -87.5 -70 0
v -90 -70 0
v -90 -67.5 0
v -87.5 -67.5 0
v -37.5 -35 0
v -40 -35 0
v -40 -32.5 0
v -37.5 -32.5 0
v -45 -40 0
v -47.5 -40 0
v -47.5 -37.5 0
v -45 -37.5 0
v -90 -77.5 0
v -92.5 -77.5 0
v -92.5 -75 0
v -90 -75 0
v -45 -45 0
v -47.5 -45 0
v -47.5 -42.5 0
v -45 -42.5 0
v -47.5 -50 0
v -45 -50 0
v -52.5 -62.5 0
v -50 -62.5 0
v -92.5 -80 0
v -90 -80 0
v -45 -47.5 0
v -47.5 -47.5 0
v -50 -60 0
v -52.5 -60 0
v -50 -70 0
v -52.5 -70 0
v -90 -72.5 0
v -92.5 -72.5 0
v -92.5 -70 0
v -52.5 -52.5 0
v -92.5 -67.5 0
v -87.5 -100 0
v -95.18 -100 0
v -95.18 -92.32 0
v -87.5 -92.32 0
v 0 -2.5 0
v -2.5 -2.5 0
v -2.5 0 0
v 0 0 0

# Texture cooridinates (Count = 8)
vt 0.0001220703 0.0001220703
vt 0.9998779 0.0001220703
vt 0.9998779 0.9998779
vt 0.0001220703 0.9998779
vt 0.0001219116 0.0001220703
vt 0.9985777 0.0001220703
vt 0.9985777 0.9998779
vt 0.0001219116 0.9998779

# Normal
vn 0 0 -1

# Groups (Count = 2)

g mesh_0001
f 1/1/1 2/2/1 3/3/1 4/4/1

g mesh_0002
f 5/1/1 6/2/1 2/3/1 1/4/1
f 7/1/1 8/2/1 9/3/1 6/4/1
f 10/1/1 11/2/1 12/3/1 13/4/1
f 14/1/1 15/2/1 16/3/1 11/4/1
f 17/1/1 18/2/1 19/3/1 20/4/1
f 21/1/1 22/2/1 23/3/1 24/4/1
f 25/1/1 26/2/1 27/3/1 28/4/1
f 29/1/1 30/2/1 26/3/1 25/4/1
f 31/1/1 32/2/1 30/3/1 29/4/1
f 33/1/1 34/2/1 32/3/1 31/4/1
f 35/1/1 36/2/1 34/3/1 33/4/1

g mesh_0003
f 37/1/1 7/2/1 6/3/1 5/4/1
f 38/1/1 10/2/1 13/3/1 39/4/1

g mesh_0004
f 8/1/1 40/2/1 41/3/1 9/4/1
f 42/1/1 43/2/1 44/3/1 45/4/1
f 46/1/1 47/2/1 48/3/1 49/4/1
f 50/1/1 51/2/1 52/3/1 53/4/1
f 54/1/1 55/2/1 56/3/1 57/4/1
f 58/1/1 59/2/1 60/3/1 61/4/1
f 22/1/1 62/2/1 63/3/1 23/4/1

g mesh_0005
f 64/1/1 42/2/1 45/3/1 65/4/1
f 66/1/1 46/2/1 49/3/1 67/4/1
f 68/1/1 50/2/1 53/3/1 69/4/1
f 70/1/1 54/2/1 57/3/1 71/4/1
f 72/1/1 58/2/1 61/3/1 73/4/1
f 74/1/1 21/2/1 24/3/1 75/4/1
f 76/1/1 77/2/1 78/3/1 79/4/1

g mesh_0006
f 80/1/1 81/2/1 82/3/1 83/4/1
f 84/1/1 85/2/1 86/3/1 87/4/1
f 88/1/1 89/2/1 90/3/1 91/4/1

g mesh_0007
f 92/1/1 93/2/1 94/3/1 95/4/1
f 39/1/1 13/2/1 96/3/1 97/4/1
f 20/1/1 19/2/1 98/3/1 99/4/1
f 28/1/1 27/2/1 100/3/1 101/4/1

g mesh_0008
f 102/1/1 103/2/1 93/3/1 92/4/1
f 104/1/1 105/2/1 15/3/1 14/4/1
f 106/1/1 107/2/1 18/3/1 17/4/1
f 108/1/1 109/2/1 110/3/1 77/4/1

g mesh_0009
f 11/1/1 16/2/1 111/3/1 12/4/1
f 77/1/1 110/2/1 112/3/1 78/4/1

g mesh_0010
f 113/5/1 114/6/1 115/7/1 116/8/1

g mesh_tile_0013
f 117/1/1 118/2/1 119/3/1 120/4/1

