# Wavefront OBJ file automatically generated by Tiled2Unity

# Vertices (Count = 175)
v -5500 -500 0
v -5750 -500 0
v -5750 -250 0
v -5500 -250 0
v -5500 -750 0
v -5750 -750 0
v -4250 -2000 0
v -4500 -2000 0
v -4500 -1750 0
v -4250 -1750 0
v -4000 -3750 0
v -4250 -3750 0
v -4250 -3500 0
v -4000 -3500 0
v -4000 -5250 0
v -4250 -5250 0
v -4250 -5000 0
v -4000 -5000 0
v -4250 -5750 0
v -4500 -5750 0
v -4500 -5500 0
v -4250 -5500 0
v -4250 -6500 0
v -4500 -6500 0
v -4500 -6250 0
v -4250 -6250 0
v -4250 -6750 0
v -4500 -6750 0
v -4250 -7000 0
v -4500 -7000 0
v -4250 -7250 0
v -4500 -7250 0
v -4250 -7500 0
v -4500 -7500 0
v -4250 -7750 0
v -4500 -7750 0
v -4250 -8000 0
v -4500 -8000 0
v -4500 -8250 0
v -4750 -8250 0
v -4750 -8000 0
v -5000 -8250 0
v -5000 -8000 0
v -5000 -8500 0
v -5250 -8500 0
v -5250 -8250 0
v -5250 -8750 0
v -5500 -8750 0
v -5500 -8500 0
v -5750 -8750 0
v -5750 -8500 0
v -5750 -9000 0
v -6000 -9000 0
v -6000 -8750 0
v -4000 -9500 0
v -4250 -9500 0
v -4250 -9250 0
v -4000 -9250 0
v -4000 -10500 0
v -4250 -10500 0
v -4250 -10250 0
v -4000 -10250 0
v -4000 -10750 0
v -4250 -10750 0
v -4000 -11000 0
v -4250 -11000 0
v -3500 -11250 0
v -3750 -11250 0
v -3750 -11000 0
v -3500 -11000 0
v -4000 -11250 0
v -3250 -11500 0
v -3500 -11500 0
v -3250 -11250 0
v -3000 -11750 0
v -3250 -11750 0
v -3000 -11500 0
v -2750 -12000 0
v -3000 -12000 0
v -2750 -11750 0
v -2500 -12250 0
v -2750 -12250 0
v -2500 -12000 0
v -2250 -12500 0
v -2500 -12500 0
v -2250 -12250 0
v -2250 -12750 0
v -2500 -12750 0
v -2250 -13000 0
v -2500 -13000 0
v -2250 -13250 0
v -2500 -13250 0
v -2250 -13500 0
v -2500 -13500 0
v -2250 -13750 0
v -2500 -13750 0
v -4500 -1000 0
v -4750 -1000 0
v -4750 -750 0
v -4500 -750 0
v -5250 -1000 0
v -5500 -1000 0
v -5250 -750 0
v -5000 -1000 0
v -5000 -750 0
v -4500 -9250 0
v -4500 -9000 0
v -4250 -9000 0
v -5750 -1000 0
v -4750 -1750 0
v -4750 -1500 0
v -4500 -1500 0
v -4500 -3500 0
v -4500 -3250 0
v -4250 -3250 0
v -4250 -6000 0
v -4500 -6000 0
v -4250 -11250 0
v -3500 -11750 0
v -3000 -12250 0
v -4750 -1250 0
v -4500 -1250 0
v -4500 -3000 0
v -4250 -3000 0
v -4250 -4750 0
v -4000 -4750 0
v -4250 -10000 0
v -4000 -10000 0
v -4250 -1500 0
v -4000 -3250 0
v -4000 -6000 0
v -4000 -5750 0
v -4000 -9000 0
v -3250 -11000 0
v -2750 -11500 0
v -2250 -12000 0
v -4250 -2250 0
v -4500 -2250 0
v -4000 -4000 0
v -4250 -4000 0
v -5750 -9250 0
v -6000 -9250 0
v -4000 -9750 0
v -4250 -9750 0
v -4250 -2750 0
v -4500 -2750 0
v -4500 -2500 0
v -4250 -2500 0
v -4000 -4500 0
v -4250 -4500 0
v -4250 -4250 0
v -4000 -4250 0
v -4750 -9250 0
v -5000 -9250 0
v -5000 -9000 0
v -4750 -9000 0
v -5250 -9250 0
v -5500 -9250 0
v -5500 -9000 0
v -5250 -9000 0
v -4000 -5500 0
v -4000 -6250 0
v -4250 -8250 0
v -5000 -8750 0
v -4500 -5250 0
v -5250 -8000 0
v -6000 -8500 0
v -2000 -14250 0
v -2750 -14250 0
v -2750 -13500 0
v -2000 -13500 0
v 0 -250 0
v -250 -250 0
v -250 0 0
v 0 0 0

# Texture cooridinates (Count = 8)
vt 0.0001220703 0.0001220703
vt 0.9998779 0.0001220703
vt 0.9998779 0.9998779
vt 0.0001220703 0.9998779
vt 0.0001219078 0.0001220703
vt 0.9985465 0.0001220703
vt 0.9985465 0.9998779
vt 0.0001219078 0.9998779

# Normal
vn 0 0 -1

# Groups (Count = 2)

g mesh_0001
f 1/1/1 2/2/1 3/3/1 4/4/1

g mesh_0002
f 5/1/1 6/2/1 2/3/1 1/4/1
f 7/1/1 8/2/1 9/3/1 10/4/1
f 11/1/1 12/2/1 13/3/1 14/4/1
f 15/1/1 16/2/1 17/3/1 18/4/1
f 19/1/1 20/2/1 21/3/1 22/4/1
f 23/1/1 24/2/1 25/3/1 26/4/1
f 27/1/1 28/2/1 24/3/1 23/4/1
f 29/1/1 30/2/1 28/3/1 27/4/1
f 31/1/1 32/2/1 30/3/1 29/4/1
f 33/1/1 34/2/1 32/3/1 31/4/1
f 35/1/1 36/2/1 34/3/1 33/4/1
f 37/1/1 38/2/1 36/3/1 35/4/1
f 39/1/1 40/2/1 41/3/1 38/4/1
f 40/1/1 42/2/1 43/3/1 41/4/1
f 44/1/1 45/2/1 46/3/1 42/4/1
f 47/1/1 48/2/1 49/3/1 45/4/1
f 48/1/1 50/2/1 51/3/1 49/4/1
f 52/1/1 53/2/1 54/3/1 50/4/1
f 55/1/1 56/2/1 57/3/1 58/4/1
f 59/1/1 60/2/1 61/3/1 62/4/1
f 63/1/1 64/2/1 60/3/1 59/4/1
f 65/1/1 66/2/1 64/3/1 63/4/1
f 67/1/1 68/2/1 69/3/1 70/4/1
f 68/1/1 71/2/1 65/3/1 69/4/1
f 72/1/1 73/2/1 67/3/1 74/4/1
f 75/1/1 76/2/1 72/3/1 77/4/1
f 78/1/1 79/2/1 75/3/1 80/4/1
f 81/1/1 82/2/1 78/3/1 83/4/1
f 84/1/1 85/2/1 81/3/1 86/4/1
f 87/1/1 88/2/1 85/3/1 84/4/1
f 89/1/1 90/2/1 88/3/1 87/4/1
f 91/1/1 92/2/1 90/3/1 89/4/1
f 93/1/1 94/2/1 92/3/1 91/4/1
f 95/1/1 96/2/1 94/3/1 93/4/1

g mesh_0003
f 97/1/1 98/2/1 99/3/1 100/4/1
f 101/1/1 102/2/1 5/3/1 103/4/1

g mesh_0004
f 98/1/1 104/2/1 105/3/1 99/4/1
f 57/1/1 106/2/1 107/3/1 108/4/1

g mesh_0005
f 102/1/1 109/2/1 6/3/1 5/4/1
f 9/1/1 110/2/1 111/3/1 112/4/1
f 13/1/1 113/2/1 114/3/1 115/4/1
f 116/1/1 117/2/1 20/3/1 19/4/1
f 71/1/1 118/2/1 66/3/1 65/4/1
f 76/1/1 119/2/1 73/3/1 72/4/1
f 82/1/1 120/2/1 79/3/1 78/4/1

g mesh_0006
f 112/1/1 111/2/1 121/3/1 122/4/1
f 115/1/1 114/2/1 123/3/1 124/4/1
f 18/1/1 17/2/1 125/3/1 126/4/1
f 62/1/1 61/2/1 127/3/1 128/4/1

g mesh_0007
f 10/1/1 9/2/1 112/3/1 129/4/1
f 14/1/1 13/2/1 115/3/1 130/4/1
f 131/1/1 116/2/1 19/3/1 132/4/1
f 58/1/1 57/2/1 108/3/1 133/4/1
f 74/1/1 67/2/1 70/3/1 134/4/1
f 80/1/1 75/2/1 77/3/1 135/4/1
f 86/1/1 81/2/1 83/3/1 136/4/1

g mesh_0008
f 137/1/1 138/2/1 8/3/1 7/4/1
f 139/1/1 140/2/1 12/3/1 11/4/1
f 141/1/1 142/2/1 53/3/1 52/4/1
f 143/1/1 144/2/1 56/3/1 55/4/1

g mesh_0009
f 145/1/1 146/2/1 147/3/1 148/4/1
f 149/1/1 150/2/1 151/3/1 152/4/1
f 153/1/1 154/2/1 155/3/1 156/4/1
f 157/1/1 158/2/1 159/3/1 160/4/1

g mesh_0010
f 161/1/1 22/2/1 16/3/1 15/4/1
f 162/1/1 26/2/1 116/3/1 131/4/1
f 163/1/1 39/2/1 38/3/1 37/4/1
f 164/1/1 47/2/1 45/3/1 44/4/1

g mesh_0011
f 22/1/1 21/2/1 165/3/1 16/4/1
f 26/1/1 25/2/1 117/3/1 116/4/1
f 42/1/1 46/2/1 166/3/1 43/4/1
f 50/1/1 54/2/1 167/3/1 51/4/1

g mesh_0012
f 168/5/1 169/6/1 170/7/1 171/8/1

g mesh_tile_0002
f 172/1/1 173/2/1 174/3/1 175/4/1

