# Wavefront OBJ file automatically generated by Tiled2Unity

# Vertices (Count = 143)
v -5000 -1000 0
v -5250 -1000 0
v -5250 -750 0
v -5000 -750 0
v -5000 -1250 0
v -5250 -1250 0
v -5500 -1750 0
v -5750 -1750 0
v -5750 -1500 0
v -5500 -1500 0
v -5500 -2250 0
v -5750 -2250 0
v -5750 -2000 0
v -5500 -2000 0
v -4500 -3500 0
v -4750 -3500 0
v -4750 -3250 0
v -4500 -3250 0
v -4750 -4250 0
v -5000 -4250 0
v -5000 -4000 0
v -4750 -4000 0
v -5250 -4250 0
v -5250 -4000 0
v -5500 -4250 0
v -5500 -4000 0
v -5750 -4500 0
v -6000 -4500 0
v -6000 -4250 0
v -5750 -4250 0
v -6000 -4750 0
v -6250 -4750 0
v -6250 -4500 0
v -5500 -5000 0
v -5750 -5000 0
v -5750 -4750 0
v -5500 -4750 0
v -6000 -5000 0
v -5250 -5750 0
v -5500 -5750 0
v -5500 -5500 0
v -5250 -5500 0
v -4750 -6000 0
v -5000 -6000 0
v -5000 -5750 0
v -4750 -5750 0
v -5250 -6000 0
v -4250 -6250 0
v -4500 -6250 0
v -4500 -6000 0
v -4250 -6000 0
v -4000 -6500 0
v -4250 -6500 0
v -4000 -6250 0
v -4000 -6750 0
v -4250 -6750 0
v -4000 -7000 0
v -4250 -7000 0
v -4000 -7250 0
v -4250 -7250 0
v -5500 -7500 0
v -5750 -7500 0
v -5750 -7250 0
v -5500 -7250 0
v -5500 -7750 0
v -5750 -7750 0
v -5500 -8250 0
v -5750 -8250 0
v -5750 -8000 0
v -5500 -8000 0
v -5500 -8500 0
v -5750 -8500 0
v -5500 -8750 0
v -5750 -8750 0
v -5500 -9000 0
v -5750 -9000 0
v -5500 -9250 0
v -5750 -9250 0
v -5500 -9500 0
v -5750 -9500 0
v -5000 -1500 0
v -5250 -1500 0
v -5250 -1750 0
v -4250 -4000 0
v -4500 -4000 0
v -4500 -3750 0
v -4250 -3750 0
v -4500 -4250 0
v -5500 -4500 0
v -5250 -8000 0
v -5250 -7750 0
v -5500 -1250 0
v -6000 -1750 0
v -6000 -1500 0
v -4750 -3750 0
v -5750 -4000 0
v -6250 -4250 0
v -6000 -7500 0
v -6000 -7250 0
v -4750 -3000 0
v -4500 -3000 0
v -4250 -3500 0
v -4500 -5750 0
v -4000 -6000 0
v -5250 -7500 0
v -6000 -2000 0
v -5500 -2500 0
v -5750 -2500 0
v -6250 -5000 0
v -5500 -6000 0
v -4750 -6250 0
v -6000 -7750 0
v -5250 -2500 0
v -5250 -2250 0
v -5250 -5000 0
v -5250 -4750 0
v -4500 -7500 0
v -4750 -7500 0
v -4750 -7250 0
v -4500 -7250 0
v -5250 -7250 0
v -5250 -3000 0
v -5500 -3000 0
v -5500 -2750 0
v -5250 -2750 0
v -5500 -5250 0
v -5250 -5250 0
v -5000 -3250 0
v -5000 -3000 0
v -5000 -7500 0
v -5000 -7250 0
v -5250 -3250 0
v -5500 -3250 0
v -4000 -7500 0
v -4250 -7500 0
v -5250 -10000 0
v -6000 -10000 0
v -6000 -9250 0
v -5250 -9250 0
v 0 -250 0
v -250 -250 0
v -250 0 0
v 0 0 0

# Texture cooridinates (Count = 4)
vt 0.0001220703 0.0001220703
vt 0.9998779 0.0001220703
vt 0.9998779 0.9998779
vt 0.0001220703 0.9998779

# Normal
vn 0 0 -1

# Groups (Count = 2)

g mesh_0001
f 1/1/1 2/2/1 3/3/1 4/4/1

g mesh_0002
f 5/1/1 6/2/1 2/3/1 1/4/1
f 7/1/1 8/2/1 9/3/1 10/4/1
f 11/1/1 12/2/1 13/3/1 14/4/1
f 15/1/1 16/2/1 17/3/1 18/4/1
f 19/1/1 20/2/1 21/3/1 22/4/1
f 20/1/1 23/2/1 24/3/1 21/4/1
f 23/1/1 25/2/1 26/3/1 24/4/1
f 27/1/1 28/2/1 29/3/1 30/4/1
f 31/1/1 32/2/1 33/3/1 28/4/1
f 34/1/1 35/2/1 36/3/1 37/4/1
f 35/1/1 38/2/1 31/3/1 36/4/1
f 39/1/1 40/2/1 41/3/1 42/4/1
f 43/1/1 44/2/1 45/3/1 46/4/1
f 44/1/1 47/2/1 39/3/1 45/4/1
f 48/1/1 49/2/1 50/3/1 51/4/1
f 52/1/1 53/2/1 48/3/1 54/4/1
f 55/1/1 56/2/1 53/3/1 52/4/1
f 57/1/1 58/2/1 56/3/1 55/4/1
f 59/1/1 60/2/1 58/3/1 57/4/1
f 61/1/1 62/2/1 63/3/1 64/4/1
f 65/1/1 66/2/1 62/3/1 61/4/1
f 67/1/1 68/2/1 69/3/1 70/4/1
f 71/1/1 72/2/1 68/3/1 67/4/1
f 73/1/1 74/2/1 72/3/1 71/4/1
f 75/1/1 76/2/1 74/3/1 73/4/1
f 77/1/1 78/2/1 76/3/1 75/4/1
f 79/1/1 80/2/1 78/3/1 77/4/1

g mesh_0003
f 81/1/1 82/2/1 6/3/1 5/4/1
f 83/1/1 7/2/1 10/3/1 82/4/1
f 84/1/1 85/2/1 86/3/1 87/4/1
f 88/1/1 19/2/1 22/3/1 85/4/1
f 89/1/1 27/2/1 30/3/1 25/4/1
f 90/1/1 70/2/1 65/3/1 91/4/1

g mesh_0004
f 82/1/1 10/2/1 92/3/1 6/4/1
f 8/1/1 93/2/1 94/3/1 9/4/1
f 85/1/1 22/2/1 95/3/1 86/4/1
f 25/1/1 30/2/1 96/3/1 26/4/1
f 28/1/1 33/2/1 97/3/1 29/4/1
f 62/1/1 98/2/1 99/3/1 63/4/1
f 70/1/1 69/2/1 66/3/1 65/4/1

g mesh_0005
f 14/1/1 13/2/1 8/3/1 7/4/1
f 18/1/1 17/2/1 100/3/1 101/4/1
f 87/1/1 86/2/1 15/3/1 102/4/1
f 50/1/1 43/2/1 46/3/1 103/4/1
f 54/1/1 48/2/1 51/3/1 104/4/1
f 91/1/1 65/2/1 61/3/1 105/4/1

g mesh_0006
f 13/1/1 106/2/1 93/3/1 8/4/1
f 107/1/1 108/2/1 12/3/1 11/4/1
f 86/1/1 95/2/1 16/3/1 15/4/1
f 38/1/1 109/2/1 32/3/1 31/4/1
f 47/1/1 110/2/1 40/3/1 39/4/1
f 49/1/1 111/2/1 43/3/1 50/4/1
f 66/1/1 112/2/1 98/3/1 62/4/1

g mesh_0007
f 113/1/1 107/2/1 11/3/1 114/4/1
f 115/1/1 34/2/1 37/3/1 116/4/1
f 117/1/1 118/2/1 119/3/1 120/4/1
f 105/1/1 61/2/1 64/3/1 121/4/1

g mesh_0008
f 122/1/1 123/2/1 124/3/1 125/4/1
f 42/1/1 41/2/1 126/3/1 127/4/1

g mesh_0009
f 17/1/1 128/2/1 129/3/1 100/4/1
f 118/1/1 130/2/1 131/3/1 119/4/1

g mesh_0010
f 132/1/1 133/2/1 123/3/1 122/4/1
f 134/1/1 135/2/1 60/3/1 59/4/1

g mesh_0011
f 136/1/1 137/2/1 138/3/1 139/4/1

g mesh_tile_0002
f 140/1/1 141/2/1 142/3/1 143/4/1

