# Wavefront OBJ file automatically generated by Tiled2Unity

# Vertices (Count = 168)
v -60 -7.5 0
v -62.5 -7.5 0
v -62.5 -5 0
v -60 -5 0
v -60 -10 0
v -62.5 -10 0
v -55 -20 0
v -57.5 -20 0
v -57.5 -17.5 0
v -55 -17.5 0
v -57.5 -40 0
v -60 -40 0
v -60 -37.5 0
v -57.5 -37.5 0
v -67.5 -75 0
v -70 -75 0
v -70 -72.5 0
v -67.5 -72.5 0
v -47.5 -97.5 0
v -50 -97.5 0
v -50 -95 0
v -47.5 -95 0
v -47.5 -100 0
v -50 -100 0
v -47.5 -102.5 0
v -50 -102.5 0
v -47.5 -105 0
v -50 -105 0
v -47.5 -107.5 0
v -50 -107.5 0
v -47.5 -110 0
v -50 -110 0
v -47.5 -112.5 0
v -50 -112.5 0
v -47.5 -115 0
v -50 -115 0
v -47.5 -117.5 0
v -50 -117.5 0
v -47.5 -120 0
v -50 -120 0
v -60 -12.5 0
v -62.5 -12.5 0
v -65 -12.5 0
v -67.5 -12.5 0
v -67.5 -10 0
v -65 -10 0
v -70 -12.5 0
v -70 -10 0
v -67.5 -17.5 0
v -70 -17.5 0
v -70 -15 0
v -67.5 -15 0
v -60 -20 0
v -62.5 -20 0
v -62.5 -17.5 0
v -60 -17.5 0
v -65 -20 0
v -67.5 -20 0
v -65 -17.5 0
v -52.5 -22.5 0
v -55 -22.5 0
v -52.5 -20 0
v -52.5 -27.5 0
v -55 -27.5 0
v -55 -25 0
v -52.5 -25 0
v -45 -30 0
v -47.5 -30 0
v -47.5 -27.5 0
v -45 -27.5 0
v -50 -30 0
v -50 -27.5 0
v -52.5 -30 0
v -55 -30 0
v -45 -35 0
v -47.5 -35 0
v -47.5 -32.5 0
v -45 -32.5 0
v -45 -37.5 0
v -47.5 -37.5 0
v -55 -37.5 0
v -57.5 -35 0
v -55 -35 0
v -57.5 -45 0
v -60 -45 0
v -60 -42.5 0
v -57.5 -42.5 0
v -57.5 -60 0
v -60 -60 0
v -60 -57.5 0
v -57.5 -57.5 0
v -60 -62.5 0
v -62.5 -62.5 0
v -62.5 -60 0
v -65 -62.5 0
v -67.5 -62.5 0
v -67.5 -60 0
v -65 -60 0
v -70 -62.5 0
v -70 -60 0
v -70 -70 0
v -67.5 -70 0
v -47.5 -77.5 0
v -50 -77.5 0
v -50 -75 0
v -47.5 -75 0
v -52.5 -77.5 0
v -52.5 -75 0
v -60 -77.5 0
v -62.5 -77.5 0
v -62.5 -75 0
v -60 -75 0
v -65 -77.5 0
v -65 -75 0
v -67.5 -77.5 0
v -70 -77.5 0
v -47.5 -87.5 0
v -50 -87.5 0
v -50 -85 0
v -47.5 -85 0
v -47.5 -90 0
v -50 -90 0
v -50 -92.5 0
v -47.5 -92.5 0
v -52.5 -17.5 0
v -70 -20 0
v -60 -35 0
v -57.5 -62.5 0
v -50 -37.5 0
v -52.5 -37.5 0
v -52.5 -35 0
v -50 -35 0
v -57.5 -50 0
v -60 -50 0
v -60 -47.5 0
v -57.5 -47.5 0
v -57.5 -55 0
v -60 -55 0
v -60 -52.5 0
v -57.5 -52.5 0
v -67.5 -67.5 0
v -70 -67.5 0
v -70 -65 0
v -67.5 -65 0
v -55 -77.5 0
v -57.5 -77.5 0
v -57.5 -75 0
v -55 -75 0
v -47.5 -82.5 0
v -50 -82.5 0
v -50 -80 0
v -47.5 -80 0
v -45 -120 0
v -45 -117.5 0
v -52.5 -120 0
v -52.5 -117.5 0
v -45 -122.5 0
v -47.5 -122.5 0
v -50 -122.5 0
v -52.5 -122.5 0
v -45 -125 0
v -47.5 -125 0
v -50 -125 0
v -52.5 -125 0
v 0 -2.5 0
v -2.5 -2.5 0
v -2.5 0 0
v 0 0 0

# Texture cooridinates (Count = 36)
vt 0.0001220703 0.0001220703
vt 0.9998779 0.0001220703
vt 0.9998779 0.9998779
vt 0.0001220703 0.9998779
vt 4.069011E-05 0.6667074
vt 0.3332926 0.6667074
vt 0.3332926 0.9999593
vt 4.069011E-05 0.9999593
vt 0.6667073 0.6667074
vt 0.9999593 0.6667074
vt 0.9999593 0.9999593
vt 0.6667073 0.9999593
vt 4.069011E-05 0.333374
vt 0.3332926 0.333374
vt 0.3332926 0.666626
vt 4.069011E-05 0.666626
vt 0.333374 0.333374
vt 0.666626 0.333374
vt 0.666626 0.666626
vt 0.333374 0.666626
vt 0.6667073 0.333374
vt 0.9999593 0.333374
vt 0.9999593 0.666626
vt 0.6667073 0.666626
vt 4.069011E-05 4.070997E-05
vt 0.3332926 4.070997E-05
vt 0.3332926 0.3332927
vt 4.069011E-05 0.3332927
vt 0.333374 4.070997E-05
vt 0.666626 4.070997E-05
vt 0.666626 0.3332927
vt 0.333374 0.3332927
vt 0.6667073 4.070997E-05
vt 0.9999593 4.070997E-05
vt 0.9999593 0.3332927
vt 0.6667073 0.3332927

# Normal
vn 0 0 -1

# Groups (Count = 3)

g mesh_0001
f 1/1/1 2/2/1 3/3/1 4/4/1

g mesh_0002
f 5/1/1 6/2/1 2/3/1 1/4/1
f 7/1/1 8/2/1 9/3/1 10/4/1
f 11/1/1 12/2/1 13/3/1 14/4/1
f 15/1/1 16/2/1 17/3/1 18/4/1
f 19/1/1 20/2/1 21/3/1 22/4/1
f 23/1/1 24/2/1 20/3/1 19/4/1
f 25/1/1 26/2/1 24/3/1 23/4/1
f 27/1/1 28/2/1 26/3/1 25/4/1
f 29/1/1 30/2/1 28/3/1 27/4/1
f 31/1/1 32/2/1 30/3/1 29/4/1
f 33/1/1 34/2/1 32/3/1 31/4/1
f 35/1/1 36/2/1 34/3/1 33/4/1
f 37/1/1 38/2/1 36/3/1 35/4/1
f 39/1/1 40/2/1 38/3/1 37/4/1

g mesh_0003
f 41/3/1 42/4/1 6/1/1 5/2/1
f 43/4/1 44/1/1 45/2/1 46/3/1
f 44/2/1 47/3/1 48/4/1 45/1/1
f 49/1/1 50/2/1 51/3/1 52/4/1
f 53/2/1 54/3/1 55/4/1 56/1/1
f 57/4/1 58/1/1 49/2/1 59/3/1
f 60/3/1 61/4/1 7/1/1 62/2/1
f 63/1/1 64/2/1 65/3/1 66/4/1
f 67/4/1 68/1/1 69/2/1 70/3/1
f 68/2/1 71/3/1 72/4/1 69/1/1
f 73/3/1 74/4/1 64/1/1 63/2/1
f 75/1/1 76/2/1 77/3/1 78/4/1
f 79/3/1 80/4/1 76/1/1 75/2/1
f 81/4/1 14/1/1 82/2/1 83/3/1
f 84/3/1 85/4/1 86/1/1 87/2/1
f 88/1/1 89/2/1 90/3/1 91/4/1
f 92/2/1 93/3/1 94/4/1 89/1/1
f 95/4/1 96/1/1 97/2/1 98/3/1
f 96/2/1 99/3/1 100/4/1 97/1/1
f 18/1/1 17/2/1 101/3/1 102/4/1
f 103/4/1 104/1/1 105/2/1 106/3/1
f 104/2/1 107/3/1 108/4/1 105/1/1
f 109/4/1 110/1/1 111/2/1 112/3/1
f 110/2/1 113/3/1 114/4/1 111/1/1
f 115/3/1 116/4/1 16/1/1 15/2/1
f 117/1/1 118/2/1 119/3/1 120/4/1
f 121/3/1 122/4/1 118/1/1 117/2/1
f 22/1/1 21/2/1 123/3/1 124/4/1

g mesh_0004
f 62/1/1 7/2/1 10/3/1 125/4/1
f 58/3/1 126/4/1 50/1/1 49/2/1
f 14/2/1 13/3/1 127/4/1 82/1/1
f 128/4/1 92/1/1 89/2/1 88/3/1

g mesh_0005
f 129/1/1 130/2/1 131/3/1 132/4/1
f 133/1/1 134/2/1 135/3/1 136/4/1
f 137/1/1 138/2/1 139/3/1 140/4/1
f 141/1/1 142/2/1 143/3/1 144/4/1
f 145/1/1 146/2/1 147/3/1 148/4/1
f 149/1/1 150/2/1 151/3/1 152/4/1

g mesh_0006
f 153/5/1 39/6/1 37/7/1 154/8/1
f 40/9/1 155/10/1 156/11/1 38/12/1
f 157/13/1 158/14/1 39/15/1 153/16/1
f 158/17/1 159/18/1 40/19/1 39/20/1
f 159/21/1 160/22/1 155/23/1 40/24/1
f 161/25/1 162/26/1 158/27/1 157/28/1
f 162/29/1 163/30/1 159/31/1 158/32/1
f 163/33/1 164/34/1 160/35/1 159/36/1

g mesh_tile_0013
f 165/1/1 166/2/1 167/3/1 168/4/1

g mesh_tile_0012
f 165/1/1 166/2/1 167/3/1 168/4/1

