# Wavefront OBJ file automatically generated by Tiled2Unity

# Vertices (Count = 154)
v -37.5 -27.5 0
v -40 -27.5 0
v -40 -25 0
v -37.5 -25 0
v -37.5 -30 0
v -40 -30 0
v -40 -32.5 0
v -42.5 -32.5 0
v -42.5 -30 0
v -45 -35 0
v -47.5 -35 0
v -47.5 -32.5 0
v -45 -32.5 0
v -50 -35 0
v -50 -32.5 0
v -50 -37.5 0
v -52.5 -37.5 0
v -52.5 -35 0
v -55 -42.5 0
v -57.5 -42.5 0
v -57.5 -40 0
v -55 -40 0
v -60 -42.5 0
v -60 -40 0
v -62.5 -42.5 0
v -62.5 -40 0
v -62.5 -45 0
v -65 -45 0
v -65 -42.5 0
v -62.5 -47.5 0
v -65 -47.5 0
v -57.5 -55 0
v -60 -55 0
v -60 -52.5 0
v -57.5 -52.5 0
v -60 -57.5 0
v -62.5 -57.5 0
v -62.5 -55 0
v -65 -57.5 0
v -65 -55 0
v -67.5 -62.5 0
v -70 -62.5 0
v -70 -60 0
v -67.5 -60 0
v -67.5 -65 0
v -70 -65 0
v -65 -70 0
v -67.5 -70 0
v -67.5 -67.5 0
v -65 -67.5 0
v -67.5 -75 0
v -70 -75 0
v -70 -72.5 0
v -67.5 -72.5 0
v -70 -80 0
v -72.5 -80 0
v -72.5 -77.5 0
v -70 -77.5 0
v -70 -82.5 0
v -72.5 -82.5 0
v -67.5 -85 0
v -70 -85 0
v -67.5 -82.5 0
v -62.5 -87.5 0
v -65 -87.5 0
v -65 -85 0
v -62.5 -85 0
v -60 -90 0
v -62.5 -90 0
v -60 -87.5 0
v -57.5 -92.5 0
v -60 -92.5 0
v -57.5 -90 0
v -55 -95 0
v -57.5 -95 0
v -55 -92.5 0
v -52.5 -97.5 0
v -55 -97.5 0
v -52.5 -95 0
v -50 -100 0
v -52.5 -100 0
v -50 -97.5 0
v -50 -102.5 0
v -52.5 -102.5 0
v -42.5 -107.5 0
v -45 -107.5 0
v -45 -105 0
v -42.5 -105 0
v -42.5 -110 0
v -45 -110 0
v -42.5 -112.5 0
v -45 -112.5 0
v -42.5 -115 0
v -45 -115 0
v -42.5 -117.5 0
v -45 -117.5 0
v -42.5 -120 0
v -45 -120 0
v -37.5 -32.5 0
v -45 -30 0
v -42.5 -35 0
v -52.5 -32.5 0
v -50 -40 0
v -52.5 -40 0
v -55 -37.5 0
v -52.5 -42.5 0
v -65 -40 0
v -60 -50 0
v -62.5 -50 0
v -60 -47.5 0
v -65 -50 0
v -57.5 -50 0
v -62.5 -52.5 0
v -57.5 -57.5 0
v -67.5 -57.5 0
v -67.5 -55 0
v -65 -60 0
v -70 -57.5 0
v -65 -65 0
v -70 -67.5 0
v -65 -72.5 0
v -70 -70 0
v -67.5 -77.5 0
v -72.5 -75 0
v -65 -82.5 0
v -72.5 -85 0
v -60 -85 0
v -67.5 -87.5 0
v -55 -90 0
v -62.5 -92.5 0
v -50 -95 0
v -57.5 -97.5 0
v -45 -102.5 0
v -42.5 -102.5 0
v -47.5 -105 0
v -47.5 -102.5 0
v -50 -105 0
v -52.5 -105 0
v -40 -120 0
v -40 -117.5 0
v -47.5 -120 0
v -47.5 -117.5 0
v -40 -122.5 0
v -42.5 -122.5 0
v -45 -122.5 0
v -47.5 -122.5 0
v -40 -125 0
v -42.5 -125 0
v -45 -125 0
v -47.5 -125 0
v 0 -2.5 0
v -2.5 -2.5 0
v -2.5 0 0
v 0 0 0

# Texture cooridinates (Count = 36)
vt 0.0001220703 0.0001220703
vt 0.9998779 0.0001220703
vt 0.9998779 0.9998779
vt 0.0001220703 0.9998779
vt 4.069011E-05 0.6667074
vt 0.3332926 0.6667074
vt 0.3332926 0.9999593
vt 4.069011E-05 0.9999593
vt 0.6667073 0.6667074
vt 0.9999593 0.6667074
vt 0.9999593 0.9999593
vt 0.6667073 0.9999593
vt 4.069011E-05 0.333374
vt 0.3332926 0.333374
vt 0.3332926 0.666626
vt 4.069011E-05 0.666626
vt 0.333374 0.333374
vt 0.666626 0.333374
vt 0.666626 0.666626
vt 0.333374 0.666626
vt 0.6667073 0.333374
vt 0.9999593 0.333374
vt 0.9999593 0.666626
vt 0.6667073 0.666626
vt 4.069011E-05 4.070997E-05
vt 0.3332926 4.070997E-05
vt 0.3332926 0.3332927
vt 4.069011E-05 0.3332927
vt 0.333374 4.070997E-05
vt 0.666626 4.070997E-05
vt 0.666626 0.3332927
vt 0.333374 0.3332927
vt 0.6667073 4.070997E-05
vt 0.9999593 4.070997E-05
vt 0.9999593 0.3332927
vt 0.6667073 0.3332927

# Normal
vn 0 0 -1

# Groups (Count = 2)

g mesh_0001
f 1/1/1 2/2/1 3/3/1 4/4/1

g mesh_0002
f 5/1/1 6/2/1 2/3/1 1/4/1
f 7/1/1 8/2/1 9/3/1 6/4/1
f 10/1/1 11/2/1 12/3/1 13/4/1
f 11/1/1 14/2/1 15/3/1 12/4/1
f 16/1/1 17/2/1 18/3/1 14/4/1
f 19/1/1 20/2/1 21/3/1 22/4/1
f 20/1/1 23/2/1 24/3/1 21/4/1
f 23/1/1 25/2/1 26/3/1 24/4/1
f 27/1/1 28/2/1 29/3/1 25/4/1
f 30/1/1 31/2/1 28/3/1 27/4/1
f 32/1/1 33/2/1 34/3/1 35/4/1
f 36/1/1 37/2/1 38/3/1 33/4/1
f 37/1/1 39/2/1 40/3/1 38/4/1
f 41/1/1 42/2/1 43/3/1 44/4/1
f 45/1/1 46/2/1 42/3/1 41/4/1
f 47/1/1 48/2/1 49/3/1 50/4/1
f 51/1/1 52/2/1 53/3/1 54/4/1
f 55/1/1 56/2/1 57/3/1 58/4/1
f 59/1/1 60/2/1 56/3/1 55/4/1
f 61/1/1 62/2/1 59/3/1 63/4/1
f 64/1/1 65/2/1 66/3/1 67/4/1
f 68/1/1 69/2/1 64/3/1 70/4/1
f 71/1/1 72/2/1 68/3/1 73/4/1
f 74/1/1 75/2/1 71/3/1 76/4/1
f 77/1/1 78/2/1 74/3/1 79/4/1
f 80/1/1 81/2/1 77/3/1 82/4/1
f 83/1/1 84/2/1 81/3/1 80/4/1
f 85/1/1 86/2/1 87/3/1 88/4/1
f 89/1/1 90/2/1 86/3/1 85/4/1
f 91/1/1 92/2/1 90/3/1 89/4/1
f 93/1/1 94/2/1 92/3/1 91/4/1
f 95/1/1 96/2/1 94/3/1 93/4/1
f 97/1/1 98/2/1 96/3/1 95/4/1

g mesh_0003
f 99/4/1 7/1/1 6/2/1 5/3/1
f 8/2/1 13/3/1 100/4/1 9/1/1
f 101/4/1 10/1/1 13/2/1 8/3/1
f 14/2/1 18/3/1 102/4/1 15/1/1
f 103/4/1 104/1/1 17/2/1 16/3/1
f 104/2/1 22/3/1 105/4/1 17/1/1
f 106/4/1 19/1/1 22/2/1 104/3/1
f 25/2/1 29/3/1 107/4/1 26/1/1
f 108/1/1 109/2/1 30/3/1 110/4/1
f 109/3/1 111/4/1 31/1/1 30/2/1
f 35/1/1 34/2/1 108/3/1 112/4/1
f 34/3/1 113/4/1 109/1/1 108/2/1
f 114/4/1 36/1/1 33/2/1 32/3/1
f 39/2/1 115/3/1 116/4/1 40/1/1
f 117/4/1 44/1/1 115/2/1 39/3/1
f 44/2/1 43/3/1 118/4/1 115/1/1
f 50/1/1 49/2/1 45/3/1 119/4/1
f 49/3/1 120/4/1 46/1/1 45/2/1
f 121/4/1 54/1/1 48/2/1 47/3/1
f 54/2/1 53/3/1 122/4/1 48/1/1
f 123/4/1 58/1/1 52/2/1 51/3/1
f 58/2/1 57/3/1 124/4/1 52/1/1
f 66/1/1 61/2/1 63/3/1 125/4/1
f 62/3/1 126/4/1 60/1/1 59/2/1
f 70/1/1 64/2/1 67/3/1 127/4/1
f 65/3/1 128/4/1 61/1/1 66/2/1
f 76/1/1 71/2/1 73/3/1 129/4/1
f 72/3/1 130/4/1 69/1/1 68/2/1
f 82/1/1 77/2/1 79/3/1 131/4/1
f 78/3/1 132/4/1 75/1/1 74/2/1
f 88/1/1 87/2/1 133/3/1 134/4/1

g mesh_0004
f 87/2/1 135/3/1 136/4/1 133/1/1
f 137/3/1 138/4/1 84/1/1 83/2/1

g mesh_0005
f 139/5/1 97/6/1 95/7/1 140/8/1
f 98/9/1 141/10/1 142/11/1 96/12/1
f 143/13/1 144/14/1 97/15/1 139/16/1
f 144/17/1 145/18/1 98/19/1 97/20/1
f 145/21/1 146/22/1 141/23/1 98/24/1
f 147/25/1 148/26/1 144/27/1 143/28/1
f 148/29/1 149/30/1 145/31/1 144/32/1
f 149/33/1 150/34/1 146/35/1 145/36/1

g mesh_tile_0013
f 151/1/1 152/2/1 153/3/1 154/4/1

