# Wavefront OBJ file automatically generated by Tiled2Unity

# Vertices (Count = 93)
v -25 -27.5 0
v -27.5 -27.5 0
v -27.5 -25 0
v -25 -25 0
v -25 -30 0
v -27.5 -30 0
v -5 -32.5 0
v -7.5 -32.5 0
v -7.5 -30 0
v -5 -30 0
v -10 -32.5 0
v -10 -30 0
v -12.5 -32.5 0
v -12.5 -30 0
v -35 -42.5 0
v -37.5 -42.5 0
v -37.5 -40 0
v -35 -40 0
v -40 -42.5 0
v -40 -40 0
v -42.5 -42.5 0
v -45 -42.5 0
v -45 -40 0
v -42.5 -40 0
v -47.5 -42.5 0
v -47.5 -40 0
v -50 -42.5 0
v -50 -40 0
v -62.5 -42.5 0
v -65 -42.5 0
v -65 -40 0
v -62.5 -40 0
v -67.5 -42.5 0
v -67.5 -40 0
v -90 -45 0
v -92.5 -45 0
v -92.5 -42.5 0
v -90 -42.5 0
v -90 -47.5 0
v -92.5 -47.5 0
v -92.5 -50 0
v -95 -50 0
v -95 -47.5 0
v -95 -62.5 0
v -97.5 -62.5 0
v -97.5 -60 0
v -95 -60 0
v -95 -72.5 0
v -97.5 -72.5 0
v -97.5 -70 0
v -95 -70 0
v -95 -75 0
v -97.5 -75 0
v -95 -77.5 0
v -97.5 -77.5 0
v -95 -82.5 0
v -97.5 -82.5 0
v -97.5 -80 0
v -95 -80 0
v -95 -85 0
v -97.5 -85 0
v -95 -87.5 0
v -97.5 -87.5 0
v -95 -90 0
v -97.5 -90 0
v -95 -92.5 0
v -97.5 -92.5 0
v -95 -95 0
v -97.5 -95 0
v -17.5 -32.5 0
v -20 -32.5 0
v -20 -30 0
v -17.5 -30 0
v -15 -42.5 0
v -17.5 -42.5 0
v -17.5 -40 0
v -15 -40 0
v -27.5 -42.5 0
v -30 -42.5 0
v -30 -40 0
v -27.5 -40 0
v -95 -55 0
v -97.5 -55 0
v -97.5 -52.5 0
v -95 -52.5 0
v -92.5 -100 0
v -100.18 -100 0
v -100.18 -92.32 0
v -92.5 -92.32 0
v 0 -2.5 0
v -2.5 -2.5 0
v -2.5 0 0
v 0 0 0

# Texture cooridinates (Count = 8)
vt 0.0001220703 0.0001220703
vt 0.9998779 0.0001220703
vt 0.9998779 0.9998779
vt 0.0001220703 0.9998779
vt 0.0001219116 0.0001220703
vt 0.9985777 0.0001220703
vt 0.9985777 0.9998779
vt 0.0001219116 0.9998779

# Normal
vn 0 0 -1

# Groups (Count = 6)

g mesh_0001
f 1/1/1 2/2/1 3/3/1 4/4/1

g mesh_0002
f 5/1/1 6/2/1 2/3/1 1/4/1
f 7/1/1 8/2/1 9/3/1 10/4/1
f 8/1/1 11/2/1 12/3/1 9/4/1
f 11/1/1 13/2/1 14/3/1 12/4/1
f 15/1/1 16/2/1 17/3/1 18/4/1
f 16/1/1 19/2/1 20/3/1 17/4/1
f 21/1/1 22/2/1 23/3/1 24/4/1
f 22/1/1 25/2/1 26/3/1 23/4/1
f 25/1/1 27/2/1 28/3/1 26/4/1
f 29/1/1 30/2/1 31/3/1 32/4/1
f 30/1/1 33/2/1 34/3/1 31/4/1
f 35/1/1 36/2/1 37/3/1 38/4/1
f 39/1/1 40/2/1 36/3/1 35/4/1
f 41/1/1 42/2/1 43/3/1 40/4/1
f 44/1/1 45/2/1 46/3/1 47/4/1
f 48/1/1 49/2/1 50/3/1 51/4/1
f 52/1/1 53/2/1 49/3/1 48/4/1
f 54/1/1 55/2/1 53/3/1 52/4/1
f 56/1/1 57/2/1 58/3/1 59/4/1
f 60/1/1 61/2/1 57/3/1 56/4/1
f 62/1/1 63/2/1 61/3/1 60/4/1
f 64/1/1 65/2/1 63/3/1 62/4/1
f 66/1/1 67/2/1 65/3/1 64/4/1
f 68/1/1 69/2/1 67/3/1 66/4/1

g mesh_0003
f 70/1/1 71/2/1 72/3/1 73/4/1
f 74/1/1 75/2/1 76/3/1 77/4/1
f 78/1/1 79/2/1 80/3/1 81/4/1
f 82/1/1 83/2/1 84/3/1 85/4/1

g mesh_0004
f 86/5/1 87/6/1 88/7/1 89/8/1

g mesh_tile_0001
f 90/1/1 91/2/1 92/3/1 93/4/1

g mesh_tile_0013
f 90/1/1 91/2/1 92/3/1 93/4/1

g mesh_tile_0011
f 90/1/1 91/2/1 92/3/1 93/4/1

g mesh_tile_0005
f 90/1/1 91/2/1 92/3/1 93/4/1

g mesh_tile_0015
f 90/1/1 91/2/1 92/3/1 93/4/1

