# Wavefront OBJ file automatically generated by Tiled2Unity

# Vertices (Count = 110)
v -40 -10 0
v -42.5 -10 0
v -42.5 -7.5 0
v -40 -7.5 0
v -40 -12.5 0
v -42.5 -12.5 0
v -25 -15 0
v -27.5 -15 0
v -27.5 -12.5 0
v -25 -12.5 0
v -30 -15 0
v -30 -12.5 0
v -32.5 -15 0
v -32.5 -12.5 0
v -35 -15 0
v -35 -12.5 0
v -37.5 -15 0
v -37.5 -12.5 0
v -40 -15 0
v -22.5 -17.5 0
v -25 -17.5 0
v -22.5 -15 0
v -25 -20 0
v -27.5 -20 0
v -27.5 -17.5 0
v -35 -22.5 0
v -37.5 -22.5 0
v -37.5 -20 0
v -35 -20 0
v -35 -25 0
v -37.5 -25 0
v -37.5 -27.5 0
v -40 -27.5 0
v -40 -25 0
v -42.5 -27.5 0
v -42.5 -25 0
v -42.5 -30 0
v -45 -30 0
v -45 -27.5 0
v -45 -32.5 0
v -47.5 -32.5 0
v -47.5 -30 0
v -50 -32.5 0
v -50 -30 0
v -52.5 -32.5 0
v -52.5 -30 0
v -52.5 -35 0
v -55 -35 0
v -55 -32.5 0
v -52.5 -37.5 0
v -55 -37.5 0
v -52.5 -40 0
v -55 -40 0
v -52.5 -42.5 0
v -55 -42.5 0
v -55 -45 0
v -57.5 -45 0
v -57.5 -42.5 0
v -60 -45 0
v -60 -42.5 0
v -62.5 -45 0
v -62.5 -42.5 0
v -65 -45 0
v -65 -42.5 0
v -67.5 -45 0
v -67.5 -42.5 0
v -67.5 -47.5 0
v -70 -47.5 0
v -70 -45 0
v -67.5 -50 0
v -70 -50 0
v -67.5 -52.5 0
v -70 -52.5 0
v -67.5 -55 0
v -70 -55 0
v -67.5 -57.5 0
v -70 -57.5 0
v -67.5 -60 0
v -70 -60 0
v -67.5 -62.5 0
v -70 -62.5 0
v -67.5 -65 0
v -70 -65 0
v -67.5 -67.5 0
v -70 -67.5 0
v -67.5 -70 0
v -70 -70 0
v -22.5 -12.5 0
v -42.5 -15 0
v -22.5 -20 0
v -35 -27.5 0
v -42.5 -32.5 0
v -52.5 -45 0
v -30 -20 0
v -30 -17.5 0
v -32.5 -20 0
v -35 -17.5 0
v -32.5 -17.5 0
v -37.5 -17.5 0
v -45 -25 0
v -55 -30 0
v -70 -42.5 0
v -65 -75 0
v -72.68 -75 0
v -72.68 -67.32 0
v -65 -67.32 0
v 0 -2.5 0
v -2.5 -2.5 0
v -2.5 0 0
v 0 0 0

# Texture cooridinates (Count = 12)
vt 0.0001220703 0.0001220703
vt 0.9998779 0.0001220703
vt 0.9998779 0.9998779
vt 0.0001220703 0.9998779
vt 0.0001219116 0.0001220703
vt 0.9985777 0.0001220703
vt 0.9985777 0.9998779
vt 0.0001219116 0.9998779
vt 0.5000122 0.0001220703
vt 0.5999878 0.0001220703
vt 0.5999878 0.9998779
vt 0.5000122 0.9998779

# Normal
vn 0 0 -1

# Groups (Count = 3)

g mesh_0001
f 1/1/1 2/2/1 3/3/1 4/4/1

g mesh_0002
f 5/1/1 6/2/1 2/3/1 1/4/1
f 7/1/1 8/2/1 9/3/1 10/4/1
f 8/1/1 11/2/1 12/3/1 9/4/1
f 11/1/1 13/2/1 14/3/1 12/4/1
f 13/1/1 15/2/1 16/3/1 14/4/1
f 15/1/1 17/2/1 18/3/1 16/4/1
f 17/1/1 19/2/1 5/3/1 18/4/1
f 20/1/1 21/2/1 7/3/1 22/4/1
f 23/1/1 24/2/1 25/3/1 21/4/1
f 26/1/1 27/2/1 28/3/1 29/4/1
f 30/1/1 31/2/1 27/3/1 26/4/1
f 32/1/1 33/2/1 34/3/1 31/4/1
f 33/1/1 35/2/1 36/3/1 34/4/1
f 37/1/1 38/2/1 39/3/1 35/4/1
f 40/1/1 41/2/1 42/3/1 38/4/1
f 41/1/1 43/2/1 44/3/1 42/4/1
f 43/1/1 45/2/1 46/3/1 44/4/1
f 47/1/1 48/2/1 49/3/1 45/4/1
f 50/1/1 51/2/1 48/3/1 47/4/1
f 52/1/1 53/2/1 51/3/1 50/4/1
f 54/1/1 55/2/1 53/3/1 52/4/1
f 56/1/1 57/2/1 58/3/1 55/4/1
f 57/1/1 59/2/1 60/3/1 58/4/1
f 59/1/1 61/2/1 62/3/1 60/4/1
f 61/1/1 63/2/1 64/3/1 62/4/1
f 63/1/1 65/2/1 66/3/1 64/4/1
f 67/1/1 68/2/1 69/3/1 65/4/1
f 70/1/1 71/2/1 68/3/1 67/4/1
f 72/1/1 73/2/1 71/3/1 70/4/1
f 74/1/1 75/2/1 73/3/1 72/4/1
f 76/1/1 77/2/1 75/3/1 74/4/1
f 78/1/1 79/2/1 77/3/1 76/4/1
f 80/1/1 81/2/1 79/3/1 78/4/1
f 82/1/1 83/2/1 81/3/1 80/4/1
f 84/1/1 85/2/1 83/3/1 82/4/1
f 86/1/1 87/2/1 85/3/1 84/4/1

g mesh_0003
f 22/1/1 7/2/1 10/3/1 88/4/1

g mesh_0004
f 19/1/1 89/2/1 6/3/1 5/4/1

g mesh_0005
f 90/1/1 23/2/1 21/3/1 20/4/1
f 91/1/1 32/2/1 31/3/1 30/4/1
f 92/1/1 40/2/1 38/3/1 37/4/1
f 93/1/1 56/2/1 55/3/1 54/4/1

g mesh_0006
f 24/1/1 94/2/1 95/3/1 25/4/1

g mesh_0007
f 96/1/1 29/2/1 97/3/1 98/4/1

g mesh_0008
f 29/1/1 28/2/1 99/3/1 97/4/1
f 35/1/1 39/2/1 100/3/1 36/4/1
f 45/1/1 49/2/1 101/3/1 46/4/1
f 65/1/1 69/2/1 102/3/1 66/4/1

g mesh_0009
f 103/5/1 104/6/1 105/7/1 106/8/1

g mesh_tile_0009
f 107/9/1 108/10/1 109/11/1 110/12/1

g mesh_tile_0003
f 107/1/1 108/2/1 109/3/1 110/4/1

