# Wavefront OBJ file automatically generated by Tiled2Unity

# Vertices (Count = 149)
v -67.5 -30 0
v -70 -30 0
v -70 -27.5 0
v -67.5 -27.5 0
v -67.5 -32.5 0
v -70 -32.5 0
v -72.5 -32.5 0
v -75 -32.5 0
v -75 -30 0
v -72.5 -30 0
v -67.5 -37.5 0
v -70 -37.5 0
v -70 -35 0
v -67.5 -35 0
v -72.5 -37.5 0
v -75 -37.5 0
v -75 -35 0
v -72.5 -35 0
v -60 -40 0
v -62.5 -40 0
v -62.5 -37.5 0
v -60 -37.5 0
v -57.5 -42.5 0
v -60 -42.5 0
v -57.5 -40 0
v -62.5 -42.5 0
v -47.5 -47.5 0
v -50 -47.5 0
v -50 -45 0
v -47.5 -45 0
v -57.5 -47.5 0
v -60 -47.5 0
v -60 -45 0
v -57.5 -45 0
v -45 -52.5 0
v -47.5 -52.5 0
v -47.5 -50 0
v -45 -50 0
v -50 -52.5 0
v -50 -50 0
v -45 -57.5 0
v -47.5 -57.5 0
v -47.5 -55 0
v -45 -55 0
v -50 -57.5 0
v -52.5 -57.5 0
v -52.5 -55 0
v -50 -55 0
v -45 -60 0
v -47.5 -60 0
v -50 -60 0
v -52.5 -60 0
v -42.5 -62.5 0
v -45 -62.5 0
v -42.5 -60 0
v -47.5 -62.5 0
v -35 -67.5 0
v -37.5 -67.5 0
v -37.5 -65 0
v -35 -65 0
v -35 -70 0
v -37.5 -70 0
v -40 -77.5 0
v -42.5 -77.5 0
v -42.5 -75 0
v -40 -75 0
v -42.5 -85 0
v -45 -85 0
v -45 -82.5 0
v -42.5 -82.5 0
v -47.5 -85 0
v -50 -85 0
v -50 -82.5 0
v -47.5 -82.5 0
v -47.5 -87.5 0
v -50 -87.5 0
v -52.5 -87.5 0
v -52.5 -85 0
v -47.5 -90 0
v -50 -90 0
v -52.5 -90 0
v -47.5 -95 0
v -50 -95 0
v -50 -92.5 0
v -47.5 -92.5 0
v -42.5 -102.5 0
v -45 -102.5 0
v -45 -100 0
v -42.5 -100 0
v -42.5 -65 0
v -45 -65 0
v -40 -70 0
v -40 -67.5 0
v -45 -95 0
v -45 -92.5 0
v -45 -110 0
v -47.5 -110 0
v -47.5 -107.5 0
v -45 -107.5 0
v -45 -112.5 0
v -47.5 -112.5 0
v -45 -115 0
v -47.5 -115 0
v -45 -117.5 0
v -47.5 -117.5 0
v -45 -120 0
v -47.5 -120 0
v -65 -40 0
v -65 -37.5 0
v -67.5 -40 0
v -70 -40 0
v -52.5 -47.5 0
v -52.5 -45 0
v -55 -47.5 0
v -55 -45 0
v -40 -65 0
v -42.5 -67.5 0
v -45 -67.5 0
v -42.5 -70 0
v -42.5 -72.5 0
v -40 -72.5 0
v -45 -77.5 0
v -45 -75 0
v -45 -80 0
v -42.5 -80 0
v -42.5 -95 0
v -42.5 -92.5 0
v -45 -97.5 0
v -42.5 -97.5 0
v -47.5 -102.5 0
v -47.5 -100 0
v -47.5 -105 0
v -45 -105 0
v -42.5 -120 0
v -42.5 -117.5 0
v -50 -120 0
v -50 -117.5 0
v -42.5 -122.5 0
v -45 -122.5 0
v -47.5 -122.5 0
v -50 -122.5 0
v -42.5 -125 0
v -45 -125 0
v -47.5 -125 0
v -50 -125 0
v 0 -2.5 0
v -2.5 -2.5 0
v -2.5 0 0
v 0 0 0

# Texture cooridinates (Count = 36)
vt 0.0001220703 0.0001220703
vt 0.9998779 0.0001220703
vt 0.9998779 0.9998779
vt 0.0001220703 0.9998779
vt 4.069011E-05 0.6667074
vt 0.3332926 0.6667074
vt 0.3332926 0.9999593
vt 4.069011E-05 0.9999593
vt 0.6667073 0.6667074
vt 0.9999593 0.6667074
vt 0.9999593 0.9999593
vt 0.6667073 0.9999593
vt 4.069011E-05 0.333374
vt 0.3332926 0.333374
vt 0.3332926 0.666626
vt 4.069011E-05 0.666626
vt 0.333374 0.333374
vt 0.666626 0.333374
vt 0.666626 0.666626
vt 0.333374 0.666626
vt 0.6667073 0.333374
vt 0.9999593 0.333374
vt 0.9999593 0.666626
vt 0.6667073 0.666626
vt 4.069011E-05 4.070997E-05
vt 0.3332926 4.070997E-05
vt 0.3332926 0.3332927
vt 4.069011E-05 0.3332927
vt 0.333374 4.070997E-05
vt 0.666626 4.070997E-05
vt 0.666626 0.3332927
vt 0.333374 0.3332927
vt 0.6667073 4.070997E-05
vt 0.9999593 4.070997E-05
vt 0.9999593 0.3332927
vt 0.6667073 0.3332927

# Normal
vn 0 0 -1

# Groups (Count = 2)

g mesh_0001
f 1/1/1 2/2/1 3/3/1 4/4/1

g mesh_0002
f 5/4/1 6/1/1 2/2/1 1/3/1
f 7/2/1 8/3/1 9/4/1 10/1/1
f 11/1/1 12/2/1 13/3/1 14/4/1
f 15/3/1 16/4/1 17/1/1 18/2/1
f 19/1/1 20/2/1 21/3/1 22/4/1
f 23/1/1 24/2/1 19/3/1 25/4/1
f 24/3/1 26/4/1 20/1/1 19/2/1
f 27/1/1 28/2/1 29/3/1 30/4/1
f 31/3/1 32/4/1 33/1/1 34/2/1
f 35/1/1 36/2/1 37/3/1 38/4/1
f 36/3/1 39/4/1 40/1/1 37/2/1
f 41/4/1 42/1/1 43/2/1 44/3/1
f 45/2/1 46/3/1 47/4/1 48/1/1
f 49/1/1 50/2/1 42/3/1 41/4/1
f 51/3/1 52/4/1 46/1/1 45/2/1
f 53/1/1 54/2/1 49/3/1 55/4/1
f 54/3/1 56/4/1 50/1/1 49/2/1
f 57/1/1 58/2/1 59/3/1 60/4/1
f 61/4/1 62/1/1 58/2/1 57/3/1
f 63/4/1 64/1/1 65/2/1 66/3/1
f 67/4/1 68/1/1 69/2/1 70/3/1
f 71/2/1 72/3/1 73/4/1 74/1/1
f 75/4/1 76/1/1 72/2/1 71/3/1
f 76/2/1 77/3/1 78/4/1 72/1/1
f 79/1/1 80/2/1 76/3/1 75/4/1
f 80/3/1 81/4/1 77/1/1 76/2/1
f 82/3/1 83/4/1 84/1/1 85/2/1
f 86/4/1 87/1/1 88/2/1 89/3/1

g mesh_0003
f 6/1/1 7/2/1 10/3/1 2/4/1
f 18/1/1 17/2/1 8/3/1 7/4/1
f 12/1/1 15/2/1 18/3/1 13/4/1
f 34/1/1 33/2/1 24/3/1 23/4/1
f 37/1/1 40/2/1 28/3/1 27/4/1
f 44/1/1 43/2/1 36/3/1 35/4/1
f 42/1/1 45/2/1 48/3/1 43/4/1
f 50/1/1 51/2/1 45/3/1 42/4/1
f 90/1/1 91/2/1 54/3/1 53/4/1
f 62/1/1 92/2/1 93/3/1 58/4/1
f 68/1/1 71/2/1 74/3/1 69/4/1
f 85/1/1 84/2/1 80/3/1 79/4/1
f 94/1/1 82/2/1 85/3/1 95/4/1
f 96/1/1 97/2/1 98/3/1 99/4/1
f 100/1/1 101/2/1 97/3/1 96/4/1
f 102/1/1 103/2/1 101/3/1 100/4/1
f 104/1/1 105/2/1 103/3/1 102/4/1
f 106/1/1 107/2/1 105/3/1 104/4/1

g mesh_0004
f 20/2/1 108/3/1 109/4/1 21/1/1
f 110/3/1 111/4/1 12/1/1 11/2/1
f 28/2/1 112/3/1 113/4/1 29/1/1
f 114/4/1 31/1/1 34/2/1 115/3/1
f 58/2/1 93/3/1 116/4/1 59/1/1
f 117/3/1 118/4/1 91/1/1 90/2/1
f 92/2/1 119/3/1 117/4/1 93/1/1
f 66/1/1 65/2/1 120/3/1 121/4/1
f 64/2/1 122/3/1 123/4/1 65/1/1
f 70/1/1 69/2/1 124/3/1 125/4/1
f 126/4/1 94/1/1 95/2/1 127/3/1
f 89/1/1 88/2/1 128/3/1 129/4/1
f 87/2/1 130/3/1 131/4/1 88/1/1
f 99/1/1 98/2/1 132/3/1 133/4/1

g mesh_0005
f 134/5/1 106/6/1 104/7/1 135/8/1
f 107/9/1 136/10/1 137/11/1 105/12/1
f 138/13/1 139/14/1 106/15/1 134/16/1
f 139/17/1 140/18/1 107/19/1 106/20/1
f 140/21/1 141/22/1 136/23/1 107/24/1
f 142/25/1 143/26/1 139/27/1 138/28/1
f 143/29/1 144/30/1 140/31/1 139/32/1
f 144/33/1 145/34/1 141/35/1 140/36/1

g mesh_tile_0013
f 146/1/1 147/2/1 148/3/1 149/4/1

