# Wavefront OBJ file automatically generated by Tiled2Unity

# Vertices (Count = 162)
v -42.5 -12.5 0
v -45 -12.5 0
v -45 -10 0
v -42.5 -10 0
v -42.5 -15 0
v -45 -15 0
v -40 -20 0
v -42.5 -20 0
v -42.5 -17.5 0
v -40 -17.5 0
v -40 -32.5 0
v -42.5 -32.5 0
v -42.5 -30 0
v -40 -30 0
v -47.5 -52.5 0
v -50 -52.5 0
v -50 -50 0
v -47.5 -50 0
v -47.5 -55 0
v -50 -55 0
v -50 -75 0
v -52.5 -75 0
v -52.5 -72.5 0
v -50 -72.5 0
v -52.5 -77.5 0
v -55 -77.5 0
v -55 -75 0
v -45 -82.5 0
v -47.5 -82.5 0
v -47.5 -80 0
v -45 -80 0
v -50 -87.5 0
v -52.5 -87.5 0
v -52.5 -85 0
v -50 -85 0
v -47.5 -90 0
v -50 -90 0
v -47.5 -87.5 0
v -45 -92.5 0
v -47.5 -92.5 0
v -45 -90 0
v -52.5 -95 0
v -55 -95 0
v -55 -92.5 0
v -52.5 -92.5 0
v -55 -97.5 0
v -57.5 -97.5 0
v -57.5 -95 0
v -52.5 -100 0
v -55 -100 0
v -52.5 -97.5 0
v -50 -110 0
v -52.5 -110 0
v -52.5 -107.5 0
v -50 -107.5 0
v -50 -112.5 0
v -52.5 -112.5 0
v -50 -115 0
v -52.5 -115 0
v -50 -117.5 0
v -52.5 -117.5 0
v -50 -120 0
v -52.5 -120 0
v -40 -15 0
v -45 -17.5 0
v -37.5 -22.5 0
v -40 -22.5 0
v -37.5 -20 0
v -42.5 -22.5 0
v -37.5 -32.5 0
v -37.5 -30 0
v -45 -32.5 0
v -45 -30 0
v -42.5 -35 0
v -45 -35 0
v -47.5 -35 0
v -47.5 -32.5 0
v -42.5 -37.5 0
v -45 -37.5 0
v -47.5 -37.5 0
v -42.5 -40 0
v -45 -40 0
v -45 -52.5 0
v -45 -50 0
v -52.5 -52.5 0
v -52.5 -50 0
v -45 -55 0
v -52.5 -55 0
v -45 -57.5 0
v -47.5 -57.5 0
v -42.5 -65 0
v -45 -65 0
v -45 -62.5 0
v -42.5 -62.5 0
v -45 -72.5 0
v -47.5 -72.5 0
v -47.5 -70 0
v -45 -70 0
v -50 -70 0
v -47.5 -75 0
v -55 -72.5 0
v -42.5 -80 0
v -45 -77.5 0
v -42.5 -77.5 0
v -52.5 -80 0
v -55 -80 0
v -42.5 -82.5 0
v -50 -82.5 0
v -50 -80 0
v -47.5 -85 0
v -52.5 -82.5 0
v -45 -87.5 0
v -52.5 -90 0
v -57.5 -92.5 0
v -50 -100 0
v -50 -97.5 0
v -57.5 -100 0
v -37.5 -25 0
v -40 -25 0
v -40 -27.5 0
v -37.5 -27.5 0
v -47.5 -40 0
v -47.5 -47.5 0
v -45 -47.5 0
v -42.5 -57.5 0
v -42.5 -55 0
v -45 -60 0
v -42.5 -60 0
v -47.5 -65 0
v -47.5 -62.5 0
v -47.5 -67.5 0
v -45 -67.5 0
v -47.5 -77.5 0
v -50 -77.5 0
v -45 -95 0
v -47.5 -95 0
v -50 -95 0
v -50 -92.5 0
v -50 -102.5 0
v -52.5 -102.5 0
v -52.5 -105 0
v -50 -105 0
v -45 -45 0
v -47.5 -45 0
v -47.5 -42.5 0
v -45 -42.5 0
v -47.5 -120 0
v -47.5 -117.5 0
v -55 -120 0
v -55 -117.5 0
v -47.5 -122.5 0
v -50 -122.5 0
v -52.5 -122.5 0
v -55 -122.5 0
v -47.5 -125 0
v -50 -125 0
v -52.5 -125 0
v -55 -125 0
v 0 -2.5 0
v -2.5 -2.5 0
v -2.5 0 0
v 0 0 0

# Texture cooridinates (Count = 36)
vt 0.0001220703 0.0001220703
vt 0.9998779 0.0001220703
vt 0.9998779 0.9998779
vt 0.0001220703 0.9998779
vt 4.069011E-05 0.6667074
vt 0.3332926 0.6667074
vt 0.3332926 0.9999593
vt 4.069011E-05 0.9999593
vt 0.6667073 0.6667074
vt 0.9999593 0.6667074
vt 0.9999593 0.9999593
vt 0.6667073 0.9999593
vt 4.069011E-05 0.333374
vt 0.3332926 0.333374
vt 0.3332926 0.666626
vt 4.069011E-05 0.666626
vt 0.333374 0.333374
vt 0.666626 0.333374
vt 0.666626 0.666626
vt 0.333374 0.666626
vt 0.6667073 0.333374
vt 0.9999593 0.333374
vt 0.9999593 0.666626
vt 0.6667073 0.666626
vt 4.069011E-05 4.070997E-05
vt 0.3332926 4.070997E-05
vt 0.3332926 0.3332927
vt 4.069011E-05 0.3332927
vt 0.333374 4.070997E-05
vt 0.666626 4.070997E-05
vt 0.666626 0.3332927
vt 0.333374 0.3332927
vt 0.6667073 4.070997E-05
vt 0.9999593 4.070997E-05
vt 0.9999593 0.3332927
vt 0.6667073 0.3332927

# Normal
vn 0 0 -1

# Groups (Count = 2)

g mesh_0001
f 1/1/1 2/2/1 3/3/1 4/4/1

g mesh_0002
f 5/1/1 6/2/1 2/3/1 1/4/1
f 7/1/1 8/2/1 9/3/1 10/4/1
f 11/1/1 12/2/1 13/3/1 14/4/1
f 15/1/1 16/2/1 17/3/1 18/4/1
f 19/1/1 20/2/1 16/3/1 15/4/1
f 21/1/1 22/2/1 23/3/1 24/4/1
f 25/1/1 26/2/1 27/3/1 22/4/1
f 28/1/1 29/2/1 30/3/1 31/4/1
f 32/1/1 33/2/1 34/3/1 35/4/1
f 36/1/1 37/2/1 32/3/1 38/4/1
f 39/1/1 40/2/1 36/3/1 41/4/1
f 42/1/1 43/2/1 44/3/1 45/4/1
f 46/1/1 47/2/1 48/3/1 43/4/1
f 49/1/1 50/2/1 46/3/1 51/4/1
f 52/1/1 53/2/1 54/3/1 55/4/1
f 56/1/1 57/2/1 53/3/1 52/4/1
f 58/1/1 59/2/1 57/3/1 56/4/1
f 60/1/1 61/2/1 59/3/1 58/4/1
f 62/1/1 63/2/1 61/3/1 60/4/1

g mesh_0003
f 10/1/1 9/2/1 5/3/1 64/4/1
f 9/3/1 65/4/1 6/1/1 5/2/1
f 66/1/1 67/2/1 7/3/1 68/4/1
f 67/3/1 69/4/1 8/1/1 7/2/1
f 70/4/1 11/1/1 14/2/1 71/3/1
f 12/2/1 72/3/1 73/4/1 13/1/1
f 74/4/1 75/1/1 72/2/1 12/3/1
f 75/2/1 76/3/1 77/4/1 72/1/1
f 78/1/1 79/2/1 75/3/1 74/4/1
f 79/3/1 80/4/1 76/1/1 75/2/1
f 81/4/1 82/1/1 79/2/1 78/3/1
f 83/4/1 15/1/1 18/2/1 84/3/1
f 16/2/1 85/3/1 86/4/1 17/1/1
f 87/1/1 19/2/1 15/3/1 83/4/1
f 20/3/1 88/4/1 85/1/1 16/2/1
f 89/3/1 90/4/1 19/1/1 87/2/1
f 91/4/1 92/1/1 93/2/1 94/3/1
f 95/4/1 96/1/1 97/2/1 98/3/1
f 96/2/1 24/3/1 99/4/1 97/1/1
f 100/4/1 21/1/1 24/2/1 96/3/1
f 22/2/1 27/3/1 101/4/1 23/1/1
f 102/1/1 31/2/1 103/3/1 104/4/1
f 105/3/1 106/4/1 26/1/1 25/2/1
f 107/4/1 28/1/1 31/2/1 102/3/1
f 29/2/1 108/3/1 109/4/1 30/1/1
f 110/4/1 35/1/1 108/2/1 29/3/1
f 35/2/1 34/3/1 111/4/1 108/1/1
f 41/1/1 36/2/1 38/3/1 112/4/1
f 37/3/1 113/4/1 33/1/1 32/2/1
f 43/2/1 48/3/1 114/4/1 44/1/1
f 115/1/1 49/2/1 51/3/1 116/4/1
f 50/3/1 117/4/1 47/1/1 46/2/1

g mesh_0004
f 118/3/1 119/4/1 67/1/1 66/2/1
f 71/1/1 14/2/1 120/3/1 121/4/1
f 82/2/1 122/3/1 80/4/1 79/1/1
f 84/1/1 18/2/1 123/3/1 124/4/1
f 125/4/1 89/1/1 87/2/1 126/3/1
f 94/1/1 93/2/1 127/3/1 128/4/1
f 92/2/1 129/3/1 130/4/1 93/1/1
f 98/1/1 97/2/1 131/3/1 132/4/1
f 31/2/1 30/3/1 133/4/1 103/1/1
f 109/4/1 105/1/1 25/2/1 134/3/1
f 135/3/1 136/4/1 40/1/1 39/2/1
f 137/4/1 42/1/1 45/2/1 138/3/1
f 139/3/1 140/4/1 49/1/1 115/2/1
f 55/1/1 54/2/1 141/3/1 142/4/1

g mesh_0005
f 143/1/1 144/2/1 145/3/1 146/4/1

g mesh_0006
f 147/5/1 62/6/1 60/7/1 148/8/1
f 63/9/1 149/10/1 150/11/1 61/12/1
f 151/13/1 152/14/1 62/15/1 147/16/1
f 152/17/1 153/18/1 63/19/1 62/20/1
f 153/21/1 154/22/1 149/23/1 63/24/1
f 155/25/1 156/26/1 152/27/1 151/28/1
f 156/29/1 157/30/1 153/31/1 152/32/1
f 157/33/1 158/34/1 154/35/1 153/36/1

g mesh_tile_0012
f 159/1/1 160/2/1 161/3/1 162/4/1

