# Wavefront OBJ file automatically generated by Tiled2Unity

# Vertices (Count = 8)
v -57.5 -100 0
v -65 -100 0
v -65 -92.5 0
v -57.5 -92.5 0
v 0 -2.5 0
v -2.5 -2.5 0
v -2.5 0 0
v 0 0 0

# Texture cooridinates (Count = 4)
vt 0.0001220703 0.0001220703
vt 0.9998779 0.0001220703
vt 0.9998779 0.9998779
vt 0.0001220703 0.9998779

# Normal
vn 0 0 -1

# Groups (Count = 7)

g mesh_0001
f 1/1/1 2/2/1 3/3/1 4/4/1

g mesh_tile_0003
f 5/1/1 6/2/1 7/3/1 8/4/1

g mesh_tile_0015
f 5/1/1 6/2/1 7/3/1 8/4/1

g mesh_tile_0013
f 5/1/1 6/2/1 7/3/1 8/4/1

g mesh_tile_0007
f 5/1/1 6/2/1 7/3/1 8/4/1

g mesh_tile_0006
f 5/1/1 6/2/1 7/3/1 8/4/1

g mesh_tile_0001
f 5/1/1 6/2/1 7/3/1 8/4/1

