# Wavefront OBJ file automatically generated by Tiled2Unity

# Vertices (Count = 90)
v -55 -15 0
v -57.5 -15 0
v -57.5 -12.5 0
v -55 -12.5 0
v -55 -17.5 0
v -57.5 -17.5 0
v -55 -32.5 0
v -57.5 -32.5 0
v -57.5 -30 0
v -55 -30 0
v -52.5 -35 0
v -55 -35 0
v -52.5 -32.5 0
v -47.5 -37.5 0
v -50 -37.5 0
v -50 -35 0
v -47.5 -35 0
v -45 -40 0
v -47.5 -40 0
v -45 -37.5 0
v -45 -42.5 0
v -47.5 -42.5 0
v -52.5 -45 0
v -55 -45 0
v -55 -42.5 0
v -52.5 -42.5 0
v -55 -47.5 0
v -57.5 -47.5 0
v -57.5 -45 0
v -62.5 -52.5 0
v -65 -52.5 0
v -65 -50 0
v -62.5 -50 0
v -62.5 -55 0
v -65 -55 0
v -52.5 -57.5 0
v -55 -57.5 0
v -55 -55 0
v -52.5 -55 0
v -57.5 -57.5 0
v -57.5 -55 0
v -50 -60 0
v -52.5 -60 0
v -50 -57.5 0
v -52.5 -70 0
v -55 -70 0
v -55 -67.5 0
v -52.5 -67.5 0
v -45 -80 0
v -47.5 -80 0
v -47.5 -77.5 0
v -45 -77.5 0
v -47.5 -82.5 0
v -50 -82.5 0
v -50 -80 0
v -52.5 -82.5 0
v -52.5 -80 0
v -52.5 -85 0
v -55 -85 0
v -55 -82.5 0
v -52.5 -87.5 0
v -55 -87.5 0
v -45 -92.5 0
v -47.5 -92.5 0
v -47.5 -90 0
v -45 -90 0
v -45 -95 0
v -47.5 -95 0
v -45 -97.5 0
v -47.5 -97.5 0
v -45 -100 0
v -47.5 -100 0
v -45 -102.5 0
v -47.5 -102.5 0
v -45 -105 0
v -47.5 -105 0
v -45 -107.5 0
v -47.5 -107.5 0
v -55 -25 0
v -57.5 -25 0
v -57.5 -22.5 0
v -55 -22.5 0
v -42.5 -112.5 0
v -50.18 -112.5 0
v -50.18 -104.82 0
v -42.5 -104.82 0
v 0 -2.5 0
v -2.5 -2.5 0
v -2.5 0 0
v 0 0 0

# Texture cooridinates (Count = 8)
vt 0.0001220703 0.0001220703
vt 0.9998779 0.0001220703
vt 0.9998779 0.9998779
vt 0.0001220703 0.9998779
vt 0.0001219116 0.0001220703
vt 0.9985777 0.0001220703
vt 0.9985777 0.9998779
vt 0.0001219116 0.9998779

# Normal
vn 0 0 -1

# Groups (Count = 4)

g mesh_0001
f 1/1/1 2/2/1 3/3/1 4/4/1

g mesh_0002
f 5/1/1 6/2/1 2/3/1 1/4/1
f 7/1/1 8/2/1 9/3/1 10/4/1
f 11/1/1 12/2/1 7/3/1 13/4/1
f 14/1/1 15/2/1 16/3/1 17/4/1
f 18/1/1 19/2/1 14/3/1 20/4/1
f 21/1/1 22/2/1 19/3/1 18/4/1
f 23/1/1 24/2/1 25/3/1 26/4/1
f 27/1/1 28/2/1 29/3/1 24/4/1
f 30/1/1 31/2/1 32/3/1 33/4/1
f 34/1/1 35/2/1 31/3/1 30/4/1
f 36/1/1 37/2/1 38/3/1 39/4/1
f 37/1/1 40/2/1 41/3/1 38/4/1
f 42/1/1 43/2/1 36/3/1 44/4/1
f 45/1/1 46/2/1 47/3/1 48/4/1
f 49/1/1 50/2/1 51/3/1 52/4/1
f 53/1/1 54/2/1 55/3/1 50/4/1
f 54/1/1 56/2/1 57/3/1 55/4/1
f 58/1/1 59/2/1 60/3/1 56/4/1
f 61/1/1 62/2/1 59/3/1 58/4/1
f 63/1/1 64/2/1 65/3/1 66/4/1
f 67/1/1 68/2/1 64/3/1 63/4/1
f 69/1/1 70/2/1 68/3/1 67/4/1
f 71/1/1 72/2/1 70/3/1 69/4/1
f 73/1/1 74/2/1 72/3/1 71/4/1
f 75/1/1 76/2/1 74/3/1 73/4/1
f 77/1/1 78/2/1 76/3/1 75/4/1

g mesh_0003
f 79/1/1 80/2/1 81/3/1 82/4/1

g mesh_0004
f 83/5/1 84/6/1 85/7/1 86/8/1

g mesh_tile_0011
f 87/1/1 88/2/1 89/3/1 90/4/1

g mesh_tile_0002
f 87/1/1 88/2/1 89/3/1 90/4/1

g mesh_tile_0004
f 87/1/1 88/2/1 89/3/1 90/4/1

