# Wavefront OBJ file automatically generated by Tiled2Unity

# Vertices (Count = 160)
v -4250 -1500 0
v -4500 -1500 0
v -4500 -1250 0
v -4250 -1250 0
v -4250 -1750 0
v -4500 -1750 0
v -2000 -8500 0
v -2250 -8500 0
v -2250 -8250 0
v -2000 -8250 0
v -4750 -1750 0
v -4750 -1500 0
v -4750 -2000 0
v -5000 -2000 0
v -5000 -1750 0
v -4500 -2250 0
v -4750 -2250 0
v -4500 -2000 0
v -4000 -3750 0
v -4250 -3750 0
v -4250 -3500 0
v -4000 -3500 0
v -3750 -4000 0
v -4000 -4000 0
v -3750 -3750 0
v -3750 -4250 0
v -4000 -4250 0
v -3750 -4500 0
v -4000 -4500 0
v -2250 -8000 0
v -2000 -8000 0
v -3000 -9250 0
v -3250 -9250 0
v -3250 -9000 0
v -3000 -9000 0
v -3000 -10250 0
v -3250 -10250 0
v -3250 -10000 0
v -3000 -10000 0
v -3000 -10750 0
v -3250 -10750 0
v -3250 -10500 0
v -3000 -10500 0
v -3000 -11000 0
v -3250 -11000 0
v -2000 -11250 0
v -2250 -11250 0
v -2250 -11000 0
v -2000 -11000 0
v -1750 -12250 0
v -2000 -12250 0
v -2000 -12000 0
v -1750 -12000 0
v -1750 -12750 0
v -2000 -12750 0
v -2000 -12500 0
v -1750 -12500 0
v -1750 -13250 0
v -2000 -13250 0
v -2000 -13000 0
v -1750 -13000 0
v -1750 -13500 0
v -2000 -13500 0
v -1750 -13750 0
v -2000 -13750 0
v -1750 -14000 0
v -2000 -14000 0
v -1750 -14250 0
v -2000 -14250 0
v -1750 -14500 0
v -2000 -14500 0
v -5000 -1500 0
v -4250 -2250 0
v -4250 -2000 0
v -3750 -3500 0
v -5000 -2250 0
v -4500 -3750 0
v -4500 -3500 0
v -3750 -7250 0
v -4000 -7250 0
v -4000 -7000 0
v -3750 -7000 0
v -3000 -11250 0
v -3250 -11250 0
v -4250 -2500 0
v -4500 -2500 0
v -3750 -5000 0
v -4000 -5000 0
v -4000 -4750 0
v -3750 -4750 0
v -3750 -6000 0
v -4000 -6000 0
v -4000 -5750 0
v -3750 -5750 0
v -3000 -9500 0
v -3250 -9500 0
v -4250 -3000 0
v -4500 -3000 0
v -4500 -2750 0
v -4250 -2750 0
v -3750 -6500 0
v -4000 -6500 0
v -4000 -6250 0
v -3750 -6250 0
v -4500 -3250 0
v -4250 -3250 0
v -3750 -5500 0
v -4000 -5500 0
v -4000 -5250 0
v -3750 -5250 0
v -4000 -6750 0
v -3750 -6750 0
v -2000 -7750 0
v -2250 -7750 0
v -2250 -7500 0
v -2000 -7500 0
v -3250 -8750 0
v -3000 -8750 0
v -3250 -9750 0
v -3000 -9750 0
v -1750 -11750 0
v -2000 -11750 0
v -2000 -11500 0
v -1750 -11500 0
v -2000 -7250 0
v -2250 -7250 0
v -2250 -7000 0
v -2000 -7000 0
v -2750 -7250 0
v -3000 -7250 0
v -3000 -7000 0
v -2750 -7000 0
v -3500 -7250 0
v -3500 -7000 0
v -2750 -8500 0
v -3000 -8500 0
v -3000 -8250 0
v -2750 -8250 0
v -1750 -11250 0
v -1750 -11000 0
v -2750 -11250 0
v -2750 -11000 0
v -2500 -7250 0
v -2500 -7000 0
v -3250 -7250 0
v -3250 -7000 0
v -2500 -8500 0
v -2500 -8250 0
v -3250 -8500 0
v -3250 -8250 0
v -2500 -11250 0
v -2500 -11000 0
v -1500 -15000 0
v -2250 -15000 0
v -2250 -14250 0
v -1500 -14250 0
v 0 -250 0
v -250 -250 0
v -250 0 0
v 0 0 0

# Texture cooridinates (Count = 8)
vt 0.0001220703 0.0001220703
vt 0.9998779 0.0001220703
vt 0.9998779 0.9998779
vt 0.0001220703 0.9998779
vt 0.0001219078 0.0001220703
vt 0.9985465 0.0001220703
vt 0.9985465 0.9998779
vt 0.0001219078 0.9998779

# Normal
vn 0 0 -1

# Groups (Count = 3)

g mesh_0001
f 1/1/1 2/2/1 3/3/1 4/4/1

g mesh_0002
f 5/1/1 6/2/1 2/3/1 1/4/1
f 7/1/1 8/2/1 9/3/1 10/4/1

g mesh_0003
f 6/1/1 11/2/1 12/3/1 2/4/1
f 13/1/1 14/2/1 15/3/1 11/4/1
f 16/1/1 17/2/1 13/3/1 18/4/1
f 19/1/1 20/2/1 21/3/1 22/4/1
f 23/1/1 24/2/1 19/3/1 25/4/1
f 26/1/1 27/2/1 24/3/1 23/4/1
f 28/1/1 29/2/1 27/3/1 26/4/1
f 10/1/1 9/2/1 30/3/1 31/4/1
f 32/1/1 33/2/1 34/3/1 35/4/1
f 36/1/1 37/2/1 38/3/1 39/4/1
f 40/1/1 41/2/1 42/3/1 43/4/1
f 44/1/1 45/2/1 41/3/1 40/4/1
f 46/1/1 47/2/1 48/3/1 49/4/1
f 50/1/1 51/2/1 52/3/1 53/4/1
f 54/1/1 55/2/1 56/3/1 57/4/1
f 58/1/1 59/2/1 60/3/1 61/4/1
f 62/1/1 63/2/1 59/3/1 58/4/1
f 64/1/1 65/2/1 63/3/1 62/4/1
f 66/1/1 67/2/1 65/3/1 64/4/1
f 68/1/1 69/2/1 67/3/1 66/4/1
f 70/1/1 71/2/1 69/3/1 68/4/1

g mesh_0004
f 11/1/1 15/2/1 72/3/1 12/4/1

g mesh_0005
f 73/1/1 16/2/1 18/3/1 74/4/1
f 25/1/1 19/2/1 22/3/1 75/4/1

g mesh_0006
f 17/1/1 76/2/1 14/3/1 13/4/1
f 20/1/1 77/2/1 78/3/1 21/4/1
f 79/1/1 80/2/1 81/3/1 82/4/1
f 83/1/1 84/2/1 45/3/1 44/4/1

g mesh_0007
f 85/1/1 86/2/1 16/3/1 73/4/1
f 87/1/1 88/2/1 89/3/1 90/4/1
f 91/1/1 92/2/1 93/3/1 94/4/1
f 95/1/1 96/2/1 33/3/1 32/4/1

g mesh_0008
f 97/1/1 98/2/1 99/3/1 100/4/1
f 101/1/1 102/2/1 103/3/1 104/4/1

g mesh_0009
f 21/1/1 78/2/1 105/3/1 106/4/1
f 107/1/1 108/2/1 109/3/1 110/4/1
f 82/1/1 81/2/1 111/3/1 112/4/1
f 113/1/1 114/2/1 115/3/1 116/4/1
f 35/1/1 34/2/1 117/3/1 118/4/1
f 39/1/1 38/2/1 119/3/1 120/4/1
f 121/1/1 122/2/1 123/3/1 124/4/1

g mesh_0010
f 125/1/1 126/2/1 127/3/1 128/4/1
f 129/1/1 130/2/1 131/3/1 132/4/1
f 133/1/1 79/2/1 82/3/1 134/4/1
f 135/1/1 136/2/1 137/3/1 138/4/1
f 139/1/1 46/2/1 49/3/1 140/4/1
f 141/1/1 83/2/1 44/3/1 142/4/1

g mesh_0011
f 126/1/1 143/2/1 144/3/1 127/4/1
f 130/1/1 145/2/1 146/3/1 131/4/1
f 8/1/1 147/2/1 148/3/1 9/4/1
f 136/1/1 149/2/1 150/3/1 137/4/1
f 47/1/1 151/2/1 152/3/1 48/4/1

g mesh_0012
f 153/5/1 154/6/1 155/7/1 156/8/1

g mesh_tile_0003
f 157/1/1 158/2/1 159/3/1 160/4/1

g mesh_tile_0001
f 157/1/1 158/2/1 159/3/1 160/4/1

