# Wavefront OBJ file automatically generated by Tiled2Unity

# Vertices (Count = 8)
v -7500 -10500 0
v -8250 -10500 0
v -8250 -9750 0
v -7500 -9750 0
v 0 -250 0
v -250 -250 0
v -250 0 0
v 0 0 0

# Texture cooridinates (Count = 4)
vt 0.0001220703 0.0001220703
vt 0.9998779 0.0001220703
vt 0.9998779 0.9998779
vt 0.0001220703 0.9998779

# Normal
vn 0 0 -1

# Groups (Count = 7)

g mesh_0001
f 1/1/1 2/2/1 3/3/1 4/4/1

g mesh_tile_0005
f 5/1/1 6/2/1 7/3/1 8/4/1

g mesh_tile_0015
f 5/1/1 6/2/1 7/3/1 8/4/1

g mesh_tile_0017
f 5/1/1 6/2/1 7/3/1 8/4/1

g mesh_tile_0009
f 5/1/1 6/2/1 7/3/1 8/4/1

g mesh_tile_0008
f 5/1/1 6/2/1 7/3/1 8/4/1

g mesh_tile_0003
f 5/1/1 6/2/1 7/3/1 8/4/1

