# Wavefront OBJ file automatically generated by Tiled2Unity

# Vertices (Count = 207)
v -7.5 -2.5 0
v -10 -2.5 0
v -10 0 0
v -7.5 0 0
v -7.5 -5 0
v -10 -5 0
v -7.5 -10 0
v -10 -10 0
v -10 -7.5 0
v -7.5 -7.5 0
v -7.5 -12.5 0
v -10 -12.5 0
v -32.5 -12.5 0
v -35 -12.5 0
v -35 -10 0
v -32.5 -10 0
v -37.5 -12.5 0
v -37.5 -10 0
v -35 -17.5 0
v -37.5 -17.5 0
v -37.5 -15 0
v -35 -15 0
v -35 -20 0
v -37.5 -20 0
v -35 -25 0
v -37.5 -25 0
v -37.5 -22.5 0
v -35 -22.5 0
v -22.5 -45 0
v -25 -45 0
v -25 -42.5 0
v -22.5 -42.5 0
v -22.5 -60 0
v -25 -60 0
v -25 -57.5 0
v -22.5 -57.5 0
v -22.5 -62.5 0
v -25 -62.5 0
v -42.5 -62.5 0
v -45 -62.5 0
v -45 -60 0
v -42.5 -60 0
v -47.5 -62.5 0
v -47.5 -60 0
v -50 -62.5 0
v -52.5 -62.5 0
v -52.5 -60 0
v -50 -60 0
v -27.5 -87.5 0
v -30 -87.5 0
v -30 -85 0
v -27.5 -85 0
v -27.5 -92.5 0
v -30 -92.5 0
v -30 -90 0
v -27.5 -90 0
v -25 -97.5 0
v -27.5 -97.5 0
v -27.5 -95 0
v -25 -95 0
v -25 -102.5 0
v -27.5 -102.5 0
v -27.5 -100 0
v -25 -100 0
v -12.5 -12.5 0
v -15 -12.5 0
v -15 -10 0
v -12.5 -10 0
v -17.5 -12.5 0
v -20 -12.5 0
v -20 -10 0
v -17.5 -10 0
v -22.5 -12.5 0
v -25 -12.5 0
v -25 -10 0
v -22.5 -10 0
v -27.5 -12.5 0
v -30 -12.5 0
v -30 -10 0
v -27.5 -10 0
v -22.5 -50 0
v -25 -50 0
v -25 -47.5 0
v -22.5 -47.5 0
v -22.5 -55 0
v -25 -55 0
v -25 -52.5 0
v -22.5 -52.5 0
v -27.5 -62.5 0
v -30 -62.5 0
v -30 -60 0
v -27.5 -60 0
v -32.5 -62.5 0
v -35 -62.5 0
v -35 -60 0
v -32.5 -60 0
v -37.5 -62.5 0
v -40 -62.5 0
v -40 -60 0
v -37.5 -60 0
v -25 -27.5 0
v -27.5 -27.5 0
v -27.5 -25 0
v -25 -25 0
v -35 -27.5 0
v -37.5 -27.5 0
v -25 -35 0
v -27.5 -35 0
v -27.5 -32.5 0
v -25 -32.5 0
v -30 -35 0
v -30 -32.5 0
v -27.5 -37.5 0
v -30 -37.5 0
v -32.5 -37.5 0
v -32.5 -35 0
v -30 -40 0
v -32.5 -40 0
v -35 -40 0
v -35 -37.5 0
v -25 -40 0
v -22.5 -40 0
v -32.5 -42.5 0
v -35 -42.5 0
v -55 -62.5 0
v -57.5 -62.5 0
v -57.5 -60 0
v -55 -60 0
v -52.5 -70 0
v -55 -70 0
v -55 -67.5 0
v -52.5 -67.5 0
v -57.5 -70 0
v -57.5 -67.5 0
v -42.5 -72.5 0
v -45 -72.5 0
v -45 -70 0
v -42.5 -70 0
v -52.5 -72.5 0
v -55 -72.5 0
v -30 -82.5 0
v -32.5 -82.5 0
v -32.5 -80 0
v -30 -80 0
v -42.5 -82.5 0
v -45 -82.5 0
v -45 -80 0
v -42.5 -80 0
v -27.5 -82.5 0
v -32.5 -85 0
v -25 -92.5 0
v -30 -95 0
v -30 -27.5 0
v -30 -25 0
v -32.5 -27.5 0
v -32.5 -25 0
v -25 -30 0
v -27.5 -30 0
v -27.5 -42.5 0
v -27.5 -40 0
v -30 -42.5 0
v -55 -65 0
v -57.5 -65 0
v -47.5 -72.5 0
v -47.5 -70 0
v -50 -72.5 0
v -50 -70 0
v -42.5 -75 0
v -45 -75 0
v -42.5 -77.5 0
v -45 -77.5 0
v -35 -82.5 0
v -35 -80 0
v -37.5 -82.5 0
v -37.5 -80 0
v -40 -82.5 0
v -40 -80 0
v -25 -105 0
v -27.5 -105 0
v -25 -107.5 0
v -27.5 -107.5 0
v -25 -110 0
v -27.5 -110 0
v -25 -112.5 0
v -27.5 -112.5 0
v -25 -115 0
v -27.5 -115 0
v -25 -117.5 0
v -27.5 -117.5 0
v -25 -120 0
v -27.5 -120 0
v -22.5 -120 0
v -22.5 -117.5 0
v -30 -120 0
v -30 -117.5 0
v -22.5 -122.5 0
v -25 -122.5 0
v -27.5 -122.5 0
v -30 -122.5 0
v -22.5 -125 0
v -25 -125 0
v -27.5 -125 0
v -30 -125 0
v 0 -2.5 0
v -2.5 -2.5 0
v -2.5 0 0
v 0 0 0

# Texture cooridinates (Count = 36)
vt 0.0001220703 0.0001220703
vt 0.9998779 0.0001220703
vt 0.9998779 0.9998779
vt 0.0001220703 0.9998779
vt 4.069011E-05 0.6667074
vt 0.3332926 0.6667074
vt 0.3332926 0.9999593
vt 4.069011E-05 0.9999593
vt 0.6667073 0.6667074
vt 0.9999593 0.6667074
vt 0.9999593 0.9999593
vt 0.6667073 0.9999593
vt 4.069011E-05 0.333374
vt 0.3332926 0.333374
vt 0.3332926 0.666626
vt 4.069011E-05 0.666626
vt 0.333374 0.333374
vt 0.666626 0.333374
vt 0.666626 0.666626
vt 0.333374 0.666626
vt 0.6667073 0.333374
vt 0.9999593 0.333374
vt 0.9999593 0.666626
vt 0.6667073 0.666626
vt 4.069011E-05 4.070997E-05
vt 0.3332926 4.070997E-05
vt 0.3332926 0.3332927
vt 4.069011E-05 0.3332927
vt 0.333374 4.070997E-05
vt 0.666626 4.070997E-05
vt 0.666626 0.3332927
vt 0.333374 0.3332927
vt 0.6667073 4.070997E-05
vt 0.9999593 4.070997E-05
vt 0.9999593 0.3332927
vt 0.6667073 0.3332927

# Normal
vn 0 0 -1

# Groups (Count = 2)

g mesh_0001
f 1/1/1 2/2/1 3/3/1 4/4/1

g mesh_0002
f 5/3/1 6/4/1 2/1/1 1/2/1
f 7/1/1 8/2/1 9/3/1 10/4/1
f 11/3/1 12/4/1 8/1/1 7/2/1
f 13/4/1 14/1/1 15/2/1 16/3/1
f 14/2/1 17/3/1 18/4/1 15/1/1
f 19/1/1 20/2/1 21/3/1 22/4/1
f 23/3/1 24/4/1 20/1/1 19/2/1
f 25/1/1 26/2/1 27/3/1 28/4/1
f 29/3/1 30/4/1 31/1/1 32/2/1
f 33/1/1 34/2/1 35/3/1 36/4/1
f 37/3/1 38/4/1 34/1/1 33/2/1
f 39/4/1 40/1/1 41/2/1 42/3/1
f 40/2/1 43/3/1 44/4/1 41/1/1
f 45/4/1 46/1/1 47/2/1 48/3/1
f 49/3/1 50/4/1 51/1/1 52/2/1
f 53/1/1 54/2/1 55/3/1 56/4/1
f 57/3/1 58/4/1 59/1/1 60/2/1
f 61/1/1 62/2/1 63/3/1 64/4/1

g mesh_0003
f 65/1/1 66/2/1 67/3/1 68/4/1
f 69/1/1 70/2/1 71/3/1 72/4/1
f 73/1/1 74/2/1 75/3/1 76/4/1
f 77/1/1 78/2/1 79/3/1 80/4/1
f 81/1/1 82/2/1 83/3/1 84/4/1
f 85/1/1 86/2/1 87/3/1 88/4/1
f 89/1/1 90/2/1 91/3/1 92/4/1
f 93/1/1 94/2/1 95/3/1 96/4/1
f 97/1/1 98/2/1 99/3/1 100/4/1

g mesh_0004
f 101/1/1 102/2/1 103/3/1 104/4/1
f 105/3/1 106/4/1 26/1/1 25/2/1
f 107/4/1 108/1/1 109/2/1 110/3/1
f 108/2/1 111/3/1 112/4/1 109/1/1
f 113/4/1 114/1/1 111/2/1 108/3/1
f 114/2/1 115/3/1 116/4/1 111/1/1
f 117/4/1 118/1/1 115/2/1 114/3/1
f 118/2/1 119/3/1 120/4/1 115/1/1
f 32/1/1 31/2/1 121/3/1 122/4/1
f 123/3/1 124/4/1 119/1/1 118/2/1
f 125/2/1 126/3/1 127/4/1 128/1/1
f 129/1/1 130/2/1 131/3/1 132/4/1
f 130/3/1 133/4/1 134/1/1 131/2/1
f 135/1/1 136/2/1 137/3/1 138/4/1
f 139/3/1 140/4/1 130/1/1 129/2/1
f 141/1/1 142/2/1 143/3/1 144/4/1
f 145/3/1 146/4/1 147/1/1 148/2/1
f 52/1/1 51/2/1 141/3/1 149/4/1
f 51/3/1 150/4/1 142/1/1 141/2/1
f 60/1/1 59/2/1 53/3/1 151/4/1
f 59/3/1 152/4/1 54/1/1 53/2/1

g mesh_0005
f 102/1/1 153/2/1 154/3/1 103/4/1
f 153/1/1 155/2/1 156/3/1 154/4/1
f 155/1/1 105/2/1 25/3/1 156/4/1
f 157/1/1 158/2/1 102/3/1 101/4/1
f 110/1/1 109/2/1 158/3/1 157/4/1
f 31/1/1 159/2/1 160/3/1 121/4/1
f 159/1/1 161/2/1 117/3/1 160/4/1
f 161/1/1 123/2/1 118/3/1 117/4/1
f 46/1/1 125/2/1 128/3/1 47/4/1
f 162/1/1 163/2/1 126/3/1 125/4/1
f 131/1/1 134/2/1 163/3/1 162/4/1
f 136/1/1 164/2/1 165/3/1 137/4/1
f 164/1/1 166/2/1 167/3/1 165/4/1
f 166/1/1 139/2/1 129/3/1 167/4/1
f 168/1/1 169/2/1 136/3/1 135/4/1
f 170/1/1 171/2/1 169/3/1 168/4/1
f 148/1/1 147/2/1 171/3/1 170/4/1
f 142/1/1 172/2/1 173/3/1 143/4/1
f 172/1/1 174/2/1 175/3/1 173/4/1
f 174/1/1 176/2/1 177/3/1 175/4/1
f 176/1/1 145/2/1 148/3/1 177/4/1
f 178/1/1 179/2/1 62/3/1 61/4/1
f 180/1/1 181/2/1 179/3/1 178/4/1
f 182/1/1 183/2/1 181/3/1 180/4/1
f 184/1/1 185/2/1 183/3/1 182/4/1
f 186/1/1 187/2/1 185/3/1 184/4/1
f 188/1/1 189/2/1 187/3/1 186/4/1
f 190/1/1 191/2/1 189/3/1 188/4/1

g mesh_0006
f 192/5/1 190/6/1 188/7/1 193/8/1
f 191/9/1 194/10/1 195/11/1 189/12/1
f 196/13/1 197/14/1 190/15/1 192/16/1
f 197/17/1 198/18/1 191/19/1 190/20/1
f 198/21/1 199/22/1 194/23/1 191/24/1
f 200/25/1 201/26/1 197/27/1 196/28/1
f 201/29/1 202/30/1 198/31/1 197/32/1
f 202/33/1 203/34/1 199/35/1 198/36/1

g mesh_tile_0013
f 204/1/1 205/2/1 206/3/1 207/4/1

