# Wavefront OBJ file automatically generated by Tiled2Unity

# Vertices (Count = 153)
v -5750 -2000 0
v -6000 -2000 0
v -6000 -1750 0
v -5750 -1750 0
v -5750 -2250 0
v -6000 -2250 0
v -6000 -2500 0
v -6250 -2500 0
v -6250 -2250 0
v -6500 -3500 0
v -6750 -3500 0
v -6750 -3250 0
v -6500 -3250 0
v -8250 -7000 0
v -8500 -7000 0
v -8500 -6750 0
v -8250 -6750 0
v -6000 -12250 0
v -6250 -12250 0
v -6250 -12000 0
v -6000 -12000 0
v -6000 -12500 0
v -6250 -12500 0
v -6000 -12750 0
v -6250 -12750 0
v -6000 -13000 0
v -6250 -13000 0
v -6000 -13250 0
v -6250 -13250 0
v -5750 -2500 0
v -6250 -3250 0
v -6500 -3000 0
v -6250 -3000 0
v -6500 -3750 0
v -6750 -3750 0
v -8000 -7000 0
v -8000 -6750 0
v -6500 -2500 0
v -6500 -2250 0
v -7000 -3750 0
v -7000 -3500 0
v -8000 -3750 0
v -8250 -3750 0
v -8250 -3500 0
v -8000 -3500 0
v -7500 -5000 0
v -7750 -5000 0
v -7750 -4750 0
v -7500 -4750 0
v -8000 -5250 0
v -8250 -5250 0
v -8250 -5000 0
v -8000 -5000 0
v -7000 -9250 0
v -7250 -9250 0
v -7250 -9000 0
v -7000 -9000 0
v -6250 -11500 0
v -6500 -11500 0
v -6500 -11250 0
v -6250 -11250 0
v -6500 -2750 0
v -6250 -2750 0
v -8000 -4750 0
v -8250 -4750 0
v -8250 -4500 0
v -8000 -4500 0
v -8250 -6500 0
v -8000 -6500 0
v -8500 -8250 0
v -8750 -8250 0
v -8750 -8000 0
v -8500 -8000 0
v -8500 -9000 0
v -8750 -9000 0
v -8750 -8750 0
v -8500 -8750 0
v -6750 -10000 0
v -7000 -10000 0
v -7000 -9750 0
v -6750 -9750 0
v -6750 -11250 0
v -7000 -11250 0
v -7000 -11000 0
v -6750 -11000 0
v -6250 -11750 0
v -6000 -11750 0
v -6750 -3000 0
v -8750 -7000 0
v -8750 -6750 0
v -7250 -3750 0
v -7500 -3750 0
v -7500 -3500 0
v -7250 -3500 0
v -8000 -4250 0
v -8250 -4250 0
v -8250 -4000 0
v -8000 -4000 0
v -8000 -5750 0
v -8250 -5750 0
v -8250 -5500 0
v -8000 -5500 0
v -8000 -6250 0
v -8250 -6250 0
v -8250 -6000 0
v -8000 -6000 0
v -8500 -7750 0
v -8750 -7750 0
v -8750 -7500 0
v -8500 -7500 0
v -7500 -9250 0
v -7750 -9250 0
v -7750 -9000 0
v -7500 -9000 0
v -8000 -9250 0
v -8250 -9250 0
v -8250 -9000 0
v -8000 -9000 0
v -6750 -10750 0
v -7000 -10750 0
v -7000 -10500 0
v -6750 -10500 0
v -7750 -3750 0
v -7750 -3500 0
v -7750 -5250 0
v -6000 -11500 0
v -6000 -11250 0
v -7250 -5000 0
v -7250 -4750 0
v -6750 -9250 0
v -6750 -9000 0
v -7250 -5250 0
v -7500 -5250 0
v -8500 -7250 0
v -8750 -7250 0
v -8500 -8500 0
v -8750 -8500 0
v -8500 -9250 0
v -8750 -9250 0
v -6750 -9500 0
v -7000 -9500 0
v -6750 -10250 0
v -7000 -10250 0
v -6750 -11500 0
v -7000 -11500 0
v -5750 -13750 0
v -6500 -13750 0
v -6500 -13000 0
v -5750 -13000 0
v 0 -250 0
v -250 -250 0
v -250 0 0
v 0 0 0

# Texture cooridinates (Count = 8)
vt 0.0001220703 0.0001220703
vt 0.9998779 0.0001220703
vt 0.9998779 0.9998779
vt 0.0001220703 0.9998779
vt 0.0001219078 0.0001220703
vt 0.9985465 0.0001220703
vt 0.9985465 0.9998779
vt 0.0001219078 0.9998779

# Normal
vn 0 0 -1

# Groups (Count = 2)

g mesh_0001
f 1/1/1 2/2/1 3/3/1 4/4/1

g mesh_0002
f 5/1/1 6/2/1 2/3/1 1/4/1
f 7/1/1 8/2/1 9/3/1 6/4/1
f 10/1/1 11/2/1 12/3/1 13/4/1
f 14/1/1 15/2/1 16/3/1 17/4/1
f 18/1/1 19/2/1 20/3/1 21/4/1
f 22/1/1 23/2/1 19/3/1 18/4/1
f 24/1/1 25/2/1 23/3/1 22/4/1
f 26/1/1 27/2/1 25/3/1 24/4/1
f 28/1/1 29/2/1 27/3/1 26/4/1

g mesh_0003
f 30/1/1 7/2/1 6/3/1 5/4/1
f 31/1/1 13/2/1 32/3/1 33/4/1
f 34/1/1 35/2/1 11/3/1 10/4/1
f 36/1/1 14/2/1 17/3/1 37/4/1

g mesh_0004
f 8/1/1 38/2/1 39/3/1 9/4/1
f 35/1/1 40/2/1 41/3/1 11/4/1
f 42/1/1 43/2/1 44/3/1 45/4/1
f 46/1/1 47/2/1 48/3/1 49/4/1
f 50/1/1 51/2/1 52/3/1 53/4/1
f 54/1/1 55/2/1 56/3/1 57/4/1
f 58/1/1 59/2/1 60/3/1 61/4/1

g mesh_0005
f 33/1/1 32/2/1 62/3/1 63/4/1
f 64/1/1 65/2/1 66/3/1 67/4/1
f 37/1/1 17/2/1 68/3/1 69/4/1
f 70/1/1 71/2/1 72/3/1 73/4/1
f 74/1/1 75/2/1 76/3/1 77/4/1
f 78/1/1 79/2/1 80/3/1 81/4/1
f 82/1/1 83/2/1 84/3/1 85/4/1
f 21/1/1 20/2/1 86/3/1 87/4/1

g mesh_0006
f 13/1/1 12/2/1 88/3/1 32/4/1
f 15/1/1 89/2/1 90/3/1 16/4/1

g mesh_0007
f 91/1/1 92/2/1 93/3/1 94/4/1
f 95/1/1 96/2/1 97/3/1 98/4/1
f 99/1/1 100/2/1 101/3/1 102/4/1
f 103/1/1 104/2/1 105/3/1 106/4/1
f 107/1/1 108/2/1 109/3/1 110/4/1
f 111/1/1 112/2/1 113/3/1 114/4/1
f 115/1/1 116/2/1 117/3/1 118/4/1
f 119/1/1 120/2/1 121/3/1 122/4/1

g mesh_0008
f 123/1/1 42/2/1 45/3/1 124/4/1
f 125/1/1 50/2/1 53/3/1 47/4/1
f 126/1/1 58/2/1 61/3/1 127/4/1

g mesh_0009
f 128/1/1 46/2/1 49/3/1 129/4/1
f 130/1/1 54/2/1 57/3/1 131/4/1

g mesh_0010
f 53/1/1 52/2/1 65/3/1 64/4/1
f 132/1/1 133/2/1 46/3/1 128/4/1
f 134/1/1 135/2/1 89/3/1 15/4/1
f 136/1/1 137/2/1 71/3/1 70/4/1
f 138/1/1 139/2/1 75/3/1 74/4/1
f 140/1/1 141/2/1 54/3/1 130/4/1
f 142/1/1 143/2/1 79/3/1 78/4/1
f 144/1/1 145/2/1 83/3/1 82/4/1

g mesh_0011
f 146/5/1 147/6/1 148/7/1 149/8/1

g mesh_tile_0012
f 150/1/1 151/2/1 152/3/1 153/4/1

