# Wavefront OBJ file automatically generated by Tiled2Unity

# Vertices (Count = 165)
v -27.5 -10 0
v -30 -10 0
v -30 -7.5 0
v -27.5 -7.5 0
v -27.5 -12.5 0
v -30 -12.5 0
v -27.5 -15 0
v -30 -15 0
v -32.5 -22.5 0
v -35 -22.5 0
v -35 -20 0
v -32.5 -20 0
v -30 -25 0
v -32.5 -25 0
v -30 -22.5 0
v -30 -27.5 0
v -32.5 -27.5 0
v -30 -57.5 0
v -32.5 -57.5 0
v -32.5 -55 0
v -30 -55 0
v -42.5 -80 0
v -45 -80 0
v -45 -77.5 0
v -42.5 -77.5 0
v -45 -82.5 0
v -47.5 -82.5 0
v -47.5 -80 0
v -42.5 -85 0
v -45 -85 0
v -42.5 -82.5 0
v -40 -87.5 0
v -42.5 -87.5 0
v -40 -85 0
v -27.5 -110 0
v -30 -110 0
v -30 -107.5 0
v -27.5 -107.5 0
v -27.5 -112.5 0
v -30 -112.5 0
v -27.5 -115 0
v -30 -115 0
v -27.5 -117.5 0
v -30 -117.5 0
v -27.5 -120 0
v -30 -120 0
v -25 -17.5 0
v -27.5 -17.5 0
v -25 -15 0
v -30 -17.5 0
v -35 -17.5 0
v -32.5 -17.5 0
v -27.5 -25 0
v -27.5 -22.5 0
v -35 -25 0
v -27.5 -27.5 0
v -35 -27.5 0
v -32.5 -37.5 0
v -35 -37.5 0
v -35 -35 0
v -32.5 -35 0
v -22.5 -45 0
v -25 -45 0
v -25 -42.5 0
v -22.5 -42.5 0
v -32.5 -52.5 0
v -30 -52.5 0
v -27.5 -60 0
v -30 -60 0
v -27.5 -57.5 0
v -32.5 -60 0
v -40 -70 0
v -42.5 -70 0
v -42.5 -67.5 0
v -40 -67.5 0
v -40 -80 0
v -40 -77.5 0
v -47.5 -77.5 0
v -40 -82.5 0
v -47.5 -85 0
v -25 -20 0
v -27.5 -20 0
v -30 -20 0
v -32.5 -30 0
v -35 -30 0
v -35 -32.5 0
v -32.5 -32.5 0
v -30 -37.5 0
v -30 -35 0
v -30 -42.5 0
v -32.5 -42.5 0
v -32.5 -40 0
v -30 -40 0
v -27.5 -45 0
v -27.5 -42.5 0
v -30 -45 0
v -32.5 -45 0
v -22.5 -47.5 0
v -25 -47.5 0
v -22.5 -52.5 0
v -25 -52.5 0
v -25 -50 0
v -22.5 -50 0
v -22.5 -55 0
v -25 -55 0
v -27.5 -55 0
v -27.5 -52.5 0
v -27.5 -62.5 0
v -30 -62.5 0
v -27.5 -67.5 0
v -30 -67.5 0
v -30 -65 0
v -27.5 -65 0
v -27.5 -70 0
v -30 -70 0
v -37.5 -70 0
v -37.5 -67.5 0
v -40 -72.5 0
v -42.5 -72.5 0
v -42.5 -75 0
v -40 -75 0
v -27.5 -90 0
v -30 -90 0
v -30 -87.5 0
v -27.5 -87.5 0
v -32.5 -90 0
v -32.5 -87.5 0
v -40 -90 0
v -42.5 -90 0
v -27.5 -100 0
v -30 -100 0
v -30 -97.5 0
v -27.5 -97.5 0
v -27.5 -102.5 0
v -30 -102.5 0
v -30 -105 0
v -27.5 -105 0
v -32.5 -70 0
v -35 -70 0
v -35 -67.5 0
v -32.5 -67.5 0
v -35 -90 0
v -37.5 -90 0
v -37.5 -87.5 0
v -35 -87.5 0
v -27.5 -95 0
v -30 -95 0
v -30 -92.5 0
v -27.5 -92.5 0
v -25 -120 0
v -25 -117.5 0
v -32.5 -120 0
v -32.5 -117.5 0
v -25 -122.5 0
v -27.5 -122.5 0
v -30 -122.5 0
v -32.5 -122.5 0
v -25 -125 0
v -27.5 -125 0
v -30 -125 0
v -32.5 -125 0
v 0 -2.5 0
v -2.5 -2.5 0
v -2.5 0 0
v 0 0 0

# Texture cooridinates (Count = 36)
vt 0.0001220703 0.0001220703
vt 0.9998779 0.0001220703
vt 0.9998779 0.9998779
vt 0.0001220703 0.9998779
vt 4.069011E-05 0.6667074
vt 0.3332926 0.6667074
vt 0.3332926 0.9999593
vt 4.069011E-05 0.9999593
vt 0.6667073 0.6667074
vt 0.9999593 0.6667074
vt 0.9999593 0.9999593
vt 0.6667073 0.9999593
vt 4.069011E-05 0.333374
vt 0.3332926 0.333374
vt 0.3332926 0.666626
vt 4.069011E-05 0.666626
vt 0.333374 0.333374
vt 0.666626 0.333374
vt 0.666626 0.666626
vt 0.333374 0.666626
vt 0.6667073 0.333374
vt 0.9999593 0.333374
vt 0.9999593 0.666626
vt 0.6667073 0.666626
vt 4.069011E-05 4.070997E-05
vt 0.3332926 4.070997E-05
vt 0.3332926 0.3332927
vt 4.069011E-05 0.3332927
vt 0.333374 4.070997E-05
vt 0.666626 4.070997E-05
vt 0.666626 0.3332927
vt 0.333374 0.3332927
vt 0.6667073 4.070997E-05
vt 0.9999593 4.070997E-05
vt 0.9999593 0.3332927
vt 0.6667073 0.3332927

# Normal
vn 0 0 -1

# Groups (Count = 2)

g mesh_0001
f 1/1/1 2/2/1 3/3/1 4/4/1

g mesh_0002
f 5/1/1 6/2/1 2/3/1 1/4/1
f 7/1/1 8/2/1 6/3/1 5/4/1
f 9/1/1 10/2/1 11/3/1 12/4/1
f 13/1/1 14/2/1 9/3/1 15/4/1
f 16/1/1 17/2/1 14/3/1 13/4/1
f 18/1/1 19/2/1 20/3/1 21/4/1
f 22/1/1 23/2/1 24/3/1 25/4/1
f 26/1/1 27/2/1 28/3/1 23/4/1
f 29/1/1 30/2/1 26/3/1 31/4/1
f 32/1/1 33/2/1 29/3/1 34/4/1
f 35/1/1 36/2/1 37/3/1 38/4/1
f 39/1/1 40/2/1 36/3/1 35/4/1
f 41/1/1 42/2/1 40/3/1 39/4/1
f 43/1/1 44/2/1 42/3/1 41/4/1
f 45/1/1 46/2/1 44/3/1 43/4/1

g mesh_0003
f 47/1/1 48/2/1 7/3/1 49/4/1
f 48/3/1 50/4/1 8/1/1 7/2/1
f 12/2/1 11/3/1 51/4/1 52/1/1
f 53/1/1 13/2/1 15/3/1 54/4/1
f 14/3/1 55/4/1 10/1/1 9/2/1
f 56/4/1 16/1/1 13/2/1 53/3/1
f 17/2/1 57/3/1 55/4/1 14/1/1
f 58/3/1 59/4/1 60/1/1 61/2/1
f 62/1/1 63/2/1 64/3/1 65/4/1
f 21/2/1 20/3/1 66/4/1 67/1/1
f 68/1/1 69/2/1 18/3/1 70/4/1
f 69/3/1 71/4/1 19/1/1 18/2/1
f 72/2/1 73/3/1 74/4/1 75/1/1
f 76/4/1 22/1/1 25/2/1 77/3/1
f 23/2/1 28/3/1 78/4/1 24/1/1
f 34/1/1 29/2/1 31/3/1 79/4/1
f 30/3/1 80/4/1 27/1/1 26/2/1

g mesh_0004
f 81/3/1 82/4/1 48/1/1 47/2/1
f 83/4/1 12/1/1 52/2/1 50/3/1
f 84/3/1 85/4/1 57/1/1 17/2/1
f 61/1/1 60/2/1 86/3/1 87/4/1
f 88/4/1 58/1/1 61/2/1 89/3/1
f 90/1/1 91/2/1 92/3/1 93/4/1
f 63/2/1 94/3/1 95/4/1 64/1/1
f 96/3/1 97/4/1 91/1/1 90/2/1
f 98/3/1 99/4/1 63/1/1 62/2/1
f 100/1/1 101/2/1 102/3/1 103/4/1
f 104/3/1 105/4/1 101/1/1 100/2/1
f 106/4/1 21/1/1 67/2/1 107/3/1
f 108/3/1 109/4/1 69/1/1 68/2/1
f 110/1/1 111/2/1 112/3/1 113/4/1
f 114/3/1 115/4/1 111/1/1 110/2/1
f 116/4/1 72/1/1 75/2/1 117/3/1
f 118/3/1 119/4/1 73/1/1 72/2/1
f 77/1/1 25/2/1 120/3/1 121/4/1
f 122/4/1 123/1/1 124/2/1 125/3/1
f 123/2/1 126/3/1 127/4/1 124/1/1
f 128/3/1 129/4/1 33/1/1 32/2/1
f 130/1/1 131/2/1 132/3/1 133/4/1
f 134/3/1 135/4/1 131/1/1 130/2/1
f 38/1/1 37/2/1 136/3/1 137/4/1

g mesh_0005
f 138/1/1 139/2/1 140/3/1 141/4/1
f 142/1/1 143/2/1 144/3/1 145/4/1
f 146/1/1 147/2/1 148/3/1 149/4/1

g mesh_0006
f 150/5/1 45/6/1 43/7/1 151/8/1
f 46/9/1 152/10/1 153/11/1 44/12/1
f 154/13/1 155/14/1 45/15/1 150/16/1
f 155/17/1 156/18/1 46/19/1 45/20/1
f 156/21/1 157/22/1 152/23/1 46/24/1
f 158/25/1 159/26/1 155/27/1 154/28/1
f 159/29/1 160/30/1 156/31/1 155/32/1
f 160/33/1 161/34/1 157/35/1 156/36/1

g mesh_tile_0013
f 162/1/1 163/2/1 164/3/1 165/4/1

