# Wavefront OBJ file automatically generated by Tiled2Unity

# Vertices (Count = 105)
v -9500 -1000 0
v -9750 -1000 0
v -9750 -750 0
v -9500 -750 0
v -1000 -1250 0
v -1250 -1250 0
v -1250 -1000 0
v -1000 -1000 0
v -1500 -1250 0
v -1750 -1250 0
v -1750 -1000 0
v -1500 -1000 0
v -4000 -1250 0
v -4250 -1250 0
v -4250 -1000 0
v -4000 -1000 0
v -4500 -1250 0
v -4750 -1250 0
v -4750 -1000 0
v -4500 -1000 0
v -7000 -1250 0
v -7250 -1250 0
v -7250 -1000 0
v -7000 -1000 0
v -250 -3250 0
v -500 -3250 0
v -500 -3000 0
v -250 -3000 0
v -250 -6250 0
v -500 -6250 0
v -500 -6000 0
v -250 -6000 0
v -2250 -1250 0
v -2500 -1250 0
v -2500 -1000 0
v -2250 -1000 0
v -2750 -1250 0
v -2750 -1000 0
v -5500 -1250 0
v -5750 -1250 0
v -5750 -1000 0
v -5500 -1000 0
v -7750 -1250 0
v -8000 -1250 0
v -8000 -1000 0
v -7750 -1000 0
v -8250 -1250 0
v -8250 -1000 0
v -9250 -1250 0
v -9500 -1250 0
v -9250 -1000 0
v -250 -2250 0
v -500 -2250 0
v -500 -2000 0
v -250 -2000 0
v -250 -2500 0
v -500 -2500 0
v -250 -4000 0
v -500 -4000 0
v -500 -3750 0
v -250 -3750 0
v -250 -4250 0
v -500 -4250 0
v -250 -4750 0
v -500 -4750 0
v -500 -4500 0
v -250 -4500 0
v -250 -5250 0
v -500 -5250 0
v -500 -5000 0
v -250 -5000 0
v -250 -5500 0
v -500 -5500 0
v -250 -7000 0
v -500 -7000 0
v -500 -6750 0
v -250 -6750 0
v -250 -7250 0
v -500 -7250 0
v -250 -7500 0
v -500 -7500 0
v -250 -7750 0
v -500 -7750 0
v -250 -8000 0
v -500 -8000 0
v -250 -8250 0
v -500 -8250 0
v -250 -8500 0
v -500 -8500 0
v -250 -8750 0
v -500 -8750 0
v -250 -9000 0
v -500 -9000 0
v -250 -9250 0
v -500 -9250 0
v -250 -9500 0
v -500 -9500 0
v 0 -10000 0
v -768 -10000 0
v -768 -9232 0
v 0 -9232 0
v 0 -250 0
v -250 -250 0
v -250 0 0
v 0 0 0

# Texture cooridinates (Count = 8)
vt 0.0001220703 0.0001220703
vt 0.9998779 0.0001220703
vt 0.9998779 0.9998779
vt 0.0001220703 0.9998779
vt 0.0001219116 0.0001220703
vt 0.9985777 0.0001220703
vt 0.9985777 0.9998779
vt 0.0001219116 0.9998779

# Normal
vn 0 0 -1

# Groups (Count = 5)

g mesh_0001
f 1/1/1 2/2/1 3/3/1 4/4/1

g mesh_0002
f 5/1/1 6/2/1 7/3/1 8/4/1
f 9/1/1 10/2/1 11/3/1 12/4/1
f 13/2/1 14/3/1 15/4/1 16/1/1
f 17/2/1 18/3/1 19/4/1 20/1/1
f 21/1/1 22/2/1 23/3/1 24/4/1
f 25/1/1 26/2/1 27/3/1 28/4/1
f 29/1/1 30/2/1 31/3/1 32/4/1

g mesh_0003
f 33/1/1 34/2/1 35/3/1 36/4/1
f 34/1/1 37/2/1 38/3/1 35/4/1
f 39/1/1 40/2/1 41/3/1 42/4/1
f 43/1/1 44/2/1 45/3/1 46/4/1
f 44/1/1 47/2/1 48/3/1 45/4/1
f 49/1/1 50/2/1 1/3/1 51/4/1
f 52/1/1 53/2/1 54/3/1 55/4/1
f 56/1/1 57/2/1 53/3/1 52/4/1
f 58/1/1 59/2/1 60/3/1 61/4/1
f 62/1/1 63/2/1 59/3/1 58/4/1
f 64/1/1 65/2/1 66/3/1 67/4/1
f 68/1/1 69/2/1 70/3/1 71/4/1
f 72/1/1 73/2/1 69/3/1 68/4/1
f 74/1/1 75/2/1 76/3/1 77/4/1
f 78/1/1 79/2/1 75/3/1 74/4/1
f 80/1/1 81/2/1 79/3/1 78/4/1
f 82/1/1 83/2/1 81/3/1 80/4/1
f 84/1/1 85/2/1 83/3/1 82/4/1
f 86/1/1 87/2/1 85/3/1 84/4/1
f 88/1/1 89/2/1 87/3/1 86/4/1
f 90/1/1 91/2/1 89/3/1 88/4/1
f 92/1/1 93/2/1 91/3/1 90/4/1
f 94/1/1 95/2/1 93/3/1 92/4/1
f 96/1/1 97/2/1 95/3/1 94/4/1

g mesh_0004
f 98/5/1 99/6/1 100/7/1 101/8/1

g mesh_tile_0002
f 102/1/1 103/2/1 104/3/1 105/4/1

g mesh_tile_0006
f 102/1/1 103/2/1 104/3/1 105/4/1

g mesh_tile_0011
f 102/1/1 103/2/1 104/3/1 105/4/1

g mesh_tile_0004
f 102/1/1 103/2/1 104/3/1 105/4/1

