# Wavefront OBJ file automatically generated by Tiled2Unity

# Vertices (Count = 122)
v -17.5 -27.5 0
v -20 -27.5 0
v -20 -25 0
v -17.5 -25 0
v -17.5 -30 0
v -20 -30 0
v -17.5 -32.5 0
v -20 -32.5 0
v -17.5 -35 0
v -20 -35 0
v -20 -37.5 0
v -22.5 -37.5 0
v -22.5 -35 0
v -25 -37.5 0
v -25 -35 0
v -27.5 -37.5 0
v -27.5 -35 0
v -27.5 -40 0
v -30 -40 0
v -30 -37.5 0
v -27.5 -42.5 0
v -30 -42.5 0
v -27.5 -45 0
v -30 -45 0
v -25 -50 0
v -27.5 -50 0
v -27.5 -47.5 0
v -25 -47.5 0
v -27.5 -52.5 0
v -30 -52.5 0
v -30 -50 0
v -32.5 -52.5 0
v -32.5 -50 0
v -35 -52.5 0
v -35 -50 0
v -52.5 -55 0
v -55 -55 0
v -55 -52.5 0
v -52.5 -52.5 0
v -55 -57.5 0
v -57.5 -57.5 0
v -57.5 -55 0
v -55 -60 0
v -57.5 -60 0
v -57.5 -62.5 0
v -60 -62.5 0
v -60 -60 0
v -60 -65 0
v -62.5 -65 0
v -62.5 -62.5 0
v -60 -67.5 0
v -62.5 -67.5 0
v -60 -70 0
v -62.5 -70 0
v -60 -72.5 0
v -62.5 -72.5 0
v -62.5 -75 0
v -65 -75 0
v -65 -72.5 0
v -67.5 -75 0
v -67.5 -72.5 0
v -70 -75 0
v -70 -72.5 0
v -72.5 -75 0
v -72.5 -72.5 0
v -72.5 -77.5 0
v -75 -77.5 0
v -75 -75 0
v -65 -80 0
v -67.5 -80 0
v -67.5 -77.5 0
v -65 -77.5 0
v -70 -80 0
v -70 -77.5 0
v -72.5 -80 0
v -62.5 -82.5 0
v -65 -82.5 0
v -62.5 -80 0
v -62.5 -85 0
v -65 -85 0
v -62.5 -87.5 0
v -65 -87.5 0
v -62.5 -90 0
v -65 -90 0
v -62.5 -92.5 0
v -65 -92.5 0
v -62.5 -95 0
v -65 -95 0
v -17.5 -37.5 0
v -25 -52.5 0
v -42.5 -55 0
v -45 -55 0
v -45 -52.5 0
v -42.5 -52.5 0
v -55 -62.5 0
v -60 -75 0
v -30 -35 0
v -45 -50 0
v -42.5 -50 0
v -57.5 -52.5 0
v -62.5 -60 0
v -75 -72.5 0
v -25 -45 0
v -62.5 -77.5 0
v -30 -47.5 0
v -75 -80 0
v -37.5 -52.5 0
v -37.5 -50 0
v -47.5 -55 0
v -47.5 -52.5 0
v -40 -52.5 0
v -40 -50 0
v -50 -55 0
v -50 -52.5 0
v -60 -100 0
v -67.68 -100 0
v -67.68 -92.32 0
v -60 -92.32 0
v 0 -2.5 0
v -2.5 -2.5 0
v -2.5 0 0
v 0 0 0

# Texture cooridinates (Count = 8)
vt 0.0001220703 0.0001220703
vt 0.9998779 0.0001220703
vt 0.9998779 0.9998779
vt 0.0001220703 0.9998779
vt 0.0001219116 0.0001220703
vt 0.9985777 0.0001220703
vt 0.9985777 0.9998779
vt 0.0001219116 0.9998779

# Normal
vn 0 0 -1

# Groups (Count = 2)

g mesh_0001
f 1/1/1 2/2/1 3/3/1 4/4/1

g mesh_0002
f 5/1/1 6/2/1 2/3/1 1/4/1
f 7/1/1 8/2/1 6/3/1 5/4/1
f 9/1/1 10/2/1 8/3/1 7/4/1
f 11/1/1 12/2/1 13/3/1 10/4/1
f 12/1/1 14/2/1 15/3/1 13/4/1
f 14/1/1 16/2/1 17/3/1 15/4/1
f 18/1/1 19/2/1 20/3/1 16/4/1
f 21/1/1 22/2/1 19/3/1 18/4/1
f 23/1/1 24/2/1 22/3/1 21/4/1
f 25/1/1 26/2/1 27/3/1 28/4/1
f 29/1/1 30/2/1 31/3/1 26/4/1
f 30/1/1 32/2/1 33/3/1 31/4/1
f 32/1/1 34/2/1 35/3/1 33/4/1
f 36/1/1 37/2/1 38/3/1 39/4/1
f 40/1/1 41/2/1 42/3/1 37/4/1
f 43/1/1 44/2/1 41/3/1 40/4/1
f 45/1/1 46/2/1 47/3/1 44/4/1
f 48/1/1 49/2/1 50/3/1 46/4/1
f 51/1/1 52/2/1 49/3/1 48/4/1
f 53/1/1 54/2/1 52/3/1 51/4/1
f 55/1/1 56/2/1 54/3/1 53/4/1
f 57/1/1 58/2/1 59/3/1 56/4/1
f 58/1/1 60/2/1 61/3/1 59/4/1
f 60/1/1 62/2/1 63/3/1 61/4/1
f 62/1/1 64/2/1 65/3/1 63/4/1
f 66/1/1 67/2/1 68/3/1 64/4/1
f 69/1/1 70/2/1 71/3/1 72/4/1
f 70/1/1 73/2/1 74/3/1 71/4/1
f 73/1/1 75/2/1 66/3/1 74/4/1
f 76/1/1 77/2/1 69/3/1 78/4/1
f 79/1/1 80/2/1 77/3/1 76/4/1
f 81/1/1 82/2/1 80/3/1 79/4/1
f 83/1/1 84/2/1 82/3/1 81/4/1
f 85/1/1 86/2/1 84/3/1 83/4/1
f 87/1/1 88/2/1 86/3/1 85/4/1

g mesh_0003
f 89/1/1 11/2/1 10/3/1 9/4/1
f 90/1/1 29/2/1 26/3/1 25/4/1
f 91/1/1 92/2/1 93/3/1 94/4/1
f 95/1/1 45/2/1 44/3/1 43/4/1
f 96/1/1 57/2/1 56/3/1 55/4/1

g mesh_0004
f 16/1/1 20/2/1 97/3/1 17/4/1
f 94/1/1 93/2/1 98/3/1 99/4/1
f 37/1/1 42/2/1 100/3/1 38/4/1
f 46/1/1 50/2/1 101/3/1 47/4/1
f 64/1/1 68/2/1 102/3/1 65/4/1

g mesh_0005
f 28/1/1 27/2/1 23/3/1 103/4/1
f 78/1/1 69/2/1 72/3/1 104/4/1

g mesh_0006
f 27/1/1 105/2/1 24/3/1 23/4/1
f 75/1/1 106/2/1 67/3/1 66/4/1

g mesh_0007
f 34/1/1 107/2/1 108/3/1 35/4/1
f 92/1/1 109/2/1 110/3/1 93/4/1

g mesh_0008
f 111/1/1 94/2/1 99/3/1 112/4/1
f 113/1/1 36/2/1 39/3/1 114/4/1

g mesh_0009
f 115/5/1 116/6/1 117/7/1 118/8/1

g mesh_tile_0013
f 119/1/1 120/2/1 121/3/1 122/4/1

