# Wavefront OBJ file automatically generated by Tiled2Unity

# Vertices (Count = 125)
v -35 -15 0
v -37.5 -15 0
v -37.5 -12.5 0
v -35 -12.5 0
v -35 -17.5 0
v -37.5 -17.5 0
v -35 -20 0
v -37.5 -20 0
v -30 -22.5 0
v -32.5 -22.5 0
v -32.5 -20 0
v -30 -20 0
v -35 -22.5 0
v -27.5 -25 0
v -30 -25 0
v -27.5 -22.5 0
v -30 -27.5 0
v -32.5 -27.5 0
v -32.5 -25 0
v -35 -27.5 0
v -35 -25 0
v -35 -30 0
v -37.5 -30 0
v -37.5 -27.5 0
v -35 -32.5 0
v -37.5 -32.5 0
v -35 -35 0
v -37.5 -35 0
v -42.5 -37.5 0
v -45 -37.5 0
v -45 -35 0
v -42.5 -35 0
v -40 -40 0
v -42.5 -40 0
v -40 -37.5 0
v -45 -40 0
v -40 -42.5 0
v -42.5 -42.5 0
v -42.5 -45 0
v -45 -45 0
v -45 -42.5 0
v -17.5 -57.5 0
v -20 -57.5 0
v -20 -55 0
v -17.5 -55 0
v -22.5 -57.5 0
v -22.5 -55 0
v -15 -60 0
v -17.5 -60 0
v -15 -57.5 0
v -7.5 -62.5 0
v -10 -62.5 0
v -10 -60 0
v -7.5 -60 0
v -12.5 -62.5 0
v -12.5 -60 0
v -15 -62.5 0
v -5 -65 0
v -7.5 -65 0
v -5 -62.5 0
v -7.5 -67.5 0
v -10 -67.5 0
v -10 -65 0
v -10 -70 0
v -12.5 -70 0
v -12.5 -67.5 0
v -10 -72.5 0
v -12.5 -72.5 0
v -10 -75 0
v -12.5 -75 0
v -10 -77.5 0
v -12.5 -77.5 0
v -10 -80 0
v -12.5 -80 0
v -10 -82.5 0
v -12.5 -82.5 0
v -27.5 -20 0
v -37.5 -40 0
v -37.5 -37.5 0
v -22.5 -47.5 0
v -25 -47.5 0
v -25 -45 0
v -22.5 -45 0
v -15 -55 0
v -5 -60 0
v -37.5 -22.5 0
v -47.5 -40 0
v -47.5 -37.5 0
v -25 -57.5 0
v -25 -55 0
v -17.5 -62.5 0
v -27.5 -27.5 0
v -37.5 -42.5 0
v -5 -67.5 0
v -37.5 -25 0
v -47.5 -35 0
v -12.5 -65 0
v -35 -37.5 0
v -42.5 -47.5 0
v -45 -47.5 0
v -22.5 -50 0
v -25 -50 0
v -40 -35 0
v -30 -47.5 0
v -32.5 -47.5 0
v -32.5 -45 0
v -30 -45 0
v -27.5 -47.5 0
v -27.5 -45 0
v -35 -47.5 0
v -35 -45 0
v -37.5 -47.5 0
v -40 -47.5 0
v -40 -45 0
v -37.5 -45 0
v -25 -52.5 0
v -22.5 -52.5 0
v -7.5 -87.5 0
v -15.18 -87.5 0
v -15.18 -79.82 0
v -7.5 -79.82 0
v 0 -2.5 0
v -2.5 -2.5 0
v -2.5 0 0
v 0 0 0

# Texture cooridinates (Count = 8)
vt 0.0001220703 0.0001220703
vt 0.9998779 0.0001220703
vt 0.9998779 0.9998779
vt 0.0001220703 0.9998779
vt 0.0001219116 0.0001220703
vt 0.9985777 0.0001220703
vt 0.9985777 0.9998779
vt 0.0001219116 0.9998779

# Normal
vn 0 0 -1

# Groups (Count = 2)

g mesh_0001
f 1/1/1 2/2/1 3/3/1 4/4/1

g mesh_0002
f 5/1/1 6/2/1 2/3/1 1/4/1
f 7/1/1 8/2/1 6/3/1 5/4/1
f 9/1/1 10/2/1 11/3/1 12/4/1
f 10/1/1 13/2/1 7/3/1 11/4/1
f 14/1/1 15/2/1 9/3/1 16/4/1
f 17/1/1 18/2/1 19/3/1 15/4/1
f 18/1/1 20/2/1 21/3/1 19/4/1
f 22/1/1 23/2/1 24/3/1 20/4/1
f 25/1/1 26/2/1 23/3/1 22/4/1
f 27/1/1 28/2/1 26/3/1 25/4/1
f 29/1/1 30/2/1 31/3/1 32/4/1
f 33/1/1 34/2/1 29/3/1 35/4/1
f 34/1/1 36/2/1 30/3/1 29/4/1
f 37/1/1 38/2/1 34/3/1 33/4/1
f 39/1/1 40/2/1 41/3/1 38/4/1
f 42/1/1 43/2/1 44/3/1 45/4/1
f 43/1/1 46/2/1 47/3/1 44/4/1
f 48/1/1 49/2/1 42/3/1 50/4/1
f 51/1/1 52/2/1 53/3/1 54/4/1
f 52/1/1 55/2/1 56/3/1 53/4/1
f 55/1/1 57/2/1 48/3/1 56/4/1
f 58/1/1 59/2/1 51/3/1 60/4/1
f 61/1/1 62/2/1 63/3/1 59/4/1
f 64/1/1 65/2/1 66/3/1 62/4/1
f 67/1/1 68/2/1 65/3/1 64/4/1
f 69/1/1 70/2/1 68/3/1 67/4/1
f 71/1/1 72/2/1 70/3/1 69/4/1
f 73/1/1 74/2/1 72/3/1 71/4/1
f 75/1/1 76/2/1 74/3/1 73/4/1

g mesh_0003
f 16/1/1 9/2/1 12/3/1 77/4/1
f 78/1/1 33/2/1 35/3/1 79/4/1
f 80/1/1 81/2/1 82/3/1 83/4/1
f 50/1/1 42/2/1 45/3/1 84/4/1
f 60/1/1 51/2/1 54/3/1 85/4/1

g mesh_0004
f 13/1/1 86/2/1 8/3/1 7/4/1
f 36/1/1 87/2/1 88/3/1 30/4/1
f 46/1/1 89/2/1 90/3/1 47/4/1
f 57/1/1 91/2/1 49/3/1 48/4/1

g mesh_0005
f 92/1/1 17/2/1 15/3/1 14/4/1
f 93/1/1 37/2/1 33/3/1 78/4/1
f 94/1/1 61/2/1 59/3/1 58/4/1

g mesh_0006
f 20/1/1 24/2/1 95/3/1 21/4/1
f 30/1/1 88/2/1 96/3/1 31/4/1
f 38/1/1 41/2/1 36/3/1 34/4/1
f 62/1/1 66/2/1 97/3/1 63/4/1

g mesh_0007
f 98/1/1 79/2/1 28/3/1 27/4/1
f 99/1/1 100/2/1 40/3/1 39/4/1
f 101/1/1 102/2/1 81/3/1 80/4/1

g mesh_0008
f 35/1/1 29/2/1 32/3/1 103/4/1
f 104/1/1 105/2/1 106/3/1 107/4/1

g mesh_0009
f 81/1/1 108/2/1 109/3/1 82/4/1
f 105/1/1 110/2/1 111/3/1 106/4/1

g mesh_0010
f 112/1/1 113/2/1 114/3/1 115/4/1

g mesh_0011
f 47/1/1 90/2/1 116/3/1 117/4/1

g mesh_0012
f 118/5/1 119/6/1 120/7/1 121/8/1

g mesh_tile_0012
f 122/1/1 123/2/1 124/3/1 125/4/1

