# Wavefront OBJ file automatically generated by Tiled2Unity

# Vertices (Count = 168)
v -82.5 -12.5 0
v -85 -12.5 0
v -85 -10 0
v -82.5 -10 0
v -82.5 -15 0
v -85 -15 0
v -85 -17.5 0
v -87.5 -17.5 0
v -87.5 -15 0
v -60 -32.5 0
v -62.5 -32.5 0
v -62.5 -30 0
v -60 -30 0
v -57.5 -35 0
v -60 -35 0
v -57.5 -32.5 0
v -45 -92.5 0
v -47.5 -92.5 0
v -47.5 -90 0
v -45 -90 0
v -45 -95 0
v -47.5 -95 0
v -45 -97.5 0
v -47.5 -97.5 0
v -42.5 -100 0
v -45 -100 0
v -42.5 -97.5 0
v -40 -102.5 0
v -42.5 -102.5 0
v -40 -100 0
v -52.5 -122.5 0
v -55 -122.5 0
v -55 -120 0
v -52.5 -120 0
v -52.5 -125 0
v -55 -125 0
v -52.5 -127.5 0
v -55 -127.5 0
v -52.5 -130 0
v -55 -130 0
v -52.5 -132.5 0
v -55 -132.5 0
v -82.5 -17.5 0
v -62.5 -27.5 0
v -60 -27.5 0
v -62.5 -35 0
v -52.5 -47.5 0
v -55 -47.5 0
v -55 -45 0
v -52.5 -45 0
v -57.5 -47.5 0
v -57.5 -45 0
v -47.5 -87.5 0
v -45 -87.5 0
v -40 -97.5 0
v -47.5 -100 0
v -52.5 -112.5 0
v -55 -112.5 0
v -55 -110 0
v -52.5 -110 0
v -90 -17.5 0
v -90 -15 0
v -87.5 -27.5 0
v -90 -27.5 0
v -90 -25 0
v -87.5 -25 0
v -65 -30 0
v -65 -27.5 0
v -87.5 -30 0
v -90 -30 0
v -55 -35 0
v -55 -32.5 0
v -57.5 -42.5 0
v -55 -42.5 0
v -52.5 -50 0
v -55 -50 0
v -52.5 -65 0
v -55 -65 0
v -55 -62.5 0
v -52.5 -62.5 0
v -52.5 -67.5 0
v -55 -67.5 0
v -52.5 -87.5 0
v -55 -87.5 0
v -55 -85 0
v -52.5 -85 0
v -50 -90 0
v -50 -87.5 0
v -52.5 -90 0
v -55 -90 0
v -40 -105 0
v -42.5 -105 0
v -40 -110 0
v -42.5 -110 0
v -42.5 -107.5 0
v -40 -107.5 0
v -40 -112.5 0
v -42.5 -112.5 0
v -50 -112.5 0
v -50 -110 0
v -52.5 -115 0
v -55 -115 0
v -55 -117.5 0
v -52.5 -117.5 0
v -87.5 -22.5 0
v -90 -22.5 0
v -90 -20 0
v -87.5 -20 0
v -67.5 -30 0
v -70 -30 0
v -70 -27.5 0
v -67.5 -27.5 0
v -72.5 -30 0
v -75 -30 0
v -75 -27.5 0
v -72.5 -27.5 0
v -77.5 -30 0
v -80 -30 0
v -80 -27.5 0
v -77.5 -27.5 0
v -82.5 -30 0
v -85 -30 0
v -85 -27.5 0
v -82.5 -27.5 0
v -55 -40 0
v -57.5 -40 0
v -57.5 -37.5 0
v -55 -37.5 0
v -52.5 -55 0
v -55 -55 0
v -55 -52.5 0
v -52.5 -52.5 0
v -52.5 -60 0
v -55 -60 0
v -55 -57.5 0
v -52.5 -57.5 0
v -52.5 -72.5 0
v -55 -72.5 0
v -55 -70 0
v -52.5 -70 0
v -52.5 -77.5 0
v -55 -77.5 0
v -55 -75 0
v -52.5 -75 0
v -52.5 -82.5 0
v -55 -82.5 0
v -55 -80 0
v -52.5 -80 0
v -45 -112.5 0
v -47.5 -112.5 0
v -47.5 -110 0
v -45 -110 0
v -50 -132.5 0
v -50 -130 0
v -57.5 -132.5 0
v -57.5 -130 0
v -50 -135 0
v -52.5 -135 0
v -55 -135 0
v -57.5 -135 0
v -50 -137.5 0
v -52.5 -137.5 0
v -55 -137.5 0
v -57.5 -137.5 0
v 0 -2.5 0
v -2.5 -2.5 0
v -2.5 0 0
v 0 0 0

# Texture cooridinates (Count = 36)
vt 0.0001220703 0.0001220703
vt 0.9998779 0.0001220703
vt 0.9998779 0.9998779
vt 0.0001220703 0.9998779
vt 4.069011E-05 0.6667074
vt 0.3332926 0.6667074
vt 0.3332926 0.9999593
vt 4.069011E-05 0.9999593
vt 0.6667073 0.6667074
vt 0.9999593 0.6667074
vt 0.9999593 0.9999593
vt 0.6667073 0.9999593
vt 4.069011E-05 0.333374
vt 0.3332926 0.333374
vt 0.3332926 0.666626
vt 4.069011E-05 0.666626
vt 0.333374 0.333374
vt 0.666626 0.333374
vt 0.666626 0.666626
vt 0.333374 0.666626
vt 0.6667073 0.333374
vt 0.9999593 0.333374
vt 0.9999593 0.666626
vt 0.6667073 0.666626
vt 4.069011E-05 4.070997E-05
vt 0.3332926 4.070997E-05
vt 0.3332926 0.3332927
vt 4.069011E-05 0.3332927
vt 0.333374 4.070997E-05
vt 0.666626 4.070997E-05
vt 0.666626 0.3332927
vt 0.333374 0.3332927
vt 0.6667073 4.070997E-05
vt 0.9999593 4.070997E-05
vt 0.9999593 0.3332927
vt 0.6667073 0.3332927

# Normal
vn 0 0 -1

# Groups (Count = 2)

g mesh_0001
f 1/1/1 2/2/1 3/3/1 4/4/1

g mesh_0002
f 5/1/1 6/2/1 2/3/1 1/4/1
f 7/1/1 8/2/1 9/3/1 6/4/1
f 10/1/1 11/2/1 12/3/1 13/4/1
f 14/1/1 15/2/1 10/3/1 16/4/1
f 17/1/1 18/2/1 19/3/1 20/4/1
f 21/1/1 22/2/1 18/3/1 17/4/1
f 23/1/1 24/2/1 22/3/1 21/4/1
f 25/1/1 26/2/1 23/3/1 27/4/1
f 28/1/1 29/2/1 25/3/1 30/4/1
f 31/1/1 32/2/1 33/3/1 34/4/1
f 35/1/1 36/2/1 32/3/1 31/4/1
f 37/1/1 38/2/1 36/3/1 35/4/1
f 39/1/1 40/2/1 38/3/1 37/4/1
f 41/1/1 42/2/1 40/3/1 39/4/1

g mesh_0003
f 43/4/1 7/1/1 6/2/1 5/3/1
f 13/1/1 12/2/1 44/3/1 45/4/1
f 15/3/1 46/4/1 11/1/1 10/2/1
f 47/1/1 48/2/1 49/3/1 50/4/1
f 48/3/1 51/4/1 52/1/1 49/2/1
f 20/1/1 19/2/1 53/3/1 54/4/1
f 30/1/1 25/2/1 27/3/1 55/4/1
f 26/3/1 56/4/1 24/1/1 23/2/1
f 57/2/1 58/3/1 59/4/1 60/1/1

g mesh_0004
f 8/2/1 61/3/1 62/4/1 9/1/1
f 63/1/1 64/2/1 65/3/1 66/4/1
f 12/2/1 67/3/1 68/4/1 44/1/1
f 69/3/1 70/4/1 64/1/1 63/2/1
f 71/4/1 14/1/1 16/2/1 72/3/1
f 49/1/1 52/2/1 73/3/1 74/4/1
f 75/3/1 76/4/1 48/1/1 47/2/1
f 77/1/1 78/2/1 79/3/1 80/4/1
f 81/3/1 82/4/1 78/1/1 77/2/1
f 83/1/1 84/2/1 85/3/1 86/4/1
f 19/2/1 87/3/1 88/4/1 53/1/1
f 89/3/1 90/4/1 84/1/1 83/2/1
f 91/3/1 92/4/1 29/1/1 28/2/1
f 93/1/1 94/2/1 95/3/1 96/4/1
f 97/3/1 98/4/1 94/1/1 93/2/1
f 99/4/1 57/1/1 60/2/1 100/3/1
f 101/3/1 102/4/1 58/1/1 57/2/1
f 34/1/1 33/2/1 103/3/1 104/4/1

g mesh_0005
f 105/1/1 106/2/1 107/3/1 108/4/1
f 109/1/1 110/2/1 111/3/1 112/4/1
f 113/1/1 114/2/1 115/3/1 116/4/1
f 117/1/1 118/2/1 119/3/1 120/4/1
f 121/1/1 122/2/1 123/3/1 124/4/1
f 125/1/1 126/2/1 127/3/1 128/4/1
f 129/1/1 130/2/1 131/3/1 132/4/1
f 133/1/1 134/2/1 135/3/1 136/4/1
f 137/1/1 138/2/1 139/3/1 140/4/1
f 141/1/1 142/2/1 143/3/1 144/4/1
f 145/1/1 146/2/1 147/3/1 148/4/1
f 149/1/1 150/2/1 151/3/1 152/4/1

g mesh_0006
f 153/5/1 41/6/1 39/7/1 154/8/1
f 42/9/1 155/10/1 156/11/1 40/12/1
f 157/13/1 158/14/1 41/15/1 153/16/1
f 158/17/1 159/18/1 42/19/1 41/20/1
f 159/21/1 160/22/1 155/23/1 42/24/1
f 161/25/1 162/26/1 158/27/1 157/28/1
f 162/29/1 163/30/1 159/31/1 158/32/1
f 163/33/1 164/34/1 160/35/1 159/36/1

g mesh_tile_0001
f 165/1/1 166/2/1 167/3/1 168/4/1

