# Wavefront OBJ file automatically generated by Tiled2Unity

# Vertices (Count = 178)
v -750 -1250 0
v -1000 -1250 0
v -1000 -1000 0
v -750 -1000 0
v -750 -1500 0
v -1000 -1500 0
v -750 -1750 0
v -1000 -1750 0
v -1000 -2000 0
v -1250 -2000 0
v -1250 -1750 0
v -1500 -2250 0
v -1750 -2250 0
v -1750 -2000 0
v -1500 -2000 0
v -2000 -2250 0
v -2250 -2250 0
v -2250 -2000 0
v -2000 -2000 0
v -2500 -2250 0
v -2750 -2250 0
v -2750 -2000 0
v -2500 -2000 0
v -3000 -2250 0
v -3250 -2250 0
v -3250 -2000 0
v -3000 -2000 0
v -3250 -2500 0
v -3500 -2500 0
v -3500 -2250 0
v -3250 -2750 0
v -3500 -2750 0
v -3250 -3000 0
v -3500 -3000 0
v -3000 -3250 0
v -3250 -3250 0
v -3000 -3000 0
v -2750 -3500 0
v -3000 -3500 0
v -2750 -3250 0
v -2250 -3750 0
v -2500 -3750 0
v -2500 -3500 0
v -2250 -3500 0
v -2750 -3750 0
v -2000 -4000 0
v -2250 -4000 0
v -2000 -3750 0
v -3000 -5000 0
v -3250 -5000 0
v -3250 -4750 0
v -3000 -4750 0
v -3500 -5000 0
v -3750 -5000 0
v -3750 -4750 0
v -3500 -4750 0
v -3750 -6000 0
v -4000 -6000 0
v -4000 -5750 0
v -3750 -5750 0
v -4000 -6250 0
v -4250 -6250 0
v -4250 -6000 0
v -4500 -6250 0
v -4750 -6250 0
v -4750 -6000 0
v -4500 -6000 0
v -4750 -7250 0
v -5000 -7250 0
v -5000 -7000 0
v -4750 -7000 0
v -5000 -7500 0
v -5250 -7500 0
v -5250 -7250 0
v -6000 -8000 0
v -6250 -8000 0
v -6250 -7750 0
v -6000 -7750 0
v -6250 -8250 0
v -6500 -8250 0
v -6500 -8000 0
v -6750 -8250 0
v -7000 -8250 0
v -7000 -8000 0
v -6750 -8000 0
v -7250 -8250 0
v -7250 -8000 0
v -7250 -8500 0
v -7500 -8500 0
v -7500 -8250 0
v -7250 -8750 0
v -7500 -8750 0
v -7500 -9000 0
v -7750 -9000 0
v -7750 -8750 0
v -8000 -9000 0
v -8250 -9000 0
v -8250 -8750 0
v -8000 -8750 0
v -8250 -9250 0
v -8500 -9250 0
v -8500 -9000 0
v -8250 -9500 0
v -8500 -9500 0
v -8250 -10500 0
v -8500 -10500 0
v -8500 -10250 0
v -8250 -10250 0
v -8250 -10750 0
v -8500 -10750 0
v -8250 -11000 0
v -8500 -11000 0
v -8250 -11250 0
v -8500 -11250 0
v -8250 -11500 0
v -8500 -11500 0
v -8250 -11750 0
v -8500 -11750 0
v -8250 -12000 0
v -8500 -12000 0
v -750 -2000 0
v -1250 -2250 0
v -2750 -5000 0
v -2750 -4750 0
v -3750 -6250 0
v -4750 -7500 0
v -6000 -8250 0
v -7250 -9000 0
v -1500 -1750 0
v -3500 -2000 0
v -4000 -5000 0
v -4000 -4750 0
v -5000 -6250 0
v -5000 -6000 0
v -5500 -7500 0
v -5500 -7250 0
v -6250 -7500 0
v -6000 -7500 0
v -7500 -8000 0
v -8500 -8750 0
v -2750 -3000 0
v -2000 -3500 0
v -3500 -3250 0
v -3000 -3750 0
v -2000 -4250 0
v -2250 -4250 0
v -3750 -5250 0
v -4000 -5250 0
v -4750 -6500 0
v -5000 -6500 0
v -5250 -7750 0
v -5500 -7750 0
v -8250 -9750 0
v -8500 -9750 0
v -2500 -4250 0
v -2750 -4250 0
v -2750 -4000 0
v -2500 -4000 0
v -5750 -7750 0
v -5750 -7500 0
v -3000 -4250 0
v -3000 -4000 0
v -3000 -4500 0
v -2750 -4500 0
v -4000 -5500 0
v -3750 -5500 0
v -5000 -6750 0
v -4750 -6750 0
v -8500 -10000 0
v -8250 -10000 0
v -8000 -12500 0
v -8750 -12500 0
v -8750 -11750 0
v -8000 -11750 0
v 0 -250 0
v -250 -250 0
v -250 0 0
v 0 0 0

# Texture cooridinates (Count = 4)
vt 0.0001220703 0.0001220703
vt 0.9998779 0.0001220703
vt 0.9998779 0.9998779
vt 0.0001220703 0.9998779

# Normal
vn 0 0 -1

# Groups (Count = 3)

g mesh_0001
f 1/1/1 2/2/1 3/3/1 4/4/1

g mesh_0002
f 5/1/1 6/2/1 2/3/1 1/4/1
f 7/1/1 8/2/1 6/3/1 5/4/1
f 9/1/1 10/2/1 11/3/1 8/4/1
f 12/1/1 13/2/1 14/3/1 15/4/1
f 16/1/1 17/2/1 18/3/1 19/4/1
f 20/1/1 21/2/1 22/3/1 23/4/1
f 24/1/1 25/2/1 26/3/1 27/4/1
f 28/1/1 29/2/1 30/3/1 25/4/1
f 31/1/1 32/2/1 29/3/1 28/4/1
f 33/1/1 34/2/1 32/3/1 31/4/1
f 35/1/1 36/2/1 33/3/1 37/4/1
f 38/1/1 39/2/1 35/3/1 40/4/1
f 41/1/1 42/2/1 43/3/1 44/4/1
f 42/1/1 45/2/1 38/3/1 43/4/1
f 46/1/1 47/2/1 41/3/1 48/4/1
f 49/1/1 50/2/1 51/3/1 52/4/1
f 53/1/1 54/2/1 55/3/1 56/4/1
f 57/1/1 58/2/1 59/3/1 60/4/1
f 61/1/1 62/2/1 63/3/1 58/4/1
f 64/1/1 65/2/1 66/3/1 67/4/1
f 68/1/1 69/2/1 70/3/1 71/4/1
f 72/1/1 73/2/1 74/3/1 69/4/1
f 75/1/1 76/2/1 77/3/1 78/4/1
f 79/1/1 80/2/1 81/3/1 76/4/1
f 82/1/1 83/2/1 84/3/1 85/4/1
f 83/1/1 86/2/1 87/3/1 84/4/1
f 88/1/1 89/2/1 90/3/1 86/4/1
f 91/1/1 92/2/1 89/3/1 88/4/1
f 93/1/1 94/2/1 95/3/1 92/4/1
f 96/1/1 97/2/1 98/3/1 99/4/1
f 100/1/1 101/2/1 102/3/1 97/4/1
f 103/1/1 104/2/1 101/3/1 100/4/1
f 105/1/1 106/2/1 107/3/1 108/4/1
f 109/1/1 110/2/1 106/3/1 105/4/1
f 111/1/1 112/2/1 110/3/1 109/4/1
f 113/1/1 114/2/1 112/3/1 111/4/1
f 115/1/1 116/2/1 114/3/1 113/4/1
f 117/1/1 118/2/1 116/3/1 115/4/1
f 119/1/1 120/2/1 118/3/1 117/4/1

g mesh_0003
f 121/1/1 9/2/1 8/3/1 7/4/1
f 122/1/1 12/2/1 15/3/1 10/4/1
f 123/1/1 49/2/1 52/3/1 124/4/1
f 125/1/1 61/2/1 58/3/1 57/4/1
f 126/1/1 72/2/1 69/3/1 68/4/1
f 127/1/1 79/2/1 76/3/1 75/4/1
f 128/1/1 93/2/1 92/3/1 91/4/1

g mesh_0004
f 10/1/1 15/2/1 129/3/1 11/4/1
f 25/1/1 30/2/1 130/3/1 26/4/1
f 54/1/1 131/2/1 132/3/1 55/4/1
f 65/1/1 133/2/1 134/3/1 66/4/1
f 73/1/1 135/2/1 136/3/1 74/4/1
f 78/1/1 77/2/1 137/3/1 138/4/1
f 86/1/1 90/2/1 139/3/1 87/4/1
f 97/1/1 102/2/1 140/3/1 98/4/1

g mesh_0005
f 40/1/1 35/2/1 37/3/1 141/4/1
f 48/1/1 41/2/1 44/3/1 142/4/1

g mesh_0006
f 36/1/1 143/2/1 34/3/1 33/4/1
f 45/1/1 144/2/1 39/3/1 38/4/1

g mesh_0007
f 145/1/1 146/2/1 47/3/1 46/4/1
f 147/1/1 148/2/1 131/3/1 54/4/1
f 149/1/1 150/2/1 133/3/1 65/4/1
f 151/1/1 152/2/1 135/3/1 73/4/1
f 153/1/1 154/2/1 104/3/1 103/4/1

g mesh_0008
f 155/1/1 156/2/1 157/3/1 158/4/1
f 159/1/1 78/2/1 138/3/1 160/4/1

g mesh_0009
f 156/1/1 161/2/1 162/3/1 157/4/1

g mesh_0010
f 124/1/1 52/2/1 163/3/1 164/4/1
f 60/1/1 59/2/1 165/3/1 166/4/1
f 71/1/1 70/2/1 167/3/1 168/4/1
f 108/1/1 107/2/1 169/3/1 170/4/1

g mesh_0011
f 171/1/1 172/2/1 173/3/1 174/4/1

g mesh_tile_0005
f 175/1/1 176/2/1 177/3/1 178/4/1

g mesh_tile_0003
f 175/1/1 176/2/1 177/3/1 178/4/1

