# Wavefront OBJ file automatically generated by Tiled2Unity

# Vertices (Count = 151)
v -7250 -1250 0
v -7500 -1250 0
v -7500 -1000 0
v -7250 -1000 0
v -7250 -1500 0
v -7500 -1500 0
v -7500 -2500 0
v -7750 -2500 0
v -7750 -2250 0
v -7500 -2250 0
v -7250 -2750 0
v -7500 -2750 0
v -7250 -2500 0
v -7750 -2750 0
v -7000 -3000 0
v -7250 -3000 0
v -7000 -2750 0
v -7500 -3750 0
v -7750 -3750 0
v -7750 -3500 0
v -7500 -3500 0
v -7000 -4250 0
v -7250 -4250 0
v -7250 -4000 0
v -7000 -4000 0
v -7000 -5000 0
v -7250 -5000 0
v -7250 -4750 0
v -7000 -4750 0
v -6500 -5500 0
v -6750 -5500 0
v -6750 -5250 0
v -6500 -5250 0
v -6250 -5750 0
v -6500 -5750 0
v -6250 -5500 0
v -6000 -6000 0
v -6250 -6000 0
v -6000 -5750 0
v -6250 -6500 0
v -6500 -6500 0
v -6500 -6250 0
v -6250 -6250 0
v -6000 -7000 0
v -6250 -7000 0
v -6250 -6750 0
v -6000 -6750 0
v -6000 -7500 0
v -6250 -7500 0
v -6250 -7250 0
v -6000 -7250 0
v -4000 -9000 0
v -4250 -9000 0
v -4250 -8750 0
v -4000 -8750 0
v -4500 -9250 0
v -4750 -9250 0
v -4750 -9000 0
v -4500 -9000 0
v -4750 -9500 0
v -5000 -9500 0
v -5000 -9250 0
v -4750 -9750 0
v -5000 -9750 0
v -4750 -10000 0
v -5000 -10000 0
v -4750 -10250 0
v -5000 -10250 0
v -4750 -10500 0
v -5000 -10500 0
v -4750 -10750 0
v -5000 -10750 0
v -7250 -1750 0
v -7500 -1750 0
v -7500 -2000 0
v -7750 -2000 0
v -7750 -1750 0
v -6750 -5000 0
v -6750 -4750 0
v -6000 -6250 0
v -7750 -1500 0
v -8000 -2000 0
v -8000 -1750 0
v -7750 -3250 0
v -7500 -3250 0
v -7500 -5000 0
v -7500 -4750 0
v -6500 -6000 0
v -6500 -7250 0
v -6500 -7000 0
v -5000 -9000 0
v -7000 -2500 0
v -6750 -3250 0
v -7000 -3250 0
v -6750 -3000 0
v -7500 -4000 0
v -7250 -3750 0
v -6500 -5000 0
v -6000 -5500 0
v -6000 -6500 0
v -3750 -9000 0
v -3750 -8750 0
v -8000 -2250 0
v -7250 -3250 0
v -7750 -4000 0
v -7500 -4250 0
v -6750 -5750 0
v -6500 -6750 0
v -6500 -7500 0
v -5250 -9000 0
v -5250 -8750 0
v -5000 -8750 0
v -6750 -3500 0
v -7000 -3500 0
v -7250 -5250 0
v -7500 -5250 0
v -5750 -8250 0
v -6000 -8250 0
v -6000 -8000 0
v -5750 -8000 0
v -3750 -9250 0
v -4000 -9250 0
v -7250 -3500 0
v -6750 -4250 0
v -6750 -4000 0
v -5750 -7500 0
v -5750 -7250 0
v -5000 -8250 0
v -5250 -8250 0
v -5250 -8000 0
v -5000 -8000 0
v -4750 -8750 0
v -4250 -9250 0
v -7000 -4500 0
v -6750 -4500 0
v -6000 -7750 0
v -5750 -7750 0
v -5250 -8500 0
v -5000 -8500 0
v -7000 -5250 0
v -5500 -8250 0
v -5500 -8000 0
v -4500 -8750 0
v -4500 -11250 0
v -5250 -11250 0
v -5250 -10500 0
v -4500 -10500 0
v 0 -250 0
v -250 -250 0
v -250 0 0
v 0 0 0

# Texture cooridinates (Count = 4)
vt 0.0001220703 0.0001220703
vt 0.9998779 0.0001220703
vt 0.9998779 0.9998779
vt 0.0001220703 0.9998779

# Normal
vn 0 0 -1

# Groups (Count = 2)

g mesh_0001
f 1/1/1 2/2/1 3/3/1 4/4/1

g mesh_0002
f 5/1/1 6/2/1 2/3/1 1/4/1
f 7/1/1 8/2/1 9/3/1 10/4/1
f 11/1/1 12/2/1 7/3/1 13/4/1
f 12/1/1 14/2/1 8/3/1 7/4/1
f 15/1/1 16/2/1 11/3/1 17/4/1
f 18/1/1 19/2/1 20/3/1 21/4/1
f 22/1/1 23/2/1 24/3/1 25/4/1
f 26/1/1 27/2/1 28/3/1 29/4/1
f 30/1/1 31/2/1 32/3/1 33/4/1
f 34/1/1 35/2/1 30/3/1 36/4/1
f 37/1/1 38/2/1 34/3/1 39/4/1
f 40/1/1 41/2/1 42/3/1 43/4/1
f 44/1/1 45/2/1 46/3/1 47/4/1
f 48/1/1 49/2/1 50/3/1 51/4/1
f 52/1/1 53/2/1 54/3/1 55/4/1
f 56/1/1 57/2/1 58/3/1 59/4/1
f 60/1/1 61/2/1 62/3/1 57/4/1
f 63/1/1 64/2/1 61/3/1 60/4/1
f 65/1/1 66/2/1 64/3/1 63/4/1
f 67/1/1 68/2/1 66/3/1 65/4/1
f 69/1/1 70/2/1 68/3/1 67/4/1
f 71/1/1 72/2/1 70/3/1 69/4/1

g mesh_0003
f 73/1/1 74/2/1 6/3/1 5/4/1
f 75/1/1 76/2/1 77/3/1 74/4/1
f 78/1/1 26/2/1 29/3/1 79/4/1
f 80/1/1 43/2/1 38/3/1 37/4/1
f 51/1/1 50/2/1 45/3/1 44/4/1

g mesh_0004
f 74/1/1 77/2/1 81/3/1 6/4/1
f 76/1/1 82/2/1 83/3/1 77/4/1
f 21/1/1 20/2/1 84/3/1 85/4/1
f 27/1/1 86/2/1 87/3/1 28/4/1
f 43/1/1 42/2/1 88/3/1 38/4/1
f 50/1/1 89/2/1 90/3/1 45/4/1
f 57/1/1 62/2/1 91/3/1 58/4/1

g mesh_0005
f 10/1/1 9/2/1 76/3/1 75/4/1
f 17/1/1 11/2/1 13/3/1 92/4/1
f 93/1/1 94/2/1 15/3/1 95/4/1
f 24/1/1 96/2/1 18/3/1 97/4/1
f 33/1/1 32/2/1 78/3/1 98/4/1
f 39/1/1 34/2/1 36/3/1 99/4/1
f 47/1/1 46/2/1 40/3/1 100/4/1
f 101/1/1 52/2/1 55/3/1 102/4/1

g mesh_0006
f 9/1/1 103/2/1 82/3/1 76/4/1
f 94/1/1 104/2/1 16/3/1 15/4/1
f 96/1/1 105/2/1 19/3/1 18/4/1
f 23/1/1 106/2/1 96/3/1 24/4/1
f 35/1/1 107/2/1 31/3/1 30/4/1
f 46/1/1 108/2/1 41/3/1 40/4/1
f 49/1/1 109/2/1 89/3/1 50/4/1
f 91/1/1 110/2/1 111/3/1 112/4/1

g mesh_0007
f 113/1/1 114/2/1 94/3/1 93/4/1
f 115/1/1 116/2/1 86/3/1 27/4/1
f 117/1/1 118/2/1 119/3/1 120/4/1
f 121/1/1 122/2/1 52/3/1 101/4/1

g mesh_0008
f 123/1/1 21/2/1 85/3/1 104/4/1
f 124/1/1 22/2/1 25/3/1 125/4/1
f 126/1/1 48/2/1 51/3/1 127/4/1
f 128/1/1 129/2/1 130/3/1 131/4/1
f 58/1/1 91/2/1 112/3/1 132/4/1
f 133/1/1 56/2/1 59/3/1 53/4/1

g mesh_0009
f 79/1/1 29/2/1 134/3/1 135/4/1
f 120/1/1 119/2/1 136/3/1 137/4/1
f 112/1/1 111/2/1 138/3/1 139/4/1

g mesh_0010
f 32/1/1 140/2/1 26/3/1 78/4/1
f 129/1/1 141/2/1 142/3/1 130/4/1
f 53/1/1 59/2/1 143/3/1 54/4/1

g mesh_0011
f 144/1/1 145/2/1 146/3/1 147/4/1

g mesh_tile_0002
f 148/1/1 149/2/1 150/3/1 151/4/1

