# Wavefront OBJ file automatically generated by Tiled2Unity

# Vertices (Count = 86)
v -45 -20 0
v -47.5 -20 0
v -47.5 -17.5 0
v -45 -17.5 0
v -45 -22.5 0
v -47.5 -22.5 0
v -37.5 -27.5 0
v -40 -27.5 0
v -40 -25 0
v -37.5 -25 0
v -27.5 -37.5 0
v -30 -37.5 0
v -30 -35 0
v -27.5 -35 0
v -30 -40 0
v -32.5 -40 0
v -32.5 -37.5 0
v -35 -40 0
v -35 -37.5 0
v -35 -42.5 0
v -37.5 -42.5 0
v -37.5 -40 0
v -37.5 -45 0
v -40 -45 0
v -40 -42.5 0
v -40 -52.5 0
v -42.5 -52.5 0
v -42.5 -50 0
v -40 -50 0
v -37.5 -55 0
v -40 -55 0
v -37.5 -52.5 0
v -37.5 -57.5 0
v -40 -57.5 0
v -40 -60 0
v -42.5 -60 0
v -42.5 -57.5 0
v -37.5 -62.5 0
v -40 -62.5 0
v -37.5 -60 0
v -32.5 -70 0
v -35 -70 0
v -35 -67.5 0
v -32.5 -67.5 0
v -20 -77.5 0
v -22.5 -77.5 0
v -22.5 -75 0
v -20 -75 0
v -15 -90 0
v -17.5 -90 0
v -17.5 -87.5 0
v -15 -87.5 0
v -12.5 -97.5 0
v -15 -97.5 0
v -15 -95 0
v -12.5 -95 0
v -12.5 -100 0
v -15 -100 0
v -12.5 -102.5 0
v -15 -102.5 0
v -12.5 -105 0
v -15 -105 0
v -12.5 -107.5 0
v -15 -107.5 0
v -12.5 -110 0
v -15 -110 0
v -12.5 -112.5 0
v -15 -112.5 0
v -12.5 -115 0
v -15 -115 0
v -12.5 -117.5 0
v -15 -117.5 0
v -17.5 -82.5 0
v -20 -82.5 0
v -20 -80 0
v -17.5 -80 0
v -15 -92.5 0
v -12.5 -92.5 0
v -10 -122.5 0
v -17.68 -122.5 0
v -17.68 -114.82 0
v -10 -114.82 0
v 0 -2.5 0
v -2.5 -2.5 0
v -2.5 0 0
v 0 0 0

# Texture cooridinates (Count = 8)
vt 0.0001220703 0.0001220703
vt 0.9998779 0.0001220703
vt 0.9998779 0.9998779
vt 0.0001220703 0.9998779
vt 0.0001219116 0.0001220703
vt 0.9985777 0.0001220703
vt 0.9985777 0.9998779
vt 0.0001219116 0.9998779

# Normal
vn 0 0 -1

# Groups (Count = 4)

g mesh_0001
f 1/1/1 2/2/1 3/3/1 4/4/1

g mesh_0002
f 5/1/1 6/2/1 2/3/1 1/4/1
f 7/1/1 8/2/1 9/3/1 10/4/1
f 11/1/1 12/2/1 13/3/1 14/4/1
f 15/1/1 16/2/1 17/3/1 12/4/1
f 16/1/1 18/2/1 19/3/1 17/4/1
f 20/1/1 21/2/1 22/3/1 18/4/1
f 23/1/1 24/2/1 25/3/1 21/4/1
f 26/1/1 27/2/1 28/3/1 29/4/1
f 30/1/1 31/2/1 26/3/1 32/4/1
f 33/1/1 34/2/1 31/3/1 30/4/1
f 35/1/1 36/2/1 37/3/1 34/4/1
f 38/1/1 39/2/1 35/3/1 40/4/1
f 41/1/1 42/2/1 43/3/1 44/4/1
f 45/1/1 46/2/1 47/3/1 48/4/1
f 49/1/1 50/2/1 51/3/1 52/4/1
f 53/1/1 54/2/1 55/3/1 56/4/1
f 57/1/1 58/2/1 54/3/1 53/4/1
f 59/1/1 60/2/1 58/3/1 57/4/1
f 61/1/1 62/2/1 60/3/1 59/4/1
f 63/1/1 64/2/1 62/3/1 61/4/1
f 65/1/1 66/2/1 64/3/1 63/4/1
f 67/1/1 68/2/1 66/3/1 65/4/1
f 69/1/1 70/2/1 68/3/1 67/4/1
f 71/1/1 72/2/1 70/3/1 69/4/1

g mesh_0003
f 73/1/1 74/2/1 75/3/1 76/4/1

g mesh_0004
f 56/1/1 55/2/1 77/3/1 78/4/1

g mesh_0005
f 79/5/1 80/6/1 81/7/1 82/8/1

g mesh_tile_0003
f 83/1/1 84/2/1 85/3/1 86/4/1

g mesh_tile_0001
f 83/1/1 84/2/1 85/3/1 86/4/1

g mesh_tile_0004
f 83/1/1 84/2/1 85/3/1 86/4/1

