# Wavefront OBJ file automatically generated by Tiled2Unity

# Vertices (Count = 160)
v -35 -7.5 0
v -37.5 -7.5 0
v -37.5 -5 0
v -35 -5 0
v -35 -10 0
v -37.5 -10 0
v -32.5 -12.5 0
v -35 -12.5 0
v -32.5 -10 0
v -17.5 -27.5 0
v -20 -27.5 0
v -20 -25 0
v -17.5 -25 0
v -17.5 -32.5 0
v -20 -32.5 0
v -20 -30 0
v -17.5 -30 0
v -12.5 -35 0
v -15 -35 0
v -15 -32.5 0
v -12.5 -32.5 0
v -17.5 -35 0
v -22.5 -45 0
v -25 -45 0
v -25 -42.5 0
v -22.5 -42.5 0
v -27.5 -45 0
v -27.5 -42.5 0
v -30 -45 0
v -30 -42.5 0
v -32.5 -45 0
v -32.5 -42.5 0
v -35 -45 0
v -37.5 -45 0
v -37.5 -42.5 0
v -35 -42.5 0
v -40 -45 0
v -42.5 -45 0
v -42.5 -42.5 0
v -40 -42.5 0
v -42.5 -47.5 0
v -45 -47.5 0
v -45 -45 0
v -42.5 -50 0
v -45 -50 0
v -42.5 -52.5 0
v -45 -52.5 0
v -42.5 -65 0
v -45 -65 0
v -45 -62.5 0
v -42.5 -62.5 0
v -42.5 -67.5 0
v -45 -67.5 0
v -42.5 -72.5 0
v -45 -72.5 0
v -45 -70 0
v -42.5 -70 0
v -42.5 -77.5 0
v -45 -77.5 0
v -45 -75 0
v -42.5 -75 0
v -42.5 -80 0
v -45 -80 0
v -35 -82.5 0
v -37.5 -82.5 0
v -37.5 -80 0
v -35 -80 0
v -40 -82.5 0
v -42.5 -82.5 0
v -40 -80 0
v -32.5 -90 0
v -35 -90 0
v -35 -87.5 0
v -32.5 -87.5 0
v -32.5 -92.5 0
v -35 -92.5 0
v -30 -95 0
v -32.5 -95 0
v -30 -92.5 0
v -27.5 -102.5 0
v -30 -102.5 0
v -30 -100 0
v -27.5 -100 0
v -27.5 -107.5 0
v -30 -107.5 0
v -30 -105 0
v -27.5 -105 0
v -27.5 -110 0
v -30 -110 0
v -27.5 -112.5 0
v -30 -112.5 0
v -27.5 -115 0
v -30 -115 0
v -27.5 -117.5 0
v -30 -117.5 0
v -27.5 -120 0
v -30 -120 0
v -30 -12.5 0
v -30 -10 0
v -20 -15 0
v -22.5 -15 0
v -22.5 -12.5 0
v -20 -12.5 0
v -20 -22.5 0
v -17.5 -22.5 0
v -10 -35 0
v -10 -32.5 0
v -37.5 -12.5 0
v -30 -15 0
v -32.5 -15 0
v -22.5 -25 0
v -22.5 -22.5 0
v -20 -35 0
v -45 -82.5 0
v -35 -95 0
v -25 -15 0
v -25 -12.5 0
v -12.5 -45 0
v -15 -45 0
v -15 -42.5 0
v -12.5 -42.5 0
v -27.5 -15 0
v -27.5 -12.5 0
v -17.5 -45 0
v -20 -45 0
v -20 -42.5 0
v -17.5 -42.5 0
v -32.5 -82.5 0
v -32.5 -80 0
v -27.5 -95 0
v -27.5 -92.5 0
v -20 -17.5 0
v -22.5 -17.5 0
v -10 -37.5 0
v -12.5 -37.5 0
v -42.5 -55 0
v -45 -55 0
v -22.5 -20 0
v -20 -20 0
v -10 -42.5 0
v -12.5 -40 0
v -10 -40 0
v -42.5 -60 0
v -45 -60 0
v -45 -57.5 0
v -42.5 -57.5 0
v -35 -85 0
v -32.5 -85 0
v -30 -97.5 0
v -27.5 -97.5 0
v -10 -45 0
v -45 -42.5 0
v -25 -125 0
v -32.5 -125 0
v -32.5 -117.5 0
v -25 -117.5 0
v 0 -2.5 0
v -2.5 -2.5 0
v -2.5 0 0
v 0 0 0

# Texture cooridinates (Count = 4)
vt 0.0001220703 0.0001220703
vt 0.9998779 0.0001220703
vt 0.9998779 0.9998779
vt 0.0001220703 0.9998779

# Normal
vn 0 0 -1

# Groups (Count = 3)

g mesh_0001
f 1/1/1 2/2/1 3/3/1 4/4/1

g mesh_0002
f 5/1/1 6/2/1 2/3/1 1/4/1
f 7/1/1 8/2/1 5/3/1 9/4/1
f 10/1/1 11/2/1 12/3/1 13/4/1
f 14/1/1 15/2/1 16/3/1 17/4/1
f 18/1/1 19/2/1 20/3/1 21/4/1
f 19/1/1 22/2/1 14/3/1 20/4/1
f 23/1/1 24/2/1 25/3/1 26/4/1
f 24/1/1 27/2/1 28/3/1 25/4/1
f 27/1/1 29/2/1 30/3/1 28/4/1
f 29/1/1 31/2/1 32/3/1 30/4/1
f 33/1/1 34/2/1 35/3/1 36/4/1
f 37/1/1 38/2/1 39/3/1 40/4/1
f 41/1/1 42/2/1 43/3/1 38/4/1
f 44/1/1 45/2/1 42/3/1 41/4/1
f 46/1/1 47/2/1 45/3/1 44/4/1
f 48/1/1 49/2/1 50/3/1 51/4/1
f 52/1/1 53/2/1 49/3/1 48/4/1
f 54/1/1 55/2/1 56/3/1 57/4/1
f 58/1/1 59/2/1 60/3/1 61/4/1
f 62/1/1 63/2/1 59/3/1 58/4/1
f 64/1/1 65/2/1 66/3/1 67/4/1
f 68/1/1 69/2/1 62/3/1 70/4/1
f 71/1/1 72/2/1 73/3/1 74/4/1
f 75/1/1 76/2/1 72/3/1 71/4/1
f 77/1/1 78/2/1 75/3/1 79/4/1
f 80/1/1 81/2/1 82/3/1 83/4/1
f 84/1/1 85/2/1 86/3/1 87/4/1
f 88/1/1 89/2/1 85/3/1 84/4/1
f 90/1/1 91/2/1 89/3/1 88/4/1
f 92/1/1 93/2/1 91/3/1 90/4/1
f 94/1/1 95/2/1 93/3/1 92/4/1
f 96/1/1 97/2/1 95/3/1 94/4/1

g mesh_0003
f 98/1/1 7/2/1 9/3/1 99/4/1
f 100/1/1 101/2/1 102/3/1 103/4/1
f 13/1/1 12/2/1 104/3/1 105/4/1
f 106/1/1 18/2/1 21/3/1 107/4/1

g mesh_0004
f 8/1/1 108/2/1 6/3/1 5/4/1
f 109/1/1 110/2/1 7/3/1 98/4/1
f 12/1/1 111/2/1 112/3/1 104/4/1
f 22/1/1 113/2/1 15/3/1 14/4/1
f 69/1/1 114/2/1 63/3/1 62/4/1
f 78/1/1 115/2/1 76/3/1 75/4/1

g mesh_0005
f 101/1/1 116/2/1 117/3/1 102/4/1
f 118/1/1 119/2/1 120/3/1 121/4/1

g mesh_0006
f 122/1/1 109/2/1 98/3/1 123/4/1
f 124/1/1 125/2/1 126/3/1 127/4/1
f 128/1/1 64/2/1 67/3/1 129/4/1
f 130/1/1 77/2/1 79/3/1 131/4/1

g mesh_0007
f 132/1/1 133/2/1 101/3/1 100/4/1
f 134/1/1 135/2/1 18/3/1 106/4/1
f 136/1/1 137/2/1 47/3/1 46/4/1

g mesh_0008
f 104/1/1 112/2/1 138/3/1 139/4/1
f 140/1/1 121/2/1 141/3/1 142/4/1
f 143/1/1 144/2/1 145/3/1 146/4/1
f 74/1/1 73/2/1 147/3/1 148/4/1
f 83/1/1 82/2/1 149/3/1 150/4/1

g mesh_0009
f 151/1/1 118/2/1 121/3/1 140/4/1

g mesh_0010
f 38/1/1 43/2/1 152/3/1 39/4/1

g mesh_0011
f 153/1/1 154/2/1 155/3/1 156/4/1

g mesh_tile_0011
f 157/1/1 158/2/1 159/3/1 160/4/1

g mesh_tile_0013
f 157/1/1 158/2/1 159/3/1 160/4/1

