# Wavefront OBJ file automatically generated by Tiled2Unity

# Vertices (Count = 151)
v -50 -25 0
v -52.5 -25 0
v -52.5 -22.5 0
v -50 -22.5 0
v -50 -27.5 0
v -52.5 -27.5 0
v -50 -30 0
v -52.5 -30 0
v -50 -32.5 0
v -52.5 -32.5 0
v -50 -35 0
v -52.5 -35 0
v -40 -47.5 0
v -42.5 -47.5 0
v -42.5 -45 0
v -40 -45 0
v -40 -50 0
v -42.5 -50 0
v -40 -52.5 0
v -42.5 -52.5 0
v -40 -55 0
v -42.5 -55 0
v -30 -57.5 0
v -32.5 -57.5 0
v -32.5 -55 0
v -30 -55 0
v -35 -57.5 0
v -35 -55 0
v -37.5 -57.5 0
v -37.5 -55 0
v -40 -57.5 0
v -32.5 -67.5 0
v -35 -67.5 0
v -35 -65 0
v -32.5 -65 0
v -27.5 -70 0
v -30 -70 0
v -30 -67.5 0
v -27.5 -67.5 0
v -27.5 -72.5 0
v -30 -72.5 0
v -32.5 -72.5 0
v -32.5 -70 0
v -32.5 -75 0
v -35 -75 0
v -35 -72.5 0
v -30 -82.5 0
v -32.5 -82.5 0
v -32.5 -80 0
v -30 -80 0
v -27.5 -87.5 0
v -30 -87.5 0
v -30 -85 0
v -27.5 -85 0
v -25 -92.5 0
v -27.5 -92.5 0
v -27.5 -90 0
v -25 -90 0
v -27.5 -97.5 0
v -30 -97.5 0
v -30 -95 0
v -27.5 -95 0
v -30 -100 0
v -32.5 -100 0
v -32.5 -97.5 0
v -30 -102.5 0
v -32.5 -102.5 0
v -30 -105 0
v -32.5 -105 0
v -30 -107.5 0
v -32.5 -107.5 0
v -30 -110 0
v -32.5 -110 0
v -30 -112.5 0
v -32.5 -112.5 0
v -30 -115 0
v -32.5 -115 0
v -30 -117.5 0
v -32.5 -117.5 0
v -30 -120 0
v -32.5 -120 0
v -47.5 -37.5 0
v -50 -37.5 0
v -47.5 -35 0
v -52.5 -37.5 0
v -45 -40 0
v -47.5 -40 0
v -45 -37.5 0
v -50 -40 0
v -42.5 -42.5 0
v -45 -42.5 0
v -42.5 -40 0
v -47.5 -42.5 0
v -40 -42.5 0
v -45 -45 0
v -27.5 -57.5 0
v -27.5 -55 0
v -42.5 -57.5 0
v -27.5 -60 0
v -30 -60 0
v -32.5 -60 0
v -30 -62.5 0
v -32.5 -62.5 0
v -35 -62.5 0
v -35 -60 0
v -37.5 -65 0
v -37.5 -62.5 0
v -30 -65 0
v -37.5 -67.5 0
v -25 -70 0
v -25 -67.5 0
v -25 -72.5 0
v -35 -70 0
v -30 -77.5 0
v -32.5 -77.5 0
v -30 -75 0
v -35 -77.5 0
v -27.5 -80 0
v -27.5 -77.5 0
v -27.5 -82.5 0
v -35 -82.5 0
v -35 -80 0
v -32.5 -85 0
v -35 -85 0
v -25 -87.5 0
v -25 -85 0
v -32.5 -87.5 0
v -30 -90 0
v -22.5 -92.5 0
v -22.5 -90 0
v -30 -92.5 0
v -22.5 -95 0
v -25 -95 0
v -25 -97.5 0
v -32.5 -95 0
v -27.5 -120 0
v -27.5 -117.5 0
v -35 -120 0
v -35 -117.5 0
v -27.5 -122.5 0
v -30 -122.5 0
v -32.5 -122.5 0
v -35 -122.5 0
v -27.5 -125 0
v -30 -125 0
v -32.5 -125 0
v -35 -125 0
v 0 -2.5 0
v -2.5 -2.5 0
v -2.5 0 0
v 0 0 0

# Texture cooridinates (Count = 36)
vt 0.0001220703 0.0001220703
vt 0.9998779 0.0001220703
vt 0.9998779 0.9998779
vt 0.0001220703 0.9998779
vt 4.069011E-05 0.6667074
vt 0.3332926 0.6667074
vt 0.3332926 0.9999593
vt 4.069011E-05 0.9999593
vt 0.6667073 0.6667074
vt 0.9999593 0.6667074
vt 0.9999593 0.9999593
vt 0.6667073 0.9999593
vt 4.069011E-05 0.333374
vt 0.3332926 0.333374
vt 0.3332926 0.666626
vt 4.069011E-05 0.666626
vt 0.333374 0.333374
vt 0.666626 0.333374
vt 0.666626 0.666626
vt 0.333374 0.666626
vt 0.6667073 0.333374
vt 0.9999593 0.333374
vt 0.9999593 0.666626
vt 0.6667073 0.666626
vt 4.069011E-05 4.070997E-05
vt 0.3332926 4.070997E-05
vt 0.3332926 0.3332927
vt 4.069011E-05 0.3332927
vt 0.333374 4.070997E-05
vt 0.666626 4.070997E-05
vt 0.666626 0.3332927
vt 0.333374 0.3332927
vt 0.6667073 4.070997E-05
vt 0.9999593 4.070997E-05
vt 0.9999593 0.3332927
vt 0.6667073 0.3332927

# Normal
vn 0 0 -1

# Groups (Count = 2)

g mesh_0001
f 1/1/1 2/2/1 3/3/1 4/4/1

g mesh_0002
f 5/1/1 6/2/1 2/3/1 1/4/1
f 7/1/1 8/2/1 6/3/1 5/4/1
f 9/1/1 10/2/1 8/3/1 7/4/1
f 11/1/1 12/2/1 10/3/1 9/4/1
f 13/1/1 14/2/1 15/3/1 16/4/1
f 17/1/1 18/2/1 14/3/1 13/4/1
f 19/1/1 20/2/1 18/3/1 17/4/1
f 21/1/1 22/2/1 20/3/1 19/4/1
f 23/1/1 24/2/1 25/3/1 26/4/1
f 24/1/1 27/2/1 28/3/1 25/4/1
f 27/1/1 29/2/1 30/3/1 28/4/1
f 29/1/1 31/2/1 21/3/1 30/4/1
f 32/1/1 33/2/1 34/3/1 35/4/1
f 36/1/1 37/2/1 38/3/1 39/4/1
f 40/1/1 41/2/1 37/3/1 36/4/1
f 41/1/1 42/2/1 43/3/1 37/4/1
f 44/1/1 45/2/1 46/3/1 42/4/1
f 47/1/1 48/2/1 49/3/1 50/4/1
f 51/1/1 52/2/1 53/3/1 54/4/1
f 55/1/1 56/2/1 57/3/1 58/4/1
f 59/1/1 60/2/1 61/3/1 62/4/1
f 63/1/1 64/2/1 65/3/1 60/4/1
f 66/1/1 67/2/1 64/3/1 63/4/1
f 68/1/1 69/2/1 67/3/1 66/4/1
f 70/1/1 71/2/1 69/3/1 68/4/1
f 72/1/1 73/2/1 71/3/1 70/4/1
f 74/1/1 75/2/1 73/3/1 72/4/1
f 76/1/1 77/2/1 75/3/1 74/4/1
f 78/1/1 79/2/1 77/3/1 76/4/1
f 80/1/1 81/2/1 79/3/1 78/4/1

g mesh_0003
f 82/1/1 83/2/1 11/3/1 84/4/1
f 83/3/1 85/4/1 12/1/1 11/2/1
f 86/1/1 87/2/1 82/3/1 88/4/1
f 87/3/1 89/4/1 83/1/1 82/2/1
f 90/1/1 91/2/1 86/3/1 92/4/1
f 91/3/1 93/4/1 87/1/1 86/2/1
f 16/1/1 15/2/1 90/3/1 94/4/1
f 15/3/1 95/4/1 91/1/1 90/2/1
f 96/1/1 23/2/1 26/3/1 97/4/1
f 31/3/1 98/4/1 22/1/1 21/2/1
f 99/4/1 100/1/1 23/2/1 96/3/1
f 100/2/1 101/3/1 24/4/1 23/1/1
f 102/4/1 103/1/1 101/2/1 100/3/1
f 103/2/1 104/3/1 105/4/1 101/1/1
f 35/4/1 34/1/1 104/2/1 103/3/1
f 34/2/1 106/3/1 107/4/1 104/1/1
f 38/1/1 32/2/1 35/3/1 108/4/1
f 33/3/1 109/4/1 106/1/1 34/2/1
f 110/1/1 36/2/1 39/3/1 111/4/1
f 37/3/1 43/4/1 32/1/1 38/2/1
f 112/4/1 40/1/1 36/2/1 110/3/1
f 42/2/1 46/3/1 113/4/1 43/1/1
f 114/1/1 115/2/1 44/3/1 116/4/1
f 115/3/1 117/4/1 45/1/1 44/2/1
f 118/1/1 50/2/1 114/3/1 119/4/1
f 50/3/1 49/4/1 115/1/1 114/2/1
f 120/4/1 47/1/1 50/2/1 118/3/1
f 48/2/1 121/3/1 122/4/1 49/1/1
f 53/1/1 123/2/1 48/3/1 47/4/1
f 123/3/1 124/4/1 121/1/1 48/2/1
f 125/1/1 51/2/1 54/3/1 126/4/1
f 52/3/1 127/4/1 123/1/1 53/2/1
f 58/4/1 57/1/1 51/2/1 125/3/1
f 57/2/1 128/3/1 52/4/1 51/1/1
f 129/1/1 55/2/1 58/3/1 130/4/1
f 56/3/1 131/4/1 128/1/1 57/2/1
f 132/4/1 133/1/1 55/2/1 129/3/1
f 133/2/1 62/3/1 56/4/1 55/1/1
f 134/4/1 59/1/1 62/2/1 133/3/1
f 60/2/1 65/3/1 135/4/1 61/1/1

g mesh_0004
f 136/5/1 80/6/1 78/7/1 137/8/1
f 81/9/1 138/10/1 139/11/1 79/12/1
f 140/13/1 141/14/1 80/15/1 136/16/1
f 141/17/1 142/18/1 81/19/1 80/20/1
f 142/21/1 143/22/1 138/23/1 81/24/1
f 144/25/1 145/26/1 141/27/1 140/28/1
f 145/29/1 146/30/1 142/31/1 141/32/1
f 146/33/1 147/34/1 143/35/1 142/36/1

g mesh_tile_0012
f 148/1/1 149/2/1 150/3/1 151/4/1

