# Wavefront OBJ file automatically generated by Tiled2Unity

# Vertices (Count = 149)
v -7250 -750 0
v -7500 -750 0
v -7500 -500 0
v -7250 -500 0
v -7250 -1000 0
v -7500 -1000 0
v -7500 -1500 0
v -7750 -1500 0
v -7750 -1250 0
v -7500 -1250 0
v -6500 -2750 0
v -6750 -2750 0
v -6750 -2500 0
v -6500 -2500 0
v -6750 -3250 0
v -7000 -3250 0
v -7000 -3000 0
v -6750 -3000 0
v -7000 -3500 0
v -7250 -3500 0
v -7250 -3250 0
v -6750 -3750 0
v -7000 -3750 0
v -6750 -3500 0
v -6500 -4000 0
v -6750 -4000 0
v -6500 -3750 0
v -6000 -4500 0
v -6250 -4500 0
v -6250 -4250 0
v -6000 -4250 0
v -5500 -5000 0
v -5750 -5000 0
v -5750 -4750 0
v -5500 -4750 0
v -5250 -5250 0
v -5500 -5250 0
v -5250 -5000 0
v -5000 -5500 0
v -5250 -5500 0
v -5000 -5250 0
v -4750 -6250 0
v -5000 -6250 0
v -5000 -6000 0
v -4750 -6000 0
v -4500 -6500 0
v -4750 -6500 0
v -4500 -6250 0
v -4750 -6750 0
v -5000 -6750 0
v -5000 -6500 0
v -5000 -7000 0
v -5250 -7000 0
v -5250 -6750 0
v -5250 -7500 0
v -5500 -7500 0
v -5500 -7250 0
v -5250 -7250 0
v -5250 -7750 0
v -5500 -7750 0
v -5250 -8000 0
v -5500 -8000 0
v -5250 -8250 0
v -5500 -8250 0
v -5500 -9750 0
v -5750 -9750 0
v -5750 -9500 0
v -5500 -9500 0
v -5500 -10000 0
v -5750 -10000 0
v -5500 -10250 0
v -5750 -10250 0
v -5500 -10500 0
v -5750 -10500 0
v -5500 -10750 0
v -5750 -10750 0
v -7250 -1250 0
v -6750 -2250 0
v -6500 -2250 0
v -6250 -3000 0
v -6500 -3000 0
v -6250 -2750 0
v -6500 -3250 0
v -4500 -6750 0
v -5000 -7250 0
v -5250 -8500 0
v -5500 -8500 0
v -7750 -1000 0
v -7000 -2500 0
v -7000 -2250 0
v -7250 -3000 0
v -5750 -5750 0
v -6000 -5750 0
v -6000 -5500 0
v -5750 -5500 0
v -5250 -6500 0
v -5500 -7000 0
v -6500 -1750 0
v -6750 -1750 0
v -6750 -1500 0
v -6500 -1500 0
v -7250 -1750 0
v -7500 -1750 0
v -7250 -1500 0
v -5500 -5750 0
v -5500 -5500 0
v -7000 -1750 0
v -7000 -1500 0
v -5250 -6000 0
v -5500 -6000 0
v -5250 -5750 0
v -5750 -8500 0
v -5750 -8250 0
v -7750 -1750 0
v -7000 -2750 0
v -7250 -3750 0
v -6500 -4250 0
v -6750 -4250 0
v -6500 -4500 0
v -6000 -4750 0
v -5750 -4500 0
v -5750 -5250 0
v -5250 -6250 0
v -6750 -2000 0
v -6500 -2000 0
v -5750 -9250 0
v -5500 -9250 0
v -6250 -2500 0
v -6500 -3500 0
v -6250 -4000 0
v -5750 -4250 0
v -5500 -4500 0
v -5000 -5000 0
v -5000 -5750 0
v -4500 -6000 0
v -5750 -6000 0
v -6000 -6000 0
v -5500 -9000 0
v -5750 -9000 0
v -5750 -8750 0
v -5500 -8750 0
v -5250 -11250 0
v -6000 -11250 0
v -6000 -10500 0
v -5250 -10500 0
v 0 -250 0
v -250 -250 0
v -250 0 0
v 0 0 0

# Texture cooridinates (Count = 4)
vt 0.0001220703 0.0001220703
vt 0.9998779 0.0001220703
vt 0.9998779 0.9998779
vt 0.0001220703 0.9998779

# Normal
vn 0 0 -1

# Groups (Count = 2)

g mesh_0001
f 1/1/1 2/2/1 3/3/1 4/4/1

g mesh_0002
f 5/1/1 6/2/1 2/3/1 1/4/1
f 7/1/1 8/2/1 9/3/1 10/4/1
f 11/1/1 12/2/1 13/3/1 14/4/1
f 15/1/1 16/2/1 17/3/1 18/4/1
f 19/1/1 20/2/1 21/3/1 16/4/1
f 22/1/1 23/2/1 19/3/1 24/4/1
f 25/1/1 26/2/1 22/3/1 27/4/1
f 28/1/1 29/2/1 30/3/1 31/4/1
f 32/1/1 33/2/1 34/3/1 35/4/1
f 36/1/1 37/2/1 32/3/1 38/4/1
f 39/1/1 40/2/1 36/3/1 41/4/1
f 42/1/1 43/2/1 44/3/1 45/4/1
f 46/1/1 47/2/1 42/3/1 48/4/1
f 49/1/1 50/2/1 51/3/1 47/4/1
f 52/1/1 53/2/1 54/3/1 50/4/1
f 55/1/1 56/2/1 57/3/1 58/4/1
f 59/1/1 60/2/1 56/3/1 55/4/1
f 61/1/1 62/2/1 60/3/1 59/4/1
f 63/1/1 64/2/1 62/3/1 61/4/1
f 65/1/1 66/2/1 67/3/1 68/4/1
f 69/1/1 70/2/1 66/3/1 65/4/1
f 71/1/1 72/2/1 70/3/1 69/4/1
f 73/1/1 74/2/1 72/3/1 71/4/1
f 75/1/1 76/2/1 74/3/1 73/4/1

g mesh_0003
f 77/1/1 10/2/1 6/3/1 5/4/1
f 14/1/1 13/2/1 78/3/1 79/4/1
f 80/1/1 81/2/1 11/3/1 82/4/1
f 83/1/1 15/2/1 18/3/1 81/4/1
f 84/1/1 49/2/1 47/3/1 46/4/1
f 85/1/1 58/2/1 53/3/1 52/4/1
f 86/1/1 87/2/1 64/3/1 63/4/1

g mesh_0004
f 10/1/1 9/2/1 88/3/1 6/4/1
f 13/1/1 89/2/1 90/3/1 78/4/1
f 81/1/1 18/2/1 12/3/1 11/4/1
f 16/1/1 21/2/1 91/3/1 17/4/1
f 92/1/1 93/2/1 94/3/1 95/4/1
f 50/1/1 54/2/1 96/3/1 51/4/1
f 58/1/1 57/2/1 97/3/1 53/4/1

g mesh_0005
f 98/1/1 99/2/1 100/3/1 101/4/1
f 102/1/1 103/2/1 7/3/1 104/4/1
f 105/1/1 92/2/1 95/3/1 106/4/1

g mesh_0006
f 99/1/1 107/2/1 108/3/1 100/4/1
f 109/1/1 110/2/1 105/3/1 111/4/1
f 87/1/1 112/2/1 113/3/1 64/4/1

g mesh_0007
f 103/1/1 114/2/1 8/3/1 7/4/1
f 12/1/1 115/2/1 89/3/1 13/4/1
f 23/1/1 116/2/1 20/3/1 19/4/1
f 117/1/1 118/2/1 26/3/1 25/4/1
f 29/1/1 119/2/1 117/3/1 30/4/1
f 34/1/1 120/2/1 28/3/1 121/4/1
f 37/1/1 122/2/1 33/3/1 32/4/1
f 43/1/1 123/2/1 109/3/1 44/4/1

g mesh_0008
f 79/1/1 78/2/1 124/3/1 125/4/1
f 68/1/1 67/2/1 126/3/1 127/4/1

g mesh_0009
f 82/1/1 11/2/1 14/3/1 128/4/1
f 27/1/1 22/2/1 24/3/1 129/4/1
f 30/1/1 117/2/1 25/3/1 130/4/1
f 121/1/1 28/2/1 31/3/1 131/4/1
f 35/1/1 34/2/1 121/3/1 132/4/1
f 41/1/1 36/2/1 38/3/1 133/4/1
f 44/1/1 109/2/1 111/3/1 134/4/1
f 48/1/1 42/2/1 45/3/1 135/4/1

g mesh_0010
f 134/1/1 111/2/1 40/3/1 39/4/1
f 136/1/1 137/2/1 93/3/1 92/4/1

g mesh_0011
f 138/1/1 139/2/1 140/3/1 141/4/1

g mesh_0012
f 142/1/1 143/2/1 144/3/1 145/4/1

g mesh_tile_0002
f 146/1/1 147/2/1 148/3/1 149/4/1

