# Wavefront OBJ file automatically generated by Tiled2Unity

# Vertices (Count = 170)
v -20 -47.5 0
v -22.5 -47.5 0
v -22.5 -45 0
v -20 -45 0
v -20 -50 0
v -22.5 -50 0
v -20 -52.5 0
v -22.5 -52.5 0
v -22.5 -55 0
v -25 -55 0
v -25 -52.5 0
v -55 -82.5 0
v -57.5 -82.5 0
v -57.5 -80 0
v -55 -80 0
v -60 -82.5 0
v -60 -80 0
v -70 -85 0
v -72.5 -85 0
v -72.5 -82.5 0
v -70 -82.5 0
v -70 -102.5 0
v -72.5 -102.5 0
v -72.5 -100 0
v -70 -100 0
v -70 -105 0
v -72.5 -105 0
v -70 -107.5 0
v -72.5 -107.5 0
v -70 -110 0
v -72.5 -110 0
v -70 -112.5 0
v -72.5 -112.5 0
v -70 -115 0
v -72.5 -115 0
v -70 -117.5 0
v -72.5 -117.5 0
v -70 -120 0
v -72.5 -120 0
v -20 -55 0
v -2.5 -67.5 0
v -5 -67.5 0
v -5 -65 0
v -2.5 -65 0
v -2.5 -82.5 0
v -5 -82.5 0
v -5 -80 0
v -2.5 -80 0
v -72.5 -80 0
v -70 -80 0
v -70 -87.5 0
v -72.5 -87.5 0
v -60 -100 0
v -62.5 -100 0
v -62.5 -97.5 0
v -60 -97.5 0
v -72.5 -97.5 0
v -70 -97.5 0
v -27.5 -55 0
v -27.5 -52.5 0
v -25 -65 0
v -27.5 -65 0
v -27.5 -62.5 0
v -25 -62.5 0
v -7.5 -67.5 0
v -7.5 -65 0
v -10 -67.5 0
v -12.5 -67.5 0
v -12.5 -65 0
v -10 -65 0
v -15 -67.5 0
v -17.5 -67.5 0
v -17.5 -65 0
v -15 -65 0
v -25 -67.5 0
v -27.5 -67.5 0
v -2.5 -70 0
v -5 -70 0
v -5 -77.5 0
v -2.5 -77.5 0
v -7.5 -82.5 0
v -7.5 -80 0
v -30 -82.5 0
v -32.5 -82.5 0
v -32.5 -80 0
v -30 -80 0
v -35 -82.5 0
v -37.5 -82.5 0
v -37.5 -80 0
v -35 -80 0
v -50 -82.5 0
v -52.5 -82.5 0
v -52.5 -80 0
v -50 -80 0
v -62.5 -82.5 0
v -65 -82.5 0
v -65 -80 0
v -62.5 -80 0
v -67.5 -82.5 0
v -67.5 -80 0
v -60 -87.5 0
v -62.5 -87.5 0
v -62.5 -85 0
v -60 -85 0
v -65 -87.5 0
v -65 -85 0
v -67.5 -87.5 0
v -67.5 -85 0
v -62.5 -95 0
v -60 -95 0
v -65 -100 0
v -65 -97.5 0
v -67.5 -100 0
v -67.5 -97.5 0
v -25 -60 0
v -27.5 -60 0
v -27.5 -57.5 0
v -25 -57.5 0
v -20 -67.5 0
v -22.5 -67.5 0
v -22.5 -65 0
v -20 -65 0
v -2.5 -75 0
v -5 -75 0
v -5 -72.5 0
v -2.5 -72.5 0
v -10 -82.5 0
v -12.5 -82.5 0
v -12.5 -80 0
v -10 -80 0
v -15 -82.5 0
v -17.5 -82.5 0
v -17.5 -80 0
v -15 -80 0
v -20 -82.5 0
v -22.5 -82.5 0
v -22.5 -80 0
v -20 -80 0
v -25 -82.5 0
v -27.5 -82.5 0
v -27.5 -80 0
v -25 -80 0
v -40 -82.5 0
v -42.5 -82.5 0
v -42.5 -80 0
v -40 -80 0
v -45 -82.5 0
v -47.5 -82.5 0
v -47.5 -80 0
v -45 -80 0
v -60 -92.5 0
v -62.5 -92.5 0
v -62.5 -90 0
v -60 -90 0
v -67.5 -120 0
v -67.5 -117.5 0
v -75 -120 0
v -75 -117.5 0
v -67.5 -122.5 0
v -70 -122.5 0
v -72.5 -122.5 0
v -75 -122.5 0
v -67.5 -125 0
v -70 -125 0
v -72.5 -125 0
v -75 -125 0
v 0 -2.5 0
v -2.5 -2.5 0
v -2.5 0 0
v 0 0 0

# Texture cooridinates (Count = 36)
vt 0.0001220703 0.0001220703
vt 0.9998779 0.0001220703
vt 0.9998779 0.9998779
vt 0.0001220703 0.9998779
vt 4.069011E-05 0.6667074
vt 0.3332926 0.6667074
vt 0.3332926 0.9999593
vt 4.069011E-05 0.9999593
vt 0.6667073 0.6667074
vt 0.9999593 0.6667074
vt 0.9999593 0.9999593
vt 0.6667073 0.9999593
vt 4.069011E-05 0.333374
vt 0.3332926 0.333374
vt 0.3332926 0.666626
vt 4.069011E-05 0.666626
vt 0.333374 0.333374
vt 0.666626 0.333374
vt 0.666626 0.666626
vt 0.333374 0.666626
vt 0.6667073 0.333374
vt 0.9999593 0.333374
vt 0.9999593 0.666626
vt 0.6667073 0.666626
vt 4.069011E-05 4.070997E-05
vt 0.3332926 4.070997E-05
vt 0.3332926 0.3332927
vt 4.069011E-05 0.3332927
vt 0.333374 4.070997E-05
vt 0.666626 4.070997E-05
vt 0.666626 0.3332927
vt 0.333374 0.3332927
vt 0.6667073 4.070997E-05
vt 0.9999593 4.070997E-05
vt 0.9999593 0.3332927
vt 0.6667073 0.3332927

# Normal
vn 0 0 -1

# Groups (Count = 3)

g mesh_0001
f 1/1/1 2/2/1 3/3/1 4/4/1

g mesh_0002
f 5/1/1 6/2/1 2/3/1 1/4/1
f 7/1/1 8/2/1 6/3/1 5/4/1
f 9/1/1 10/2/1 11/3/1 8/4/1
f 12/1/1 13/2/1 14/3/1 15/4/1
f 13/1/1 16/2/1 17/3/1 14/4/1
f 18/1/1 19/2/1 20/3/1 21/4/1
f 22/1/1 23/2/1 24/3/1 25/4/1
f 26/1/1 27/2/1 23/3/1 22/4/1
f 28/1/1 29/2/1 27/3/1 26/4/1
f 30/1/1 31/2/1 29/3/1 28/4/1
f 32/1/1 33/2/1 31/3/1 30/4/1
f 34/1/1 35/2/1 33/3/1 32/4/1
f 36/1/1 37/2/1 35/3/1 34/4/1
f 38/1/1 39/2/1 37/3/1 36/4/1

g mesh_0003
f 40/4/1 9/1/1 8/2/1 7/3/1
f 41/1/1 42/2/1 43/3/1 44/4/1
f 45/4/1 46/1/1 47/2/1 48/3/1
f 21/2/1 20/3/1 49/4/1 50/1/1
f 51/3/1 52/4/1 19/1/1 18/2/1
f 53/4/1 54/1/1 55/2/1 56/3/1
f 25/2/1 24/3/1 57/4/1 58/1/1

g mesh_0004
f 10/2/1 59/3/1 60/4/1 11/1/1
f 61/1/1 62/2/1 63/3/1 64/4/1
f 42/2/1 65/3/1 66/4/1 43/1/1
f 67/4/1 68/1/1 69/2/1 70/3/1
f 71/2/1 72/3/1 73/4/1 74/1/1
f 75/3/1 76/4/1 62/1/1 61/2/1
f 77/3/1 78/4/1 42/1/1 41/2/1
f 48/1/1 47/2/1 79/3/1 80/4/1
f 46/2/1 81/3/1 82/4/1 47/1/1
f 83/4/1 84/1/1 85/2/1 86/3/1
f 87/2/1 88/3/1 89/4/1 90/1/1
f 91/4/1 92/1/1 93/2/1 94/3/1
f 95/2/1 96/3/1 97/4/1 98/1/1
f 99/4/1 21/1/1 50/2/1 100/3/1
f 101/4/1 102/1/1 103/2/1 104/3/1
f 102/2/1 105/3/1 106/4/1 103/1/1
f 107/4/1 51/1/1 18/2/1 108/3/1
f 56/1/1 55/2/1 109/3/1 110/4/1
f 54/2/1 111/3/1 112/4/1 55/1/1
f 113/4/1 25/1/1 58/2/1 114/3/1

g mesh_0005
f 115/1/1 116/2/1 117/3/1 118/4/1
f 119/1/1 120/2/1 121/3/1 122/4/1
f 123/1/1 124/2/1 125/3/1 126/4/1
f 127/1/1 128/2/1 129/3/1 130/4/1
f 131/1/1 132/2/1 133/3/1 134/4/1
f 135/1/1 136/2/1 137/3/1 138/4/1
f 139/1/1 140/2/1 141/3/1 142/4/1
f 143/1/1 144/2/1 145/3/1 146/4/1
f 147/1/1 148/2/1 149/3/1 150/4/1
f 151/1/1 152/2/1 153/3/1 154/4/1

g mesh_0006
f 155/5/1 38/6/1 36/7/1 156/8/1
f 39/9/1 157/10/1 158/11/1 37/12/1
f 159/13/1 160/14/1 38/15/1 155/16/1
f 160/17/1 161/18/1 39/19/1 38/20/1
f 161/21/1 162/22/1 157/23/1 39/24/1
f 163/25/1 164/26/1 160/27/1 159/28/1
f 164/29/1 165/30/1 161/31/1 160/32/1
f 165/33/1 166/34/1 162/35/1 161/36/1

g mesh_tile_0014
f 167/1/1 168/2/1 169/3/1 170/4/1

g mesh_tile_0013
f 167/1/1 168/2/1 169/3/1 170/4/1

