# Wavefront OBJ file automatically generated by Tiled2Unity

# Vertices (Count = 148)
v -80 -25 0
v -82.5 -25 0
v -82.5 -22.5 0
v -80 -22.5 0
v -80 -27.5 0
v -82.5 -27.5 0
v -75 -65 0
v -77.5 -65 0
v -77.5 -62.5 0
v -75 -62.5 0
v -55 -115 0
v -57.5 -115 0
v -57.5 -112.5 0
v -55 -112.5 0
v -52.5 -120 0
v -55 -120 0
v -55 -117.5 0
v -52.5 -117.5 0
v -52.5 -122.5 0
v -55 -122.5 0
v -52.5 -125 0
v -55 -125 0
v -52.5 -127.5 0
v -55 -127.5 0
v -52.5 -130 0
v -55 -130 0
v -52.5 -132.5 0
v -55 -132.5 0
v -72.5 -30 0
v -75 -30 0
v -75 -27.5 0
v -72.5 -27.5 0
v -77.5 -30 0
v -77.5 -27.5 0
v -80 -30 0
v -82.5 -30 0
v -72.5 -40 0
v -75 -40 0
v -75 -37.5 0
v -72.5 -37.5 0
v -70 -45 0
v -72.5 -45 0
v -72.5 -42.5 0
v -70 -42.5 0
v -70 -50 0
v -72.5 -50 0
v -72.5 -47.5 0
v -70 -47.5 0
v -70 -52.5 0
v -72.5 -52.5 0
v -75 -52.5 0
v -77.5 -52.5 0
v -77.5 -50 0
v -75 -50 0
v -80 -52.5 0
v -80 -50 0
v -80 -62.5 0
v -80 -60 0
v -77.5 -60 0
v -60 -67.5 0
v -62.5 -67.5 0
v -62.5 -65 0
v -60 -65 0
v -70 -67.5 0
v -72.5 -67.5 0
v -72.5 -65 0
v -70 -65 0
v -57.5 -70 0
v -60 -70 0
v -57.5 -67.5 0
v -57.5 -75 0
v -60 -75 0
v -60 -72.5 0
v -57.5 -72.5 0
v -47.5 -77.5 0
v -50 -77.5 0
v -50 -75 0
v -47.5 -75 0
v -52.5 -77.5 0
v -52.5 -75 0
v -55 -77.5 0
v -57.5 -77.5 0
v -55 -75 0
v -47.5 -87.5 0
v -50 -87.5 0
v -50 -85 0
v -47.5 -85 0
v -50 -90 0
v -52.5 -90 0
v -52.5 -87.5 0
v -50 -100 0
v -52.5 -100 0
v -52.5 -97.5 0
v -50 -97.5 0
v -47.5 -105 0
v -50 -105 0
v -50 -102.5 0
v -47.5 -102.5 0
v -47.5 -110 0
v -50 -110 0
v -50 -107.5 0
v -47.5 -107.5 0
v -47.5 -112.5 0
v -50 -112.5 0
v -52.5 -112.5 0
v -55 -110 0
v -52.5 -110 0
v -72.5 -35 0
v -75 -35 0
v -75 -32.5 0
v -72.5 -32.5 0
v -77.5 -57.5 0
v -80 -57.5 0
v -80 -55 0
v -77.5 -55 0
v -65 -67.5 0
v -67.5 -67.5 0
v -67.5 -65 0
v -65 -65 0
v -47.5 -82.5 0
v -50 -82.5 0
v -50 -80 0
v -47.5 -80 0
v -50 -95 0
v -52.5 -95 0
v -52.5 -92.5 0
v -50 -92.5 0
v -70 -40 0
v -75 -42.5 0
v -72.5 -62.5 0
v -80 -65 0
v -57.5 -65 0
v -75 -67.5 0
v -60 -77.5 0
v -47.5 -90 0
v -47.5 -100 0
v -52.5 -102.5 0
v -57.5 -110 0
v -52.5 -115 0
v -57.5 -117.5 0
v -50 -137.5 0
v -57.5 -137.5 0
v -57.5 -130 0
v -50 -130 0
v 0 -2.5 0
v -2.5 -2.5 0
v -2.5 0 0
v 0 0 0

# Texture cooridinates (Count = 4)
vt 0.0001220703 0.0001220703
vt 0.9998779 0.0001220703
vt 0.9998779 0.9998779
vt 0.0001220703 0.9998779

# Normal
vn 0 0 -1

# Groups (Count = 2)

g mesh_0001
f 1/1/1 2/2/1 3/3/1 4/4/1

g mesh_0002
f 5/1/1 6/2/1 2/3/1 1/4/1
f 7/1/1 8/2/1 9/3/1 10/4/1
f 11/1/1 12/2/1 13/3/1 14/4/1
f 15/1/1 16/2/1 17/3/1 18/4/1
f 19/1/1 20/2/1 16/3/1 15/4/1
f 21/1/1 22/2/1 20/3/1 19/4/1
f 23/1/1 24/2/1 22/3/1 21/4/1
f 25/1/1 26/2/1 24/3/1 23/4/1
f 27/1/1 28/2/1 26/3/1 25/4/1

g mesh_0003
f 29/4/1 30/1/1 31/2/1 32/3/1
f 30/2/1 33/3/1 34/4/1 31/1/1
f 35/3/1 36/4/1 6/1/1 5/2/1
f 37/1/1 38/2/1 39/3/1 40/4/1
f 41/3/1 42/4/1 43/1/1 44/2/1
f 45/1/1 46/2/1 47/3/1 48/4/1
f 49/3/1 50/4/1 46/1/1 45/2/1
f 51/4/1 52/1/1 53/2/1 54/3/1
f 52/2/1 55/3/1 56/4/1 53/1/1
f 9/1/1 57/2/1 58/3/1 59/4/1
f 60/2/1 61/3/1 62/4/1 63/1/1
f 64/4/1 65/1/1 66/2/1 67/3/1
f 68/3/1 69/4/1 60/1/1 70/2/1
f 71/1/1 72/2/1 73/3/1 74/4/1
f 75/4/1 76/1/1 77/2/1 78/3/1
f 76/2/1 79/3/1 80/4/1 77/1/1
f 81/4/1 82/1/1 71/2/1 83/3/1
f 84/1/1 85/2/1 86/3/1 87/4/1
f 88/2/1 89/3/1 90/4/1 85/1/1
f 91/1/1 92/2/1 93/3/1 94/4/1
f 95/3/1 96/4/1 97/1/1 98/2/1
f 99/1/1 100/2/1 101/3/1 102/4/1
f 103/3/1 104/4/1 100/1/1 99/2/1
f 105/4/1 14/1/1 106/2/1 107/3/1

g mesh_0004
f 108/1/1 109/2/1 110/3/1 111/4/1
f 112/1/1 113/2/1 114/3/1 115/4/1
f 116/1/1 117/2/1 118/3/1 119/4/1
f 120/1/1 121/2/1 122/3/1 123/4/1
f 124/1/1 125/2/1 126/3/1 127/4/1

g mesh_0005
f 44/1/1 43/2/1 37/3/1 128/4/1
f 43/3/1 129/4/1 38/1/1 37/2/1
f 66/1/1 7/2/1 10/3/1 130/4/1
f 8/3/1 131/4/1 57/1/1 9/2/1
f 70/1/1 60/2/1 63/3/1 132/4/1
f 65/3/1 133/4/1 7/1/1 66/2/1
f 82/3/1 134/4/1 72/1/1 71/2/1
f 135/4/1 88/1/1 85/2/1 84/3/1
f 98/1/1 97/2/1 91/3/1 136/4/1
f 97/3/1 137/4/1 92/1/1 91/2/1
f 14/2/1 13/3/1 138/4/1 106/1/1
f 18/1/1 17/2/1 11/3/1 139/4/1
f 17/3/1 140/4/1 12/1/1 11/2/1

g mesh_0006
f 141/1/1 142/2/1 143/3/1 144/4/1

g mesh_tile_0007
f 145/1/1 146/2/1 147/3/1 148/4/1

