# Wavefront OBJ file automatically generated by Tiled2Unity

# Vertices (Count = 151)
v -50 -15 0
v -52.5 -15 0
v -52.5 -12.5 0
v -50 -12.5 0
v -50 -17.5 0
v -52.5 -17.5 0
v -50 -20 0
v -52.5 -20 0
v -50 -22.5 0
v -52.5 -22.5 0
v -47.5 -25 0
v -50 -25 0
v -47.5 -22.5 0
v -45 -27.5 0
v -47.5 -27.5 0
v -45 -25 0
v -47.5 -30 0
v -50 -30 0
v -50 -27.5 0
v -50 -32.5 0
v -52.5 -32.5 0
v -52.5 -30 0
v -50 -35 0
v -52.5 -35 0
v -47.5 -40 0
v -50 -40 0
v -50 -37.5 0
v -47.5 -37.5 0
v -50 -42.5 0
v -52.5 -42.5 0
v -52.5 -40 0
v -50 -47.5 0
v -52.5 -47.5 0
v -52.5 -45 0
v -50 -45 0
v -55 -55 0
v -57.5 -55 0
v -57.5 -52.5 0
v -55 -52.5 0
v -47.5 -77.5 0
v -50 -77.5 0
v -50 -75 0
v -47.5 -75 0
v -45 -80 0
v -47.5 -80 0
v -45 -77.5 0
v -42.5 -82.5 0
v -45 -82.5 0
v -42.5 -80 0
v -40 -85 0
v -42.5 -85 0
v -40 -82.5 0
v -35 -95 0
v -37.5 -95 0
v -37.5 -92.5 0
v -35 -92.5 0
v -32.5 -97.5 0
v -35 -97.5 0
v -32.5 -95 0
v -32.5 -100 0
v -35 -100 0
v -30 -102.5 0
v -32.5 -102.5 0
v -30 -100 0
v -30 -105 0
v -32.5 -105 0
v -32.5 -107.5 0
v -35 -107.5 0
v -35 -105 0
v -32.5 -110 0
v -35 -110 0
v -32.5 -112.5 0
v -35 -112.5 0
v -32.5 -115 0
v -35 -115 0
v -32.5 -117.5 0
v -35 -117.5 0
v -32.5 -120 0
v -35 -120 0
v -45 -22.5 0
v -52.5 -25 0
v -45 -30 0
v -52.5 -27.5 0
v -47.5 -35 0
v -52.5 -37.5 0
v -47.5 -42.5 0
v -55 -42.5 0
v -55 -40 0
v -55 -45 0
v -50 -50 0
v -52.5 -50 0
v -55 -50 0
v -55 -47.5 0
v -52.5 -52.5 0
v -57.5 -50 0
v -47.5 -65 0
v -50 -65 0
v -50 -62.5 0
v -47.5 -62.5 0
v -52.5 -65 0
v -52.5 -62.5 0
v -50 -72.5 0
v -47.5 -72.5 0
v -52.5 -75 0
v -52.5 -72.5 0
v -42.5 -77.5 0
v -50 -80 0
v -37.5 -85 0
v -37.5 -82.5 0
v -45 -85 0
v -32.5 -92.5 0
v -40 -95 0
v -40 -92.5 0
v -27.5 -102.5 0
v -27.5 -100 0
v -35 -102.5 0
v -27.5 -105 0
v -47.5 -57.5 0
v -50 -57.5 0
v -50 -55 0
v -47.5 -55 0
v -52.5 -57.5 0
v -52.5 -55 0
v -55 -57.5 0
v -57.5 -57.5 0
v -50 -60 0
v -47.5 -60 0
v -50 -67.5 0
v -52.5 -67.5 0
v -52.5 -70 0
v -50 -70 0
v -37.5 -87.5 0
v -40 -87.5 0
v -40 -90 0
v -37.5 -90 0
v -30 -120 0
v -30 -117.5 0
v -37.5 -120 0
v -37.5 -117.5 0
v -30 -122.5 0
v -32.5 -122.5 0
v -35 -122.5 0
v -37.5 -122.5 0
v -30 -125 0
v -32.5 -125 0
v -35 -125 0
v -37.5 -125 0
v 0 -2.5 0
v -2.5 -2.5 0
v -2.5 0 0
v 0 0 0

# Texture cooridinates (Count = 36)
vt 0.0001220703 0.0001220703
vt 0.9998779 0.0001220703
vt 0.9998779 0.9998779
vt 0.0001220703 0.9998779
vt 4.069011E-05 0.6667074
vt 0.3332926 0.6667074
vt 0.3332926 0.9999593
vt 4.069011E-05 0.9999593
vt 0.6667073 0.6667074
vt 0.9999593 0.6667074
vt 0.9999593 0.9999593
vt 0.6667073 0.9999593
vt 4.069011E-05 0.333374
vt 0.3332926 0.333374
vt 0.3332926 0.666626
vt 4.069011E-05 0.666626
vt 0.333374 0.333374
vt 0.666626 0.333374
vt 0.666626 0.666626
vt 0.333374 0.666626
vt 0.6667073 0.333374
vt 0.9999593 0.333374
vt 0.9999593 0.666626
vt 0.6667073 0.666626
vt 4.069011E-05 4.070997E-05
vt 0.3332926 4.070997E-05
vt 0.3332926 0.3332927
vt 4.069011E-05 0.3332927
vt 0.333374 4.070997E-05
vt 0.666626 4.070997E-05
vt 0.666626 0.3332927
vt 0.333374 0.3332927
vt 0.6667073 4.070997E-05
vt 0.9999593 4.070997E-05
vt 0.9999593 0.3332927
vt 0.6667073 0.3332927

# Normal
vn 0 0 -1

# Groups (Count = 2)

g mesh_0001
f 1/1/1 2/2/1 3/3/1 4/4/1

g mesh_0002
f 5/1/1 6/2/1 2/3/1 1/4/1
f 7/1/1 8/2/1 6/3/1 5/4/1
f 9/1/1 10/2/1 8/3/1 7/4/1
f 11/1/1 12/2/1 9/3/1 13/4/1
f 14/1/1 15/2/1 11/3/1 16/4/1
f 17/1/1 18/2/1 19/3/1 15/4/1
f 20/1/1 21/2/1 22/3/1 18/4/1
f 23/1/1 24/2/1 21/3/1 20/4/1
f 25/1/1 26/2/1 27/3/1 28/4/1
f 29/1/1 30/2/1 31/3/1 26/4/1
f 32/1/1 33/2/1 34/3/1 35/4/1
f 36/1/1 37/2/1 38/3/1 39/4/1
f 40/1/1 41/2/1 42/3/1 43/4/1
f 44/1/1 45/2/1 40/3/1 46/4/1
f 47/1/1 48/2/1 44/3/1 49/4/1
f 50/1/1 51/2/1 47/3/1 52/4/1
f 53/1/1 54/2/1 55/3/1 56/4/1
f 57/1/1 58/2/1 53/3/1 59/4/1
f 60/1/1 61/2/1 58/3/1 57/4/1
f 62/1/1 63/2/1 60/3/1 64/4/1
f 65/1/1 66/2/1 63/3/1 62/4/1
f 67/1/1 68/2/1 69/3/1 66/4/1
f 70/1/1 71/2/1 68/3/1 67/4/1
f 72/1/1 73/2/1 71/3/1 70/4/1
f 74/1/1 75/2/1 73/3/1 72/4/1
f 76/1/1 77/2/1 75/3/1 74/4/1
f 78/1/1 79/2/1 77/3/1 76/4/1

g mesh_0003
f 16/1/1 11/2/1 13/3/1 80/4/1
f 12/3/1 81/4/1 10/1/1 9/2/1
f 82/4/1 17/1/1 15/2/1 14/3/1
f 18/2/1 22/3/1 83/4/1 19/1/1
f 28/1/1 27/2/1 23/3/1 84/4/1
f 27/3/1 85/4/1 24/1/1 23/2/1
f 86/4/1 29/1/1 26/2/1 25/3/1
f 30/2/1 87/3/1 88/4/1 31/1/1
f 35/1/1 34/2/1 30/3/1 29/4/1
f 34/3/1 89/4/1 87/1/1 30/2/1
f 90/4/1 91/1/1 33/2/1 32/3/1
f 91/2/1 92/3/1 93/4/1 33/1/1
f 94/4/1 39/1/1 92/2/1 91/3/1
f 39/2/1 38/3/1 95/4/1 92/1/1
f 96/4/1 97/1/1 98/2/1 99/3/1
f 97/2/1 100/3/1 101/4/1 98/1/1
f 43/1/1 42/2/1 102/3/1 103/4/1
f 42/3/1 104/4/1 105/1/1 102/2/1
f 49/1/1 44/2/1 46/3/1 106/4/1
f 45/3/1 107/4/1 41/1/1 40/2/1
f 108/1/1 50/2/1 52/3/1 109/4/1
f 51/3/1 110/4/1 48/1/1 47/2/1
f 59/1/1 53/2/1 56/3/1 111/4/1
f 54/3/1 112/4/1 113/1/1 55/2/1
f 114/1/1 62/2/1 64/3/1 115/4/1
f 63/3/1 116/4/1 61/1/1 60/2/1
f 117/4/1 65/1/1 62/2/1 114/3/1
f 66/2/1 69/3/1 116/4/1 63/1/1

g mesh_0004
f 118/4/1 119/1/1 120/2/1 121/3/1
f 119/2/1 122/3/1 123/4/1 120/1/1
f 124/3/1 125/4/1 37/1/1 36/2/1
f 99/1/1 98/2/1 126/3/1 127/4/1
f 128/3/1 129/4/1 100/1/1 97/2/1
f 102/1/1 105/2/1 130/3/1 131/4/1
f 132/3/1 133/4/1 50/1/1 108/2/1
f 55/1/1 113/2/1 134/3/1 135/4/1

g mesh_0005
f 136/5/1 78/6/1 76/7/1 137/8/1
f 79/9/1 138/10/1 139/11/1 77/12/1
f 140/13/1 141/14/1 78/15/1 136/16/1
f 141/17/1 142/18/1 79/19/1 78/20/1
f 142/21/1 143/22/1 138/23/1 79/24/1
f 144/25/1 145/26/1 141/27/1 140/28/1
f 145/29/1 146/30/1 142/31/1 141/32/1
f 146/33/1 147/34/1 143/35/1 142/36/1

g mesh_tile_0013
f 148/1/1 149/2/1 150/3/1 151/4/1

