# Wavefront OBJ file automatically generated by Tiled2Unity

# Vertices (Count = 120)
v -40 -15 0
v -42.5 -15 0
v -42.5 -12.5 0
v -40 -12.5 0
v -40 -17.5 0
v -42.5 -17.5 0
v -45 -22.5 0
v -47.5 -22.5 0
v -47.5 -20 0
v -45 -20 0
v -55 -30 0
v -57.5 -30 0
v -57.5 -27.5 0
v -55 -27.5 0
v -60 -50 0
v -62.5 -50 0
v -62.5 -47.5 0
v -60 -47.5 0
v -65 -62.5 0
v -67.5 -62.5 0
v -67.5 -60 0
v -65 -60 0
v -75 -70 0
v -77.5 -70 0
v -77.5 -67.5 0
v -75 -67.5 0
v -45 -17.5 0
v -45 -15 0
v -47.5 -17.5 0
v -50 -22.5 0
v -50 -20 0
v -52.5 -22.5 0
v -52.5 -20 0
v -55 -22.5 0
v -55 -20 0
v -60 -30 0
v -60 -27.5 0
v -60 -32.5 0
v -62.5 -32.5 0
v -62.5 -30 0
v -60 -42.5 0
v -62.5 -42.5 0
v -62.5 -40 0
v -60 -40 0
v -60 -45 0
v -62.5 -45 0
v -65 -50 0
v -65 -47.5 0
v -65 -52.5 0
v -67.5 -52.5 0
v -67.5 -50 0
v -65 -55 0
v -67.5 -55 0
v -65 -57.5 0
v -67.5 -57.5 0
v -70 -62.5 0
v -70 -60 0
v -72.5 -62.5 0
v -72.5 -60 0
v -75 -62.5 0
v -75 -60 0
v -75 -65 0
v -77.5 -65 0
v -77.5 -62.5 0
v -80 -70 0
v -80 -67.5 0
v -82.5 -70 0
v -82.5 -67.5 0
v -82.5 -72.5 0
v -85 -72.5 0
v -85 -70 0
v -82.5 -75 0
v -85 -75 0
v -82.5 -77.5 0
v -85 -77.5 0
v -72.5 -80 0
v -75 -80 0
v -75 -77.5 0
v -72.5 -77.5 0
v -77.5 -80 0
v -77.5 -77.5 0
v -80 -80 0
v -80 -77.5 0
v -82.5 -80 0
v -70 -82.5 0
v -72.5 -82.5 0
v -70 -80 0
v -70 -85 0
v -72.5 -85 0
v -70 -87.5 0
v -72.5 -87.5 0
v -70 -90 0
v -72.5 -90 0
v -70 -92.5 0
v -72.5 -92.5 0
v -70 -95 0
v -72.5 -95 0
v -47.5 -15 0
v -62.5 -27.5 0
v -67.5 -47.5 0
v -77.5 -60 0
v -85 -67.5 0
v -57.5 -22.5 0
v -57.5 -20 0
v -57.5 -25 0
v -55 -25 0
v -62.5 -37.5 0
v -60 -37.5 0
v -60 -35 0
v -62.5 -35 0
v -70 -77.5 0
v -85 -80 0
v -67.5 -100 0
v -75.18 -100 0
v -75.18 -92.32 0
v -67.5 -92.32 0
v 0 -2.5 0
v -2.5 -2.5 0
v -2.5 0 0
v 0 0 0

# Texture cooridinates (Count = 8)
vt 0.0001220703 0.0001220703
vt 0.9998779 0.0001220703
vt 0.9998779 0.9998779
vt 0.0001220703 0.9998779
vt 0.0001219116 0.0001220703
vt 0.9985777 0.0001220703
vt 0.9985777 0.9998779
vt 0.0001219116 0.9998779

# Normal
vn 0 0 -1

# Groups (Count = 2)

g mesh_0001
f 1/1/1 2/2/1 3/3/1 4/4/1

g mesh_0002
f 5/1/1 6/2/1 2/3/1 1/4/1
f 7/1/1 8/2/1 9/3/1 10/4/1
f 11/1/1 12/2/1 13/3/1 14/4/1
f 15/1/1 16/2/1 17/3/1 18/4/1
f 19/1/1 20/2/1 21/3/1 22/4/1
f 23/1/1 24/2/1 25/3/1 26/4/1

g mesh_0003
f 6/1/1 27/2/1 28/3/1 2/4/1
f 10/1/1 9/2/1 29/3/1 27/4/1
f 8/1/1 30/2/1 31/3/1 9/4/1
f 30/1/1 32/2/1 33/3/1 31/4/1
f 32/1/1 34/2/1 35/3/1 33/4/1
f 12/1/1 36/2/1 37/3/1 13/4/1
f 38/1/1 39/2/1 40/3/1 36/4/1
f 41/1/1 42/2/1 43/3/1 44/4/1
f 45/1/1 46/2/1 42/3/1 41/4/1
f 18/1/1 17/2/1 46/3/1 45/4/1
f 16/1/1 47/2/1 48/3/1 17/4/1
f 49/1/1 50/2/1 51/3/1 47/4/1
f 52/1/1 53/2/1 50/3/1 49/4/1
f 54/1/1 55/2/1 53/3/1 52/4/1
f 22/1/1 21/2/1 55/3/1 54/4/1
f 20/1/1 56/2/1 57/3/1 21/4/1
f 56/1/1 58/2/1 59/3/1 57/4/1
f 58/1/1 60/2/1 61/3/1 59/4/1
f 62/1/1 63/2/1 64/3/1 60/4/1
f 26/1/1 25/2/1 63/3/1 62/4/1
f 24/1/1 65/2/1 66/3/1 25/4/1
f 65/1/1 67/2/1 68/3/1 66/4/1
f 69/1/1 70/2/1 71/3/1 67/4/1
f 72/1/1 73/2/1 70/3/1 69/4/1
f 74/1/1 75/2/1 73/3/1 72/4/1
f 76/1/1 77/2/1 78/3/1 79/4/1
f 77/1/1 80/2/1 81/3/1 78/4/1
f 80/1/1 82/2/1 83/3/1 81/4/1
f 82/1/1 84/2/1 74/3/1 83/4/1
f 85/1/1 86/2/1 76/3/1 87/4/1
f 88/1/1 89/2/1 86/3/1 85/4/1
f 90/1/1 91/2/1 89/3/1 88/4/1
f 92/1/1 93/2/1 91/3/1 90/4/1
f 94/1/1 95/2/1 93/3/1 92/4/1
f 96/1/1 97/2/1 95/3/1 94/4/1

g mesh_0004
f 27/1/1 29/2/1 98/3/1 28/4/1
f 36/1/1 40/2/1 99/3/1 37/4/1
f 47/1/1 51/2/1 100/3/1 48/4/1
f 60/1/1 64/2/1 101/3/1 61/4/1
f 67/1/1 71/2/1 102/3/1 68/4/1

g mesh_0005
f 34/1/1 103/2/1 104/3/1 35/4/1

g mesh_0006
f 14/1/1 13/2/1 105/3/1 106/4/1
f 44/1/1 43/2/1 107/3/1 108/4/1

g mesh_0007
f 109/1/1 110/2/1 39/3/1 38/4/1

g mesh_0008
f 87/1/1 76/2/1 79/3/1 111/4/1

g mesh_0009
f 84/1/1 112/2/1 75/3/1 74/4/1

g mesh_0010
f 113/5/1 114/6/1 115/7/1 116/8/1

g mesh_tile_0002
f 117/1/1 118/2/1 119/3/1 120/4/1

