# Wavefront OBJ file automatically generated by Tiled2Unity

# Vertices (Count = 120)
v -52.5 -20 0
v -55 -20 0
v -55 -17.5 0
v -52.5 -17.5 0
v -47.5 -22.5 0
v -50 -22.5 0
v -50 -20 0
v -47.5 -20 0
v -30 -30 0
v -32.5 -30 0
v -32.5 -27.5 0
v -30 -27.5 0
v -27.5 -40 0
v -30 -40 0
v -30 -37.5 0
v -27.5 -37.5 0
v -17.5 -55 0
v -20 -55 0
v -20 -52.5 0
v -17.5 -52.5 0
v -20 -65 0
v -22.5 -65 0
v -22.5 -62.5 0
v -20 -62.5 0
v -17.5 -75 0
v -20 -75 0
v -20 -72.5 0
v -17.5 -72.5 0
v -12.5 -80 0
v -15 -80 0
v -15 -77.5 0
v -12.5 -77.5 0
v -52.5 -22.5 0
v -47.5 -25 0
v -50 -25 0
v -47.5 -27.5 0
v -50 -27.5 0
v -35 -30 0
v -35 -27.5 0
v -37.5 -30 0
v -37.5 -27.5 0
v -40 -30 0
v -40 -27.5 0
v -42.5 -30 0
v -42.5 -27.5 0
v -45 -30 0
v -45 -27.5 0
v -47.5 -30 0
v -30 -32.5 0
v -32.5 -32.5 0
v -32.5 -35 0
v -35 -35 0
v -35 -32.5 0
v -35 -37.5 0
v -37.5 -37.5 0
v -37.5 -35 0
v -32.5 -40 0
v -32.5 -37.5 0
v -35 -40 0
v -27.5 -42.5 0
v -30 -42.5 0
v -27.5 -45 0
v -30 -45 0
v -27.5 -47.5 0
v -30 -47.5 0
v -27.5 -50 0
v -30 -50 0
v -27.5 -52.5 0
v -30 -52.5 0
v -22.5 -55 0
v -22.5 -52.5 0
v -25 -55 0
v -25 -52.5 0
v -27.5 -55 0
v -17.5 -57.5 0
v -20 -57.5 0
v -20 -60 0
v -22.5 -60 0
v -22.5 -57.5 0
v -25 -62.5 0
v -25 -60 0
v -20 -67.5 0
v -22.5 -67.5 0
v -20 -70 0
v -22.5 -70 0
v -22.5 -72.5 0
v -17.5 -77.5 0
v -20 -77.5 0
v -17.5 -80 0
v -12.5 -82.5 0
v -15 -82.5 0
v -12.5 -85 0
v -15 -85 0
v -12.5 -87.5 0
v -15 -87.5 0
v -12.5 -90 0
v -15 -90 0
v -12.5 -92.5 0
v -15 -92.5 0
v -12.5 -95 0
v -15 -95 0
v -55 -22.5 0
v -50 -30 0
v -37.5 -40 0
v -30 -55 0
v -25 -65 0
v -22.5 -75 0
v -20 -80 0
v -30 -35 0
v -17.5 -60 0
v -37.5 -32.5 0
v -25 -57.5 0
v -10 -100 0
v -17.68 -100 0
v -17.68 -92.32 0
v -10 -92.32 0
v 0 -2.5 0
v -2.5 -2.5 0
v -2.5 0 0
v 0 0 0

# Texture cooridinates (Count = 8)
vt 0.0001220703 0.0001220703
vt 0.9998779 0.0001220703
vt 0.9998779 0.9998779
vt 0.0001220703 0.9998779
vt 0.0001219116 0.0001220703
vt 0.9985777 0.0001220703
vt 0.9985777 0.9998779
vt 0.0001219116 0.9998779

# Normal
vn 0 0 -1

# Groups (Count = 2)

g mesh_0001
f 1/1/1 2/2/1 3/3/1 4/4/1

g mesh_0002
f 5/1/1 6/2/1 7/3/1 8/4/1
f 9/1/1 10/2/1 11/3/1 12/4/1
f 13/1/1 14/2/1 15/3/1 16/4/1
f 17/1/1 18/2/1 19/3/1 20/4/1
f 21/1/1 22/2/1 23/3/1 24/4/1
f 25/1/1 26/2/1 27/3/1 28/4/1
f 29/1/1 30/2/1 31/3/1 32/4/1

g mesh_0003
f 6/1/1 33/2/1 1/3/1 7/4/1
f 34/1/1 35/2/1 6/3/1 5/4/1
f 36/1/1 37/2/1 35/3/1 34/4/1
f 10/1/1 38/2/1 39/3/1 11/4/1
f 38/1/1 40/2/1 41/3/1 39/4/1
f 40/1/1 42/2/1 43/3/1 41/4/1
f 42/1/1 44/2/1 45/3/1 43/4/1
f 44/1/1 46/2/1 47/3/1 45/4/1
f 46/1/1 48/2/1 36/3/1 47/4/1
f 49/1/1 50/2/1 10/3/1 9/4/1
f 51/1/1 52/2/1 53/3/1 50/4/1
f 54/1/1 55/2/1 56/3/1 52/4/1
f 14/1/1 57/2/1 58/3/1 15/4/1
f 57/1/1 59/2/1 54/3/1 58/4/1
f 60/1/1 61/2/1 14/3/1 13/4/1
f 62/1/1 63/2/1 61/3/1 60/4/1
f 64/1/1 65/2/1 63/3/1 62/4/1
f 66/1/1 67/2/1 65/3/1 64/4/1
f 68/1/1 69/2/1 67/3/1 66/4/1
f 18/1/1 70/2/1 71/3/1 19/4/1
f 70/1/1 72/2/1 73/3/1 71/4/1
f 72/1/1 74/2/1 68/3/1 73/4/1
f 75/1/1 76/2/1 18/3/1 17/4/1
f 77/1/1 78/2/1 79/3/1 76/4/1
f 23/1/1 80/2/1 81/3/1 78/4/1
f 82/2/1 83/3/1 22/4/1 21/1/1
f 84/2/1 85/3/1 83/4/1 82/1/1
f 27/2/1 86/3/1 85/4/1 84/1/1
f 87/1/1 88/2/1 26/3/1 25/4/1
f 30/1/1 89/2/1 87/3/1 31/4/1
f 90/1/1 91/2/1 30/3/1 29/4/1
f 92/1/1 93/2/1 91/3/1 90/4/1
f 94/1/1 95/2/1 93/3/1 92/4/1
f 96/1/1 97/2/1 95/3/1 94/4/1
f 98/1/1 99/2/1 97/3/1 96/4/1
f 100/1/1 101/2/1 99/3/1 98/4/1

g mesh_0004
f 33/1/1 102/2/1 2/3/1 1/4/1
f 48/1/1 103/2/1 37/3/1 36/4/1
f 59/1/1 104/2/1 55/3/1 54/4/1
f 74/1/1 105/2/1 69/3/1 68/4/1
f 22/1/1 106/2/1 80/3/1 23/4/1
f 26/1/1 107/2/1 86/3/1 27/4/1
f 89/1/1 108/2/1 88/3/1 87/4/1

g mesh_0005
f 109/1/1 51/2/1 50/3/1 49/4/1
f 110/1/1 77/2/1 76/3/1 75/4/1

g mesh_0006
f 52/1/1 56/2/1 111/3/1 53/4/1
f 78/1/1 81/2/1 112/3/1 79/4/1

g mesh_0007
f 113/5/1 114/6/1 115/7/1 116/8/1

g mesh_tile_0012
f 117/1/1 118/2/1 119/3/1 120/4/1

