# Wavefront OBJ file automatically generated by Tiled2Unity

# Vertices (Count = 112)
v -42.5 -17.5 0
v -45 -17.5 0
v -45 -15 0
v -42.5 -15 0
v -42.5 -20 0
v -45 -20 0
v -25 -35 0
v -27.5 -35 0
v -27.5 -32.5 0
v -25 -32.5 0
v -5 -50 0
v -7.5 -50 0
v -7.5 -47.5 0
v -5 -47.5 0
v -7.5 -52.5 0
v -10 -52.5 0
v -10 -50 0
v -12.5 -52.5 0
v -12.5 -50 0
v -15 -52.5 0
v -15 -50 0
v -17.5 -52.5 0
v -17.5 -50 0
v -17.5 -67.5 0
v -20 -67.5 0
v -20 -65 0
v -17.5 -65 0
v -17.5 -77.5 0
v -20 -77.5 0
v -20 -75 0
v -17.5 -75 0
v -17.5 -80 0
v -20 -80 0
v -17.5 -82.5 0
v -20 -82.5 0
v -17.5 -85 0
v -20 -85 0
v -17.5 -87.5 0
v -20 -87.5 0
v -22.5 -22.5 0
v -25 -22.5 0
v -25 -20 0
v -22.5 -20 0
v -15 -37.5 0
v -17.5 -37.5 0
v -17.5 -35 0
v -15 -35 0
v -5 -40 0
v -7.5 -40 0
v -7.5 -37.5 0
v -5 -37.5 0
v -27.5 -22.5 0
v -27.5 -20 0
v -32.5 -22.5 0
v -35 -22.5 0
v -35 -20 0
v -32.5 -20 0
v -20 -37.5 0
v -20 -35 0
v -10 -40 0
v -10 -37.5 0
v -30 -22.5 0
v -30 -20 0
v -22.5 -37.5 0
v -25 -37.5 0
v -22.5 -35 0
v -12.5 -40 0
v -15 -40 0
v -12.5 -37.5 0
v -37.5 -22.5 0
v -40 -22.5 0
v -40 -20 0
v -37.5 -20 0
v -17.5 -60 0
v -20 -60 0
v -20 -57.5 0
v -17.5 -57.5 0
v -42.5 -22.5 0
v -45 -22.5 0
v -22.5 -25 0
v -25 -25 0
v -5 -42.5 0
v -7.5 -42.5 0
v -17.5 -55 0
v -20 -55 0
v -20 -52.5 0
v -17.5 -70 0
v -20 -70 0
v -22.5 -30 0
v -25 -30 0
v -25 -27.5 0
v -22.5 -27.5 0
v -7.5 -45 0
v -5 -45 0
v -20 -62.5 0
v -17.5 -62.5 0
v -20 -72.5 0
v -17.5 -72.5 0
v -22.5 -32.5 0
v -5 -52.5 0
v -27.5 -30 0
v -20 -50 0
v -27.5 -37.5 0
v -17.5 -40 0
v -15 -92.5 0
v -22.68 -92.5 0
v -22.68 -84.82 0
v -15 -84.82 0
v 0 -2.5 0
v -2.5 -2.5 0
v -2.5 0 0
v 0 0 0

# Texture cooridinates (Count = 8)
vt 0.0001220703 0.0001220703
vt 0.9998779 0.0001220703
vt 0.9998779 0.9998779
vt 0.0001220703 0.9998779
vt 0.0001219116 0.0001220703
vt 0.9985777 0.0001220703
vt 0.9985777 0.9998779
vt 0.0001219116 0.9998779

# Normal
vn 0 0 -1

# Groups (Count = 3)

g mesh_0001
f 1/1/1 2/2/1 3/3/1 4/4/1

g mesh_0002
f 5/1/1 6/2/1 2/3/1 1/4/1
f 7/1/1 8/2/1 9/3/1 10/4/1
f 11/1/1 12/2/1 13/3/1 14/4/1
f 15/1/1 16/2/1 17/3/1 12/4/1
f 16/1/1 18/2/1 19/3/1 17/4/1
f 18/1/1 20/2/1 21/3/1 19/4/1
f 20/1/1 22/2/1 23/3/1 21/4/1
f 24/1/1 25/2/1 26/3/1 27/4/1
f 28/1/1 29/2/1 30/3/1 31/4/1
f 32/1/1 33/2/1 29/3/1 28/4/1
f 34/1/1 35/2/1 33/3/1 32/4/1
f 36/1/1 37/2/1 35/3/1 34/4/1
f 38/1/1 39/2/1 37/3/1 36/4/1

g mesh_0003
f 40/1/1 41/2/1 42/3/1 43/4/1
f 44/1/1 45/2/1 46/3/1 47/4/1
f 48/1/1 49/2/1 50/3/1 51/4/1

g mesh_0004
f 41/1/1 52/2/1 53/3/1 42/4/1
f 54/1/1 55/2/1 56/3/1 57/4/1
f 45/1/1 58/2/1 59/3/1 46/4/1
f 49/1/1 60/2/1 61/3/1 50/4/1

g mesh_0005
f 62/1/1 54/2/1 57/3/1 63/4/1
f 64/1/1 65/2/1 7/3/1 66/4/1
f 67/1/1 68/2/1 44/3/1 69/4/1

g mesh_0006
f 70/1/1 71/2/1 72/3/1 73/4/1
f 74/1/1 75/2/1 76/3/1 77/4/1

g mesh_0007
f 78/1/1 79/2/1 6/3/1 5/4/1
f 80/1/1 81/2/1 41/3/1 40/4/1
f 82/1/1 83/2/1 49/3/1 48/4/1
f 84/1/1 85/2/1 86/3/1 22/4/1
f 87/1/1 88/2/1 25/3/1 24/4/1

g mesh_0008
f 89/1/1 90/2/1 91/3/1 92/4/1
f 14/1/1 13/2/1 93/3/1 94/4/1
f 27/1/1 26/2/1 95/3/1 96/4/1
f 31/1/1 30/2/1 97/3/1 98/4/1

g mesh_0009
f 99/1/1 10/2/1 90/3/1 89/4/1
f 100/1/1 15/2/1 12/3/1 11/4/1

g mesh_0010
f 10/1/1 9/2/1 101/3/1 90/4/1
f 22/1/1 86/2/1 102/3/1 23/4/1

g mesh_0011
f 65/1/1 103/2/1 8/3/1 7/4/1
f 68/1/1 104/2/1 45/3/1 44/4/1

g mesh_0012
f 105/5/1 106/6/1 107/7/1 108/8/1

g mesh_tile_0011
f 109/1/1 110/2/1 111/3/1 112/4/1

g mesh_tile_0016
f 109/1/1 110/2/1 111/3/1 112/4/1

