# Wavefront OBJ file automatically generated by Tiled2Unity

# Vertices (Count = 176)
v -47.5 -17.5 0
v -50 -17.5 0
v -50 -15 0
v -47.5 -15 0
v -47.5 -20 0
v -50 -20 0
v -45 -27.5 0
v -47.5 -27.5 0
v -47.5 -25 0
v -45 -25 0
v -50 -27.5 0
v -50 -25 0
v -50 -30 0
v -52.5 -30 0
v -52.5 -27.5 0
v -50 -32.5 0
v -52.5 -32.5 0
v -52.5 -35 0
v -55 -35 0
v -55 -32.5 0
v -57.5 -35 0
v -57.5 -32.5 0
v -57.5 -37.5 0
v -60 -37.5 0
v -60 -35 0
v -60 -40 0
v -62.5 -40 0
v -62.5 -37.5 0
v -62.5 -42.5 0
v -65 -42.5 0
v -65 -40 0
v -65 -45 0
v -67.5 -45 0
v -67.5 -42.5 0
v -67.5 -47.5 0
v -70 -47.5 0
v -70 -45 0
v -65 -50 0
v -67.5 -50 0
v -65 -47.5 0
v -60 -52.5 0
v -62.5 -52.5 0
v -62.5 -50 0
v -60 -50 0
v -57.5 -62.5 0
v -60 -62.5 0
v -60 -60 0
v -57.5 -60 0
v -60 -65 0
v -62.5 -65 0
v -62.5 -62.5 0
v -57.5 -67.5 0
v -60 -67.5 0
v -57.5 -65 0
v -42.5 -72.5 0
v -45 -72.5 0
v -45 -70 0
v -42.5 -70 0
v -40 -75 0
v -42.5 -75 0
v -40 -72.5 0
v -42.5 -77.5 0
v -45 -77.5 0
v -45 -75 0
v -45 -80 0
v -47.5 -80 0
v -47.5 -77.5 0
v -42.5 -82.5 0
v -45 -82.5 0
v -42.5 -80 0
v -40 -92.5 0
v -42.5 -92.5 0
v -42.5 -90 0
v -40 -90 0
v -37.5 -95 0
v -40 -95 0
v -37.5 -92.5 0
v -35 -97.5 0
v -37.5 -97.5 0
v -35 -95 0
v -32.5 -100 0
v -35 -100 0
v -32.5 -97.5 0
v -30 -102.5 0
v -32.5 -102.5 0
v -30 -100 0
v -25 -105 0
v -27.5 -105 0
v -27.5 -102.5 0
v -25 -102.5 0
v -30 -105 0
v -22.5 -107.5 0
v -25 -107.5 0
v -22.5 -105 0
v -22.5 -110 0
v -25 -110 0
v -22.5 -112.5 0
v -25 -112.5 0
v -22.5 -115 0
v -25 -115 0
v -22.5 -117.5 0
v -25 -117.5 0
v -22.5 -120 0
v -25 -120 0
v -45 -22.5 0
v -47.5 -22.5 0
v -45 -20 0
v -50 -22.5 0
v -42.5 -25 0
v -42.5 -22.5 0
v -42.5 -27.5 0
v -52.5 -25 0
v -50 -35 0
v -60 -32.5 0
v -57.5 -40 0
v -65 -37.5 0
v -62.5 -45 0
v -70 -42.5 0
v -62.5 -47.5 0
v -70 -50 0
v -65 -52.5 0
v -55 -60 0
v -57.5 -57.5 0
v -55 -57.5 0
v -60 -57.5 0
v -55 -62.5 0
v -62.5 -60 0
v -55 -67.5 0
v -55 -65 0
v -62.5 -67.5 0
v -47.5 -70 0
v -47.5 -67.5 0
v -45 -67.5 0
v -55 -70 0
v -57.5 -70 0
v -40 -70 0
v -47.5 -72.5 0
v -40 -77.5 0
v -47.5 -75 0
v -40 -82.5 0
v -40 -80 0
v -47.5 -82.5 0
v -35 -92.5 0
v -42.5 -95 0
v -30 -97.5 0
v -37.5 -100 0
v -22.5 -102.5 0
v -32.5 -105 0
v -57.5 -52.5 0
v -57.5 -50 0
v -60 -55 0
v -57.5 -55 0
v -50 -70 0
v -50 -67.5 0
v -52.5 -70 0
v -52.5 -67.5 0
v -40 -85 0
v -42.5 -85 0
v -42.5 -87.5 0
v -40 -87.5 0
v -20 -120 0
v -20 -117.5 0
v -27.5 -120 0
v -27.5 -117.5 0
v -20 -122.5 0
v -22.5 -122.5 0
v -25 -122.5 0
v -27.5 -122.5 0
v -20 -125 0
v -22.5 -125 0
v -25 -125 0
v -27.5 -125 0
v 0 -2.5 0
v -2.5 -2.5 0
v -2.5 0 0
v 0 0 0

# Texture cooridinates (Count = 36)
vt 0.0001220703 0.0001220703
vt 0.9998779 0.0001220703
vt 0.9998779 0.9998779
vt 0.0001220703 0.9998779
vt 4.069011E-05 0.6667074
vt 0.3332926 0.6667074
vt 0.3332926 0.9999593
vt 4.069011E-05 0.9999593
vt 0.6667073 0.6667074
vt 0.9999593 0.6667074
vt 0.9999593 0.9999593
vt 0.6667073 0.9999593
vt 4.069011E-05 0.333374
vt 0.3332926 0.333374
vt 0.3332926 0.666626
vt 4.069011E-05 0.666626
vt 0.333374 0.333374
vt 0.666626 0.333374
vt 0.666626 0.666626
vt 0.333374 0.666626
vt 0.6667073 0.333374
vt 0.9999593 0.333374
vt 0.9999593 0.666626
vt 0.6667073 0.666626
vt 4.069011E-05 4.070997E-05
vt 0.3332926 4.070997E-05
vt 0.3332926 0.3332927
vt 4.069011E-05 0.3332927
vt 0.333374 4.070997E-05
vt 0.666626 4.070997E-05
vt 0.666626 0.3332927
vt 0.333374 0.3332927
vt 0.6667073 4.070997E-05
vt 0.9999593 4.070997E-05
vt 0.9999593 0.3332927
vt 0.6667073 0.3332927

# Normal
vn 0 0 -1

# Groups (Count = 2)

g mesh_0001
f 1/1/1 2/2/1 3/3/1 4/4/1

g mesh_0002
f 5/1/1 6/2/1 2/3/1 1/4/1
f 7/1/1 8/2/1 9/3/1 10/4/1
f 8/1/1 11/2/1 12/3/1 9/4/1
f 13/1/1 14/2/1 15/3/1 11/4/1
f 16/1/1 17/2/1 14/3/1 13/4/1
f 18/1/1 19/2/1 20/3/1 17/4/1
f 19/1/1 21/2/1 22/3/1 20/4/1
f 23/1/1 24/2/1 25/3/1 21/4/1
f 26/1/1 27/2/1 28/3/1 24/4/1
f 29/1/1 30/2/1 31/3/1 27/4/1
f 32/1/1 33/2/1 34/3/1 30/4/1
f 35/1/1 36/2/1 37/3/1 33/4/1
f 38/1/1 39/2/1 35/3/1 40/4/1
f 41/1/1 42/2/1 43/3/1 44/4/1
f 45/1/1 46/2/1 47/3/1 48/4/1
f 49/1/1 50/2/1 51/3/1 46/4/1
f 52/1/1 53/2/1 49/3/1 54/4/1
f 55/1/1 56/2/1 57/3/1 58/4/1
f 59/1/1 60/2/1 55/3/1 61/4/1
f 62/1/1 63/2/1 64/3/1 60/4/1
f 65/1/1 66/2/1 67/3/1 63/4/1
f 68/1/1 69/2/1 65/3/1 70/4/1
f 71/1/1 72/2/1 73/3/1 74/4/1
f 75/1/1 76/2/1 71/3/1 77/4/1
f 78/1/1 79/2/1 75/3/1 80/4/1
f 81/1/1 82/2/1 78/3/1 83/4/1
f 84/1/1 85/2/1 81/3/1 86/4/1
f 87/1/1 88/2/1 89/3/1 90/4/1
f 88/1/1 91/2/1 84/3/1 89/4/1
f 92/1/1 93/2/1 87/3/1 94/4/1
f 95/1/1 96/2/1 93/3/1 92/4/1
f 97/1/1 98/2/1 96/3/1 95/4/1
f 99/1/1 100/2/1 98/3/1 97/4/1
f 101/1/1 102/2/1 100/3/1 99/4/1
f 103/1/1 104/2/1 102/3/1 101/4/1

g mesh_0003
f 105/1/1 106/2/1 5/3/1 107/4/1
f 106/3/1 108/4/1 6/1/1 5/2/1
f 109/1/1 10/2/1 105/3/1 110/4/1
f 10/3/1 9/4/1 106/1/1 105/2/1
f 111/4/1 7/1/1 10/2/1 109/3/1
f 11/2/1 15/3/1 112/4/1 12/1/1
f 113/4/1 18/1/1 17/2/1 16/3/1
f 21/2/1 25/3/1 114/4/1 22/1/1
f 115/4/1 26/1/1 24/2/1 23/3/1
f 27/2/1 31/3/1 116/4/1 28/1/1
f 117/4/1 32/1/1 30/2/1 29/3/1
f 33/2/1 37/3/1 118/4/1 34/1/1
f 43/1/1 38/2/1 40/3/1 119/4/1
f 39/3/1 120/4/1 36/1/1 35/2/1
f 42/3/1 121/4/1 38/1/1 43/2/1
f 122/1/1 48/2/1 123/3/1 124/4/1
f 48/3/1 47/4/1 125/1/1 123/2/1
f 126/4/1 45/1/1 48/2/1 122/3/1
f 46/2/1 51/3/1 127/4/1 47/1/1
f 128/1/1 52/2/1 54/3/1 129/4/1
f 53/3/1 130/4/1 50/1/1 49/2/1
f 57/1/1 131/2/1 132/3/1 133/4/1
f 134/3/1 135/4/1 52/1/1 128/2/1
f 61/1/1 55/2/1 58/3/1 136/4/1
f 56/3/1 137/4/1 131/1/1 57/2/1
f 138/4/1 62/1/1 60/2/1 59/3/1
f 63/2/1 67/3/1 139/4/1 64/1/1
f 140/1/1 68/2/1 70/3/1 141/4/1
f 69/3/1 142/4/1 66/1/1 65/2/1
f 80/1/1 75/2/1 77/3/1 143/4/1
f 76/3/1 144/4/1 72/1/1 71/2/1
f 86/1/1 81/2/1 83/3/1 145/4/1
f 82/3/1 146/4/1 79/1/1 78/2/1
f 94/1/1 87/2/1 90/3/1 147/4/1
f 91/3/1 148/4/1 85/1/1 84/2/1

g mesh_0004
f 149/4/1 41/1/1 44/2/1 150/3/1
f 123/1/1 125/2/1 151/3/1 152/4/1
f 131/2/1 153/3/1 154/4/1 132/1/1
f 155/4/1 134/1/1 128/2/1 156/3/1
f 157/3/1 158/4/1 68/1/1 140/2/1
f 74/1/1 73/2/1 159/3/1 160/4/1

g mesh_0005
f 161/5/1 103/6/1 101/7/1 162/8/1
f 104/9/1 163/10/1 164/11/1 102/12/1
f 165/13/1 166/14/1 103/15/1 161/16/1
f 166/17/1 167/18/1 104/19/1 103/20/1
f 167/21/1 168/22/1 163/23/1 104/24/1
f 169/25/1 170/26/1 166/27/1 165/28/1
f 170/29/1 171/30/1 167/31/1 166/32/1
f 171/33/1 172/34/1 168/35/1 167/36/1

g mesh_tile_0013
f 173/1/1 174/2/1 175/3/1 176/4/1

