# Wavefront OBJ file automatically generated by Tiled2Unity

# Vertices (Count = 97)
v -37.5 -2.5 0
v -40 -2.5 0
v -40 0 0
v -37.5 0 0
v -32.5 -5 0
v -35 -5 0
v -35 -2.5 0
v -32.5 -2.5 0
v -37.5 -5 0
v -30 -7.5 0
v -32.5 -7.5 0
v -30 -5 0
v -27.5 -17.5 0
v -30 -17.5 0
v -30 -15 0
v -27.5 -15 0
v -25 -20 0
v -27.5 -20 0
v -25 -17.5 0
v -22.5 -22.5 0
v -25 -22.5 0
v -22.5 -20 0
v -17.5 -27.5 0
v -20 -27.5 0
v -20 -25 0
v -17.5 -25 0
v -15 -30 0
v -17.5 -30 0
v -15 -27.5 0
v -15 -32.5 0
v -17.5 -32.5 0
v -17.5 -35 0
v -20 -35 0
v -20 -32.5 0
v -20 -37.5 0
v -22.5 -37.5 0
v -22.5 -35 0
v -22.5 -40 0
v -25 -40 0
v -25 -37.5 0
v -20 -42.5 0
v -22.5 -42.5 0
v -20 -40 0
v -25 -42.5 0
v -17.5 -45 0
v -20 -45 0
v -17.5 -42.5 0
v -17.5 -47.5 0
v -20 -47.5 0
v -17.5 -50 0
v -20 -50 0
v -20 -52.5 0
v -22.5 -52.5 0
v -22.5 -50 0
v -20 -62.5 0
v -22.5 -62.5 0
v -22.5 -60 0
v -20 -60 0
v -15 -65 0
v -17.5 -65 0
v -17.5 -62.5 0
v -15 -62.5 0
v -12.5 -67.5 0
v -15 -67.5 0
v -12.5 -65 0
v -12.5 -70 0
v -15 -70 0
v -15 -75 0
v -17.5 -75 0
v -17.5 -72.5 0
v -15 -72.5 0
v -12.5 -77.5 0
v -15 -77.5 0
v -12.5 -75 0
v -10 -80 0
v -12.5 -80 0
v -10 -77.5 0
v -10 -82.5 0
v -12.5 -82.5 0
v -10 -85 0
v -12.5 -85 0
v -10 -87.5 0
v -12.5 -87.5 0
v -10 -90 0
v -12.5 -90 0
v -10 -92.5 0
v -12.5 -92.5 0
v -10 -95 0
v -12.5 -95 0
v -7.5 -100 0
v -15.18 -100 0
v -15.18 -92.32 0
v -7.5 -92.32 0
v 0 -2.5 0
v -2.5 -2.5 0
v -2.5 0 0
v 0 0 0

# Texture cooridinates (Count = 8)
vt 0.0001220703 0.0001220703
vt 0.9998779 0.0001220703
vt 0.9998779 0.9998779
vt 0.0001220703 0.9998779
vt 0.0001219116 0.0001220703
vt 0.9985777 0.0001220703
vt 0.9985777 0.9998779
vt 0.0001219116 0.9998779

# Normal
vn 0 0 -1

# Groups (Count = 4)

g mesh_0001
f 1/1/1 2/2/1 3/3/1 4/4/1

g mesh_0002
f 5/1/1 6/2/1 7/3/1 8/4/1
f 6/1/1 9/2/1 1/3/1 7/4/1
f 10/1/1 11/2/1 5/3/1 12/4/1
f 13/1/1 14/2/1 15/3/1 16/4/1
f 17/1/1 18/2/1 13/3/1 19/4/1
f 20/1/1 21/2/1 17/3/1 22/4/1
f 23/1/1 24/2/1 25/3/1 26/4/1
f 27/1/1 28/2/1 23/3/1 29/4/1
f 30/1/1 31/2/1 28/3/1 27/4/1
f 32/1/1 33/2/1 34/3/1 31/4/1
f 35/1/1 36/2/1 37/3/1 33/4/1
f 38/1/1 39/2/1 40/3/1 36/4/1
f 41/1/1 42/2/1 38/3/1 43/4/1
f 42/1/1 44/2/1 39/3/1 38/4/1
f 45/1/1 46/2/1 41/3/1 47/4/1
f 48/1/1 49/2/1 46/3/1 45/4/1
f 50/1/1 51/2/1 49/3/1 48/4/1
f 52/1/1 53/2/1 54/3/1 51/4/1
f 55/2/1 56/3/1 57/4/1 58/1/1
f 59/1/1 60/2/1 61/3/1 62/4/1
f 63/1/1 64/2/1 59/3/1 65/4/1
f 66/1/1 67/2/1 64/3/1 63/4/1
f 68/1/1 69/2/1 70/3/1 71/4/1
f 72/1/1 73/2/1 68/3/1 74/4/1
f 75/1/1 76/2/1 72/3/1 77/4/1
f 78/1/1 79/2/1 76/3/1 75/4/1
f 80/1/1 81/2/1 79/3/1 78/4/1
f 82/1/1 83/2/1 81/3/1 80/4/1
f 84/1/1 85/2/1 83/3/1 82/4/1
f 86/1/1 87/2/1 85/3/1 84/4/1
f 88/1/1 89/2/1 87/3/1 86/4/1

g mesh_0003
f 90/5/1 91/6/1 92/7/1 93/8/1

g mesh_tile_0010
f 94/1/1 95/2/1 96/3/1 97/4/1

g mesh_tile_0001
f 94/1/1 95/2/1 96/3/1 97/4/1

g mesh_tile_0003
f 94/1/1 95/2/1 96/3/1 97/4/1

