# Wavefront OBJ file automatically generated by Tiled2Unity

# Vertices (Count = 144)
v -67.5 -45 0
v -70 -45 0
v -70 -42.5 0
v -67.5 -42.5 0
v -67.5 -47.5 0
v -70 -47.5 0
v -67.5 -50 0
v -70 -50 0
v -67.5 -60 0
v -70 -60 0
v -70 -57.5 0
v -67.5 -57.5 0
v -67.5 -62.5 0
v -70 -62.5 0
v -67.5 -65 0
v -70 -65 0
v -62.5 -67.5 0
v -65 -67.5 0
v -65 -65 0
v -62.5 -65 0
v -67.5 -67.5 0
v -42.5 -75 0
v -45 -75 0
v -45 -72.5 0
v -42.5 -72.5 0
v -52.5 -75 0
v -55 -75 0
v -55 -72.5 0
v -52.5 -72.5 0
v -40 -77.5 0
v -42.5 -77.5 0
v -40 -75 0
v -32.5 -82.5 0
v -35 -82.5 0
v -35 -80 0
v -32.5 -80 0
v -37.5 -82.5 0
v -37.5 -80 0
v -30 -85 0
v -32.5 -85 0
v -30 -82.5 0
v -30 -90 0
v -32.5 -90 0
v -32.5 -87.5 0
v -30 -87.5 0
v -32.5 -92.5 0
v -35 -92.5 0
v -35 -90 0
v -37.5 -92.5 0
v -40 -92.5 0
v -40 -90 0
v -37.5 -90 0
v -42.5 -92.5 0
v -42.5 -90 0
v -45 -95 0
v -47.5 -95 0
v -47.5 -92.5 0
v -45 -92.5 0
v -50 -95 0
v -50 -92.5 0
v -52.5 -95 0
v -52.5 -92.5 0
v -35 -105 0
v -37.5 -105 0
v -37.5 -102.5 0
v -35 -102.5 0
v -40 -105 0
v -40 -102.5 0
v -42.5 -105 0
v -42.5 -102.5 0
v -45 -105 0
v -45 -102.5 0
v -47.5 -105 0
v -50 -105 0
v -50 -102.5 0
v -47.5 -102.5 0
v -52.5 -105 0
v -52.5 -102.5 0
v -32.5 -107.5 0
v -35 -107.5 0
v -32.5 -105 0
v -32.5 -110 0
v -35 -110 0
v -32.5 -112.5 0
v -35 -112.5 0
v -32.5 -115 0
v -35 -115 0
v -32.5 -117.5 0
v -35 -117.5 0
v -32.5 -120 0
v -35 -120 0
v -67.5 -52.5 0
v -70 -52.5 0
v -70 -55 0
v -67.5 -55 0
v -47.5 -75 0
v -47.5 -72.5 0
v -50 -75 0
v -50 -72.5 0
v -52.5 -97.5 0
v -55 -97.5 0
v -55 -95 0
v -55 -102.5 0
v -55 -100 0
v -52.5 -100 0
v -60 -67.5 0
v -60 -65 0
v -70 -67.5 0
v -57.5 -70 0
v -60 -70 0
v -57.5 -67.5 0
v -62.5 -70 0
v -57.5 -72.5 0
v -55 -70 0
v -60 -72.5 0
v -40 -72.5 0
v -57.5 -75 0
v -40 -80 0
v -37.5 -77.5 0
v -42.5 -80 0
v -30 -80 0
v -40 -82.5 0
v -30 -92.5 0
v -45 -90 0
v -42.5 -95 0
v -55 -92.5 0
v -32.5 -102.5 0
v -55 -105 0
v -30 -120 0
v -30 -117.5 0
v -37.5 -120 0
v -37.5 -117.5 0
v -30 -122.5 0
v -32.5 -122.5 0
v -35 -122.5 0
v -37.5 -122.5 0
v -30 -125 0
v -32.5 -125 0
v -35 -125 0
v -37.5 -125 0
v 0 -2.5 0
v -2.5 -2.5 0
v -2.5 0 0
v 0 0 0

# Texture cooridinates (Count = 36)
vt 0.0001220703 0.0001220703
vt 0.9998779 0.0001220703
vt 0.9998779 0.9998779
vt 0.0001220703 0.9998779
vt 4.069011E-05 0.6667074
vt 0.3332926 0.6667074
vt 0.3332926 0.9999593
vt 4.069011E-05 0.9999593
vt 0.6667073 0.6667074
vt 0.9999593 0.6667074
vt 0.9999593 0.9999593
vt 0.6667073 0.9999593
vt 4.069011E-05 0.333374
vt 0.3332926 0.333374
vt 0.3332926 0.666626
vt 4.069011E-05 0.666626
vt 0.333374 0.333374
vt 0.666626 0.333374
vt 0.666626 0.666626
vt 0.333374 0.666626
vt 0.6667073 0.333374
vt 0.9999593 0.333374
vt 0.9999593 0.666626
vt 0.6667073 0.666626
vt 4.069011E-05 4.070997E-05
vt 0.3332926 4.070997E-05
vt 0.3332926 0.3332927
vt 4.069011E-05 0.3332927
vt 0.333374 4.070997E-05
vt 0.666626 4.070997E-05
vt 0.666626 0.3332927
vt 0.333374 0.3332927
vt 0.6667073 4.070997E-05
vt 0.9999593 4.070997E-05
vt 0.9999593 0.3332927
vt 0.6667073 0.3332927

# Normal
vn 0 0 -1

# Groups (Count = 3)

g mesh_0001
f 1/1/1 2/2/1 3/3/1 4/4/1

g mesh_0002
f 5/1/1 6/2/1 2/3/1 1/4/1
f 7/1/1 8/2/1 6/3/1 5/4/1
f 9/1/1 10/2/1 11/3/1 12/4/1
f 13/1/1 14/2/1 10/3/1 9/4/1
f 15/1/1 16/2/1 14/3/1 13/4/1
f 17/1/1 18/2/1 19/3/1 20/4/1
f 18/1/1 21/2/1 15/3/1 19/4/1
f 22/1/1 23/2/1 24/3/1 25/4/1
f 26/1/1 27/2/1 28/3/1 29/4/1
f 30/1/1 31/2/1 22/3/1 32/4/1
f 33/1/1 34/2/1 35/3/1 36/4/1
f 34/1/1 37/2/1 38/3/1 35/4/1
f 39/1/1 40/2/1 33/3/1 41/4/1
f 42/1/1 43/2/1 44/3/1 45/4/1
f 46/1/1 47/2/1 48/3/1 43/4/1
f 49/1/1 50/2/1 51/3/1 52/4/1
f 50/1/1 53/2/1 54/3/1 51/4/1
f 55/1/1 56/2/1 57/3/1 58/4/1
f 56/1/1 59/2/1 60/3/1 57/4/1
f 59/1/1 61/2/1 62/3/1 60/4/1
f 63/1/1 64/2/1 65/3/1 66/4/1
f 64/1/1 67/2/1 68/3/1 65/4/1
f 67/1/1 69/2/1 70/3/1 68/4/1
f 69/1/1 71/2/1 72/3/1 70/4/1
f 73/1/1 74/2/1 75/3/1 76/4/1
f 74/1/1 77/2/1 78/3/1 75/4/1
f 79/1/1 80/2/1 63/3/1 81/4/1
f 82/1/1 83/2/1 80/3/1 79/4/1
f 84/1/1 85/2/1 83/3/1 82/4/1
f 86/1/1 87/2/1 85/3/1 84/4/1
f 88/1/1 89/2/1 87/3/1 86/4/1
f 90/1/1 91/2/1 89/3/1 88/4/1

g mesh_0003
f 92/3/1 93/4/1 8/1/1 7/2/1
f 12/1/1 11/2/1 94/3/1 95/4/1
f 23/2/1 96/3/1 97/4/1 24/1/1
f 98/4/1 26/1/1 29/2/1 99/3/1
f 100/3/1 101/4/1 102/1/1 61/2/1
f 78/1/1 103/2/1 104/3/1 105/4/1

g mesh_0004
f 106/1/1 17/2/1 20/3/1 107/4/1
f 21/3/1 108/4/1 16/1/1 15/2/1
f 109/1/1 110/2/1 106/3/1 111/4/1
f 110/3/1 112/4/1 17/1/1 106/2/1
f 28/1/1 113/2/1 109/3/1 114/4/1
f 113/3/1 115/4/1 110/1/1 109/2/1
f 32/1/1 22/2/1 25/3/1 116/4/1
f 27/3/1 117/4/1 113/1/1 28/2/1
f 38/1/1 118/2/1 30/3/1 119/4/1
f 118/3/1 120/4/1 31/1/1 30/2/1
f 41/1/1 33/2/1 36/3/1 121/4/1
f 37/3/1 122/4/1 118/1/1 38/2/1
f 123/4/1 46/1/1 43/2/1 42/3/1
f 53/2/1 58/3/1 124/4/1 54/1/1
f 125/4/1 55/1/1 58/2/1 53/3/1
f 61/2/1 102/3/1 126/4/1 62/1/1
f 81/1/1 63/2/1 66/3/1 127/4/1
f 77/3/1 128/4/1 103/1/1 78/2/1

g mesh_0005
f 129/5/1 90/6/1 88/7/1 130/8/1
f 91/9/1 131/10/1 132/11/1 89/12/1
f 133/13/1 134/14/1 90/15/1 129/16/1
f 134/17/1 135/18/1 91/19/1 90/20/1
f 135/21/1 136/22/1 131/23/1 91/24/1
f 137/25/1 138/26/1 134/27/1 133/28/1
f 138/29/1 139/30/1 135/31/1 134/32/1
f 139/33/1 140/34/1 136/35/1 135/36/1

g mesh_tile_0012
f 141/1/1 142/2/1 143/3/1 144/4/1

g mesh_tile_0011
f 141/1/1 142/2/1 143/3/1 144/4/1

